<?xml version="1.0" encoding="utf-8"?>
<!-- Generator: Adobe Illustrator 15.0.0, SVG Export Plug-In  -->
<!DOCTYPE svg PUBLIC "-//W3C//DTD SVG 1.1//EN" "http://www.w3.org/Graphics/SVG/1.1/DTD/svg11.dtd" [
	<!ENTITY ns_flows "http://ns.adobe.com/Flows/1.0/">
]>
<svg version="1.1"
	 xmlns="http://www.w3.org/2000/svg" xmlns:xlink="http://www.w3.org/1999/xlink" xmlns:a="http://ns.adobe.com/AdobeSVGViewerExtensions/3.0/"
	 x="0px" y="0px" width="613px" height="613px" viewBox="-0.5 -0.5 613 613" enable-background="new -0.5 -0.5 613 613"
	 xml:space="preserve">
<defs>
</defs>
<path fill="#FFFFFF" d="M306,30.6c151.858,0,275.4,123.543,275.4,275.4S457.858,581.399,306,581.399
	C154.143,581.399,30.601,457.857,30.601,306S154.143,30.6,306,30.6 M306,0C137.017,0,0,137.006,0,306
	c0,168.993,137.017,305.999,306,305.999S612,474.993,612,306C612,137.006,474.983,0,306,0L306,0z"/>
<path fill="#FFFFFF" d="M485.521,192.76l-44.166-40.801c-6.191-5.742-15.882-5.354-21.614,0.857
	c-5.742,6.191-5.334,15.881,0.857,21.613l15.616,14.434c-77.856,1.632-141.566,17.696-156.428,130.427
	C267.985,408.846,227.99,423.3,136.854,423.3c-8.456,0-15.3,6.854-15.3,15.3s6.844,15.3,15.3,15.3
	c85.395,0,157.366-9.833,173.268-130.601c11.017-83.671,46.696-101.775,125.664-103.785l-15.198,14.046
	c-6.191,5.732-6.589,15.422-0.856,21.613c5.742,6.212,15.423,6.59,21.614,0.857l44.166-40.801c3.151-2.886,4.916-6.977,4.916-11.24
	S488.662,195.656,485.521,192.76z"/>
<path fill="#FFFFFF" d="M121.554,183.6c0-8.445,6.844-15.3,15.3-15.3c60.895,0,114.964,5.039,146.737,51.714
	c-6.549,8.986-12.373,19.288-17.391,31.019c-20.196-43.626-59.895-52.133-129.347-52.133
	C128.408,198.899,121.554,192.045,121.554,183.6z M441.354,366.159c-6.191-5.743-15.882-5.355-21.614,0.856
	c-5.742,6.191-5.334,15.892,0.857,21.614l15.198,14.045c-50.46-1.285-83.182-9.23-103.143-36.566
	c-3.356,11.964-7.416,22.715-12.036,32.385c28.947,27.733,69.778,33.864,115.597,34.833l-15.616,14.433
	c-6.191,5.743-6.59,15.423-0.857,21.614c5.743,6.212,15.423,6.589,21.614,0.856l44.166-40.8c3.151-2.887,4.916-6.977,4.916-11.24
	s-1.774-8.344-4.916-11.24L441.354,366.159z"/>
</svg>
