<?xml version="1.0" encoding="utf-8"?>
<!-- Generator: Adobe Illustrator 15.0.0, SVG Export Plug-In  -->
<!DOCTYPE svg PUBLIC "-//W3C//DTD SVG 1.1//EN" "http://www.w3.org/Graphics/SVG/1.1/DTD/svg11.dtd" [
	<!ENTITY ns_flows "http://ns.adobe.com/Flows/1.0/">
]>
<svg version="1.1"
	 xmlns="http://www.w3.org/2000/svg" xmlns:xlink="http://www.w3.org/1999/xlink" xmlns:a="http://ns.adobe.com/AdobeSVGViewerExtensions/3.0/"
	 x="0px" y="0px" width="411px" height="320px" viewBox="-0.114 -0.076 411 320" enable-background="new -0.114 -0.076 411 320"
	 xml:space="preserve">
<defs>
</defs>
<linearGradient id="SVGID_1_" gradientUnits="userSpaceOnUse" x1="225.5317" y1="-296.2817" x2="331.9541" y2="-296.2817" gradientTransform="matrix(0.788 0.6036 0.6074 -0.7931 138.0356 -286.6101)">
	<stop  offset="0" style="stop-color:#485FAB"/>
	<stop  offset="1" style="stop-color:#78AFDE"/>
</linearGradient>
<polygon fill="url(#SVGID_1_)" points="79.082,158.552 212.14,158.551 212.14,25.493 "/>
<linearGradient id="SVGID_2_" gradientUnits="userSpaceOnUse" x1="1040.1548" y1="-337.1353" x2="1145.8052" y2="-337.1353" gradientTransform="matrix(-0.6109 0.7823 0.7873 0.6149 1185.7139 -524.1237)">
	<stop  offset="0" style="stop-color:#485FAB"/>
	<stop  offset="1" style="stop-color:#78AFDE"/>
</linearGradient>
<polygon fill="url(#SVGID_2_)" points="212.14,25.493 212.14,158.551 342.367,158.551 "/>
<linearGradient id="SVGID_3_" gradientUnits="userSpaceOnUse" x1="266.3706" y1="508.0088" x2="372.7944" y2="508.0088" gradientTransform="matrix(0.6036 -0.788 -0.7931 -0.6074 380.2117 753.3623)">
	<stop  offset="0" style="stop-color:#485FAB"/>
	<stop  offset="1" style="stop-color:#78AFDE"/>
</linearGradient>
<polygon fill="url(#SVGID_3_)" points="212.141,291.609 212.141,158.551 79.082,158.552 "/>
<linearGradient id="SVGID_4_" gradientUnits="userSpaceOnUse" x1="1060.8335" y1="425.1045" x2="1164.9927" y2="425.1045" gradientTransform="matrix(-0.788 -0.6036 -0.6074 0.7931 1380.3247 535.0847)">
	<stop  offset="0" style="stop-color:#4860AB"/>
	<stop  offset="1" style="stop-color:#79AFDC"/>
</linearGradient>
<polygon fill="url(#SVGID_4_)" points="342.367,158.551 212.14,158.551 212.141,291.609 "/>
<path fill="#2C2C2C" d="M8.977,164.802h-3.22l-2.545-7.242H3.164v7.242H0v-14.637h4.113c0.82,0,1.639,0.164,2.455,0.492
	s1.398,0.84,1.746,1.535s0.521,1.418,0.521,2.168c0,0.906-0.195,1.65-0.585,2.232c-0.39,0.582-1.015,1.111-1.875,1.588
	L8.977,164.802z M3.164,156.739c1.026,0,1.675-0.201,1.947-0.604s0.408-0.912,0.408-1.529c0-1.398-0.571-2.098-1.714-2.098H3.164
	V156.739z"/>
<path fill="#2C2C2C" d="M18.422,164.802h-7.301v-14.637h6.844v2.824h-3.703v2.977h3.176v2.719h-3.176v3.234h4.16V164.802z"/>
<path fill="#2C2C2C" d="M30.797,164.802h-3.093l-0.488-2.285h-3.855l-0.531,2.285h-3.096l4.184-14.637h3.211L30.797,164.802z
	 M26.768,160.149l-1.29-6.402l-0.048-0.001l-1.488,6.403H26.768z"/>
<path fill="#2C2C2C" d="M39.492,164.802h-6.844v-14.637h3.141v11.754h3.703V164.802z"/>
<path fill="#2C2C2C" d="M41.684,150.165h3.164v14.637h-3.164V150.165z"/>
<path fill="#2C2C2C" d="M54.328,154.29c-0.836-0.977-1.637-1.465-2.402-1.465c-0.344,0-0.65,0.113-0.92,0.34
	s-0.404,0.48-0.404,0.762c0,0.508,0.426,1.109,1.277,1.805c0.891,0.711,1.523,1.271,1.898,1.682s0.676,0.893,0.902,1.447
	s0.34,1.16,0.34,1.816c0,1.289-0.412,2.348-1.236,3.176s-1.885,1.242-3.182,1.242c-1.063,0-2.102-0.379-3.117-1.137v-3.457
	c0.977,1.063,1.953,1.594,2.93,1.594c0.438,0,0.803-0.121,1.096-0.363s0.439-0.539,0.439-0.891c0-0.523-0.375-1.105-1.125-1.746
	c-1.195-1.031-1.979-1.799-2.35-2.303s-0.648-1.012-0.832-1.523s-0.275-1.029-0.275-1.553c0-1.125,0.395-2.055,1.184-2.789
	s1.793-1.102,3.012-1.102c0.922,0,1.844,0.266,2.766,0.797V154.29z"/>
<path fill="#2C2C2C" d="M70.617,164.802h-3.014l-0.713-11.977h-0.047l-2.226,11.977h-2.25l-2.128-12.047h-0.047l-0.808,12.047
	h-3.016l1.512-14.637h3.982l1.608,9.645h0.047l1.751-9.645h3.932L70.617,164.802z"/>
<path fill="#2C2C2C" d="M202.649,14.637h-7.301V0h6.844v2.824h-3.703v2.977h3.176V8.52h-3.176v3.234h4.16V14.637z"/>
<path fill="#2C2C2C" d="M212.974,2.836h-2.848v11.801h-3.164V2.859h-2.906V0h8.918V2.836z"/>
<path fill="#2C2C2C" d="M215.153,0h3.164v14.637h-3.164V0z"/>
<path fill="#2C2C2C" d="M230.938,14.637h-3.35l-2.932-7.395h-0.047v7.395h-3.199V0h3.199v6.691h0.047L227.462,0h3.242l-3.097,6.965
	L230.938,14.637z"/>
<path d="M360.571,150.493h3.189l-4.125,14.637h-3.023l-4.184-14.637h3.34l2.353,9.428L360.571,150.493z"/>
<path d="M365.846,150.493h3.164v14.637h-3.164V150.493z"/>
<path d="M378.491,154.618c-0.836-0.977-1.637-1.465-2.402-1.465c-0.344,0-0.65,0.113-0.92,0.34s-0.404,0.48-0.404,0.762
	c0,0.508,0.426,1.109,1.277,1.805c0.891,0.711,1.523,1.271,1.898,1.682s0.676,0.893,0.902,1.447s0.34,1.16,0.34,1.816
	c0,1.289-0.412,2.348-1.236,3.176s-1.885,1.242-3.182,1.242c-1.063,0-2.102-0.379-3.117-1.137v-3.457
	c0.977,1.063,1.953,1.594,2.93,1.594c0.438,0,0.803-0.121,1.096-0.363s0.439-0.539,0.439-0.891c0-0.523-0.375-1.105-1.125-1.746
	c-1.195-1.031-1.979-1.799-2.35-2.303s-0.648-1.012-0.832-1.523s-0.275-1.029-0.275-1.553c0-1.125,0.395-2.055,1.184-2.789
	s1.793-1.102,3.012-1.102c0.922,0,1.844,0.266,2.766,0.797V154.618z"/>
<path d="M381.584,150.493h3.164v14.637h-3.164V150.493z"/>
<path d="M387.456,157.735c0-2.055,0.223-3.563,0.668-4.523s1.037-1.707,1.775-2.238s1.67-0.797,2.795-0.797
	c0.93,0,1.68,0.154,2.25,0.463s1.1,0.758,1.588,1.348s0.846,1.32,1.072,2.191s0.34,2.025,0.34,3.463c0,2.945-0.49,4.979-1.471,6.1
	s-2.248,1.682-3.803,1.682c-1.586,0-2.852-0.58-3.797-1.74S387.456,160.54,387.456,157.735z M390.795,156.845v0.938
	c0,1.539,0.051,2.553,0.152,3.041s0.318,0.873,0.65,1.154s0.729,0.422,1.189,0.422c0.375,0,0.719-0.137,1.031-0.41
	s0.531-0.689,0.656-1.248s0.188-1.553,0.188-2.982c0-1.281-0.053-2.193-0.158-2.736s-0.318-0.982-0.639-1.318
	s-0.711-0.504-1.172-0.504c-0.672,0-1.156,0.291-1.453,0.873S390.795,155.579,390.795,156.845z"/>
<path d="M410.53,165.13h-3.34l-3.727-9.234h-0.047v9.234h-3.07v-14.66h3.457l3.668,9.094h0.059v-9.094h3V165.13z"/>
<path d="M207.667,318.865h-3.015l-0.713-11.977h-0.047l-2.226,11.977h-2.25l-2.128-12.047h-0.047l-0.808,12.047h-3.016l1.512-14.637
	h3.982l1.608,9.645h0.047l1.751-9.645h3.933L207.667,318.865z"/>
<path d="M209.343,311.471c0-2.055,0.223-3.563,0.668-4.523s1.037-1.707,1.775-2.238s1.67-0.797,2.795-0.797
	c0.93,0,1.68,0.154,2.25,0.463s1.1,0.758,1.588,1.348s0.846,1.32,1.072,2.191s0.34,2.025,0.34,3.463c0,2.945-0.49,4.979-1.471,6.1
	s-2.248,1.682-3.803,1.682c-1.586,0-2.852-0.58-3.797-1.74S209.343,314.275,209.343,311.471z M212.683,310.58v0.938
	c0,1.539,0.051,2.553,0.152,3.041s0.318,0.873,0.65,1.154s0.729,0.422,1.189,0.422c0.375,0,0.719-0.137,1.031-0.41
	s0.531-0.689,0.656-1.248s0.188-1.553,0.188-2.982c0-1.281-0.053-2.193-0.158-2.736s-0.318-0.982-0.639-1.318
	s-0.711-0.504-1.172-0.504c-0.672,0-1.156,0.291-1.453,0.873S212.683,309.314,212.683,310.58z"/>
<path d="M222.234,304.229h3.504c1.953,0,3.506,0.625,4.658,1.875s1.729,3.047,1.729,5.391c0,2.367-0.563,4.188-1.688,5.461
	s-2.73,1.91-4.816,1.91h-3.387V304.229z M225.433,306.865v9.34h0.375c0.633,0,1.291-0.258,1.975-0.773s1.025-1.746,1.025-3.691
	c0-1.438-0.127-2.461-0.381-3.07s-0.627-1.063-1.119-1.359s-1-0.445-1.523-0.445H225.433z"/>
<path fill="#FFFFFF" d="M173.788,153.79c-1.115-1.302-2.183-1.953-3.203-1.953c-0.458,0-0.867,0.151-1.227,0.453
	s-0.539,0.641-0.539,1.016c0,0.677,0.567,1.479,1.703,2.406c1.188,0.948,2.031,1.695,2.531,2.242s0.901,1.19,1.203,1.93
	c0.302,0.739,0.453,1.547,0.453,2.422c0,1.719-0.55,3.13-1.648,4.234c-1.099,1.104-2.513,1.656-4.242,1.656
	c-1.417,0-2.802-0.505-4.156-1.516v-4.609c1.302,1.417,2.604,2.125,3.906,2.125c0.583,0,1.07-0.161,1.461-0.484
	s0.586-0.719,0.586-1.188c0-0.698-0.5-1.474-1.5-2.328c-1.594-1.375-2.638-2.398-3.133-3.07c-0.495-0.672-0.865-1.349-1.109-2.031
	c-0.245-0.683-0.367-1.372-0.367-2.07c0-1.5,0.526-2.739,1.578-3.719c1.052-0.979,2.391-1.469,4.016-1.469
	c1.229,0,2.458,0.354,3.688,1.063V153.79z"/>
<path fill="#FFFFFF" d="M188.351,152.071h-3.797v15.734h-4.219v-15.703h-3.875v-3.813h11.891V152.071z"/>
<path fill="#FFFFFF" d="M189.866,157.946c0-2.739,0.297-4.75,0.891-6.031s1.383-2.276,2.367-2.984s2.227-1.063,3.727-1.063
	c1.239,0,2.239,0.206,3,0.617s1.466,1.011,2.117,1.797s1.128,1.761,1.43,2.922s0.453,2.7,0.453,4.617
	c0,3.927-0.653,6.638-1.961,8.133s-2.997,2.242-5.07,2.242c-2.114,0-3.802-0.773-5.063-2.32S189.866,161.686,189.866,157.946z
	 M194.319,156.759v1.25c0,2.052,0.067,3.403,0.203,4.055s0.425,1.164,0.867,1.539s0.972,0.563,1.586,0.563
	c0.5,0,0.958-0.183,1.375-0.547s0.708-0.919,0.875-1.664s0.25-2.07,0.25-3.977c0-1.708-0.07-2.925-0.211-3.648
	s-0.425-1.31-0.852-1.758s-0.948-0.672-1.563-0.672c-0.896,0-1.542,0.388-1.938,1.164S194.319,155.071,194.319,156.759z"/>
<path fill="#FFFFFF" d="M219.147,167.806h-4.294l-3.394-9.656h-0.063v9.656h-4.219V148.29h5.484c1.094,0,2.185,0.219,3.273,0.656
	s1.864,1.12,2.328,2.047s0.695,1.891,0.695,2.891c0,1.208-0.26,2.2-0.78,2.977c-0.52,0.776-1.353,1.481-2.5,2.117L219.147,167.806z
	 M211.397,157.056c1.368,0,2.233-0.269,2.597-0.805c0.362-0.536,0.544-1.216,0.544-2.039c0-1.864-0.762-2.797-2.285-2.797h-0.855
	V157.056z"/>
<path fill="#FFFFFF" d="M221.976,148.29h4.219v7.453h3.953v-7.453h4.219v19.516h-4.219v-8.25h-3.922v8.25h-4.25V148.29z"/>
<path fill="#FFFFFF" d="M247.741,167.806h-9.734V148.29h9.125v3.766h-4.938v3.969h4.234v3.625h-4.234v4.313h5.547V167.806z"/>
<path fill="#FFFFFF" d="M261.507,152.071h-3.797v15.734h-4.219v-15.703h-3.875v-3.813h11.891V152.071z"/>
<g>
	<line fill="#FFFFFF" x1="201.386" y1="252.61" x2="110.403" y2="161.627"/>
	<g>
		<g>
			<polygon fill="#FFFFFF" points="201.947,252.05 119.019,169.122 123.109,165.032 110.403,161.627 113.808,174.333 
				117.897,170.244 200.825,253.172 			"/>
		</g>
	</g>
</g>
<g>
	<line fill="#FFFFFF" x1="206.703" y1="59.175" x2="110.403" y2="155.475"/>
	<g>
		<g>
			<polygon fill="#FFFFFF" points="206.142,58.614 117.898,146.858 113.808,142.769 110.403,155.475 123.109,152.069 119.02,147.98 
				207.264,59.736 			"/>
		</g>
	</g>
</g>
<g>
	<line fill="#FFFFFF" x1="219.432" y1="60.665" x2="313.802" y2="155.035"/>
	<g>
		<g>
			<polygon fill="#FFFFFF" points="218.871,61.226 305.186,147.54 301.096,151.63 313.802,155.035 310.397,142.329 306.307,146.418 
				219.993,60.104 			"/>
		</g>
	</g>
</g>
<g>
	<line fill="#FFFFFF" x1="300.886" y1="174.98" x2="217.079" y2="258.787"/>
	<g>
		<g>
			<polygon fill="#FFFFFF" points="300.326,174.42 224.574,250.171 220.484,246.081 217.079,258.787 229.785,255.382 
				225.696,251.293 301.447,175.542 			"/>
		</g>
	</g>
</g>
<g>
	<line fill="#FFFFFF" x1="113.928" y1="164.802" x2="208.146" y2="259.355"/>
	<g>
		<g>
			<polygon fill="#FFFFFF" points="113.367,165.361 199.543,251.846 195.446,255.928 208.146,259.355 204.764,246.644 
				200.667,250.726 114.49,164.241 			"/>
		</g>
	</g>
</g>
<g>
	<line fill="#FFFFFF" x1="112.68" y1="153.196" x2="208.893" y2="56.984"/>
	<g>
		<g>
			<polygon fill="#FFFFFF" points="113.241,153.757 201.398,65.601 205.488,69.69 208.893,56.984 196.187,60.389 200.276,64.479 
				112.119,152.635 			"/>
		</g>
	</g>
</g>
<g>
	<line fill="#FFFFFF" x1="308.232" y1="149.828" x2="215.389" y2="56.984"/>
	<g>
		<g>
			<polygon fill="#FFFFFF" points="308.793,149.268 224.005,64.479 228.095,60.389 215.389,56.984 218.794,69.69 222.884,65.601 
				307.671,150.39 			"/>
		</g>
	</g>
</g>
<g>
	<line fill="#FFFFFF" x1="221.636" y1="254.398" x2="313.802" y2="162.232"/>
	<g>
		<g>
			<polygon fill="#FFFFFF" points="222.197,254.959 306.307,170.849 310.397,174.938 313.802,162.232 301.096,165.638 
				305.185,169.727 221.075,253.837 			"/>
		</g>
	</g>
</g>
<g>
	<line fill="#FFFFFF" x1="212.139" y1="141.561" x2="212.14" y2="71.287"/>
	<g>
		<g>
			<polygon fill="#FFFFFF" points="212.932,141.561 212.933,82.68 218.717,82.68 212.14,71.287 205.563,82.679 211.346,82.68 
				211.346,141.561 			"/>
		</g>
	</g>
</g>
<g>
	<line fill="#FFFFFF" x1="158.584" y1="158.55" x2="122.771" y2="158.55"/>
	<g>
		<g>
			<polygon fill="#FFFFFF" points="158.584,157.757 134.163,157.757 134.163,151.973 122.771,158.55 134.163,165.127 
				134.163,159.344 158.584,159.344 			"/>
		</g>
	</g>
</g>
<g>
	<line fill="#FFFFFF" x1="267.695" y1="158.718" x2="303.509" y2="158.718"/>
	<g>
		<g>
			<polygon fill="#FFFFFF" points="267.695,159.511 292.117,159.511 292.117,165.295 303.509,158.718 292.117,152.141 
				292.117,157.924 267.695,157.924 			"/>
		</g>
	</g>
</g>
<g>
	<line fill="#FFFFFF" x1="212.14" y1="173.438" x2="212.14" y2="243.711"/>
	<g>
		<g>
			<polygon fill="#FFFFFF" points="211.347,173.438 211.347,232.318 205.563,232.318 212.14,243.711 218.717,232.318 
				212.933,232.318 212.934,173.438 			"/>
		</g>
	</g>
</g>
</svg>
