<svg xmlns="http://www.w3.org/2000/svg" xmlns:xlink="http://www.w3.org/1999/xlink" viewBox="0 0 401.28 303.63"><defs><style>.cls-1{fill:url(#linear-gradient);}.cls-2{fill:url(#linear-gradient-2);}.cls-3{fill:url(#linear-gradient-3);}.cls-4{fill:url(#linear-gradient-4);}.cls-5{fill:#231f20;}.cls-6{fill:#fff;}</style><linearGradient id="linear-gradient" x1="216.28" y1="-303.63" x2="322.71" y2="-303.63" gradientTransform="matrix(0.79, 0.6, 0.61, -0.79, 140.54, -294.21)" gradientUnits="userSpaceOnUse"><stop offset="0" stop-color="#485fab"/><stop offset="1" stop-color="#78afde"/></linearGradient><linearGradient id="linear-gradient-2" x1="1030.91" y1="-344.48" x2="1136.56" y2="-344.48" gradientTransform="matrix(-0.61, 0.78, 0.79, 0.61, 1176.6, -519.72)" xlink:href="#linear-gradient"/><linearGradient id="linear-gradient-3" x1="257.12" y1="500.66" x2="363.55" y2="500.66" gradientTransform="matrix(0.6, -0.79, -0.79, -0.61, 370.72, 734.26)" xlink:href="#linear-gradient"/><linearGradient id="linear-gradient-4" x1="1051.58" y1="417.76" x2="1155.74" y2="417.76" gradientTransform="matrix(-0.79, -0.6, -0.61, 0.79, 1359.32, 527.98)" gradientUnits="userSpaceOnUse"><stop offset="0" stop-color="#4860ab"/><stop offset="1" stop-color="#79afdc"/></linearGradient></defs><title>Asset 5</title><g id="Layer_2" data-name="Layer 2"><g id="Layer_1-2" data-name="Layer 1"><polygon class="cls-1" points="69.83 151.2 202.89 151.2 202.89 18.14 69.83 151.2"/><polygon class="cls-2" points="202.89 18.14 202.89 151.2 333.12 151.2 202.89 18.14"/><polygon class="cls-3" points="202.89 284.26 202.89 151.2 69.83 151.2 202.89 284.26"/><polygon class="cls-4" points="333.12 151.2 202.89 151.2 202.89 284.26 333.12 151.2"/><path class="cls-5" d="M351.32,143.14h3.19l-4.12,14.64h-3l-4.18-14.64h3.34l2.35,9.43Z"/><path class="cls-5" d="M356.6,143.14h3.16v14.64H356.6Z"/><path class="cls-5" d="M369.24,147.27a3.39,3.39,0,0,0-2.4-1.46,1.39,1.39,0,0,0-.92.34,1,1,0,0,0-.4.76q0,.76,1.28,1.8a17.84,17.84,0,0,1,1.9,1.68,4.83,4.83,0,0,1,.9,1.45,4.76,4.76,0,0,1,.34,1.82,4.24,4.24,0,0,1-4.42,4.42,5.17,5.17,0,0,1-3.12-1.14v-3.46a4.1,4.1,0,0,0,2.93,1.59,1.66,1.66,0,0,0,1.1-.36,1.11,1.11,0,0,0,.44-.89,2.57,2.57,0,0,0-1.12-1.75,17.19,17.19,0,0,1-2.35-2.3,6,6,0,0,1-.83-1.52,4.57,4.57,0,0,1-.28-1.55,3.65,3.65,0,0,1,1.18-2.79,4.25,4.25,0,0,1,3-1.1,5.5,5.5,0,0,1,2.77.8Z"/><path class="cls-5" d="M372.34,143.14h3.16v14.64h-3.16Z"/><path class="cls-5" d="M378.21,150.39a11.4,11.4,0,0,1,.67-4.52,5.56,5.56,0,0,1,1.78-2.24,4.67,4.67,0,0,1,2.79-.8,4.72,4.72,0,0,1,2.25.46,5.45,5.45,0,0,1,1.59,1.35,5.59,5.59,0,0,1,1.07,2.19,14.23,14.23,0,0,1,.34,3.46q0,4.42-1.47,6.1a4.82,4.82,0,0,1-3.8,1.68,4.65,4.65,0,0,1-3.8-1.74Q378.21,154.59,378.21,150.39Zm3.34-.89v.94a18.78,18.78,0,0,0,.15,3,2,2,0,0,0,.65,1.15,1.78,1.78,0,0,0,1.19.42,1.53,1.53,0,0,0,1-.41,2.26,2.26,0,0,0,.66-1.25,15.85,15.85,0,0,0,.19-3,16.29,16.29,0,0,0-.16-2.74,2.57,2.57,0,0,0-.64-1.32,1.56,1.56,0,0,0-1.17-.5,1.51,1.51,0,0,0-1.45.87A6.44,6.44,0,0,0,381.55,149.5Z"/><path class="cls-5" d="M401.28,157.78h-3.34l-3.73-9.23h0v9.23H391.1V143.12h3.46l3.67,9.09h.06v-9.09h3Z"/><line class="cls-6" x1="192.14" y1="245.26" x2="101.15" y2="154.28"/><polygon class="cls-6" points="192.7 244.7 109.77 161.77 113.86 157.68 101.15 154.28 104.56 166.98 108.65 162.9 191.58 245.82 192.7 244.7"/><line class="cls-6" x1="197.45" y1="51.83" x2="101.15" y2="148.13"/><polygon class="cls-6" points="196.89 51.27 108.65 139.51 104.56 135.42 101.15 148.13 113.86 144.72 109.77 140.63 198.01 52.39 196.89 51.27"/><line class="cls-6" x1="210.18" y1="53.32" x2="304.55" y2="147.69"/><polygon class="cls-6" points="209.62 53.88 295.94 140.19 291.85 144.28 304.55 147.69 301.15 134.98 297.06 139.07 210.74 52.76 209.62 53.88"/><line class="cls-6" x1="291.64" y1="167.63" x2="207.83" y2="251.44"/><polygon class="cls-6" points="291.08 167.07 215.33 242.82 211.24 238.73 207.83 251.44 220.54 248.03 216.45 243.94 292.2 168.19 291.08 167.07"/><line class="cls-6" x1="104.68" y1="157.45" x2="198.9" y2="252.01"/><polygon class="cls-6" points="104.12 158.01 190.29 244.5 186.2 248.58 198.9 252.01 195.52 239.29 191.42 243.38 105.24 156.89 104.12 158.01"/><line class="cls-6" x1="103.43" y1="145.85" x2="199.64" y2="49.64"/><polygon class="cls-6" points="103.99 146.41 192.15 58.25 196.24 62.34 199.65 49.63 186.94 53.04 191.03 57.13 102.87 145.29 103.99 146.41"/><line class="cls-6" x1="298.98" y1="142.48" x2="206.14" y2="49.64"/><polygon class="cls-6" points="299.55 141.92 214.76 57.13 218.85 53.04 206.14 49.63 209.55 62.34 213.63 58.25 298.42 143.04 299.55 141.92"/><line class="cls-6" x1="212.39" y1="247.05" x2="304.55" y2="154.88"/><polygon class="cls-6" points="212.95 247.61 297.06 163.5 301.15 167.59 304.55 154.88 291.85 158.29 295.94 162.38 211.83 246.49 212.95 247.61"/><line class="cls-6" x1="202.89" y1="134.21" x2="202.89" y2="63.94"/><polygon class="cls-6" points="203.68 134.21 203.68 75.33 209.47 75.33 202.89 63.94 196.31 75.33 202.1 75.33 202.1 134.21 203.68 134.21"/><line class="cls-6" x1="149.34" y1="151.2" x2="113.52" y2="151.2"/><polygon class="cls-6" points="149.34 150.41 124.91 150.41 124.91 144.62 113.52 151.2 124.91 157.78 124.91 151.99 149.34 151.99 149.34 150.41"/><line class="cls-6" x1="258.45" y1="151.37" x2="294.26" y2="151.37"/><polygon class="cls-6" points="258.45 152.16 282.87 152.16 282.87 157.95 294.26 151.37 282.87 144.79 282.87 150.57 258.45 150.57 258.45 152.16"/><line class="cls-6" x1="202.89" y1="166.09" x2="202.89" y2="236.36"/><polygon class="cls-6" points="202.1 166.09 202.1 224.97 196.31 224.97 202.89 236.36 209.47 224.97 203.69 224.97 203.69 166.09 202.1 166.09"/><path d="M177.72.38H184V3.29h-3.18V5.81h2.76V8.65h-2.76v2.49H184v2.92h-6.31Z"/><path d="M185.46.38h7.41V3.51h-2.14V14.07h-3.15V3.51h-2.12Z"/><path d="M194.8.38h3.11V5.46h2.76V.38h3.11V14.07h-3.11V8.38H197.9v5.69H194.8Z"/><path d="M206.81.38h3.11V14.07h-3.11Z"/><path d="M220.15,10.84v3.25a5.81,5.81,0,0,1-1.76.32,5.41,5.41,0,0,1-4.37-2,8.08,8.08,0,0,1-1.68-5.33A7.55,7.55,0,0,1,214,2a5.37,5.37,0,0,1,4.28-2,6.08,6.08,0,0,1,1.85.27V3.53a5.33,5.33,0,0,0-1.68-.3,2.4,2.4,0,0,0-2,1.11,4.7,4.7,0,0,0-.8,2.82,4.75,4.75,0,0,0,.8,2.92,2.55,2.55,0,0,0,2.15,1.07A4.77,4.77,0,0,0,220.15,10.84Z"/><path d="M222.15,13.81V10.62a5.22,5.22,0,0,0,2.48.86,1.28,1.28,0,0,0,.92-.32,1.13,1.13,0,0,0,.34-.86,1.25,1.25,0,0,0-.27-.77,5.17,5.17,0,0,0-.94-.87,10.62,10.62,0,0,1-2.33-2.29A4.11,4.11,0,0,1,221.63,4a3.91,3.91,0,0,1,1.12-2.89A3.91,3.91,0,0,1,225.64,0a6.46,6.46,0,0,1,2.6.56V3.63A5,5,0,0,0,226,2.87a1.36,1.36,0,0,0-.91.28,1,1,0,0,0-.33.77q0,.86,1.55,1.94a9.41,9.41,0,0,1,1.87,1.79,4.08,4.08,0,0,1,.95,2.67,3.86,3.86,0,0,1-1.24,2.94,4.42,4.42,0,0,1-3.15,1.16A5.92,5.92,0,0,1,222.15,13.81Z"/><path d="M0,143.76H3.62a5,5,0,0,1,3.47,1.13A3.89,3.89,0,0,1,8.36,148a4.12,4.12,0,0,1-.48,1.92,3.17,3.17,0,0,1-1.4,1.4L9,157.45H5.67l-2.51-6.23H3.11v6.23H0Zm3.11,2.65v3.25q2.06,0,2.06-1.45a1.71,1.71,0,0,0-.48-1.36A2.54,2.54,0,0,0,3.11,146.41Z"/><path d="M10.71,143.76H17v2.91H13.81v2.52h2.76V152H13.81v2.49H17v2.92H10.71Z"/><path d="M29,157.45H25.81l-.52-2.29H22l-.54,2.29H18.29l3.63-13.69h3.49Zm-4.35-4.75q-.7-3.06-1-5.81h0q-.37,2.84-1,5.81Z"/><path d="M30.61,143.76h3.11v10.52h2.46v3.17H30.61Z"/><path d="M38.39,143.76H41.5v13.69H38.39Z"/><path d="M43.51,143.76h7.41v3.13H48.78v10.56H45.63V146.89H43.51Z"/><path d="M51.55,143.76H55q1.16,3,1.68,4.55h0q.52-1.64,1.66-4.55H62l-3.67,7.5v6.19H55.17v-6.19Z"/><path d="M174.12,300v3.25a5.82,5.82,0,0,1-1.76.32,5.4,5.4,0,0,1-4.37-2,8.08,8.08,0,0,1-1.68-5.33,7.55,7.55,0,0,1,1.69-5.06,5.37,5.37,0,0,1,4.28-2,6.08,6.08,0,0,1,1.85.27v3.26a5.33,5.33,0,0,0-1.68-.3,2.4,2.4,0,0,0-2,1.11,4.69,4.69,0,0,0-.8,2.82,4.75,4.75,0,0,0,.8,2.92,2.55,2.55,0,0,0,2.15,1.07A4.77,4.77,0,0,0,174.12,300Z"/><path d="M180.59,303.59a4.3,4.3,0,0,1-3.78-1.9,9.69,9.69,0,0,1-1.3-5.49,8.84,8.84,0,0,1,1.31-5.16,4.21,4.21,0,0,1,3.65-1.85,4.38,4.38,0,0,1,3.81,1.86,9.07,9.07,0,0,1,1.32,5.3,9.42,9.42,0,0,1-1.3,5.35A4.21,4.21,0,0,1,180.59,303.59Zm-.11-11.3q-1.68,0-1.68,3.95a8.82,8.82,0,0,0,.43,3.39,1.34,1.34,0,0,0,1.24.85,1.46,1.46,0,0,0,1.34-.85,7.9,7.9,0,0,0,.47-3.33Q182.26,292.29,180.47,292.29Z"/><path d="M187.8,289.56H191v9.64a1.53,1.53,0,0,0,.36,1.07,1.38,1.38,0,0,0,2,0,1.72,1.72,0,0,0,.36-1.16v-9.53h3.17v9a7.48,7.48,0,0,1-.48,2.94,3.27,3.27,0,0,1-1.42,1.63,5.47,5.47,0,0,1-2.62.52,4.23,4.23,0,0,1-3.5-1.27,7,7,0,0,1-1-4.3Z"/><path d="M199.65,289.56h3.62a5,5,0,0,1,3.47,1.13,3.89,3.89,0,0,1,1.27,3.07,4.12,4.12,0,0,1-.48,1.92,3.18,3.18,0,0,1-1.4,1.4l2.48,6.17h-3.28L202.81,297h-.05v6.23h-3.11Zm3.11,2.65v3.25q2.06,0,2.06-1.45a1.71,1.71,0,0,0-.48-1.36A2.54,2.54,0,0,0,202.75,292.21Z"/><path d="M219.93,303.25H216.7l-.52-2.29H212.9l-.54,2.29h-3.17l3.63-13.69h3.49Zm-4.35-4.75q-.7-3.06-1-5.81h0q-.37,2.84-1,5.81Z"/><path d="M230.73,295.58v2.3a6.29,6.29,0,0,1-1.29,4.19,4.37,4.37,0,0,1-3.52,1.52,4.49,4.49,0,0,1-3.87-1.88,9,9,0,0,1-1.36-5.37A8.84,8.84,0,0,1,222,291a4.65,4.65,0,0,1,4-1.82q2.93,0,4.25,3.13l-3,1.22a4.19,4.19,0,0,0-.69-1,1.21,1.21,0,0,0-.87-.3,1.37,1.37,0,0,0-1.34,1,9.38,9.38,0,0,0-.39,3.2,7.67,7.67,0,0,0,.45,3,1.48,1.48,0,0,0,1.42,1q1.56,0,1.61-2.22H226v-2.66Z"/><path d="M233,289.56h6.29v2.91h-3.18V295h2.76v2.84h-2.76v2.49h3.2v2.92H233Z"/><path class="cls-6" d="M165.22,149.31v2.63a7.19,7.19,0,0,1-1.47,4.79,5,5,0,0,1-4,1.74,5.13,5.13,0,0,1-4.42-2.15,10.34,10.34,0,0,1-1.56-6.13,10.1,10.1,0,0,1,1.55-6.1,5.31,5.31,0,0,1,4.54-2.08q3.35,0,4.85,3.57L161.31,147a4.77,4.77,0,0,0-.79-1.1,1.39,1.39,0,0,0-1-.35,1.57,1.57,0,0,0-1.53,1.13,10.72,10.72,0,0,0-.45,3.66,8.77,8.77,0,0,0,.51,3.46,1.69,1.69,0,0,0,1.62,1.11q1.78,0,1.84-2.54h-1.65v-3Z"/><path class="cls-6" d="M167.84,142.43H172a5.76,5.76,0,0,1,4,1.29,4.45,4.45,0,0,1,1.45,3.5,4.71,4.71,0,0,1-.55,2.2,3.63,3.63,0,0,1-1.61,1.6l2.84,7.05h-3.75l-2.87-7.12h-.06v7.13h-3.55Zm3.55,3v3.71q2.36,0,2.36-1.65a2,2,0,0,0-.54-1.56A2.9,2.9,0,0,0,171.39,145.45Z"/><path class="cls-6" d="M180.07,142.43h7.18v3.33h-3.63v2.88h3.15v3.25h-3.15v2.85h3.66v3.34h-7.21Z"/><path class="cls-6" d="M201,158.07h-3.69l-.6-2.61H193l-.62,2.61h-3.62l4.15-15.64h4Zm-5-5.43q-.8-3.49-1.2-6.64h0q-.42,3.25-1.18,6.64Z"/><path class="cls-6" d="M201,142.43h8.47V146H207v12.07h-3.6V146H201Z"/><path class="cls-6" d="M211.63,142.43h3.59l4.51,9-.13-1.69v-7.34h3.55v15.64H219.5l-4.42-8.88.09,1.95v6.94h-3.55Z"/><path class="cls-6" d="M226.51,142.43h7.18v3.33h-3.63v2.88h3.15v3.25h-3.15v2.85h3.66v3.34h-7.21Z"/><path class="cls-6" d="M236.52,157.78v-3.64a6,6,0,0,0,2.84,1,1.46,1.46,0,0,0,1.05-.37,1.29,1.29,0,0,0,.39-1,1.43,1.43,0,0,0-.31-.88,5.89,5.89,0,0,0-1.07-1,12.11,12.11,0,0,1-2.67-2.62,4.69,4.69,0,0,1-.83-2.7A4.38,4.38,0,0,1,240.5,142a7.38,7.38,0,0,1,3,.64v3.5a5.76,5.76,0,0,0-2.57-.87,1.55,1.55,0,0,0-1,.32,1.1,1.1,0,0,0-.38.88q0,1,1.77,2.21a10.74,10.74,0,0,1,2.14,2,4.67,4.67,0,0,1,1.08,3.05,4.41,4.41,0,0,1-1.42,3.36,5.05,5.05,0,0,1-3.6,1.33A6.77,6.77,0,0,1,236.52,157.78Z"/><path class="cls-6" d="M247,157.78v-3.64a6,6,0,0,0,2.84,1,1.46,1.46,0,0,0,1.05-.37,1.29,1.29,0,0,0,.39-1,1.43,1.43,0,0,0-.31-.88,5.89,5.89,0,0,0-1.07-1,12.11,12.11,0,0,1-2.67-2.62,4.69,4.69,0,0,1-.83-2.7A4.38,4.38,0,0,1,251,142a7.38,7.38,0,0,1,3,.64v3.5a5.76,5.76,0,0,0-2.57-.87,1.55,1.55,0,0,0-1,.32,1.1,1.1,0,0,0-.38.88q0,1,1.77,2.21a10.74,10.74,0,0,1,2.14,2A4.67,4.67,0,0,1,255,153.8a4.41,4.41,0,0,1-1.42,3.36,5.05,5.05,0,0,1-3.6,1.33A6.77,6.77,0,0,1,247,157.78Z"/></g></g></svg>