<svg xmlns="http://www.w3.org/2000/svg" viewBox="0 0 542.5 370.84"><defs><style>.cls-1{isolation:isolate;}.cls-2{opacity:0.5;mix-blend-mode:multiply;}.cls-3,.cls-4,.cls-5,.cls-6{fill:none;}.cls-3{stroke:#000;}.cls-3,.cls-4,.cls-5{stroke-linecap:square;stroke-miterlimit:25;}.cls-3,.cls-4{stroke-width:4px;}.cls-10,.cls-4,.cls-5{stroke:#4d4d4d;}.cls-5{stroke-width:6px;}.cls-7,.cls-8{fill:#4f4648;}.cls-7{fill-rule:evenodd;}.cls-10,.cls-11,.cls-9{fill:#4d4d4d;}.cls-10{stroke-miterlimit:10;}.cls-11{font-size:24px;font-family:TwCenMT-CondensedExtraBold, Tw Cen MT Condensed Extra Bold;}</style></defs><title>Asset 1</title><g class="cls-1"><g id="Layer_2" data-name="Layer 2"><g id="The_Graphs_2" data-name="The Graphs 2"><g id="single_lines" data-name="single lines"><g id="single_smooth_up" data-name="single smooth up"><g id="line"><g class="cls-2"><path class="cls-3" d="M288.28,217.43" transform="translate(0 -0.62)"/></g><path class="cls-4" d="M288.28,218.43" transform="translate(0 -0.62)"/></g><g id="line-2" data-name="line"><g class="cls-2"><path class="cls-3" d="M199,229.27" transform="translate(0 -0.62)"/></g><path class="cls-4" d="M199,230.27" transform="translate(0 -0.62)"/></g><path id="line-3" data-name="line" class="cls-5" d="M76.13,358.38s0-166.75,188.44-167.23" transform="translate(0 -0.62)"/><g id="line-4" data-name="line"><g class="cls-2"><path class="cls-3" d="M473.77,0" transform="translate(0 -0.62)"/></g><path class="cls-4" d="M473.77,1" transform="translate(0 -0.62)"/></g><g id="line-5" data-name="line"><g class="cls-2"><path class="cls-3" d="M342.13,107.38" transform="translate(0 -0.62)"/></g><path class="cls-4" d="M342.13,108.38" transform="translate(0 -0.62)"/></g><g id="line-6" data-name="line"><path class="cls-6" d="M277.39,197.09c2.23.19,4.47.37,6.69.6l.72-6.78c-2.31-.24-4.62-.42-6.93-.62Z" transform="translate(0 -0.62)"/><path class="cls-7" d="M284.45,194.3a3.42,3.42,0,0,1-6.81-.61,3.42,3.42,0,1,1,6.81.61Z" transform="translate(0 -0.62)"/><path class="cls-6" d="M293.11,198.9c2.2.34,4.38.79,6.56,1.22l1.42-6.67c-2.29-.45-4.58-.93-6.88-1.28Z" transform="translate(0 -0.62)"/><path class="cls-7" d="M300.38,196.79a3.42,3.42,0,0,1-6.72-1.25,3.42,3.42,0,1,1,6.72,1.25Z" transform="translate(0 -0.62)"/><path class="cls-6" d="M305.52,201.54c1.06.3,2.14.56,3.19.89l3.15,1L314,197l-3.37-1.07c-1.12-.35-2.26-.63-3.39-.95Z" transform="translate(0 -0.62)"/><path class="cls-7" d="M313,200.2a3.42,3.42,0,0,1-6.55-2,3.42,3.42,0,1,1,6.55,2Z" transform="translate(0 -0.62)"/><path class="cls-6" d="M317.45,205.53c2,.82,4,1.76,6,2.73l3.12-6.07c-2.13-1.06-4.28-2.08-6.47-3Z" transform="translate(0 -0.62)"/><path class="cls-7" d="M325,205.22a3.42,3.42,0,0,1-6.22-2.85,3.42,3.42,0,1,1,6.22,2.85Z" transform="translate(0 -0.62)"/><path class="cls-6" d="M328.54,211.18a64,64,0,0,1,5.31,3.72l4.2-5.37a70.84,70.84,0,0,0-5.89-4.12Z" transform="translate(0 -0.62)"/><path class="cls-7" d="M335.95,212.21a3.49,3.49,0,0,1-4.71.76,3.25,3.25,0,0,1-1.35-2.13,3.51,3.51,0,0,1,.46-2.55,3.29,3.29,0,0,1,2.16-1.5,3.58,3.58,0,0,1,2.64.59A3.35,3.35,0,0,1,335.95,212.21Z" transform="translate(0 -0.62)"/><path class="cls-6" d="M338.28,218.73a63.17,63.17,0,0,1,4.44,4.7l5.22-4.39a70,70,0,0,0-4.95-5.24Z" transform="translate(0 -0.62)"/><path class="cls-7" d="M345.33,221.23a3.49,3.49,0,0,1-4.76-.22,3.23,3.23,0,0,1-.89-2.35,3.51,3.51,0,0,1,1-2.41,3.29,3.29,0,0,1,2.42-1,3.59,3.59,0,0,1,2.48,1.12A3.35,3.35,0,0,1,345.33,221.23Z" transform="translate(0 -0.62)"/><path class="cls-6" d="M346.28,228.1c1.22,1.79,2.4,3.62,3.46,5.54l5.93-3.37c-1.15-2.07-2.45-4.08-3.79-6.06Z" transform="translate(0 -0.62)"/><path class="cls-7" d="M352.71,232a3.42,3.42,0,0,1-3.63-5.8,3.42,3.42,0,1,1,3.63,5.8Z" transform="translate(0 -0.62)"/><path class="cls-6" d="M352.52,238.92c1,2,1.88,4,2.75,6.09l6.27-2.68c-.9-2.13-1.87-4.26-2.88-6.38Z" transform="translate(0 -0.62)"/><path class="cls-7" d="M358.4,243.67a3.42,3.42,0,0,1-2.82-6.23,3.42,3.42,0,1,1,2.82,6.23Z" transform="translate(0 -0.62)"/><path class="cls-6" d="M357.63,250.68c.86,2.11,1.74,4.24,2.67,6.38l6.25-2.74c-.89-2-1.75-4.12-2.61-6.23Z" transform="translate(0 -0.62)"/><path class="cls-7" d="M363.42,255.7a3.42,3.42,0,1,1-2.64-6.31,3.42,3.42,0,0,1,2.64,6.31Z" transform="translate(0 -0.62)"/><path class="cls-6" d="M363.08,262.89a43.26,43.26,0,0,0,4,6.26l5.36-4.21a36.51,36.51,0,0,1-3.35-5.25Z" transform="translate(0 -0.62)"/><path class="cls-7" d="M369.77,267a3.29,3.29,0,0,1-4.85-1,3.42,3.42,0,0,1-.45-2.73,3.19,3.19,0,0,1,1.62-2,3.54,3.54,0,0,1,4.6,1.14A3.59,3.59,0,0,1,369.77,267Z" transform="translate(0 -0.62)"/><path class="cls-6" d="M372.11,274.12a24.08,24.08,0,0,0,7.06,3.62l2.07-6.5a17.22,17.22,0,0,1-5-2.58Z" transform="translate(0 -0.62)"/><path class="cls-7" d="M380.21,274.49a3,3,0,0,1-1.78,1.93,3.51,3.51,0,0,1-2.93-.19,3.55,3.55,0,0,1-1.88-2.26,3,3,0,0,1,.54-2.58,4,4,0,0,1,2.16-1.42,3.25,3.25,0,0,1,2.29.18,3.32,3.32,0,0,1,1.5,1.75A4,4,0,0,1,380.21,274.49Z" transform="translate(0 -0.62)"/><path class="cls-6" d="M386.05,279a44.47,44.47,0,0,0,7.41-.19l-.69-6.78a37.74,37.74,0,0,1-6.25.17Z" transform="translate(0 -0.62)"/><path class="cls-7" d="M393.11,275.43a3.32,3.32,0,0,1-3.32,3.64,3.46,3.46,0,0,1-2.6-1,3.08,3.08,0,0,1-.91-2.44,3.78,3.78,0,0,1,1.1-2.37,3.36,3.36,0,0,1,2.23-1A3.54,3.54,0,0,1,393.11,275.43Z" transform="translate(0 -0.62)"/><path class="cls-6" d="M399.91,277.8l1.75-.36,1.72-.43c1.15-.28,2.3-.57,3.42-.92l-1.88-6.56c-1.06.33-2.12.59-3.19.86l-1.6.4-1.6.33Z" transform="translate(0 -0.62)"/><path class="cls-7" d="M405.86,272.81a3.42,3.42,0,1,1-6.63,1.65,3.42,3.42,0,0,1,6.63-1.65Z" transform="translate(0 -0.62)"/><path class="cls-6" d="M412.87,274.18c1.11-.36,2.19-.78,3.29-1.17s2.19-.79,3.26-1.23L417,265.43c-1,.42-2.09.81-3.14,1.18s-2.1.78-3.15,1.12Z" transform="translate(0 -0.62)"/><path class="cls-7" d="M418.19,268.61a3.42,3.42,0,1,1-6.42,2.35,3.42,3.42,0,0,1,6.42-2.35Z" transform="translate(0 -0.62)"/><path class="cls-8" d="M418.57,254.87a2.55,2.55,0,0,1,3.33,1.35,2.49,2.49,0,1,1-4.54,2A2.57,2.57,0,0,1,418.57,254.87Z" transform="translate(0 -0.62)"/><path class="cls-8" d="M421.14,261a2.61,2.61,0,0,1,3.4,1.32,2.56,2.56,0,1,1-4.68,2.1A2.62,2.62,0,0,1,421.14,261Z" transform="translate(0 -0.62)"/><path class="cls-8" d="M423.72,267.19a2.63,2.63,0,0,1,3.46,1.29,2.64,2.64,0,0,1-4.81,2.15A2.64,2.64,0,0,1,423.72,267.19Z" transform="translate(0 -0.62)"/><path class="cls-8" d="M426.29,273.35a2.67,2.67,0,0,1,3.53,1.26,2.71,2.71,0,0,1-4.95,2.21A2.67,2.67,0,0,1,426.29,273.35Z" transform="translate(0 -0.62)"/><path class="cls-8" d="M425.15,255.53a2.58,2.58,0,0,1,3.4,1.25A2.54,2.54,0,1,1,424,259,2.58,2.58,0,0,1,425.15,255.53Z" transform="translate(0 -0.62)"/><path class="cls-8" d="M427.86,261.63a2.62,2.62,0,0,1,3.46,1.23,2.6,2.6,0,0,1-4.7,2.23A2.62,2.62,0,0,1,427.86,261.63Z" transform="translate(0 -0.62)"/><path class="cls-8" d="M430.57,267.73a2.65,2.65,0,0,1,3.52,1.21,2.66,2.66,0,0,1-4.81,2.27A2.64,2.64,0,0,1,430.57,267.73Z" transform="translate(0 -0.62)"/><path class="cls-8" d="M432,255.85a2.61,2.61,0,0,1,3.46,1.17,2.57,2.57,0,1,1-4.6,2.3A2.6,2.6,0,0,1,432,255.85Z" transform="translate(0 -0.62)"/><path class="cls-8" d="M434.84,261.91a2.62,2.62,0,0,1,3.5,1.14,2.62,2.62,0,1,1-3.5-1.14Z" transform="translate(0 -0.62)"/><path class="cls-8" d="M438.85,256.14a2.61,2.61,0,0,1,3.5,1.11,2.6,2.6,0,0,1-4.61,2.38A2.61,2.61,0,0,1,438.85,256.14Z" transform="translate(0 -0.62)"/></g><g id="line-7" data-name="line"><path class="cls-6" d="M277.8,193.13c2.32-.06,4.64-.18,7-.27l-.32-6.81c-2.28.09-4.56.2-6.84.26Z" transform="translate(0 -0.62)"/><path class="cls-7" d="M284.6,189.46a3.45,3.45,0,0,1-6.9.26,3.45,3.45,0,0,1,6.9-.26Z" transform="translate(0 -0.62)"/><path class="cls-6" d="M294.22,192.28c2.32-.19,4.64-.34,7-.6l-.66-6.79c-2.26.25-4.53.4-6.8.59Z" transform="translate(0 -0.62)"/><path class="cls-7" d="M300.85,188.29a3.45,3.45,0,1,1-3.73-3.08A3.46,3.46,0,0,1,300.85,188.29Z" transform="translate(0 -0.62)"/><path class="cls-6" d="M307.47,191c2.31-.29,4.63-.56,6.94-.93l-1-6.75c-2.24.36-4.5.63-6.75.91Z" transform="translate(0 -0.62)"/><path class="cls-7" d="M313.91,186.7a3.45,3.45,0,1,1-3.87-2.89A3.42,3.42,0,0,1,313.91,186.7Z" transform="translate(0 -0.62)"/><path class="cls-6" d="M320.68,189.06c1.15-.21,2.3-.39,3.45-.62l3.44-.7-1.4-6.67-3.33.68c-1.11.22-2.23.4-3.35.6Z" transform="translate(0 -0.62)"/><path class="cls-7" d="M326.87,184.4a3.45,3.45,0,1,1-4-2.66A3.43,3.43,0,0,1,326.87,184.4Z" transform="translate(0 -0.62)"/><path class="cls-6" d="M333.78,186.33c2.28-.53,4.54-1.19,6.81-1.79L338.71,178c-2.18.58-4.35,1.21-6.55,1.72Z" transform="translate(0 -0.62)"/><path class="cls-7" d="M339.64,181.26A3.45,3.45,0,0,1,333,183a3.45,3.45,0,0,1,6.68-1.76Z" transform="translate(0 -0.62)"/><path class="cls-6" d="M346.68,182.66c2.23-.75,4.46-1.5,6.65-2.37l-2.43-6.37c-2.09.83-4.23,1.54-6.36,2.26Z" transform="translate(0 -0.62)"/><path class="cls-7" d="M352.13,177.1a3.45,3.45,0,1,1-4.38-2A3.46,3.46,0,0,1,352.13,177.1Z" transform="translate(0 -0.62)"/><path class="cls-6" d="M359.28,177.89c1.09-.44,2.16-1,3.23-1.45s2.15-1,3.2-1.52l-3-6.11c-1,.52-2,1-3,1.44s-2,1-3.07,1.38Z" transform="translate(0 -0.62)"/><path class="cls-7" d="M364.19,171.86a3.45,3.45,0,0,1-6.27,2.9,3.45,3.45,0,0,1,6.27-2.9Z" transform="translate(0 -0.62)"/><path class="cls-6" d="M371.38,171.9c1-.59,2.07-1.15,3.08-1.76l3-1.87-3.66-5.75L371,164.29c-1,.58-1.94,1.11-2.91,1.67Z" transform="translate(0 -0.62)"/><path class="cls-7" d="M375.64,165.39a3.45,3.45,0,1,1-4.68-1.11A3.42,3.42,0,0,1,375.64,165.39Z" transform="translate(0 -0.62)"/><path class="cls-6" d="M382.81,164.68c1.9-1.41,3.83-2.79,5.65-4.3l-4.27-5.32c-1.72,1.43-3.54,2.73-5.34,4.06Z" transform="translate(0 -0.62)"/><path class="cls-7" d="M386.33,157.73a3.45,3.45,0,1,1-5.5,4.18,3.45,3.45,0,0,1,5.5-4.18Z" transform="translate(0 -0.62)"/><path class="cls-6" d="M393.38,156.24c.91-.76,1.74-1.6,2.61-2.4s1.74-1.61,2.55-2.46l-4.81-4.83c-.77.81-1.61,1.56-2.42,2.33s-1.61,1.56-2.47,2.28Z" transform="translate(0 -0.62)"/><path class="cls-7" d="M396.13,149a3.36,3.36,0,0,1,1,2.44,3.59,3.59,0,0,1-3.62,3.41,3.34,3.34,0,0,1-2.38-1.12,3.45,3.45,0,0,1,5-4.74Z" transform="translate(0 -0.62)"/><path class="cls-6" d="M403,146.73c1.62-1.72,3.12-3.54,4.65-5.33l-5.26-4.34c-1.46,1.71-2.89,3.45-4.42,5.08Z" transform="translate(0 -0.62)"/><path class="cls-7" d="M405,139.23a3.45,3.45,0,1,1-4.54,5.21,3.45,3.45,0,0,1,4.54-5.21Z" transform="translate(0 -0.62)"/><path class="cls-8" d="M398.51,127.13a2.5,2.5,0,0,1,3.5-.5,2.46,2.46,0,1,1-2.87,4A2.52,2.52,0,0,1,398.51,127.13Z" transform="translate(0 -0.62)"/><path class="cls-8" d="M403.81,131.17a2.57,2.57,0,0,1,3.58-.59,2.57,2.57,0,1,1-3.58.59Z" transform="translate(0 -0.62)"/><path class="cls-8" d="M409.13,135.22a2.62,2.62,0,0,1,3.64-.68,2.68,2.68,0,0,1-3.14,4.34A2.61,2.61,0,0,1,409.13,135.22Z" transform="translate(0 -0.62)"/><path class="cls-8" d="M414.45,139.27a2.6,2.6,0,1,1,4.21,3,2.73,2.73,0,0,1-3.79.73A2.67,2.67,0,0,1,414.45,139.27Z" transform="translate(0 -0.62)"/><path class="cls-8" d="M404.44,124.46a2.59,2.59,0,1,1,.74,3.52A2.57,2.57,0,0,1,404.44,124.46Z" transform="translate(0 -0.62)"/><path class="cls-8" d="M409.9,128.29a2.59,2.59,0,1,1,4.32,2.87,2.59,2.59,0,0,1-3.63.73A2.63,2.63,0,0,1,409.9,128.29Z" transform="translate(0 -0.62)"/><path class="cls-8" d="M415.36,132.13a2.6,2.6,0,1,1,.62,3.69A2.67,2.67,0,0,1,415.36,132.13Z" transform="translate(0 -0.62)"/><path class="cls-8" d="M410.41,121.21a2.6,2.6,0,0,1,3.54-.84,2.57,2.57,0,1,1-2.68,4.38A2.63,2.63,0,0,1,410.41,121.21Z" transform="translate(0 -0.62)"/><path class="cls-8" d="M416,124.85a2.64,2.64,0,0,1,3.59-.93,2.67,2.67,0,0,1-2.79,4.55A2.67,2.67,0,0,1,416,124.85Z" transform="translate(0 -0.62)"/><path class="cls-8" d="M416.34,117.81a2.64,2.64,0,0,1,3.56-1,2.62,2.62,0,0,1-2.6,4.55A2.64,2.64,0,0,1,416.34,117.81Z" transform="translate(0 -0.62)"/></g><circle class="cls-9" cx="264.57" cy="190.53" r="7.38"/><path class="cls-9" d="M264.57,184.27a6.88,6.88,0,1,1-6.88,6.88,6.88,6.88,0,0,1,6.88-6.88m0-1a7.88,7.88,0,1,0,7.88,7.88,7.89,7.89,0,0,0-7.88-7.88Z" transform="translate(0 -0.62)"/><path class="cls-9" d="M264,148.14a43.68,43.68,0,1,1-43.68,43.68A43.68,43.68,0,0,1,264,148.14m0-4a47.68,47.68,0,1,0,47.68,47.68A47.74,47.74,0,0,0,264,144.14Z" transform="translate(0 -0.62)"/><g id="line-8" data-name="line"><path class="cls-6" d="M275,199.28a49.06,49.06,0,0,1,5.53,3l3.56-5.82a55.83,55.83,0,0,0-6.26-3.34Z" transform="translate(0 -0.62)"/><path class="cls-7" d="M282.26,199.32a3.34,3.34,0,0,1-5.9-3.15,3.35,3.35,0,1,1,5.9,3.15Z" transform="translate(0 -0.62)"/><path class="cls-6" d="M287.48,207.24q2.45,2,4.71,4.28l4.82-4.83q-2.47-2.47-5.18-4.72Z" transform="translate(0 -0.62)"/><path class="cls-7" d="M294.59,209.11a3.44,3.44,0,0,1-4.71.21,3.16,3.16,0,0,1-1-2.26,3.55,3.55,0,0,1,.8-2.46,3.33,3.33,0,0,1,2.32-1.22,3.45,3.45,0,0,1,2.5.88A3.32,3.32,0,0,1,294.59,209.11Z" transform="translate(0 -0.62)"/><path class="cls-6" d="M296.11,215.77c1.41,1.6,2.68,3.32,4,5l5.53-4c-1.4-1.85-2.79-3.71-4.32-5.47Z" transform="translate(0 -0.62)"/><path class="cls-7" d="M302.85,218.8a3.34,3.34,0,1,1-4.15-5.25,3.35,3.35,0,1,1,4.15,5.25Z" transform="translate(0 -0.62)"/><path class="cls-6" d="M303.31,225.65c.55.92,1.13,1.83,1.67,2.76l1.54,2.84,6-3.19-1.66-3c-.58-1-1.2-2-1.8-3Z" transform="translate(0 -0.62)"/><path class="cls-7" d="M309.54,229.65a3.35,3.35,0,1,1,1.36-4.64A3.38,3.38,0,0,1,309.54,229.65Z" transform="translate(0 -0.62)"/><path class="cls-6" d="M309.12,236.49c.86,2,1.73,4,2.51,6L318,240c-.83-2.14-1.75-4.25-2.67-6.35Z" transform="translate(0 -0.62)"/><path class="cls-7" d="M314.81,241.25a3.48,3.48,0,0,1-2.59,0,3.24,3.24,0,0,1-1.82-1.74,3.46,3.46,0,0,1,1.82-4.4,3.3,3.3,0,0,1,4.46,1.75,3.29,3.29,0,0,1-1.88,4.42Z" transform="translate(0 -0.62)"/><polygon class="cls-6" points="313.61 247.41 314.59 250.51 315.08 252.07 315.5 253.65 322.07 251.83 321.63 250.17 321.12 248.54 320.09 245.26 313.61 247.41"/><path class="cls-7" d="M318.78,253.35a3.34,3.34,0,1,1-1.93-6.4,3.35,3.35,0,1,1,1.93,6.4Z" transform="translate(0 -0.62)"/><path class="cls-6" d="M317,260c.44,2.14,1,4.25,1.35,6.41l6.7-1.26c-.38-2.24-.94-4.46-1.4-6.69Z" transform="translate(0 -0.62)"/><path class="cls-7" d="M321.65,265.77a3.45,3.45,0,0,1-4-2.58,3.41,3.41,0,0,1,2.62-4,3.35,3.35,0,0,1,4.05,2.57A3.32,3.32,0,0,1,321.65,265.77Z" transform="translate(0 -0.62)"/><polygon class="cls-6" points="319.32 271.64 320.18 278.15 326.95 277.37 326.06 270.61 319.32 271.64"/><path class="cls-7" d="M323.56,278.38a3.35,3.35,0,1,1-.88-6.63,3.35,3.35,0,1,1,.88,6.63Z" transform="translate(0 -0.62)"/><path class="cls-8" d="M336.65,282.75a2.6,2.6,0,0,1-2.27,2.94,2.67,2.67,0,0,1-.62-5.29A2.61,2.61,0,0,1,336.65,282.75Z" transform="translate(0 -0.62)"/><path class="cls-8" d="M330,283.34a2.56,2.56,0,0,1-2.28,2.87,2.64,2.64,0,0,1-2.88-2.27,2.6,2.6,0,0,1,5.16-.59Z" transform="translate(0 -0.62)"/><path class="cls-8" d="M323.35,283.94a2.5,2.5,0,0,1-2.28,2.78,2.6,2.6,0,0,1-2.87-2.19,2.59,2.59,0,0,1,5.15-.58Z" transform="translate(0 -0.62)"/><path class="cls-8" d="M316.7,284.53a2.46,2.46,0,0,1-2.28,2.7,2.57,2.57,0,0,1-2.87-2.12,2.6,2.6,0,0,1,5.15-.58Z" transform="translate(0 -0.62)"/><path class="cls-8" d="M333.91,289.16a2.59,2.59,0,1,1-5.17.45,2.65,2.65,0,0,1,2.38-2.83A2.55,2.55,0,0,1,333.91,289.16Z" transform="translate(0 -0.62)"/><path class="cls-8" d="M327.25,289.58a2.6,2.6,0,0,1-5.17.44,2.61,2.61,0,0,1,2.38-2.76A2.53,2.53,0,0,1,327.25,289.58Z" transform="translate(0 -0.62)"/><path class="cls-8" d="M320.59,290a2.6,2.6,0,0,1-5.17.44,2.57,2.57,0,0,1,2.39-2.68A2.5,2.5,0,0,1,320.59,290Z" transform="translate(0 -0.62)"/><path class="cls-8" d="M331.1,295.64a2.62,2.62,0,0,1-2.48,2.73,2.58,2.58,0,0,1-.31-5.15A2.61,2.61,0,0,1,331.1,295.64Z" transform="translate(0 -0.62)"/><path class="cls-8" d="M324.43,295.87a2.57,2.57,0,0,1-2.47,2.66,2.51,2.51,0,1,1-.3-5A2.57,2.57,0,0,1,324.43,295.87Z" transform="translate(0 -0.62)"/><path class="cls-8" d="M328,301.82a2.53,2.53,0,0,1-2.48,2.64,2.62,2.62,0,0,1-2.7-2.46,2.6,2.6,0,0,1,5.19-.18Z" transform="translate(0 -0.62)"/></g><path class="cls-9" d="M36.09,1.4h4.15q4.31,0,6.55,2.45T49,11a12.9,12.9,0,0,1-1.11,5.77A6.84,6.84,0,0,1,44.83,20a9.76,9.76,0,0,1-4.39,1H36.09Zm4.44,4.16V16.78a3.58,3.58,0,0,0,2.86-1.43,7.7,7.7,0,0,0,.83-4.12,12.12,12.12,0,0,0-.29-2.88,4.16,4.16,0,0,0-.87-1.82,2.46,2.46,0,0,0-1.13-.78A6.94,6.94,0,0,0,40.53,5.56Z" transform="translate(0 -0.62)"/><path class="cls-9" d="M52,1.4h9V5.56H56.46v3.6H60.4v4.06H56.46v3.56H61V21H52Z" transform="translate(0 -0.62)"/><path class="cls-9" d="M62.73,1.4h4.63L69.77,10a36.42,36.42,0,0,1,.94,4.38h.06a24,24,0,0,1,.48-2.62l2.7-10.4h4.75L72.82,21H68.7Z" transform="translate(0 -0.62)"/><path class="cls-9" d="M81.08,1.4h9V5.56H85.52v3.6h3.94v4.06H85.52v3.56h4.57V21h-9Z" transform="translate(0 -0.62)"/><path class="cls-9" d="M93.59,1.4H98v15h3.52V21h-8Z" transform="translate(0 -0.62)"/><path class="cls-9" d="M110.66,21.44a6.14,6.14,0,0,1-5.41-2.72q-1.86-2.72-1.86-7.84a12.62,12.62,0,0,1,1.87-7.38A6,6,0,0,1,110.46.86a6.26,6.26,0,0,1,5.44,2.65q1.88,2.65,1.88,7.57t-1.85,7.64A6,6,0,0,1,110.66,21.44ZM110.49,5.3q-2.4,0-2.4,5.64a12.59,12.59,0,0,0,.61,4.85A1.91,1.91,0,0,0,110.46,17a2.09,2.09,0,0,0,1.91-1.22A11.29,11.29,0,0,0,113,11Q113,5.3,110.49,5.3Z" transform="translate(0 -0.62)"/><path class="cls-9" d="M121.08,1.4h5.49a6.52,6.52,0,0,1,4.66,1.66A5.72,5.72,0,0,1,133,7.42a5.75,5.75,0,0,1-1.78,4.48,7.06,7.06,0,0,1-4.93,1.62h-.76V21h-4.44Zm4.44,3.75V9.77a3.76,3.76,0,0,0,2.21-.57,2,2,0,0,0,.71-1.71,2.09,2.09,0,0,0-.69-1.78A3.86,3.86,0,0,0,125.52,5.15Z" transform="translate(0 -0.62)"/><path class="cls-9" d="M137.77,1.4h5.61q1.2,6.33,1.89,10.88l.48-3q.29-1.77.63-3.46l.86-4.39H153L155.2,21h-4.39L149.62,7.51,146.88,21h-3L141,7.48,139.86,21h-4.2Z" transform="translate(0 -0.62)"/><path class="cls-9" d="M158.7,1.4h9V5.56h-4.54v3.6h3.94v4.06h-3.94v3.56h4.57V21h-9Z" transform="translate(0 -0.62)"/><path class="cls-9" d="M171.21,1.4h4.48l5.64,11.28-.16-2.11V1.4h4.44V21h-4.56l-5.52-11.1.12,2.43V21h-4.44Z" transform="translate(0 -0.62)"/><path class="cls-9" d="M188.35,1.4h10.59V5.87h-3.06V21h-4.5V5.87h-3Z" transform="translate(0 -0.62)"/><path class="cls-10" d="M488.36,317.84H499v4.47h-3.06V337.4h-4.5V322.31h-3Z" transform="translate(0 -0.62)"/><path class="cls-10" d="M501.87,317.84h4.44V337.4h-4.44Z" transform="translate(0 -0.62)"/><path class="cls-10" d="M512.06,317.84h5.61q1.2,6.33,1.89,10.88l.48-3q.29-1.77.63-3.46l.86-4.39h5.73l2.23,19.56H525.1l-1.19-13.45-2.74,13.45h-3l-2.87-13.48-1.14,13.48H510Z" transform="translate(0 -0.62)"/><path class="cls-10" d="M533,317.84h9V322h-4.54v3.6h3.94v4.06h-3.94v3.56H542v4.17h-9Z" transform="translate(0 -0.62)"/><path class="cls-9" d="M10.74,1.43a3.55,3.55,0,0,1,4.52,0l8.48,7.38a7.53,7.53,0,0,1,2.26,5v6c0,1.65-1,2.14-2.31,1.08L18.31,16.4C17,15.35,16,15.84,16,17.49v351a3,3,0,0,1-3,3h0a3,3,0,0,1-3-3v-351c0-1.65-1-2.14-2.31-1.08L2.31,20.89C1,21.94,0,21.46,0,19.81v-6a7.53,7.53,0,0,1,2.26-5Z" transform="translate(0 -0.62)"/><path class="cls-9" d="M522.14,357.11a2.25,2.25,0,0,1,0,3.71l-11.19,8.79a10.14,10.14,0,0,1-5.36,1.85H494.7c-1.65,0-2-.88-.72-2l7.13-6.1c1.25-1.07.93-2-.72-2H3a3,3,0,0,1-3-3H0a3,3,0,0,1,3-3H500.38c1.65,0,1.93-.82.62-1.83l-6.93-5.34c-1.31-1-1-1.83.62-1.83h10.89a10.14,10.14,0,0,1,5.36,1.85Z" transform="translate(0 -0.62)"/><ellipse class="cls-9" cx="12.89" cy="362.31" rx="0.48" ry="0.07"/><text class="cls-11" transform="translate(434 130.84)">1.</text><text class="cls-11" transform="translate(451.84 274.84)">2.</text><text class="cls-11" transform="translate(341.89 308.84)">3.</text></g></g></g></g></g></svg>