<?xml version="1.0" encoding="utf-8"?>
<!-- Generator: Adobe Illustrator 15.0.0, SVG Export Plug-In  -->
<!DOCTYPE svg PUBLIC "-//W3C//DTD SVG 1.1//EN" "http://www.w3.org/Graphics/SVG/1.1/DTD/svg11.dtd" [
	<!ENTITY ns_flows "http://ns.adobe.com/Flows/1.0/">
]>
<svg version="1.1"
	 xmlns="http://www.w3.org/2000/svg" xmlns:xlink="http://www.w3.org/1999/xlink" xmlns:a="http://ns.adobe.com/AdobeSVGViewerExtensions/3.0/"
	 x="0px" y="0px" width="525px" height="372px" viewBox="0 -1.158 525 372" enable-background="new 0 -1.158 525 372"
	 xml:space="preserve">
<defs>
</defs>
<path id="line_6_" fill="none" stroke="#4E4E4E" stroke-width="6" stroke-linecap="round" stroke-miterlimit="25" d="M77.129,353.76
	c0,0-3.268-77.29,77.128-77.29"/>
<path id="line_4_" fill="none" stroke="#4E4E4E" stroke-width="6" stroke-linecap="round" stroke-miterlimit="25" d="
	M154.257,276.47c0,0-3.269-77.29,77.128-77.29"/>
<g id="line_3_">
	<g>
		<g>
			<g>
				<g>
					<path fill="none" d="M160.022,280.446c2.116,0.438,4.201,1.09,6.206,1.935l2.645-6.286c-2.403-1.012-4.905-1.797-7.475-2.328
						L160.022,280.446z"/>
					<path fill-rule="evenodd" clip-rule="evenodd" fill="#52505C" d="M167.551,279.237c-0.759,1.725-2.695,2.547-4.384,2.023
						c-1.685-0.53-2.804-2.303-2.457-4.154c0.344-1.849,2.39-3.013,4.489-2.355C167.298,275.405,168.311,277.517,167.551,279.237z"
						/>
				</g>
			</g>
			<g>
				<g>
					<path fill="none" d="M173.917,286.826c1.75,1.321,3.391,2.802,4.912,4.409l4.955-4.687c-1.767-1.867-3.689-3.604-5.757-5.166
						L173.917,286.826z"/>
					<path fill-rule="evenodd" clip-rule="evenodd" fill="#52505C" d="M181.306,288.892c-1.389,1.277-3.508,1.229-4.847,0.03
						c-1.333-1.204-1.6-3.296-0.487-4.818c1.107-1.518,3.435-1.706,5.047-0.255C182.631,285.298,182.688,287.622,181.306,288.892z"
						/>
				</g>
			</g>
			<g>
				<g>
					<path fill="none" d="M182.669,295.896c1.307,1.814,2.494,3.729,3.571,5.715l5.995-3.252c-1.203-2.219-2.541-4.379-4.031-6.447
						L182.669,295.896z"/>
					<path fill-rule="evenodd" clip-rule="evenodd" fill="#52505C" d="M189.238,299.985c-1.665,0.882-3.722,0.267-4.697-1.297
						c-0.973-1.562-0.618-3.665,0.896-4.784c1.513-1.119,3.766-0.629,4.89,1.174C191.449,296.879,190.9,299.106,189.238,299.985z"/>
				</g>
			</g>
			<g>
				<g>
					<path fill="none" d="M188.908,307.17c0.884,2.102,1.676,4.252,2.374,6.442l6.496-2.078c-0.755-2.368-1.617-4.712-2.588-7.02
						L188.908,307.17z"/>
					<path fill-rule="evenodd" clip-rule="evenodd" fill="#52505C" d="M194.53,312.574c-1.797,0.561-3.716-0.449-4.366-2.216
						c-0.644-1.768,0.153-3.765,1.885-4.516c1.723-0.747,3.802,0.202,4.516,2.159C197.282,309.956,196.327,312.013,194.53,312.574z"
						/>
				</g>
			</g>
			<g>
				<g>
					<path fill="none" d="M192.977,319.642c0.555,2.244,1.021,4.518,1.432,6.805l6.715-1.192c-0.435-2.422-0.93-4.837-1.523-7.237
						L192.977,319.642z"/>
					<path fill-rule="evenodd" clip-rule="evenodd" fill="#52505C" d="M197.766,325.85c-1.858,0.32-3.626-0.953-4.02-2.822
						c-0.392-1.869,0.718-3.738,2.542-4.198c1.826-0.461,3.711,0.787,4.132,2.798C200.844,323.636,199.618,325.532,197.766,325.85z"
						/>
				</g>
			</g>
			<g>
				<g>
					<path fill="#52505C" d="M211.162,330.055c0.245,1.63-0.726,3.107-2.147,3.3c-1.417,0.196-2.732-0.915-2.974-2.481
						c-0.241-1.563,0.675-3.04,2.085-3.299C209.532,327.313,210.913,328.422,211.162,330.055z"/>
					<line fill="#52505C" x1="208.601" y1="330.466" x2="208.601" y2="330.466"/>
				</g>
				<g>
					<path fill="#52505C" d="M204.551,330.927c0.231,1.56-0.749,2.98-2.168,3.174c-1.417,0.191-2.73-0.868-2.96-2.359
						c-0.233-1.49,0.695-2.905,2.104-3.163C202.935,328.321,204.298,329.371,204.551,330.927z"/>
					<line fill="#52505C" x1="201.984" y1="331.335" x2="201.984" y2="331.335"/>
				</g>
				<g>
					<path fill="#52505C" d="M197.923,331.803c0.23,1.484-0.756,2.85-2.176,3.039c-1.417,0.189-2.724-0.814-2.946-2.234
						c-0.224-1.418,0.715-2.767,2.126-3.023C196.334,329.327,197.693,330.316,197.923,331.803z"/>
					<line fill="#52505C" x1="195.364" y1="332.207" x2="195.364" y2="332.207"/>
				</g>
				<g>
					<path fill="#52505C" d="M191.304,332.674c0.224,1.414-0.771,2.722-2.191,2.911c-1.417,0.189-2.717-0.765-2.931-2.112
						c-0.214-1.346,0.734-2.63,2.146-2.886C189.733,330.335,191.085,331.26,191.304,332.674z"/>
					<line fill="#52505C" x1="188.744" y1="333.074" x2="188.744" y2="333.074"/>
				</g>
				<g>
					<path fill="#52505C" d="M208.701,337.162c0.176,1.593-0.858,2.992-2.285,3.129c-1.423,0.137-2.694-0.999-2.867-2.532
						c-0.169-1.533,0.821-2.931,2.238-3.124C207.207,334.441,208.53,335.572,208.701,337.162z"/>
					<line fill="#52505C" x1="206.129" y1="337.463" x2="206.129" y2="337.463"/>
				</g>
				<g>
					<path fill="#52505C" d="M202.057,337.752c0.164,1.527-0.874,2.876-2.301,3.013c-1.427,0.132-2.693-0.953-2.855-2.426
						c-0.166-1.468,0.83-2.81,2.25-3.001C200.568,335.146,201.885,336.224,202.057,337.752z"/>
					<line fill="#52505C" x1="199.479" y1="338.048" x2="199.479" y2="338.048"/>
				</g>
				<g>
					<path fill="#52505C" d="M195.406,338.338c0.159,1.466-0.883,2.765-2.314,2.897c-1.418,0.131-2.686-0.909-2.842-2.315
						c-0.161-1.403,0.838-2.689,2.261-2.88C193.928,335.849,195.239,336.875,195.406,338.338z"/>
					<line fill="#52505C" x1="192.827" y1="338.632" x2="192.827" y2="338.632"/>
				</g>
				<g>
					<path fill="#52505C" d="M206.031,344.233c0.11,1.559-0.983,2.889-2.409,2.97c-1.428,0.083-2.661-1.075-2.767-2.581
						c-0.111-1.51,0.943-2.836,2.365-2.97C204.643,341.516,205.914,342.672,206.031,344.233z"/>
					<line fill="#52505C" x1="203.439" y1="344.427" x2="203.439" y2="344.427"/>
				</g>
				<g>
					<path fill="#52505C" d="M199.356,344.558c0.113,1.502-0.974,2.79-2.407,2.871c-1.432,0.082-2.659-1.035-2.767-2.487
						c-0.104-1.453,0.953-2.731,2.375-2.863C197.981,341.949,199.249,343.055,199.356,344.558z"/>
					<line fill="#52505C" x1="196.777" y1="344.75" x2="196.777" y2="344.75"/>
				</g>
				<g>
					<path fill="#52505C" d="M203.02,350.92c0.062,1.533-1.079,2.803-2.509,2.84c-1.431,0.038-2.617-1.141-2.678-2.629
						c-0.047-1.485,1.036-2.751,2.476-2.834C201.737,348.217,202.964,349.391,203.02,350.92z"/>
					<line fill="#52505C" x1="200.425" y1="351.029" x2="200.425" y2="351.029"/>
				</g>
			</g>
		</g>
	</g>
</g>
<g id="line_2_">
	<g>
		<g>
			<g>
				<g>
					<path fill="none" d="M237.465,202.986c2.125,0.103,4.239,0.296,6.333,0.596l0.968-6.751c-2.32-0.333-4.651-0.545-6.981-0.657
						L237.465,202.986z"/>
					<path fill-rule="evenodd" clip-rule="evenodd" fill="#52505C" d="M244.282,200.207c-0.285,1.863-1.905,3.162-3.638,3.003
						c-1.733-0.167-3.092-1.745-3.019-3.63c0.073-1.877,1.71-3.347,3.655-3.16C243.226,196.598,244.566,198.349,244.282,200.207z"/>
				</g>
			</g>
			<g>
				<g>
					<path fill="none" d="M252.187,205.404c2.015,0.598,3.992,1.308,5.919,2.131l2.679-6.272c-2.174-0.929-4.4-1.728-6.661-2.398
						L252.187,205.404z"/>
					<path fill-rule="evenodd" clip-rule="evenodd" fill="#52505C" d="M259.446,204.399c-0.758,1.725-2.649,2.565-4.267,1.985
						c-1.617-0.584-2.54-2.438-2.022-4.25c0.515-1.808,2.472-2.838,4.331-2.168C259.347,200.634,260.203,202.677,259.446,204.399z"
						/>
				</g>
			</g>
			<g>
				<g>
					<path fill="none" d="M263.212,210.045c1.828,1.024,3.595,2.158,5.293,3.392l4.006-5.52c-1.909-1.387-3.902-2.665-5.964-3.821
						L263.212,210.045z"/>
					<path fill-rule="evenodd" clip-rule="evenodd" fill="#52505C" d="M270.509,210.677c-1.122,1.513-3.156,1.911-4.602,0.985
						c-1.445-0.927-1.931-2.938-1.027-4.592c0.901-1.649,3.041-2.218,4.706-1.151C271.251,206.988,271.63,209.167,270.509,210.677z"
						/>
				</g>
			</g>
			<g>
				<g>
					<path fill="none" d="M272.95,217.024c1.572,1.403,3.071,2.895,4.497,4.46l5.043-4.593c-1.577-1.73-3.243-3.389-4.998-4.955
						L272.95,217.024z"/>
					<path fill-rule="evenodd" clip-rule="evenodd" fill="#52505C" d="M279.969,219.188c-1.404,1.257-3.484,1.224-4.716,0.005
						c-1.227-1.224-1.272-3.296-0.031-4.713c1.238-1.416,3.445-1.513,4.836-0.128C281.451,215.733,281.37,217.935,279.969,219.188z"
						/>
				</g>
			</g>
			<g>
				<g>
					<path fill="none" d="M281.145,225.912c1.295,1.689,2.52,3.44,3.676,5.242l5.739-3.685c-1.252-1.95-2.584-3.858-4.002-5.708
						L281.145,225.912z"/>
					<path fill-rule="evenodd" clip-rule="evenodd" fill="#52505C" d="M287.689,229.312c-1.592,1.006-3.648,0.615-4.655-0.822
						c-1.006-1.437-0.669-3.495,0.817-4.653c1.482-1.156,3.655-0.85,4.769,0.74C289.732,226.166,289.28,228.307,287.689,229.312z"/>
				</g>
			</g>
			<g>
				<g>
					<path fill="none" d="M287.799,236.165c1.039,1.883,2.014,3.807,2.932,5.763l6.175-2.896c-0.977-2.081-2.019-4.137-3.133-6.159
						L287.799,236.165z"/>
					<path fill-rule="evenodd" clip-rule="evenodd" fill="#52505C" d="M293.817,240.479c-1.709,0.791-3.703,0.121-4.508-1.461
						c-0.803-1.582-0.168-3.58,1.477-4.5c1.642-0.919,3.734-0.302,4.604,1.41C296.26,237.639,295.525,239.69,293.817,240.479z"/>
				</g>
			</g>
			<g>
				<g>
					<path fill="none" d="M293.085,247.315c0.817,2.008,1.581,4.042,2.298,6.096l6.439-2.245c-0.752-2.157-1.556-4.299-2.42-6.421
						L293.085,247.315z"/>
					<path fill-rule="evenodd" clip-rule="evenodd" fill="#52505C" d="M298.603,252.288c-1.781,0.613-3.7-0.267-4.331-1.942
						s0.231-3.597,1.973-4.315c1.738-0.718,3.739,0.129,4.41,1.911C301.324,249.722,300.382,251.676,298.603,252.288z"/>
				</g>
			</g>
			<g>
				<g>
					<path fill="none" d="M297.214,259.039c0.634,2.087,1.223,4.19,1.772,6.306l6.602-1.714c-0.571-2.2-1.186-4.392-1.848-6.572
						L297.214,259.039z"/>
					<path fill-rule="evenodd" clip-rule="evenodd" fill="#52505C" d="M302.287,264.488c-1.824,0.467-3.668-0.573-4.156-2.308
						c-0.486-1.735,0.547-3.578,2.347-4.132c1.799-0.554,3.709,0.466,4.22,2.288C305.21,262.158,304.109,264.021,302.287,264.488z"
						/>
				</g>
			</g>
			<g>
				<g>
					<path fill="none" d="M300.384,271.124c0.48,2.137,0.925,4.284,1.335,6.439l6.7-1.276c-0.424-2.225-0.883-4.445-1.381-6.659
						L300.384,271.124z"/>
					<path fill-rule="evenodd" clip-rule="evenodd" fill="#52505C" d="M305.069,276.925c-1.851,0.347-3.623-0.816-3.992-2.59
						c-0.365-1.772,0.799-3.541,2.634-3.96s3.664,0.731,4.045,2.576C308.139,274.796,306.919,276.578,305.069,276.925z"/>
				</g>
			</g>
			<g>
				<g>
					<path fill="none" d="M302.756,283.438c0.353,2.169,0.675,4.345,0.969,6.524l6.759-0.911c-0.302-2.238-0.633-4.476-0.996-6.708
						L302.756,283.438z"/>
					<path fill-rule="evenodd" clip-rule="evenodd" fill="#52505C" d="M307.104,289.507c-1.866,0.247-3.575-1.015-3.842-2.812
						s1.002-3.498,2.859-3.805c1.857-0.308,3.612,0.946,3.888,2.804C310.284,287.551,308.97,289.26,307.104,289.507z"/>
				</g>
			</g>
			<g>
				<g>
					<path fill="none" d="M304.455,295.899c0.244,2.188,0.463,4.381,0.656,6.577l6.794-0.601c-0.198-2.246-0.422-4.491-0.672-6.734
						L304.455,295.899z"/>
					<path fill-rule="evenodd" clip-rule="evenodd" fill="#52505C" d="M308.509,302.175c-1.876,0.162-3.525-1.179-3.707-2.991
						c-0.18-1.813,1.172-3.451,3.042-3.664s3.56,1.123,3.745,2.986C311.775,300.37,310.384,302.013,308.509,302.175z"/>
				</g>
			</g>
			<g>
				<g>
					<path fill="none" d="M305.581,308.449c0.151,2.201,0.279,4.404,0.387,6.609l6.813-0.332c-0.109-2.249-0.24-4.497-0.396-6.745
						L305.581,308.449z"/>
					<path fill-rule="evenodd" clip-rule="evenodd" fill="#52505C" d="M309.374,314.892c-1.88,0.089-3.477-1.318-3.583-3.141
						c-0.106-1.821,1.313-3.403,3.191-3.536s3.508,1.271,3.617,3.137C312.709,313.218,311.255,314.804,309.374,314.892z"/>
				</g>
			</g>
			<g>
				<g>
					<path fill="none" d="M306.209,321.054c0.07,2.208,0.121,4.417,0.153,6.628l6.819-0.099c-0.032-2.248-0.084-4.497-0.155-6.746
						L306.209,321.054z"/>
					<path fill-rule="evenodd" clip-rule="evenodd" fill="#52505C" d="M309.771,327.632c-1.882,0.024-3.43-1.438-3.472-3.266
						s1.437-3.358,3.318-3.421c1.881-0.063,3.458,1.398,3.501,3.264C313.162,326.076,311.653,327.608,309.771,327.632z"/>
				</g>
			</g>
			<g>
				<g>
					<path fill="#52505C" d="M322.42,333.123c0.036,1.445-1.096,2.641-2.53,2.668c-1.43,0.031-2.611-1.1-2.653-2.528
						c-0.038-1.425,1.081-2.622,2.514-2.669C321.181,330.543,322.385,331.675,322.42,333.123z"/>
					<line fill="#52505C" x1="319.827" y1="333.194" x2="319.827" y2="333.194"/>
				</g>
				<g>
					<path fill="#52505C" d="M315.752,333.138c0.031,1.425-1.103,2.604-2.536,2.633c-1.428,0.027-2.614-1.089-2.655-2.493
						c-0.039-1.404,1.083-2.583,2.514-2.631C314.507,330.599,315.702,331.714,315.752,333.138z"/>
					<line fill="#52505C" x1="313.153" y1="333.208" x2="313.153" y2="333.208"/>
				</g>
				<g>
					<path fill="#52505C" d="M309.066,333.156c0.04,1.402-1.094,2.563-2.527,2.591c-1.428,0.027-2.614-1.072-2.655-2.454
						c-0.039-1.383,1.083-2.541,2.516-2.589C307.83,330.654,309.031,331.752,309.066,333.156z"/>
					<line fill="#52505C" x1="306.477" y1="333.224" x2="306.477" y2="333.224"/>
				</g>
				<g>
					<path fill="#52505C" d="M302.39,333.17c0.043,1.383-1.094,2.526-2.527,2.555c-1.428,0.028-2.612-1.058-2.655-2.419
						c-0.039-1.36,1.083-2.5,2.516-2.549C301.152,330.712,302.356,331.789,302.39,333.17z"/>
					<line fill="#52505C" x1="299.8" y1="333.238" x2="299.8" y2="333.238"/>
				</g>
				<g>
					<path fill="#52505C" d="M319.176,339.142c0.023,1.434-1.125,2.602-2.559,2.614c-1.429,0.014-2.602-1.123-2.627-2.539
						c-0.019-1.414,1.119-2.585,2.55-2.613C317.973,336.576,319.161,337.712,319.176,339.142z"/>
					<line fill="#52505C" x1="316.587" y1="339.182" x2="316.587" y2="339.182"/>
				</g>
				<g>
					<path fill="#52505C" d="M312.505,339.077c0.018,1.412-1.131,2.565-2.563,2.58c-1.433,0.01-2.604-1.111-2.625-2.51
						c-0.021-1.396,1.117-2.55,2.55-2.577C311.296,336.542,312.485,337.663,312.505,339.077z"/>
					<line fill="#52505C" x1="309.91" y1="339.113" x2="309.91" y2="339.113"/>
				</g>
				<g>
					<path fill="#52505C" d="M305.829,339.006c0.018,1.396-1.131,2.536-2.568,2.547c-1.424,0.011-2.6-1.101-2.62-2.478
						c-0.021-1.375,1.113-2.514,2.549-2.541C304.619,336.506,305.809,337.613,305.829,339.006z"/>
					<line fill="#52505C" x1="303.233" y1="339.042" x2="303.233" y2="339.042"/>
				</g>
				<g>
					<path fill="#52505C" d="M315.934,345.292c0.006,1.415-1.157,2.555-2.583,2.557c-1.432,0.004-2.6-1.133-2.606-2.537
						c-0.008-1.407,1.148-2.555,2.577-2.565C314.75,342.731,315.923,343.875,315.934,345.292z"/>
					<line fill="#52505C" x1="313.335" y1="345.3" x2="313.335" y2="345.3"/>
				</g>
				<g>
					<path fill="#52505C" d="M309.253,345.154c0.012,1.403-1.145,2.545-2.577,2.547c-1.437,0.004-2.6-1.133-2.611-2.528
						c-0.003-1.396,1.152-2.53,2.581-2.541C308.076,342.622,309.248,343.75,309.253,345.154z"/>
					<line fill="#52505C" x1="306.666" y1="345.164" x2="306.666" y2="345.164"/>
				</g>
				<g>
					<path fill="#52505C" d="M312.59,351.206c0.009,1.392-1.11,2.451-2.538,2.54c-1.431,0.102-2.643-1.074-2.652-2.498
						c-0.007-1.42,1.148-2.556,2.585-2.561C311.418,348.685,312.577,349.825,312.59,351.206z"/>
					<line fill="#52505C" x1="309.993" y1="351.227" x2="309.993" y2="351.227"/>
				</g>
			</g>
		</g>
	</g>
</g>
<g id="line_1_">
	<g>
		<g>
			<path fill="#4E4E4E" d="M234.556,200.531c0.02-7.436,0.655-14.852,2.159-22.056c1.497-7.199,3.894-14.182,7.358-20.57
				c3.453-6.389,7.995-12.151,13.439-16.927c5.433-4.792,11.739-8.587,18.482-11.382c6.745-2.788,13.937-4.621,21.2-5.471
				c1.809-0.207,3.644-0.356,5.402-0.4c1.771-0.021,3.59,0.031,5.383,0.179c3.595,0.284,7.151,0.918,10.611,1.901
				c6.93,1.952,13.427,5.346,19.24,9.721c5.824,4.375,10.979,9.697,15.55,15.507c9.139,11.668,16.041,25.133,21.728,39.022
				c5.669,13.929,10.108,28.396,13.805,43.05c3.687,14.663,6.614,29.534,9.007,44.495c1.194,7.481,2.252,14.987,3.185,22.51l1,8.491
				l0.157,1.417l-23,2.519c10.289,13.603,20.264,27.747,29.574,42.567c8.214-15.541,15.705-31.695,22.729-48.294l-22.996,2.518
				l-0.158-1.43l-1.009-8.568c-0.941-7.593-2.009-15.171-3.216-22.729c-2.417-15.116-5.378-30.162-9.119-45.044
				c-3.753-14.874-8.267-29.604-14.083-43.897c-5.843-14.254-12.947-28.192-22.616-40.55c-4.841-6.151-10.362-11.874-16.726-16.656
				c-6.346-4.778-13.571-8.572-21.318-10.752c-3.866-1.098-7.843-1.807-11.84-2.123c-2.002-0.163-3.993-0.223-6.03-0.198
				c-2.048,0.052-4.012,0.215-5.986,0.44c-7.861,0.922-15.569,2.885-22.903,5.913c-7.32,3.032-14.246,7.189-20.244,12.479
				c-6.011,5.27-11.041,11.659-14.827,18.668c-3.801,7.01-6.388,14.592-7.991,22.295c-1.609,7.712-2.271,15.551-2.293,23.34
				L234.556,200.531z"/>
		</g>
	</g>
</g>
<circle fill="#4E4E4E" stroke="#4E4E4E" stroke-width="3" stroke-linecap="round" stroke-miterlimit="25" cx="153.568" cy="276.534" r="6.883"/>
<circle fill="#4E4E4E" stroke="#4E4E4E" stroke-width="3" stroke-linecap="round" stroke-miterlimit="25" cx="231.568" cy="199.534" r="6.883"/>
<path fill="#4E4E4E" d="M35.978,0.786h4.556v13.77c0,0.645,0.171,1.155,0.513,1.531s0.801,0.564,1.377,0.564
	c0.596,0,1.067-0.2,1.414-0.601s0.52-0.952,0.52-1.655V0.786h4.526v12.832c0,1.748-0.229,3.149-0.688,4.204
	s-1.135,1.829-2.029,2.322s-2.141,0.74-3.743,0.74c-2.363,0-4.028-0.605-4.995-1.816s-1.45-3.257-1.45-6.138V0.786z"/>
<path fill="#4E4E4E" d="M51.432,0.786h10.591v4.468h-3.062v15.088h-4.497V5.254h-3.032V0.786z"/>
<path fill="#4E4E4E" d="M62.975,0.786h4.629l2.417,8.643c0.459,1.709,0.771,3.169,0.938,4.38h0.059
	c0.146-1.064,0.308-1.938,0.483-2.622l2.695-10.4h4.746l-5.874,19.556h-4.116L62.975,0.786z"/>
<path fill="#4E4E4E" d="M81.329,0.786h8.979v4.16h-4.541V8.55h3.94v4.058h-3.94v3.56h4.57v4.175h-9.009V0.786z"/>
<path fill="#4E4E4E" d="M104.107,15.728v4.644c-0.938,0.303-1.777,0.454-2.52,0.454c-2.568,0-4.651-0.964-6.248-2.893
	s-2.395-4.465-2.395-7.61c0-2.92,0.806-5.33,2.417-7.229s3.647-2.849,6.108-2.849c0.957,0,1.836,0.127,2.637,0.381v4.658
	c-0.85-0.283-1.65-0.425-2.402-0.425c-1.152,0-2.109,0.527-2.871,1.582s-1.143,2.397-1.143,4.028c0,1.758,0.383,3.147,1.15,4.167
	s1.79,1.531,3.069,1.531C102.535,16.167,103.268,16.021,104.107,15.728z"/>
<path fill="#4E4E4E" d="M106.979,0.786h4.438v9.199h0.073l4.189-9.199h4.658l-4.541,9.99l4.351,9.565h-4.878l-3.779-8.13h-0.073
	v8.13h-4.438V0.786z"/>
<path fill="#4E4E4E" d="M122.55,0.786h4.438v15.029h3.516v4.526h-7.954V0.786z"/>
<path fill="#4E4E4E" d="M133.668,0.786h4.438v19.556h-4.438V0.786z"/>
<path fill="#4E4E4E" d="M142.442,0.786h4.482l5.64,11.279l-0.161-2.109v-9.17h4.438v19.556h-4.556l-5.522-11.104l0.117,2.432v8.672
	h-4.438V0.786z"/>
<path fill="#4E4E4E" d="M174.493,9.385v3.281c0,2.539-0.613,4.534-1.838,5.984s-2.903,2.175-5.032,2.175
	c-2.383,0-4.224-0.896-5.522-2.688s-1.948-4.348-1.948-7.668c0-3.35,0.647-5.891,1.941-7.625s3.186-2.6,5.676-2.6
	c2.793,0,4.814,1.489,6.064,4.468l-4.233,1.743c-0.352-0.625-0.679-1.082-0.981-1.37s-0.718-0.432-1.245-0.432
	c-0.898,0-1.536,0.471-1.912,1.414s-0.564,2.468-0.564,4.578c0,1.963,0.212,3.406,0.637,4.329s1.101,1.384,2.029,1.384
	c1.484,0,2.251-1.06,2.3-3.179h-2.065V9.385H174.493z"/>
<path fill="#4E4E4E" stroke="#4E4E4E" stroke-miterlimit="10" d="M488.361,317.224h10.591v4.468h-3.062v15.088h-4.497v-15.088
	h-3.032V317.224z"/>
<path fill="#4E4E4E" stroke="#4E4E4E" stroke-miterlimit="10" d="M501.867,317.224h4.438v19.556h-4.438V317.224z"/>
<path fill="#4E4E4E" stroke="#4E4E4E" stroke-miterlimit="10" d="M510.642,317.224h4.146c2.871,0,5.054,0.817,6.548,2.454
	c1.494,1.635,2.241,4.025,2.241,7.17c0,2.383-0.368,4.307-1.105,5.771c-0.738,1.465-1.768,2.524-3.091,3.179
	s-2.786,0.981-4.388,0.981h-4.351V317.224z M515.08,321.384v11.221c1.348-0.117,2.3-0.593,2.856-1.429
	c0.557-0.834,0.835-2.209,0.835-4.123c0-1.133-0.098-2.092-0.293-2.879c-0.195-0.785-0.485-1.391-0.871-1.816
	c-0.387-0.424-0.762-0.686-1.128-0.783S515.646,321.414,515.08,321.384z"/>
<g>
	<g>
		<g>
			<path fill="#4E4E4E" d="M10.738,0.813c1.244-1.083,3.28-1.083,4.524,0l8.476,7.383C24.982,9.279,26,11.516,26,13.166v6.024
				c0,1.65-1.038,2.137-2.306,1.081l-5.388-4.482C17.038,14.733,16,15.22,16,16.87v350.973c0,1.65-1.35,3-3,3l0,0
				c-1.65,0-3-1.35-3-3V16.87c0-1.65-1.038-2.137-2.306-1.081l-5.388,4.482C1.038,21.327,0,20.84,0,19.19v-6.024
				c0-1.65,1.018-3.887,2.262-4.97L10.738,0.813z"/>
		</g>
	</g>
</g>
<g>
	<g>
		<g>
			<path fill="#4E4E4E" d="M522.141,356.489c1.298,1.02,1.298,2.688,0,3.707l-11.191,8.793c-1.298,1.02-3.709,1.854-5.359,1.854
				h-10.894c-1.65,0-1.975-0.878-0.721-1.95l7.13-6.1c1.254-1.072,0.93-1.95-0.721-1.95H3c-1.65,0-3-1.35-3-3l0,0c0-1.65,1.35-3,3-3
				h497.385c1.65,0,1.931-0.823,0.623-1.83l-6.935-5.34c-1.308-1.007-1.027-1.83,0.623-1.83h10.894c1.65,0,4.062,0.834,5.359,1.854
				L522.141,356.489z"/>
		</g>
	</g>
</g>
<ellipse fill="#4E4E4E" cx="12.887" cy="362.315" rx="0.482" ry="0.069"/>
</svg>
