<?xml version="1.0" encoding="utf-8"?>
<!-- Generator: Adobe Illustrator 15.0.0, SVG Export Plug-In  -->
<!DOCTYPE svg PUBLIC "-//W3C//DTD SVG 1.1//EN" "http://www.w3.org/Graphics/SVG/1.1/DTD/svg11.dtd" [
	<!ENTITY ns_flows "http://ns.adobe.com/Flows/1.0/">
]>
<svg version="1.1"
	 xmlns="http://www.w3.org/2000/svg" xmlns:xlink="http://www.w3.org/1999/xlink" xmlns:a="http://ns.adobe.com/AdobeSVGViewerExtensions/3.0/"
	 x="0px" y="0px" width="525px" height="372px" viewBox="0 -1.158 525 372" enable-background="new 0 -1.158 525 372"
	 xml:space="preserve">
<defs>
</defs>
<path fill="#4E4E4E" d="M35.978,0.786h4.556v13.77c0,0.645,0.171,1.155,0.513,1.531s0.801,0.564,1.377,0.564
	c0.596,0,1.067-0.2,1.414-0.601s0.52-0.952,0.52-1.655V0.786h4.526v12.832c0,1.748-0.229,3.149-0.688,4.204
	s-1.135,1.829-2.029,2.322s-2.141,0.74-3.743,0.74c-2.363,0-4.028-0.605-4.995-1.816s-1.45-3.257-1.45-6.138V0.786z"/>
<path fill="#4E4E4E" d="M51.432,0.786h10.591v4.468h-3.062v15.088h-4.497V5.254h-3.032V0.786z"/>
<path fill="#4E4E4E" d="M62.975,0.786h4.629l2.417,8.643c0.459,1.709,0.771,3.169,0.938,4.38h0.059
	c0.146-1.064,0.308-1.938,0.483-2.622l2.695-10.4h4.746l-5.874,19.556h-4.116L62.975,0.786z"/>
<path fill="#4E4E4E" d="M81.329,0.786h8.979v4.16h-4.541V8.55h3.94v4.058h-3.94v3.56h4.57v4.175h-9.009V0.786z"/>
<path fill="#4E4E4E" d="M104.107,15.728v4.644c-0.938,0.303-1.777,0.454-2.52,0.454c-2.568,0-4.651-0.964-6.248-2.893
	s-2.395-4.465-2.395-7.61c0-2.92,0.806-5.33,2.417-7.229s3.647-2.849,6.108-2.849c0.957,0,1.836,0.127,2.637,0.381v4.658
	c-0.85-0.283-1.65-0.425-2.402-0.425c-1.152,0-2.109,0.527-2.871,1.582s-1.143,2.397-1.143,4.028c0,1.758,0.383,3.147,1.15,4.167
	s1.79,1.531,3.069,1.531C102.535,16.167,103.268,16.021,104.107,15.728z"/>
<path fill="#4E4E4E" d="M106.979,0.786h4.438v9.199h0.073l4.189-9.199h4.658l-4.541,9.99l4.351,9.565h-4.878l-3.779-8.13h-0.073
	v8.13h-4.438V0.786z"/>
<path fill="#4E4E4E" d="M122.55,0.786h4.438v15.029h3.516v4.526h-7.954V0.786z"/>
<path fill="#4E4E4E" d="M133.668,0.786h4.438v19.556h-4.438V0.786z"/>
<path fill="#4E4E4E" d="M142.442,0.786h4.482l5.64,11.279l-0.161-2.109v-9.17h4.438v19.556h-4.556l-5.522-11.104l0.117,2.432v8.672
	h-4.438V0.786z"/>
<path fill="#4E4E4E" d="M174.493,9.385v3.281c0,2.539-0.613,4.534-1.838,5.984s-2.903,2.175-5.032,2.175
	c-2.383,0-4.224-0.896-5.522-2.688s-1.948-4.348-1.948-7.668c0-3.35,0.647-5.891,1.941-7.625s3.186-2.6,5.676-2.6
	c2.793,0,4.814,1.489,6.064,4.468l-4.233,1.743c-0.352-0.625-0.679-1.082-0.981-1.37s-0.718-0.432-1.245-0.432
	c-0.898,0-1.536,0.471-1.912,1.414s-0.564,2.468-0.564,4.578c0,1.963,0.212,3.406,0.637,4.329s1.101,1.384,2.029,1.384
	c1.484,0,2.251-1.06,2.3-3.179h-2.065V9.385H174.493z"/>
<path fill="#4E4E4E" stroke="#4E4E4E" stroke-miterlimit="10" d="M488.361,317.224h10.591v4.468h-3.062v15.088h-4.497v-15.088
	h-3.032V317.224z"/>
<path fill="#4E4E4E" stroke="#4E4E4E" stroke-miterlimit="10" d="M501.867,317.224h4.438v19.556h-4.438V317.224z"/>
<path fill="#4E4E4E" stroke="#4E4E4E" stroke-miterlimit="10" d="M510.642,317.224h4.146c2.871,0,5.054,0.817,6.548,2.454
	c1.494,1.635,2.241,4.025,2.241,7.17c0,2.383-0.368,4.307-1.105,5.771c-0.738,1.465-1.768,2.524-3.091,3.179
	s-2.786,0.981-4.388,0.981h-4.351V317.224z M515.08,321.384v11.221c1.348-0.117,2.3-0.593,2.856-1.429
	c0.557-0.834,0.835-2.209,0.835-4.123c0-1.133-0.098-2.092-0.293-2.879c-0.195-0.785-0.485-1.391-0.871-1.816
	c-0.387-0.424-0.762-0.686-1.128-0.783S515.646,321.414,515.08,321.384z"/>
<g>
	<g>
		<g>
			<path fill="#4E4E4E" d="M10.738,0.813c1.244-1.083,3.28-1.083,4.524,0l8.476,7.383C24.982,9.279,26,11.516,26,13.166v6.024
				c0,1.65-1.038,2.137-2.306,1.081l-5.388-4.482C17.038,14.733,16,15.22,16,16.87v350.973c0,1.65-1.35,3-3,3l0,0
				c-1.65,0-3-1.35-3-3V16.87c0-1.65-1.038-2.137-2.306-1.081l-5.388,4.482C1.038,21.327,0,20.84,0,19.19v-6.024
				c0-1.65,1.018-3.887,2.262-4.97L10.738,0.813z"/>
		</g>
	</g>
</g>
<g>
	<g>
		<g>
			<path fill="#4E4E4E" d="M522.141,356.489c1.298,1.02,1.298,2.688,0,3.707l-11.191,8.793c-1.298,1.02-3.709,1.854-5.359,1.854
				h-10.894c-1.65,0-1.975-0.878-0.721-1.95l7.13-6.1c1.254-1.072,0.93-1.95-0.721-1.95H3c-1.65,0-3-1.35-3-3l0,0c0-1.65,1.35-3,3-3
				h497.385c1.65,0,1.931-0.823,0.623-1.83l-6.935-5.34c-1.308-1.007-1.027-1.83,0.623-1.83h10.894c1.65,0,4.062,0.834,5.359,1.854
				L522.141,356.489z"/>
		</g>
	</g>
</g>
<ellipse fill="#4E4E4E" cx="12.887" cy="362.315" rx="0.482" ry="0.069"/>
<g id="line_2_">
	<g>
		<g>
			<path fill="#333333" d="M80.282,358.872c0.029-2.427,0.183-5.057,0.377-7.596c0.2-2.561,0.458-5.122,0.765-7.68
				c0.617-5.115,1.431-10.212,2.427-15.272c1.996-10.119,4.719-20.098,8.212-29.787c6.97-19.362,17.13-37.635,30.741-52.973
				c6.792-7.664,14.417-14.577,22.729-20.545c8.311-5.972,17.296-11,26.715-15.048c18.857-8.124,39.319-12.291,59.906-13.633
				c20.621-1.309,41.461-0.245,61.462,4.562c19.979,4.755,39.018,13.423,55.244,25.942c16.272,12.464,29.609,28.573,39.725,46.471
				c5.074,8.949,9.383,18.345,12.988,28.008c0.901,2.416,1.76,4.85,2.574,7.297l1.152,3.567l0.419,1.349l-22.119,6.787
				c6.16,5.129,12.135,10.804,17.842,16.951c5.688,6.167,11.189,12.732,16.107,19.953c3.826-7.934,6.949-16.403,9.687-25.131
				c2.715-8.744,4.96-17.814,6.666-27.208l-22.116,6.786l-0.431-1.387l-1.187-3.671c-0.838-2.519-1.721-5.023-2.649-7.513
				c-3.714-9.952-8.159-19.651-13.413-28.919c-10.47-18.528-24.362-35.34-41.38-48.373c-8.487-6.521-17.702-12.096-27.399-16.607
				c-9.694-4.521-19.859-7.983-30.229-10.473c-20.77-4.989-42.232-6.063-63.359-4.724c-21.151,1.379-42.338,5.667-61.998,14.136
				c-9.817,4.219-19.214,9.474-27.909,15.724c-8.699,6.244-16.682,13.482-23.776,21.489c-14.223,16.029-24.762,35.031-31.961,55.029
				c-3.609,10.011-6.414,20.291-8.469,30.714c-1.026,5.212-1.865,10.46-2.501,15.74c-0.317,2.64-0.584,5.287-0.792,7.946
				c-0.203,2.68-0.363,5.279-0.396,8.087H80.282z"/>
		</g>
	</g>
</g>
</svg>
