<svg xmlns="http://www.w3.org/2000/svg" viewBox="0 0 542.5 370.84"><defs><style>.cls-1{isolation:isolate;}.cls-2{opacity:0.5;mix-blend-mode:multiply;}.cls-11,.cls-12,.cls-3,.cls-4,.cls-5,.cls-6{fill:none;}.cls-11,.cls-3{stroke:#000;}.cls-10,.cls-3,.cls-4,.cls-5{stroke-linecap:round;}.cls-10,.cls-11,.cls-12,.cls-3,.cls-4,.cls-5{stroke-miterlimit:25;}.cls-10,.cls-3,.cls-4{stroke-width:3px;}.cls-10,.cls-12,.cls-14,.cls-4,.cls-5{stroke:#4d4d4d;}.cls-5{stroke-width:6px;}.cls-7,.cls-8{fill:#655a5d;}.cls-7{fill-rule:evenodd;}.cls-9{fill:#646464;}.cls-10,.cls-13,.cls-14{fill:#4d4d4d;}.cls-11,.cls-12{stroke-linecap:square;stroke-width:4px;}.cls-14{stroke-miterlimit:10;}</style></defs><title>Asset 2</title><g class="cls-1"><g id="Layer_2" data-name="Layer 2"><g id="The_Graphs_2" data-name="The Graphs 2"><g id="single_lines" data-name="single lines"><g id="single_smooth_up" data-name="single smooth up"><g id="line"><g class="cls-2"><path class="cls-3" d="M289.28,213.43" transform="translate(0 -0.62)"/></g><path class="cls-4" d="M289.28,214.43" transform="translate(0 -0.62)"/></g><g id="line-2" data-name="line"><g class="cls-2"><path class="cls-3" d="M200,225.28" transform="translate(0 -0.62)"/></g><path class="cls-4" d="M200,226.28" transform="translate(0 -0.62)"/></g><path id="line-3" data-name="line" class="cls-5" d="M77.13,354.38s-3.27-77.29,77.13-77.29" transform="translate(0 -0.62)"/><path id="line-4" data-name="line" class="cls-5" d="M154.26,277.09S151,199.8,231.38,199.8" transform="translate(0 -0.62)"/><g id="line-5" data-name="line"><path class="cls-6" d="M160,281.07a33.38,33.38,0,0,1,6.2,1.94l2.64-6.29a40.19,40.19,0,0,0-7.47-2.33Z" transform="translate(0 -0.62)"/><path class="cls-7" d="M167.55,279.87a3.6,3.6,0,0,1-6.84-2.14,3.38,3.38,0,0,1,4.49-2.35,3.77,3.77,0,0,1,2.25,1.84A3.13,3.13,0,0,1,167.55,279.87Z" transform="translate(0 -0.62)"/><path class="cls-6" d="M173.91,287.46a41.1,41.1,0,0,1,4.92,4.39l5-4.69A47.9,47.9,0,0,0,178,282Z" transform="translate(0 -0.62)"/><path class="cls-7" d="M181.3,289.51a3.62,3.62,0,0,1-4.86,0,3.57,3.57,0,0,1-1.15-2.29,3.51,3.51,0,0,1,.66-2.52,3.16,3.16,0,0,1,2.34-1.25,3.76,3.76,0,0,1,2.71,1A3.41,3.41,0,0,1,181.3,289.51Z" transform="translate(0 -0.62)"/><path class="cls-6" d="M182.67,296.52l1.87,2.79,1.7,2.92,6-3.25-1.9-3.28c-.71-1.06-1.4-2.12-2.12-3.17Z" transform="translate(0 -0.62)"/><path class="cls-7" d="M189.23,300.61a3.6,3.6,0,0,1-3.8-6.08,3.59,3.59,0,0,1,3.8,6.08Z" transform="translate(0 -0.62)"/><path class="cls-6" d="M188.88,307.8c.45,1,.9,2.09,1.26,3.18s.79,2.15,1.13,3.25l6.5-2.08c-.37-1.19-.82-2.35-1.23-3.53s-.89-2.33-1.38-3.48Z" transform="translate(0 -0.62)"/><path class="cls-7" d="M194.52,313.19a3.59,3.59,0,0,1-4.38-2.21,3.94,3.94,0,0,1,.06-2.64,3.42,3.42,0,0,1,1.82-1.88,3.23,3.23,0,0,1,2.64.06,3.67,3.67,0,0,1,1.14.82,4,4,0,0,1,.74,1.27A3.43,3.43,0,0,1,194.52,313.19Z" transform="translate(0 -0.62)"/><path class="cls-6" d="M192.95,320.27c.26,1.13.56,2.24.79,3.38l.64,3.42,6.71-1.2-.68-3.63c-.24-1.21-.56-2.4-.84-3.61Z" transform="translate(0 -0.62)"/><path class="cls-7" d="M197.74,326.47a3.59,3.59,0,1,1,2.67-4.23A3.5,3.5,0,0,1,197.74,326.47Z" transform="translate(0 -0.62)"/><path class="cls-8" d="M211.14,330.67A2.74,2.74,0,0,1,209,334a2.95,2.95,0,0,1-.9-5.78A2.74,2.74,0,0,1,211.14,330.67Z" transform="translate(0 -0.62)"/><path class="cls-8" d="M204.53,331.54a2.67,2.67,0,0,1-2.16,3.17,2.8,2.8,0,0,1-.86-5.52A2.69,2.69,0,0,1,204.53,331.54Z" transform="translate(0 -0.62)"/><path class="cls-8" d="M197.9,332.43a2.59,2.59,0,0,1-2.17,3,2.68,2.68,0,0,1-3-2.23,2.64,2.64,0,0,1,2.12-3A2.6,2.6,0,0,1,197.9,332.43Z" transform="translate(0 -0.62)"/><path class="cls-8" d="M191.28,333.3a2.52,2.52,0,0,1-2.19,2.91,2.63,2.63,0,0,1-2.93-2.11,2.59,2.59,0,0,1,5.12-.8Z" transform="translate(0 -0.62)"/><path class="cls-8" d="M208.68,337.78a2.69,2.69,0,0,1-2.28,3.13,2.86,2.86,0,0,1-.64-5.66A2.7,2.7,0,0,1,208.68,337.78Z" transform="translate(0 -0.62)"/><path class="cls-8" d="M202,338.37a2.63,2.63,0,0,1-2.29,3,2.7,2.7,0,0,1-2.86-2.42,2.6,2.6,0,1,1,5.15-.59Z" transform="translate(0 -0.62)"/><path class="cls-8" d="M195.38,339a2.57,2.57,0,0,1-2.31,2.9,2.66,2.66,0,0,1-2.85-2.31,2.59,2.59,0,1,1,5.15-.58Z" transform="translate(0 -0.62)"/><path class="cls-8" d="M206,344.85a2.65,2.65,0,0,1-2.39,3,2.79,2.79,0,0,1-.42-5.55A2.68,2.68,0,0,1,206,344.85Z" transform="translate(0 -0.62)"/><path class="cls-8" d="M199.33,345.18a2.59,2.59,0,0,1-2.39,2.87,2.69,2.69,0,0,1-2.78-2.48,2.66,2.66,0,0,1,2.37-2.86A2.62,2.62,0,0,1,199.33,345.18Z" transform="translate(0 -0.62)"/><path class="cls-8" d="M203,351.54a2.64,2.64,0,0,1-2.48,2.84,2.74,2.74,0,0,1-.23-5.46A2.64,2.64,0,0,1,203,351.54Z" transform="translate(0 -0.62)"/></g><g id="line-6" data-name="line"><path class="cls-6" d="M237.46,203.63c1.06,0,2.13.09,3.18.22s2.12.17,3.15.37l1-6.75c-1.16-.21-2.32-.27-3.49-.41s-2.33-.19-3.49-.24Z" transform="translate(0 -0.62)"/><path class="cls-7" d="M244.28,200.84a3.53,3.53,0,0,1-1.28,2.24,3.17,3.17,0,0,1-2.36.76,3.44,3.44,0,0,1-2.18-1.17,3.54,3.54,0,0,1-.83-2.45,3.34,3.34,0,0,1,1.12-2.36,3.19,3.19,0,0,1,2.53-.8,3.43,3.43,0,0,1,2.34,1.24A3.35,3.35,0,0,1,244.28,200.84Z" transform="translate(0 -0.62)"/><path class="cls-6" d="M252.18,206a52.92,52.92,0,0,1,5.92,2.13l2.68-6.27a59.74,59.74,0,0,0-6.66-2.4Z" transform="translate(0 -0.62)"/><path class="cls-7" d="M259.44,205a3.61,3.61,0,0,1-1.81,1.86,3.38,3.38,0,0,1-2.45.13,3.13,3.13,0,0,1-1.8-1.68,3.54,3.54,0,0,1-.22-2.57,3.34,3.34,0,0,1,1.66-2,3.47,3.47,0,0,1,2.67-.14,3.24,3.24,0,0,1,2,1.82A3.27,3.27,0,0,1,259.44,205Z" transform="translate(0 -0.62)"/><polygon class="cls-6" points="263.2 210.07 264.57 210.84 265.9 211.68 267.22 212.53 268.5 213.46 272.5 207.94 271.07 206.9 269.58 205.94 268.08 204.99 266.54 204.12 263.2 210.07"/><path class="cls-7" d="M270.5,211.31a3.34,3.34,0,0,1-5.63-3.6,3.35,3.35,0,1,1,5.63,3.6Z" transform="translate(0 -0.62)"/><path class="cls-6" d="M272.94,217.66c.78.7,1.57,1.4,2.3,2.17s1.5,1.49,2.19,2.29l5-4.59c-.77-.88-1.6-1.71-2.43-2.54s-1.69-1.63-2.56-2.42Z" transform="translate(0 -0.62)"/><path class="cls-7" d="M280,219.82a3.47,3.47,0,0,1-4.71,0,3.39,3.39,0,0,1-.94-2.28,3.58,3.58,0,0,1,.91-2.43,3.3,3.3,0,0,1,2.36-1.12,3.23,3.23,0,0,1,2.48,1A3.3,3.3,0,0,1,280,219.82Z" transform="translate(0 -0.62)"/><path class="cls-6" d="M281.14,226.54q1.94,2.53,3.68,5.24l5.74-3.69q-1.88-2.93-4-5.71Z" transform="translate(0 -0.62)"/><path class="cls-7" d="M287.68,229.94a3.5,3.5,0,0,1-2.54.5,3.18,3.18,0,0,1-2.12-1.32,3.44,3.44,0,0,1,.82-4.65,3.32,3.32,0,0,1,4.77.74,3.43,3.43,0,0,1,.56,2.58A3.37,3.37,0,0,1,287.68,229.94Z" transform="translate(0 -0.62)"/><polygon class="cls-6" points="287.8 236.17 289.31 239.02 290.73 241.93 296.91 239.03 295.39 235.93 293.77 232.88 287.8 236.17"/><path class="cls-7" d="M293.82,241.1a3.34,3.34,0,1,1-3-6,3.35,3.35,0,1,1,3,6Z" transform="translate(0 -0.62)"/><path class="cls-6" d="M293.08,247.94c.81,2,1.59,4,2.3,6.1l6.44-2.25c-.75-2.16-1.56-4.3-2.42-6.42Z" transform="translate(0 -0.62)"/><path class="cls-7" d="M298.6,252.91a3.34,3.34,0,1,1-2.36-6.26,3.35,3.35,0,1,1,2.36,6.26Z" transform="translate(0 -0.62)"/><path class="cls-6" d="M297.21,259.66c.64,2.08,1.22,4.19,1.77,6.3l6.6-1.71c-.57-2.2-1.18-4.39-1.85-6.57Z" transform="translate(0 -0.62)"/><path class="cls-7" d="M302.28,265.11a3.34,3.34,0,1,1-1.81-6.44,3.35,3.35,0,1,1,1.81,6.44Z" transform="translate(0 -0.62)"/><path class="cls-6" d="M300.38,271.74c.47,2.14.92,4.28,1.33,6.44l6.7-1.28c-.42-2.23-.89-4.44-1.38-6.66Z" transform="translate(0 -0.62)"/><path class="cls-7" d="M305.07,277.55a3.34,3.34,0,1,1-1.35-6.55,3.35,3.35,0,1,1,1.35,6.55Z" transform="translate(0 -0.62)"/><path class="cls-6" d="M302.75,284.06c.36,2.17.68,4.34,1,6.52l6.76-.91c-.3-2.24-.63-4.48-1-6.71Z" transform="translate(0 -0.62)"/><path class="cls-7" d="M307.1,290.13a3.34,3.34,0,1,1-1-6.62,3.35,3.35,0,1,1,1,6.62Z" transform="translate(0 -0.62)"/><path class="cls-6" d="M304.45,296.52q.37,3.28.66,6.58l6.79-.6q-.3-3.37-.67-6.73Z" transform="translate(0 -0.62)"/><path class="cls-7" d="M308.51,302.79a3.35,3.35,0,1,1,3.08-3.67A3.4,3.4,0,0,1,308.51,302.79Z" transform="translate(0 -0.62)"/><path class="cls-6" d="M305.58,309.07q.22,3.3.39,6.61l6.81-.33q-.17-3.37-.39-6.74Z" transform="translate(0 -0.62)"/><path class="cls-7" d="M309.37,315.51A3.35,3.35,0,1,1,312.6,312,3.39,3.39,0,0,1,309.37,315.51Z" transform="translate(0 -0.62)"/><path class="cls-6" d="M306.21,321.67c.07,2.21.12,4.42.15,6.63l6.82-.1c0-2.25-.09-4.5-.15-6.75Z" transform="translate(0 -0.62)"/><path class="cls-7" d="M309.77,328.25a3.35,3.35,0,1,1,3.35-3.42A3.39,3.39,0,0,1,309.77,328.25Z" transform="translate(0 -0.62)"/><path class="cls-8" d="M322.42,333.74a2.59,2.59,0,1,1-2.67-2.53A2.59,2.59,0,0,1,322.42,333.74Z" transform="translate(0 -0.62)"/><path class="cls-8" d="M315.75,333.76a2.6,2.6,0,1,1-2.68-2.49A2.58,2.58,0,0,1,315.75,333.76Z" transform="translate(0 -0.62)"/><path class="cls-8" d="M309.06,333.77a2.54,2.54,0,0,1-2.53,2.59,2.52,2.52,0,1,1-.14-5A2.55,2.55,0,0,1,309.06,333.77Z" transform="translate(0 -0.62)"/><path class="cls-8" d="M302.39,333.79a2.52,2.52,0,0,1-2.53,2.55,2.49,2.49,0,1,1-.14-5A2.53,2.53,0,0,1,302.39,333.79Z" transform="translate(0 -0.62)"/><path class="cls-8" d="M319.18,339.76a2.59,2.59,0,1,1-2.64-2.54A2.57,2.57,0,0,1,319.18,339.76Z" transform="translate(0 -0.62)"/><path class="cls-8" d="M312.51,339.69a2.59,2.59,0,1,1-2.64-2.51A2.57,2.57,0,0,1,312.51,339.69Z" transform="translate(0 -0.62)"/><path class="cls-8" d="M305.83,339.62a2.6,2.6,0,1,1-2.64-2.47A2.55,2.55,0,0,1,305.83,339.62Z" transform="translate(0 -0.62)"/><path class="cls-8" d="M315.93,345.91a2.6,2.6,0,1,1-2.61-2.55A2.57,2.57,0,0,1,315.93,345.91Z" transform="translate(0 -0.62)"/><path class="cls-8" d="M309.25,345.77a2.55,2.55,0,0,1-2.58,2.55,2.54,2.54,0,1,1,2.58-2.55Z" transform="translate(0 -0.62)"/><path class="cls-8" d="M312.59,351.82a2.58,2.58,0,0,1-2.54,2.54,2.51,2.51,0,0,1-2.65-2.5,2.6,2.6,0,0,1,5.19,0Z" transform="translate(0 -0.62)"/></g><g id="line-7" data-name="line"><path class="cls-9" d="M234.56,201.15a114.89,114.89,0,0,1,2.2-22,74.81,74.81,0,0,1,7.36-20.56,60.29,60.29,0,0,1,13.43-16.93A65.9,65.9,0,0,1,276,130.22a80.16,80.16,0,0,1,21.19-5.48c1.81-.21,3.64-.35,5.4-.4.8,0,1.79,0,2.67.07s1.82,0,2.72.12c1.79.23,3.6.31,5.35.71l2.65.51,2.6.7,1.3.35,1.27.45,2.55.9,2.48,1.08,1.24.54,1.2.63,2.4,1.26,2.31,1.42,1.16.71,1.11.78,2.23,1.57a88.07,88.07,0,0,1,15.55,15.51c9.11,11.69,16,25.14,21.72,39a323.73,323.73,0,0,1,13.81,43c3.69,14.66,6.61,29.53,9,44.49q1.79,11.22,3.19,22.51l.68,5.64.32,2.85.16,1.42-23,2.52c10.29,13.6,20.26,27.75,29.57,42.57,8.21-15.54,15.7-31.69,22.73-48.29l-23,2.52-.16-1.43-.32-2.87-.69-5.7q-1.42-11.39-3.22-22.73c-2.42-15.11-5.37-30.16-9.11-45A330,330,0,0,0,381,188.29c-5.85-14.25-13-28.18-22.61-40.55a94.37,94.37,0,0,0-16.72-16.66l-2.44-1.72L338,128.5l-1.28-.78-2.55-1.57-2.66-1.39-1.33-.7-1.38-.6-2.76-1.2-2.84-1-1.42-.5-1.45-.4-2.91-.78c-1-.21-2-.38-3-.57-2-.44-4-.54-6-.79-1-.1-2-.09-3-.14L304,118l-.75,0h-.8c-2,.06-4,.22-6,.44a86.46,86.46,0,0,0-22.9,5.92,72.25,72.25,0,0,0-20.23,12.49,66.65,66.65,0,0,0-14.81,18.67,81.14,81.14,0,0,0-8,22.29,121.2,121.2,0,0,0-2.34,23.33Z" transform="translate(0 -0.62)"/></g><circle class="cls-10" cx="153.57" cy="276.53" r="6.88"/><circle class="cls-10" cx="231.57" cy="199.53" r="6.88"/><g id="line-8" data-name="line"><g class="cls-2"><path class="cls-11" d="M473.77,0" transform="translate(0 -0.62)"/></g><path class="cls-12" d="M473.77,1" transform="translate(0 -0.62)"/></g><path class="cls-13" d="M36.09,1.4h4.15q4.31,0,6.55,2.45T49,11a12.9,12.9,0,0,1-1.11,5.77A6.83,6.83,0,0,1,44.83,20a9.76,9.76,0,0,1-4.39,1H36.09Zm4.44,4.16V16.78a3.58,3.58,0,0,0,2.86-1.43,7.69,7.69,0,0,0,.83-4.12,12.12,12.12,0,0,0-.29-2.88,4.16,4.16,0,0,0-.87-1.82,2.46,2.46,0,0,0-1.13-.78A6.94,6.94,0,0,0,40.53,5.56Z" transform="translate(0 -0.62)"/><path class="cls-13" d="M52,1.4h9V5.56H56.46v3.6H60.4v4.06H56.46v3.56H61V21H52Z" transform="translate(0 -0.62)"/><path class="cls-13" d="M62.73,1.4h4.63L69.77,10a36.43,36.43,0,0,1,.94,4.38h.06a24,24,0,0,1,.48-2.62l2.7-10.4h4.75L72.82,21H68.7Z" transform="translate(0 -0.62)"/><path class="cls-13" d="M81.08,1.4h9V5.56H85.52v3.6h3.94v4.06H85.52v3.56h4.57V21h-9Z" transform="translate(0 -0.62)"/><path class="cls-13" d="M93.59,1.4H98v15h3.52V21h-8Z" transform="translate(0 -0.62)"/><path class="cls-13" d="M110.66,21.44a6.14,6.14,0,0,1-5.41-2.72q-1.86-2.72-1.86-7.84a12.62,12.62,0,0,1,1.87-7.38A6,6,0,0,1,110.46.86a6.26,6.26,0,0,1,5.44,2.65q1.88,2.65,1.88,7.57t-1.85,7.64A6,6,0,0,1,110.66,21.44ZM110.49,5.3q-2.4,0-2.4,5.64a12.59,12.59,0,0,0,.61,4.85A1.91,1.91,0,0,0,110.46,17a2.09,2.09,0,0,0,1.91-1.22A11.28,11.28,0,0,0,113,11Q113,5.3,110.49,5.3Z" transform="translate(0 -0.62)"/><path class="cls-13" d="M121.08,1.4h5.49a6.52,6.52,0,0,1,4.66,1.66A5.72,5.72,0,0,1,133,7.42a5.75,5.75,0,0,1-1.78,4.47,7.06,7.06,0,0,1-4.93,1.62h-.76V21h-4.44Zm4.44,3.75V9.77a3.76,3.76,0,0,0,2.21-.57,2,2,0,0,0,.71-1.71,2.09,2.09,0,0,0-.69-1.78A3.86,3.86,0,0,0,125.52,5.15Z" transform="translate(0 -0.62)"/><path class="cls-13" d="M137.77,1.4h5.61q1.2,6.33,1.89,10.88l.48-3q.29-1.77.63-3.46l.86-4.39H153L155.2,21h-4.39L149.62,7.51,146.88,21h-3L141,7.48,139.86,21h-4.2Z" transform="translate(0 -0.62)"/><path class="cls-13" d="M158.7,1.4h9V5.56h-4.54v3.6h3.94v4.06h-3.94v3.56h4.57V21h-9Z" transform="translate(0 -0.62)"/><path class="cls-13" d="M171.21,1.4h4.48l5.64,11.28-.16-2.11V1.4h4.44V21h-4.56l-5.52-11.1.12,2.43V21h-4.44Z" transform="translate(0 -0.62)"/><path class="cls-13" d="M188.35,1.4h10.59V5.87h-3.06V21h-4.5V5.87h-3Z" transform="translate(0 -0.62)"/><path class="cls-14" d="M488.36,317.84H499v4.47h-3.06V337.4h-4.5V322.31h-3Z" transform="translate(0 -0.62)"/><path class="cls-14" d="M501.87,317.84h4.44V337.4h-4.44Z" transform="translate(0 -0.62)"/><path class="cls-14" d="M512.06,317.84h5.61q1.2,6.33,1.89,10.88l.48-3q.29-1.77.63-3.46l.86-4.39h5.73l2.23,19.56H525.1l-1.19-13.45-2.74,13.45h-3l-2.87-13.48-1.14,13.48H510Z" transform="translate(0 -0.62)"/><path class="cls-14" d="M533,317.84h9V322h-4.54v3.6h3.94v4.06h-3.94v3.56H542v4.17h-9Z" transform="translate(0 -0.62)"/><path class="cls-13" d="M10.74,1.43a3.55,3.55,0,0,1,4.52,0l8.48,7.38a7.53,7.53,0,0,1,2.26,5v6c0,1.65-1,2.14-2.31,1.08l-5.39-4.48C17,15.35,16,15.84,16,17.49v351a3,3,0,0,1-3,3h0a3,3,0,0,1-3-3v-351c0-1.65-1-2.14-2.31-1.08L2.31,20.89C1,21.94,0,21.46,0,19.81v-6a7.53,7.53,0,0,1,2.26-5Z" transform="translate(0 -0.62)"/><path class="cls-13" d="M522.14,357.11a2.25,2.25,0,0,1,0,3.71l-11.19,8.79a10.14,10.14,0,0,1-5.36,1.85H494.7c-1.65,0-2-.88-.72-2l7.13-6.1c1.25-1.07.93-2-.72-2H3a3,3,0,0,1-3-3H0a3,3,0,0,1,3-3H500.38c1.65,0,1.93-.82.62-1.83l-6.93-5.34c-1.31-1-1-1.83.62-1.83h10.89a10.14,10.14,0,0,1,5.36,1.85Z" transform="translate(0 -0.62)"/><ellipse class="cls-13" cx="12.89" cy="362.31" rx="0.48" ry="0.07"/></g></g></g></g></g></svg>