<?xml version="1.0" encoding="utf-8"?>
<!-- Generator: Adobe Illustrator 15.0.0, SVG Export Plug-In  -->
<!DOCTYPE svg PUBLIC "-//W3C//DTD SVG 1.1//EN" "http://www.w3.org/Graphics/SVG/1.1/DTD/svg11.dtd" [
	<!ENTITY ns_flows "http://ns.adobe.com/Flows/1.0/">
]>
<svg version="1.1"
	 xmlns="http://www.w3.org/2000/svg" xmlns:xlink="http://www.w3.org/1999/xlink" xmlns:a="http://ns.adobe.com/AdobeSVGViewerExtensions/3.0/"
	 x="0px" y="0px" width="525px" height="371px" viewBox="0 -0.158 525 371" enable-background="new 0 -0.158 525 371"
	 xml:space="preserve">
<defs>
</defs>
<path id="line_4_" fill="none" stroke="#4E4E4E" stroke-width="6" stroke-linecap="square" stroke-miterlimit="25" d="
	M76.129,357.76c0,0,0-166.754,188.439-167.227"/>
<g id="line_3_">
	<g>
		<g>
			<g>
				<g>
					<path fill="none" d="M277.395,196.471c2.237,0.157,4.47,0.355,6.694,0.592l0.722-6.781c-2.31-0.246-4.621-0.451-6.933-0.613
						L277.395,196.471z"/>
					<path fill-rule="evenodd" clip-rule="evenodd" fill="#504947" d="M284.449,193.672c-0.205,1.872-1.859,3.226-3.702,3.065
						c-1.843-0.161-3.238-1.79-3.11-3.668s1.789-3.294,3.709-3.126C283.267,190.112,284.655,191.802,284.449,193.672z"/>
				</g>
			</g>
			<g>
				<g>
					<path fill="none" d="M293.111,198.27c2.198,0.363,4.389,0.766,6.56,1.232l1.424-6.67c-2.287-0.492-4.584-0.914-6.884-1.293
						L293.111,198.27z"/>
					<path fill-rule="evenodd" clip-rule="evenodd" fill="#504947" d="M300.383,196.167c-0.401,1.838-2.179,3.018-3.982,2.68
						c-1.804-0.339-3.036-2.082-2.739-3.942c0.295-1.857,2.087-3.119,3.996-2.761C299.566,192.501,300.785,194.328,300.383,196.167z
						"/>
				</g>
			</g>
			<g>
				<g>
					<path fill="none" d="M305.528,200.905c2.138,0.569,4.255,1.201,6.342,1.904l2.175-6.464c-2.235-0.753-4.49-1.427-6.759-2.03
						L305.528,200.905z"/>
					<path fill-rule="evenodd" clip-rule="evenodd" fill="#504947" d="M312.957,199.577c-0.611,1.78-2.498,2.752-4.239,2.23
						c-1.741-0.524-2.786-2.375-2.311-4.197c0.476-1.82,2.394-2.899,4.27-2.336C312.555,195.837,313.568,197.796,312.957,199.577z"
						/>
				</g>
			</g>
			<g>
				<g>
					<path fill="none" d="M317.461,204.895c2.027,0.832,4.013,1.748,5.951,2.742l3.117-6.065c-2.118-1.087-4.277-2.083-6.469-2.982
						L317.461,204.895z"/>
					<path fill-rule="evenodd" clip-rule="evenodd" fill="#504947" d="M324.971,204.604c-0.873,1.667-2.87,2.351-4.502,1.602
						c-1.631-0.752-2.414-2.717-1.708-4.464c0.704-1.744,2.761-2.561,4.561-1.731C325.123,200.838,325.846,202.937,324.971,204.604z
						"/>
				</g>
			</g>
			<g>
				<g>
					<path fill="none" d="M328.545,210.552c1.838,1.151,3.612,2.391,5.313,3.72l4.198-5.375c-1.893-1.479-3.861-2.854-5.889-4.123
						L328.545,210.552z"/>
					<path fill-rule="evenodd" clip-rule="evenodd" fill="#504947" d="M335.957,211.584c-1.173,1.473-3.251,1.777-4.705,0.761
						c-1.454-1.018-1.883-3.076-0.896-4.683c0.984-1.602,3.163-2.054,4.806-0.906C336.805,207.906,337.13,210.114,335.957,211.584z"
						/>
				</g>
			</g>
			<g>
				<g>
					<path fill="none" d="M338.291,218.099c1.561,1.486,3.035,3.062,4.426,4.711l5.218-4.392c-1.548-1.837-3.194-3.596-4.936-5.255
						L338.291,218.099z"/>
					<path fill-rule="evenodd" clip-rule="evenodd" fill="#504947" d="M345.326,220.615c-1.455,1.2-3.547,1.064-4.759-0.222
						c-1.208-1.289-1.209-3.386,0.078-4.762c1.283-1.374,3.517-1.374,4.894,0.093C346.917,217.189,346.774,219.419,345.326,220.615z
						"/>
				</g>
			</g>
			<g>
				<g>
					<path fill="none" d="M346.282,227.48c1.236,1.781,2.388,3.631,3.466,5.533l5.933-3.364c-1.17-2.063-2.43-4.09-3.794-6.056
						L346.282,227.48z"/>
					<path fill-rule="evenodd" clip-rule="evenodd" fill="#504947" d="M352.715,231.332c-1.645,0.916-3.691,0.386-4.642-1.131
						c-0.946-1.517-0.525-3.578,1.012-4.664c1.537-1.087,3.716-0.642,4.771,1.047C354.911,228.27,354.358,230.415,352.715,231.332z"
						/>
				</g>
			</g>
			<g>
				<g>
					<path fill="none" d="M352.517,238.306c0.964,1.99,1.873,4.021,2.754,6.085l6.271-2.68c-0.909-2.131-1.862-4.264-2.887-6.378
						L352.517,238.306z"/>
					<path fill-rule="evenodd" clip-rule="evenodd" fill="#504947" d="M358.406,243.051c-1.733,0.734-3.727-0.056-4.481-1.73
						c-0.753-1.674-0.028-3.67,1.661-4.501c1.688-0.83,3.758-0.076,4.556,1.695C360.938,240.285,360.139,242.317,358.406,243.051z"
						/>
				</g>
			</g>
			<g>
				<g>
					<path fill="none" d="M357.626,250.064c0.864,2.11,1.735,4.243,2.673,6.386l6.248-2.734c-0.892-2.036-1.745-4.125-2.608-6.234
						L357.626,250.064z"/>
					<path fill-rule="evenodd" clip-rule="evenodd" fill="#504947" d="M363.423,255.083c-1.722,0.764-3.754-0.067-4.488-1.838
						c-0.733-1.767,0.106-3.759,1.848-4.472c1.743-0.715,3.734,0.13,4.45,1.852C365.945,252.344,365.143,254.32,363.423,255.083z"/>
				</g>
			</g>
			<g>
				<g>
					<path fill="none" d="M363.079,262.273c1.136,2.133,2.422,4.257,3.996,6.265l5.368-4.206c-1.242-1.583-2.337-3.369-3.342-5.26
						L363.079,262.273z"/>
					<path fill-rule="evenodd" clip-rule="evenodd" fill="#504947" d="M369.759,266.434c-1.456,1.195-3.737,0.788-4.847-0.983
						c-1.105-1.759-0.488-3.915,1.178-4.778c1.675-0.869,3.686-0.295,4.594,1.144C371.578,263.25,371.215,265.242,369.759,266.434z"
						/>
				</g>
			</g>
			<g>
				<g>
					<path fill="none" d="M372.098,273.517c2.127,1.602,4.563,2.831,7.074,3.62l2.062-6.501c-1.839-0.582-3.529-1.438-5.048-2.579
						L372.098,273.517z"/>
					<path fill-rule="evenodd" clip-rule="evenodd" fill="#504947" d="M380.202,273.886c-0.281,0.896-0.918,1.597-1.782,1.938
						c-0.857,0.343-1.941,0.313-2.93-0.191c-0.989-0.504-1.655-1.366-1.88-2.266c-0.232-0.902-0.034-1.829,0.531-2.579
						c0.567-0.753,1.37-1.21,2.164-1.419c0.798-0.204,1.589-0.167,2.283,0.188s1.195,0.974,1.5,1.744
						C380.388,272.067,380.484,272.988,380.202,273.886z"/>
				</g>
			</g>
			<g>
				<g>
					<path fill="none" d="M386.049,278.398c2.52,0.171,4.995,0.074,7.415-0.175l-0.704-6.784c-2.114,0.219-4.213,0.293-6.244,0.155
						L386.049,278.398z"/>
					<path fill-rule="evenodd" clip-rule="evenodd" fill="#504947" d="M393.111,274.831c0.217,1.865-1.244,3.579-3.318,3.638
						c-2.081,0.063-3.678-1.6-3.511-3.472c0.166-1.879,1.627-3.293,3.323-3.347C391.31,271.605,392.896,272.957,393.111,274.831z"/>
				</g>
			</g>
			<g>
				<g>
					<path fill="none" d="M399.919,277.203c2.335-0.483,4.626-1.067,6.886-1.717l-1.882-6.555c-2.123,0.609-4.254,1.151-6.386,1.593
						L399.919,277.203z"/>
					<path fill-rule="evenodd" clip-rule="evenodd" fill="#504947" d="M405.863,272.208c0.529,1.806-0.563,3.718-2.474,4.198
						c-1.915,0.48-3.796-0.699-4.161-2.544c-0.366-1.848,0.754-3.632,2.504-4.072C403.485,269.351,405.334,270.402,405.863,272.208z
						"/>
				</g>
			</g>
			<g>
				<g>
					<path fill="none" d="M412.872,273.574c2.209-0.752,4.392-1.554,6.556-2.391l-2.461-6.361c-2.089,0.809-4.188,1.579-6.295,2.297
						L412.872,273.574z"/>
					<path fill-rule="evenodd" clip-rule="evenodd" fill="#504947" d="M418.197,268.002c0.685,1.754-0.216,3.744-2.031,4.408
						c-1.816,0.664-3.795-0.28-4.395-2.064s0.323-3.708,2.054-4.342C415.559,265.371,417.513,266.25,418.197,268.002z"/>
				</g>
			</g>
			<g>
				<g>
					<path fill="#504947" d="M418.568,254.267c1.24-0.554,2.728,0.03,3.327,1.333c0.602,1.298,0.061,2.825-1.212,3.401
						c-1.271,0.57-2.766-0.042-3.33-1.359C416.786,256.327,417.328,254.821,418.568,254.267z"/>
					<line fill="#504947" x1="419.626" y1="256.635" x2="419.626" y2="256.635"/>
				</g>
				<g>
					<path fill="#504947" d="M421.142,260.418c1.279-0.565,2.796,0.009,3.398,1.31c0.6,1.297,0.032,2.84-1.274,3.43
						c-1.309,0.587-2.838-0.015-3.405-1.33S419.871,261.001,421.142,260.418z"/>
					<line fill="#504947" x1="422.203" y1="262.792" x2="422.203" y2="262.792"/>
				</g>
				<g>
					<path fill="#504947" d="M423.725,266.584c1.312-0.588,2.855-0.025,3.458,1.275c0.6,1.296,0.008,2.851-1.335,3.455
						c-1.346,0.603-2.907,0.014-3.476-1.302C421.801,268.7,422.41,267.169,423.725,266.584z"/>
					<line fill="#504947" x1="424.784" y1="268.949" x2="424.784" y2="268.949"/>
				</g>
				<g>
					<path fill="#504947" d="M426.302,272.745c1.349-0.607,2.921-0.055,3.525,1.246c0.603,1.295-0.019,2.86-1.397,3.481
						c-1.382,0.618-2.978,0.043-3.549-1.271C424.313,274.887,424.95,273.343,426.302,272.745z"/>
					<line fill="#504947" x1="427.363" y1="275.107" x2="427.363" y2="275.107"/>
				</g>
				<g>
					<path fill="#504947" d="M425.146,254.93c1.253-0.599,2.773-0.054,3.402,1.235c0.627,1.283,0.103,2.834-1.176,3.448
						c-1.281,0.608-2.811,0.037-3.409-1.262C423.364,257.05,423.893,255.52,425.146,254.93z"/>
					<line fill="#504947" x1="426.26" y1="257.268" x2="426.26" y2="257.268"/>
				</g>
				<g>
					<path fill="#504947" d="M427.863,261.023c1.284-0.606,2.826-0.07,3.457,1.217c0.626,1.288,0.084,2.847-1.229,3.469
						c-1.31,0.624-2.865,0.065-3.467-1.236C426.025,263.174,426.58,261.632,427.863,261.023z"/>
					<line fill="#504947" x1="428.978" y1="263.367" x2="428.978" y2="263.367"/>
				</g>
				<g>
					<path fill="#504947" d="M430.579,267.122c1.315-0.62,2.881-0.095,3.513,1.198c0.624,1.278,0.06,2.852-1.28,3.486
						c-1.337,0.637-2.921,0.093-3.524-1.211C428.686,269.298,429.268,267.745,430.579,267.122z"/>
					<line fill="#504947" x1="431.696" y1="269.464" x2="431.696" y2="269.464"/>
				</g>
				<g>
					<path fill="#504947" d="M432.005,255.25c1.261-0.629,2.808-0.109,3.454,1.161c0.651,1.275,0.146,2.841-1.135,3.482
						c-1.284,0.643-2.839,0.105-3.465-1.179C430.23,257.432,430.747,255.884,432.005,255.25z"/>
					<line fill="#504947" x1="433.165" y1="257.576" x2="433.165" y2="257.576"/>
				</g>
				<g>
					<path fill="#504947" d="M434.841,261.3c1.282-0.646,2.848-0.143,3.498,1.134c0.653,1.279,0.128,2.85-1.177,3.507
						c-1.31,0.65-2.888,0.124-3.515-1.16C433.021,263.496,433.557,261.94,434.841,261.3z"/>
					<line fill="#504947" x1="435.998" y1="263.614" x2="435.998" y2="263.614"/>
				</g>
				<g>
					<path fill="#504947" d="M438.856,255.537c1.265-0.656,2.827-0.168,3.499,1.102c0.67,1.261,0.178,2.836-1.105,3.504
						c-1.284,0.662-2.853,0.166-3.507-1.115C437.095,257.75,437.595,256.194,438.856,255.537z"/>
					<line fill="#504947" x1="440.055" y1="257.84" x2="440.055" y2="257.84"/>
				</g>
			</g>
		</g>
	</g>
</g>
<g id="line_2_">
	<g>
		<g>
			<g>
				<g>
					<path fill="none" d="M277.805,192.52c2.32-0.068,4.641-0.156,6.962-0.266l-0.322-6.813c-2.278,0.107-4.559,0.194-6.84,0.261
						L277.805,192.52z"/>
					<path fill-rule="evenodd" clip-rule="evenodd" fill="#504947" d="M284.605,188.848c0.092,1.88-1.394,3.482-3.319,3.555
						c-1.926,0.074-3.529-1.409-3.582-3.291c-0.052-1.882,1.437-3.451,3.322-3.524C282.912,185.517,284.513,186.968,284.605,188.848
						z"/>
				</g>
			</g>
			<g>
				<g>
					<path fill="none" d="M294.226,191.681c2.319-0.173,4.639-0.371,6.957-0.597l-0.661-6.789c-2.265,0.221-4.532,0.415-6.804,0.585
						L294.226,191.681z"/>
					<path fill-rule="evenodd" clip-rule="evenodd" fill="#504947" d="M300.852,187.69c0.187,1.873-1.223,3.549-3.147,3.713
						s-3.597-1.246-3.732-3.122c-0.137-1.879,1.274-3.514,3.149-3.674C298.997,184.448,300.665,185.817,300.852,187.69z"/>
				</g>
			</g>
			<g>
				<g>
					<path fill="none" d="M307.477,190.401c2.314-0.277,4.628-0.586,6.938-0.927l-0.998-6.747c-2.245,0.331-4.496,0.631-6.752,0.902
						L307.477,190.401z"/>
					<path fill-rule="evenodd" clip-rule="evenodd" fill="#504947" d="M313.915,186.1c0.28,1.861-1.048,3.606-2.969,3.861
						c-1.92,0.257-3.656-1.077-3.876-2.946c-0.221-1.87,1.113-3.565,2.973-3.814C311.903,182.954,313.635,184.239,313.915,186.1z"/>
				</g>
			</g>
			<g>
				<g>
					<path fill="none" d="M320.68,188.462c2.303-0.404,4.6-0.847,6.892-1.326l-1.4-6.675c-2.215,0.464-4.439,0.892-6.671,1.284
						L320.68,188.462z"/>
					<path fill-rule="evenodd" clip-rule="evenodd" fill="#504947" d="M326.871,183.798c0.392,1.841-0.833,3.664-2.742,4.029
						c-1.909,0.366-3.719-0.869-4.039-2.724c-0.32-1.855,0.914-3.621,2.751-3.974C324.678,180.779,326.479,181.957,326.871,183.798z
						"/>
				</g>
			</g>
			<g>
				<g>
					<path fill="none" d="M333.779,185.729c2.277-0.558,4.547-1.155,6.806-1.802l-1.877-6.557c-2.169,0.621-4.352,1.196-6.546,1.733
						L333.779,185.729z"/>
					<path fill-rule="evenodd" clip-rule="evenodd" fill="#504947" d="M339.646,180.649c0.524,1.808-0.572,3.713-2.458,4.213
						s-3.778-0.617-4.218-2.445c-0.44-1.832,0.672-3.67,2.473-4.148C337.245,177.792,339.121,178.841,339.646,180.649z"/>
				</g>
			</g>
			<g>
				<g>
					<path fill="none" d="M346.689,182.052c2.235-0.733,4.455-1.521,6.658-2.356l-2.426-6.375c-2.102,0.797-4.223,1.549-6.361,2.252
						L346.689,182.052z"/>
					<path fill-rule="evenodd" clip-rule="evenodd" fill="#504947" d="M352.135,176.508c0.677,1.756-0.259,3.751-2.105,4.404
						c-1.846,0.652-3.823-0.308-4.404-2.1c-0.58-1.789,0.38-3.711,2.129-4.33C349.504,173.864,351.457,174.751,352.135,176.508z"/>
				</g>
			</g>
			<g>
				<g>
					<path fill="none" d="M359.283,177.285c2.164-0.94,4.31-1.929,6.426-2.982l-3.032-6.109c-2.007,0.999-4.044,1.938-6.102,2.832
						L359.283,177.285z"/>
					<path fill-rule="evenodd" clip-rule="evenodd" fill="#504947" d="M364.192,171.249c0.845,1.681,0.104,3.762-1.679,4.588
						c-1.782,0.827-3.846,0.048-4.585-1.681c-0.74-1.733,0.039-3.728,1.716-4.506C361.322,168.873,363.348,169.566,364.192,171.249z
						"/>
				</g>
			</g>
			<g>
				<g>
					<path fill="none" d="M371.391,171.306c2.064-1.153,4.096-2.37,6.093-3.64l-3.662-5.753c-1.888,1.2-3.809,2.351-5.763,3.442
						L371.391,171.306z"/>
					<path fill-rule="evenodd" clip-rule="evenodd" fill="#504947" d="M375.652,164.79c1.02,1.583,0.5,3.729-1.191,4.74
						c-1.69,1.011-3.825,0.447-4.736-1.2s-0.344-3.709,1.239-4.656S374.634,163.208,375.652,164.79z"/>
				</g>
			</g>
			<g>
				<g>
					<path fill="none" d="M382.817,164.072c1.929-1.373,3.816-2.805,5.663-4.285l-4.271-5.317c-1.745,1.399-3.527,2.751-5.35,4.048
						L382.817,164.072z"/>
					<path fill-rule="evenodd" clip-rule="evenodd" fill="#504947" d="M386.345,157.128c1.186,1.46,0.906,3.652-0.666,4.842
						c-1.57,1.191-3.757,0.861-4.84-0.676c-1.085-1.54-0.744-3.648,0.724-4.762C383.032,155.42,385.158,155.667,386.345,157.128z"/>
				</g>
			</g>
			<g>
				<g>
					<path fill="none" d="M393.387,155.632c1.767-1.574,3.486-3.198,5.162-4.864l-4.812-4.833c-1.589,1.58-3.218,3.118-4.889,4.607
						L393.387,155.632z"/>
					<path fill-rule="evenodd" clip-rule="evenodd" fill="#504947" d="M396.143,148.352c1.334,1.326,1.292,3.535-0.141,4.884
						c-1.431,1.353-3.641,1.261-4.884-0.149c-1.247-1.413-1.136-3.545,0.205-4.814C392.667,147.007,394.807,147.022,396.143,148.352
						z"/>
				</g>
			</g>
			<g>
				<g>
					<path fill="none" d="M402.986,146.133c1.589-1.745,3.138-3.525,4.637-5.344l-5.26-4.342c-1.429,1.734-2.903,3.429-4.414,5.088
						L402.986,146.133z"/>
					<path fill-rule="evenodd" clip-rule="evenodd" fill="#504947" d="M404.993,138.618c1.456,1.192,1.632,3.39,0.345,4.872
						c-1.285,1.483-3.487,1.619-4.87,0.345c-1.386-1.277-1.494-3.416-0.281-4.814C401.401,137.622,403.536,137.425,404.993,138.618z
						"/>
				</g>
			</g>
			<g>
				<g>
					<path fill="#504947" d="M398.507,126.519c0.775-1.075,2.339-1.301,3.516-0.481c1.176,0.813,1.489,2.396,0.683,3.524
						c-0.809,1.121-2.407,1.321-3.548,0.457C398.014,129.154,397.728,127.593,398.507,126.519z"/>
					<line fill="#504947" x1="400.606" y1="128.041" x2="400.606" y2="128.041"/>
				</g>
				<g>
					<path fill="#504947" d="M403.812,130.559c0.818-1.124,2.414-1.389,3.593-0.573c1.174,0.813,1.461,2.438,0.617,3.613
						c-0.847,1.173-2.481,1.414-3.622,0.553C403.254,133.287,403.007,131.69,403.812,130.559z"/>
					<line fill="#504947" x1="405.918" y1="132.082" x2="405.918" y2="132.082"/>
				</g>
				<g>
					<path fill="#504947" d="M409.133,134.606c0.849-1.178,2.474-1.485,3.652-0.669c1.175,0.813,1.436,2.475,0.553,3.7
						c-0.884,1.223-2.552,1.506-3.695,0.645C408.496,137.422,408.277,135.781,409.133,134.606z"/>
					<line fill="#504947" x1="411.233" y1="136.122" x2="411.233" y2="136.122"/>
				</g>
				<g>
					<path fill="#504947" d="M414.445,138.65c0.886-1.231,2.543-1.577,3.724-0.764c1.177,0.81,1.406,2.513,0.487,3.789
						c-0.923,1.273-2.624,1.599-3.77,0.74C413.742,141.554,413.55,139.874,414.445,138.65z"/>
					<line fill="#504947" x1="416.548" y1="140.163" x2="416.548" y2="140.163"/>
				</g>
				<g>
					<path fill="#504947" d="M404.445,123.848c0.754-1.137,2.324-1.445,3.532-0.673c1.203,0.77,1.563,2.364,0.783,3.548
						c-0.784,1.18-2.393,1.462-3.566,0.646C404.018,126.551,403.688,124.979,404.445,123.848z"/>
					<line fill="#504947" x1="406.601" y1="125.283" x2="406.601" y2="125.283"/>
				</g>
				<g>
					<path fill="#504947" d="M409.906,127.68c0.791-1.181,2.388-1.526,3.597-0.757c1.206,0.773,1.542,2.401,0.723,3.631
						c-0.815,1.229-2.454,1.552-3.631,0.736C409.419,130.475,409.118,128.864,409.906,127.68z"/>
					<line fill="#504947" x1="412.066" y1="129.118" x2="412.066" y2="129.118"/>
				</g>
				<g>
					<path fill="#504947" d="M415.369,131.518c0.826-1.23,2.449-1.616,3.661-0.842c1.201,0.766,1.515,2.436,0.663,3.711
						c-0.849,1.275-2.515,1.643-3.695,0.826C414.82,134.399,414.549,132.749,415.369,131.518z"/>
					<line fill="#504947" x1="417.532" y1="132.952" x2="417.532" y2="132.952"/>
				</g>
				<g>
					<path fill="#504947" d="M410.424,120.609c0.731-1.188,2.31-1.568,3.536-0.842c1.233,0.728,1.641,2.329,0.887,3.559
						c-0.756,1.235-2.368,1.595-3.572,0.826C410.069,123.384,409.699,121.803,410.424,120.609z"/>
					<line fill="#504947" x1="412.638" y1="121.972" x2="412.638" y2="121.972"/>
				</g>
				<g>
					<path fill="#504947" d="M416.028,124.248c0.756-1.236,2.353-1.659,3.586-0.931c1.238,0.729,1.62,2.362,0.839,3.642
						c-0.787,1.276-2.427,1.676-3.632,0.908C415.617,127.097,415.27,125.481,416.028,124.248z"/>
					<line fill="#504947" x1="418.233" y1="125.6" x2="418.233" y2="125.6"/>
				</g>
				<g>
					<path fill="#504947" d="M416.353,117.2c0.704-1.239,2.28-1.689,3.539-0.999c1.252,0.685,1.698,2.286,0.972,3.565
						c-0.731,1.273-2.332,1.712-3.57,0.982C416.06,120.018,415.648,118.436,416.353,117.2z"/>
					<line fill="#504947" x1="418.609" y1="118.484" x2="418.609" y2="118.484"/>
				</g>
			</g>
		</g>
	</g>
</g>
<g>
	<path fill="#4E4E4E" d="M264.568,197.917c-4.071,0-7.383-3.312-7.383-7.383s3.312-7.383,7.383-7.383s7.383,3.312,7.383,7.383
		S268.639,197.917,264.568,197.917z"/>
	<path fill="#4E4E4E" d="M264.568,183.651c3.801,0,6.883,3.082,6.883,6.883s-3.082,6.883-6.883,6.883s-6.883-3.082-6.883-6.883
		S260.768,183.651,264.568,183.651 M264.568,182.651c-4.347,0-7.883,3.536-7.883,7.883s3.536,7.883,7.883,7.883
		s7.883-3.536,7.883-7.883S268.915,182.651,264.568,182.651L264.568,182.651z"/>
</g>
<g>
	<path fill="#4E4E4E" d="M263.992,147.526c24.125,0,43.682,19.557,43.682,43.682s-19.557,43.682-43.682,43.682
		s-43.682-19.557-43.682-43.682S239.867,147.526,263.992,147.526 M263.992,143.526c-26.292,0-47.682,21.39-47.682,47.682
		s21.39,47.682,47.682,47.682s47.682-21.39,47.682-47.682S290.284,143.526,263.992,143.526L263.992,143.526z"/>
</g>
<g id="line_1_">
	<g>
		<g>
			<g>
				<g>
					<path fill="none" d="M274.954,198.655c1.89,0.86,3.739,1.856,5.534,2.951l3.557-5.819c-2.012-1.228-4.096-2.352-6.267-3.34
						L274.954,198.655z"/>
					<path fill-rule="evenodd" clip-rule="evenodd" fill="#504947" d="M282.267,198.697c-0.998,1.599-2.995,2.152-4.509,1.346
						c-1.51-0.811-2.151-2.768-1.392-4.491c0.757-1.722,2.858-2.461,4.605-1.523C282.719,194.96,283.263,197.103,282.267,198.697z"
						/>
				</g>
			</g>
			<g>
				<g>
					<path fill="none" d="M287.486,206.611c1.634,1.349,3.206,2.779,4.712,4.282l4.816-4.829c-1.651-1.648-3.382-3.224-5.188-4.714
						L287.486,206.611z"/>
					<path fill-rule="evenodd" clip-rule="evenodd" fill="#504947" d="M294.606,208.478c-1.342,1.324-3.427,1.389-4.717,0.216
						c-1.289-1.173-1.42-3.25-0.233-4.714c1.184-1.461,3.376-1.646,4.821-0.333C295.922,204.961,295.944,207.159,294.606,208.478z"
						/>
				</g>
			</g>
			<g>
				<g>
					<path fill="none" d="M296.127,215.142c1.389,1.62,2.704,3.308,3.96,5.041l5.529-3.993c-1.36-1.879-2.79-3.712-4.305-5.479
						L296.127,215.142z"/>
					<path fill-rule="evenodd" clip-rule="evenodd" fill="#504947" d="M302.852,218.186c-1.537,1.094-3.606,0.813-4.695-0.566
						c-1.084-1.383-0.859-3.459,0.563-4.693c1.42-1.233,3.604-1.044,4.801,0.482C304.722,214.93,304.382,217.098,302.852,218.186z"
						/>
				</g>
			</g>
			<g>
				<g>
					<path fill="none" d="M303.33,225.022c1.137,1.821,2.203,3.69,3.213,5.593l6.028-3.19c-1.082-2.037-2.227-4.044-3.451-6.007
						L303.33,225.022z"/>
					<path fill-rule="evenodd" clip-rule="evenodd" fill="#504947" d="M309.558,229.02c-1.672,0.871-3.691,0.302-4.574-1.232
						c-0.878-1.536-0.352-3.562,1.241-4.568c1.59-1.004,3.718-0.498,4.675,1.173C311.858,226.062,311.224,228.151,309.558,229.02z"
						/>
				</g>
			</g>
			<g>
				<g>
					<path fill="none" d="M309.128,235.874c0.9,1.964,1.733,3.961,2.516,5.98l6.361-2.46c-0.829-2.14-1.714-4.262-2.673-6.353
						L309.128,235.874z"/>
					<path fill-rule="evenodd" clip-rule="evenodd" fill="#504947" d="M314.824,240.624c-1.76,0.671-3.701-0.14-4.395-1.781
						c-0.69-1.642,0.094-3.594,1.801-4.385c1.709-0.792,3.744-0.022,4.486,1.741C317.461,237.962,316.582,239.955,314.824,240.624z"
						/>
				</g>
			</g>
			<g>
				<g>
					<path fill="none" d="M313.631,247.4c0.683,2.061,1.313,4.142,1.893,6.239l6.573-1.817c-0.607-2.202-1.271-4.392-1.991-6.565
						L313.631,247.4z"/>
					<path fill-rule="evenodd" clip-rule="evenodd" fill="#504947" d="M318.81,252.73c-1.816,0.494-3.677-0.509-4.193-2.225
						c-0.521-1.715,0.469-3.577,2.252-4.177c1.785-0.601,3.722,0.378,4.275,2.199C321.692,250.349,320.626,252.237,318.81,252.73z"
						/>
				</g>
			</g>
			<g>
				<g>
					<path fill="none" d="M316.979,259.375c0.493,2.123,0.94,4.26,1.344,6.407l6.703-1.262c-0.421-2.237-0.887-4.468-1.403-6.688
						L316.979,259.375z"/>
					<path fill-rule="evenodd" clip-rule="evenodd" fill="#504947" d="M321.674,265.152c-1.852,0.341-3.62-0.819-3.99-2.582
						c-0.367-1.763,0.785-3.533,2.617-3.966c1.832-0.434,3.671,0.712,4.059,2.566C324.748,263.024,323.524,264.81,321.674,265.152z"
						/>
				</g>
			</g>
			<g>
				<g>
					<path fill="none" d="M319.317,271.638c0.331,2.163,0.616,4.334,0.868,6.511l6.775-0.783c-0.261-2.254-0.557-4.506-0.9-6.753
						L319.317,271.638z"/>
					<path fill-rule="evenodd" clip-rule="evenodd" fill="#504947" d="M323.573,277.757c-1.87,0.21-3.555-1.077-3.792-2.869
						c-0.239-1.792,1.045-3.473,2.908-3.763c1.857-0.289,3.603,0.989,3.852,2.86S325.444,277.547,323.573,277.757z"/>
				</g>
			</g>
			<g>
				<g>
					<path fill="#504947" d="M336.687,282.13c0.169,1.483-0.868,2.802-2.293,2.942c-1.426,0.146-2.687-0.908-2.859-2.353
						c-0.157-1.44,0.835-2.758,2.261-2.94C335.211,279.595,336.525,280.646,336.687,282.13z"/>
					<line fill="#504947" x1="334.11" y1="282.427" x2="334.11" y2="282.427"/>
				</g>
				<g>
					<path fill="#504947" d="M330.045,282.723c0.16,1.439-0.882,2.723-2.305,2.865c-1.426,0.141-2.688-0.881-2.854-2.277
						c-0.155-1.396,0.844-2.676,2.268-2.858C328.571,280.271,329.874,281.286,330.045,282.723z"/>
					<line fill="#504947" x1="327.462" y1="283.017" x2="327.462" y2="283.017"/>
				</g>
				<g>
					<path fill="#504947" d="M323.386,283.319c0.165,1.393-0.88,2.64-2.303,2.779c-1.426,0.141-2.686-0.846-2.849-2.197
						c-0.15-1.354,0.852-2.592,2.278-2.773C321.929,280.944,323.233,281.923,323.386,283.319z"/>
					<line fill="#504947" x1="320.812" y1="283.611" x2="320.812" y2="283.611"/>
				</g>
				<g>
					<path fill="#504947" d="M316.735,283.911c0.164,1.349-0.887,2.561-2.31,2.7c-1.426,0.142-2.682-0.815-2.842-2.121
						c-0.146-1.31,0.859-2.508,2.285-2.69C315.285,281.622,316.589,282.559,316.735,283.911z"/>
					<line fill="#504947" x1="314.161" y1="284.2" x2="314.161" y2="284.2"/>
				</g>
				<g>
					<path fill="#504947" d="M333.941,288.549c0.13,1.462-0.94,2.732-2.369,2.838c-1.426,0.105-2.667-0.965-2.797-2.389
						c-0.118-1.422,0.919-2.689,2.346-2.832C332.545,286.024,333.823,287.09,333.941,288.549z"/>
					<line fill="#504947" x1="331.362" y1="288.777" x2="331.362" y2="288.777"/>
				</g>
				<g>
					<path fill="#504947" d="M327.284,288.964c0.121,1.419-0.951,2.654-2.38,2.76c-1.431,0.103-2.668-0.934-2.79-2.317
						c-0.119-1.381,0.921-2.612,2.351-2.754C325.886,286.512,327.162,287.543,327.284,288.964z"/>
					<line fill="#504947" x1="324.698" y1="289.187" x2="324.698" y2="289.187"/>
				</g>
				<g>
					<path fill="#504947" d="M320.62,289.375c0.118,1.379-0.955,2.582-2.389,2.685c-1.422,0.102-2.662-0.906-2.782-2.244
						c-0.115-1.338,0.924-2.534,2.356-2.676C319.227,286.999,320.501,287.998,320.62,289.375z"/>
					<line fill="#504947" x1="318.034" y1="289.597" x2="318.034" y2="289.597"/>
				</g>
				<g>
					<path fill="#504947" d="M331.108,295.022c0.085,1.44-1.021,2.664-2.447,2.73c-1.428,0.069-2.648-1.018-2.734-2.421
						c-0.086-1.408,0.995-2.629,2.423-2.731C329.773,292.495,331.015,293.58,331.108,295.022z"/>
					<line fill="#504947" x1="328.514" y1="295.176" x2="328.514" y2="295.176"/>
				</g>
				<g>
					<path fill="#504947" d="M324.43,295.256c0.09,1.402-1.009,2.597-2.443,2.663c-1.433,0.067-2.648-0.989-2.736-2.356
						c-0.08-1.368,1.002-2.557,2.43-2.658C323.105,292.804,324.345,293.855,324.43,295.256z"/>
					<line fill="#504947" x1="321.848" y1="295.41" x2="321.848" y2="295.41"/>
				</g>
				<g>
					<path fill="#504947" d="M328.032,301.203c0.051,1.424-1.083,2.604-2.515,2.64c-1.43,0.036-2.623-1.064-2.672-2.457
						c-0.049-1.389,1.058-2.566,2.491-2.635C326.771,298.685,327.979,299.782,328.032,301.203z"/>
					<line fill="#504947" x1="325.438" y1="301.296" x2="325.438" y2="301.296"/>
				</g>
			</g>
		</g>
	</g>
</g>
<path fill="#4E4E4E" d="M35.978,0.786h4.556v13.77c0,0.645,0.171,1.155,0.513,1.531s0.801,0.564,1.377,0.564
	c0.596,0,1.067-0.2,1.414-0.601s0.52-0.952,0.52-1.655V0.786h4.526v12.832c0,1.748-0.229,3.149-0.688,4.204
	s-1.135,1.829-2.029,2.322s-2.141,0.74-3.743,0.74c-2.363,0-4.028-0.605-4.995-1.816s-1.45-3.257-1.45-6.138V0.786z"/>
<path fill="#4E4E4E" d="M51.432,0.786h10.591v4.468h-3.062v15.088h-4.497V5.254h-3.032V0.786z"/>
<path fill="#4E4E4E" d="M62.975,0.786h4.629l2.417,8.643c0.459,1.709,0.771,3.169,0.938,4.38h0.059
	c0.146-1.064,0.308-1.938,0.483-2.622l2.695-10.4h4.746l-5.874,19.556h-4.116L62.975,0.786z"/>
<path fill="#4E4E4E" d="M81.329,0.786h8.979v4.16h-4.541V8.55h3.94v4.058h-3.94v3.56h4.57v4.175h-9.009V0.786z"/>
<path fill="#4E4E4E" d="M104.107,15.728v4.644c-0.938,0.303-1.777,0.454-2.52,0.454c-2.568,0-4.651-0.964-6.248-2.893
	s-2.395-4.465-2.395-7.61c0-2.92,0.806-5.33,2.417-7.229s3.647-2.849,6.108-2.849c0.957,0,1.836,0.127,2.637,0.381v4.658
	c-0.85-0.283-1.65-0.425-2.402-0.425c-1.152,0-2.109,0.527-2.871,1.582s-1.143,2.397-1.143,4.028c0,1.758,0.383,3.147,1.15,4.167
	s1.79,1.531,3.069,1.531C102.535,16.167,103.268,16.021,104.107,15.728z"/>
<path fill="#4E4E4E" d="M106.979,0.786h4.438v9.199h0.073l4.189-9.199h4.658l-4.541,9.99l4.351,9.565h-4.878l-3.779-8.13h-0.073
	v8.13h-4.438V0.786z"/>
<path fill="#4E4E4E" d="M122.55,0.786h4.438v15.029h3.516v4.526h-7.954V0.786z"/>
<path fill="#4E4E4E" d="M133.668,0.786h4.438v19.556h-4.438V0.786z"/>
<path fill="#4E4E4E" d="M142.442,0.786h4.482l5.64,11.279l-0.161-2.109v-9.17h4.438v19.556h-4.556l-5.522-11.104l0.117,2.432v8.672
	h-4.438V0.786z"/>
<path fill="#4E4E4E" d="M174.493,9.385v3.281c0,2.539-0.613,4.534-1.838,5.984s-2.903,2.175-5.032,2.175
	c-2.383,0-4.224-0.896-5.522-2.688s-1.948-4.348-1.948-7.668c0-3.35,0.647-5.891,1.941-7.625s3.186-2.6,5.676-2.6
	c2.793,0,4.814,1.489,6.064,4.468l-4.233,1.743c-0.352-0.625-0.679-1.082-0.981-1.37s-0.718-0.432-1.245-0.432
	c-0.898,0-1.536,0.471-1.912,1.414s-0.564,2.468-0.564,4.578c0,1.963,0.212,3.406,0.637,4.329s1.101,1.384,2.029,1.384
	c1.484,0,2.251-1.06,2.3-3.179h-2.065V9.385H174.493z"/>
<path fill="#4E4E4E" stroke="#4E4E4E" stroke-miterlimit="10" d="M488.361,317.224h10.591v4.468h-3.062v15.088h-4.497v-15.088
	h-3.032V317.224z"/>
<path fill="#4E4E4E" stroke="#4E4E4E" stroke-miterlimit="10" d="M501.867,317.224h4.438v19.556h-4.438V317.224z"/>
<path fill="#4E4E4E" stroke="#4E4E4E" stroke-miterlimit="10" d="M510.642,317.224h4.146c2.871,0,5.054,0.817,6.548,2.454
	c1.494,1.635,2.241,4.025,2.241,7.17c0,2.383-0.368,4.307-1.105,5.771c-0.738,1.465-1.768,2.524-3.091,3.179
	s-2.786,0.981-4.388,0.981h-4.351V317.224z M515.08,321.384v11.221c1.348-0.117,2.3-0.593,2.856-1.429
	c0.557-0.834,0.835-2.209,0.835-4.123c0-1.133-0.098-2.092-0.293-2.879c-0.195-0.785-0.485-1.391-0.871-1.816
	c-0.387-0.424-0.762-0.686-1.128-0.783S515.646,321.414,515.08,321.384z"/>
<g>
	<g>
		<g>
			<path fill="#4E4E4E" d="M10.738,0.813c1.244-1.083,3.28-1.083,4.524,0l8.476,7.383C24.982,9.279,26,11.516,26,13.166v6.024
				c0,1.65-1.038,2.137-2.306,1.082l-5.388-4.482C17.038,14.733,16,15.22,16,16.87v350.972c0,1.65-1.35,3-3,3l0,0
				c-1.65,0-3-1.35-3-3V16.87c0-1.65-1.038-2.137-2.306-1.082l-5.388,4.482C1.038,21.326,0,20.839,0,19.189v-6.024
				c0-1.65,1.018-3.887,2.262-4.97L10.738,0.813z"/>
		</g>
	</g>
</g>
<g>
	<g>
		<g>
			<path fill="#4E4E4E" d="M522.141,356.489c1.298,1.02,1.298,2.688,0,3.707l-11.191,8.793c-1.298,1.02-3.709,1.854-5.359,1.854
				h-10.894c-1.65,0-1.975-0.878-0.721-1.95l7.13-6.1c1.254-1.072,0.93-1.95-0.721-1.95H3c-1.65,0-3-1.35-3-3l0,0c0-1.65,1.35-3,3-3
				h497.385c1.65,0,1.931-0.823,0.623-1.83l-6.935-5.34c-1.308-1.007-1.027-1.83,0.623-1.83h10.894c1.65,0,4.062,0.834,5.359,1.854
				L522.141,356.489z"/>
		</g>
	</g>
</g>
<ellipse fill="#4E4E4E" cx="12.887" cy="362.315" rx="0.482" ry="0.069"/>
<path fill="#4E4E4E" d="M436.52,115.198h5.379v15.645h-3.387v-12.363h-1.992V115.198z"/>
<path fill="#4E4E4E" d="M447.16,129.26c0-0.531,0.189-0.988,0.568-1.371s0.838-0.574,1.377-0.574s1.002,0.189,1.389,0.568
	s0.58,0.83,0.58,1.354s-0.197,0.982-0.592,1.377s-0.854,0.592-1.377,0.592c-0.539,0-0.998-0.189-1.377-0.568
	S447.16,129.799,447.16,129.26z"/>
<path fill="#4E4E4E" d="M456.735,264.999h-3.434c0-1.172,0.049-2.09,0.146-2.754s0.301-1.252,0.609-1.764s0.781-0.922,1.418-1.23
	s1.393-0.463,2.268-0.463c1.445,0,2.555,0.379,3.328,1.137s1.16,1.852,1.16,3.281c0,0.734-0.148,1.525-0.445,2.373
	s-0.742,1.779-1.336,2.795l-1.922,3.281h3.152v3.188h-8.93l5.109-8.73c0.625-1.047,0.938-2,0.938-2.859
	c0-0.43-0.094-0.781-0.281-1.055s-0.422-0.41-0.703-0.41c-0.445,0-0.736,0.178-0.873,0.533s-0.205,1.057-0.205,2.104V264.999z"/>
<path fill="#4E4E4E" d="M464.997,273.26c0-0.531,0.189-0.988,0.568-1.371s0.838-0.574,1.377-0.574s1.002,0.189,1.389,0.568
	s0.58,0.83,0.58,1.354s-0.197,0.982-0.592,1.377s-0.854,0.592-1.377,0.592c-0.539,0-0.998-0.189-1.377-0.568
	S464.997,273.799,464.997,273.26z"/>
<path fill="#4E4E4E" d="M347.098,297.967h-3.422c0.016-0.898,0.096-1.598,0.24-2.098s0.395-0.988,0.75-1.465s0.822-0.861,1.4-1.154
	s1.203-0.439,1.875-0.439c1.203,0,2.195,0.432,2.977,1.295s1.172,1.959,1.172,3.287c0,1.547-0.598,2.762-1.793,3.645
	c1.406,0.727,2.109,2.023,2.109,3.891c0,0.742-0.174,1.482-0.521,2.221s-0.854,1.273-1.518,1.605s-1.441,0.498-2.332,0.498
	c-1.336,0-2.43-0.393-3.281-1.178s-1.309-1.865-1.371-3.24h3.363c0.016,0.961,0.398,1.441,1.148,1.441
	c0.734,0,1.102-0.656,1.102-1.969c0-0.609-0.107-1.033-0.322-1.271s-0.596-0.357-1.143-0.357h-1.078v-3.246h1.172
	c0.5,0,0.857-0.131,1.072-0.393s0.322-0.689,0.322-1.283c0-1.281-0.359-1.922-1.078-1.922c-0.336,0-0.561,0.133-0.674,0.398
	s-0.17,0.734-0.17,1.406V297.967z"/>
<path fill="#4E4E4E" d="M355.055,307.26c0-0.531,0.189-0.988,0.568-1.371s0.838-0.574,1.377-0.574s1.002,0.189,1.389,0.568
	s0.58,0.83,0.58,1.354s-0.197,0.982-0.592,1.377s-0.854,0.592-1.377,0.592c-0.539,0-0.998-0.189-1.377-0.568
	S355.055,307.799,355.055,307.26z"/>
</svg>
