<?xml version="1.0" encoding="utf-8"?>
<!-- Generator: Adobe Illustrator 15.0.0, SVG Export Plug-In  -->
<!DOCTYPE svg PUBLIC "-//W3C//DTD SVG 1.1//EN" "http://www.w3.org/Graphics/SVG/1.1/DTD/svg11.dtd" [
	<!ENTITY ns_flows "http://ns.adobe.com/Flows/1.0/">
]>
<svg version="1.1"
	 xmlns="http://www.w3.org/2000/svg" xmlns:xlink="http://www.w3.org/1999/xlink" xmlns:a="http://ns.adobe.com/AdobeSVGViewerExtensions/3.0/"
	 x="0px" y="0px" width="582px" height="582px" viewBox="-0.5 -0.5 582 582" enable-background="new -0.5 -0.5 582 582"
	 xml:space="preserve">
<defs>
</defs>
<radialGradient id="SVGID_1_" cx="290.5" cy="290.5" r="290.5" gradientUnits="userSpaceOnUse">
	<stop  offset="0" style="stop-color:#808080"/>
	<stop  offset="0.5282" style="stop-color:#666666"/>
	<stop  offset="1" style="stop-color:#4D4D4D"/>
</radialGradient>
<circle fill="url(#SVGID_1_)" cx="290.5" cy="290.5" r="290.5"/>
<circle fill="#FFFFFF" cx="290.5" cy="290.5" r="110.611"/>
<line fill="none" stroke="#FFFFFF" stroke-width="5" stroke-miterlimit="10" x1="290.5" y1="291.5" x2="85.042" y2="497.917"/>
<line fill="none" stroke="#FFFFFF" stroke-width="5" stroke-miterlimit="10" x1="290.5" y1="291.5" x2="495.958" y2="497.917"/>
<line fill="none" stroke="#FFFFFF" stroke-width="5" stroke-miterlimit="10" x1="497.214" y1="84.083" x2="291.756" y2="290.5"/>
<line fill="none" stroke="#FFFFFF" stroke-width="5" stroke-miterlimit="10" x1="84.042" y1="83.083" x2="289.5" y2="289.5"/>
<radialGradient id="SVGID_2_" cx="290.5" cy="290.5" r="104.54" gradientUnits="userSpaceOnUse">
	<stop  offset="0" style="stop-color:#808080"/>
	<stop  offset="0.5282" style="stop-color:#666666"/>
	<stop  offset="1" style="stop-color:#4D4D4D"/>
</radialGradient>
<circle fill="url(#SVGID_2_)" cx="290.5" cy="290.5" r="104.54"/>
<text transform="matrix(1.0046 0 0 1 266.019 289.5)"><tspan x="0" y="0" fill="#FFFFFF" font-family="'TwCenMT-CondensedBold'" font-size="24">KUND</tspan><tspan x="-22.412" y="19" fill="#FFFFFF" font-family="'TwCenMT-CondensedBold'" font-size="24">I CENTRUM</tspan></text>
<text transform="matrix(1.0046 0 0 1 222.437 101.083)" fill="#FFFFFF" font-family="'TwCenMT-CondensedBold'" font-size="24">AFFÄRSPROCESS</text>
<text transform="matrix(1.0046 0 0 1 28.2217 282.5)"><tspan x="0" y="0" fill="#FFFFFF" font-family="'TwCenMT-CondensedBold'" font-size="24">ORGANISATION</tspan><tspan x="58.899" y="19" fill="#FFFFFF" font-family="'TwCenMT-CondensedBold'" font-size="24">&amp;</tspan><tspan x="11.004" y="38" fill="#FFFFFF" font-family="'TwCenMT-CondensedBold'" font-size="24">BEMMANING</tspan></text>
<text transform="matrix(1.0046 0 0 1 193.4141 497.917)" fill="#FFFFFF" font-family="'TwCenMT-CondensedBold'" font-size="24">INFORMATIONSSYSTEM</text>
<text transform="matrix(1.0046 0 0 1 435.332 282.5)"><tspan x="0" y="0" fill="#FFFFFF" font-family="'TwCenMT-CondensedBold'" font-size="24">BETEENEDEN</tspan><tspan x="47.015" y="19" fill="#FFFFFF" font-family="'TwCenMT-CondensedBold'" font-size="24">&amp;</tspan><tspan x="-14.01" y="38" fill="#FFFFFF" font-family="'TwCenMT-CondensedBold'" font-size="24">FÖRVÄNTINGAR</tspan></text>
<g>
	<g>
		<path fill="#333333" d="M172.926,117.89c-0.619-0.616-2.712,0.476-4.652,2.425l-35.894,36.062
			c-1.94,1.949-5.122,1.957-7.071,0.017l-1.111-1.106c-1.949-1.94-4.121-1.353-4.827,1.305l-4.185,15.763
			c-0.706,2.658,0.889,4.245,3.544,3.527l15.743-4.258c2.655-0.718,3.232-2.893,1.283-4.833l-1.11-1.105
			c-1.949-1.94-1.957-5.122-0.017-7.071l35.894-36.062C172.463,120.604,173.545,118.506,172.926,117.89z"/>
		<path fill="#333333" d="M118.256,172.662c0.621,0.618,2.716-0.471,4.656-2.42l36.062-36.229c1.94-1.949,5.122-1.956,7.071-0.017
			l1.143,1.138c1.949,1.939,4.121,1.352,4.827-1.306l4.21-15.861c0.706-2.658-0.889-4.245-3.543-3.527l-15.843,4.285
			c-2.655,0.718-3.232,2.893-1.283,4.833l1.143,1.137c1.949,1.94,1.957,5.122,0.017,7.071l-36.061,36.229
			C118.715,169.944,117.635,172.044,118.256,172.662z"/>
	</g>
	<g>
		<g>
			<g>
				<g>
					<g>
						<path fill="#33C5F3" d="M171.926,116.89c-0.619-0.616-2.712,0.476-4.652,2.425l-35.894,36.062
							c-1.94,1.949-5.122,1.957-7.071,0.017l-1.111-1.106c-1.949-1.94-4.121-1.353-4.827,1.305l-4.185,15.763
							c-0.706,2.658,0.889,4.245,3.544,3.527l15.743-4.258c2.655-0.718,3.232-2.893,1.283-4.833l-1.11-1.105
							c-1.949-1.94-1.957-5.122-0.017-7.071l35.894-36.062C171.463,119.604,172.545,117.506,171.926,116.89z"/>
					</g>
				</g>
			</g>
			<g>
				<g>
					<g>
						<path fill="#33C5F3" d="M117.256,171.662c0.621,0.618,2.716-0.471,4.656-2.42l36.062-36.229
							c1.94-1.949,5.122-1.956,7.071-0.017l1.143,1.138c1.949,1.939,4.121,1.352,4.827-1.306l4.21-15.861
							c0.706-2.658-0.889-4.245-3.543-3.527l-15.843,4.285c-2.655,0.718-3.232,2.893-1.283,4.833l1.143,1.137
							c1.949,1.94,1.957,5.122,0.017,7.071l-36.061,36.229C117.715,168.944,116.635,171.044,117.256,171.662z"/>
					</g>
				</g>
			</g>
		</g>
	</g>
</g>
<g>
	<g>
		<path fill="#333333" d="M412.242,116.189c0.618-0.616,2.711,0.476,4.651,2.425l35.894,36.062c1.94,1.949,5.122,1.957,7.071,0.017
			l1.111-1.106c1.949-1.94,4.121-1.353,4.827,1.305l4.185,15.763c0.706,2.658-0.889,4.245-3.543,3.527l-15.744-4.258
			c-2.654-0.718-3.231-2.893-1.282-4.833l1.109-1.105c1.949-1.94,1.957-5.122,0.017-7.071l-35.894-36.062
			C412.704,118.903,411.623,116.805,412.242,116.189z"/>
		<path fill="#333333" d="M466.912,170.961c-0.621,0.618-2.716-0.471-4.656-2.42l-36.062-36.229
			c-1.94-1.949-5.122-1.957-7.071-0.017l-1.144,1.138c-1.949,1.94-4.121,1.352-4.827-1.306l-4.21-15.861
			c-0.706-2.658,0.889-4.245,3.543-3.527l15.844,4.285c2.654,0.718,3.231,2.893,1.282,4.833l-1.143,1.137
			c-1.949,1.94-1.957,5.122-0.017,7.071l36.061,36.229C466.453,168.243,467.532,170.343,466.912,170.961z"/>
	</g>
	<g>
		<g>
			<g>
				<g>
					<g>
						<path fill="#33C5F3" d="M411.242,115.189c0.618-0.616,2.711,0.476,4.651,2.425l35.894,36.062
							c1.94,1.949,5.122,1.957,7.071,0.017l1.111-1.106c1.949-1.94,4.121-1.353,4.827,1.305l4.185,15.763
							c0.706,2.658-0.889,4.245-3.543,3.527l-15.744-4.258c-2.654-0.718-3.231-2.893-1.282-4.833l1.109-1.105
							c1.949-1.94,1.957-5.122,0.017-7.071l-35.894-36.062C411.704,117.903,410.623,115.805,411.242,115.189z"/>
					</g>
				</g>
			</g>
			<g>
				<g>
					<g>
						<path fill="#33C5F3" d="M465.912,169.961c-0.621,0.618-2.716-0.471-4.656-2.42l-36.062-36.229
							c-1.94-1.949-5.122-1.957-7.071-0.017l-1.144,1.138c-1.949,1.94-4.121,1.352-4.827-1.306l-4.21-15.861
							c-0.706-2.658,0.889-4.245,3.543-3.527l15.844,4.285c2.654,0.718,3.231,2.893,1.282,4.833l-1.143,1.137
							c-1.949,1.94-1.957,5.122-0.017,7.071l36.061,36.229C465.453,167.243,466.532,169.343,465.912,169.961z"/>
					</g>
				</g>
			</g>
		</g>
	</g>
</g>
<g>
	<g>
		<path fill="#333333" d="M461.135,408.568c-0.619-0.615-2.712,0.476-4.652,2.425l-35.894,36.061
			c-1.94,1.949-5.122,1.957-7.071,0.017l-1.111-1.105c-1.949-1.94-4.121-1.353-4.827,1.306l-4.185,15.762
			c-0.706,2.658,0.889,4.245,3.543,3.527l15.744-4.258c2.654-0.718,3.231-2.893,1.282-4.833l-1.11-1.104
			c-1.949-1.94-1.957-5.122-0.017-7.071l35.895-36.062C460.672,411.282,461.753,409.184,461.135,408.568z"/>
		<path fill="#333333" d="M406.464,463.34c0.621,0.617,2.716-0.472,4.656-2.421l36.062-36.229c1.94-1.949,5.122-1.957,7.071-0.017
			l1.144,1.137c1.949,1.94,4.121,1.353,4.827-1.306l4.21-15.859c0.706-2.658-0.889-4.246-3.543-3.527l-15.844,4.284
			c-2.654,0.718-3.231,2.892-1.282,4.832l1.143,1.137c1.949,1.94,1.957,5.122,0.017,7.071l-36.062,36.23
			C406.922,460.622,405.843,462.723,406.464,463.34z"/>
	</g>
	<g>
		<g>
			<g>
				<g>
					<g>
						<path fill="#33C5F3" d="M460.135,407.568c-0.619-0.615-2.712,0.476-4.652,2.425l-35.894,36.061
							c-1.94,1.949-5.122,1.957-7.071,0.017l-1.111-1.105c-1.949-1.94-4.121-1.353-4.827,1.306l-4.185,15.762
							c-0.706,2.658,0.889,4.245,3.543,3.527l15.744-4.258c2.654-0.718,3.231-2.893,1.282-4.833l-1.11-1.104
							c-1.949-1.94-1.957-5.122-0.017-7.071l35.895-36.062C459.672,410.282,460.753,408.184,460.135,407.568z"/>
					</g>
				</g>
			</g>
			<g>
				<g>
					<g>
						<path fill="#33C5F3" d="M405.464,462.34c0.621,0.617,2.716-0.472,4.656-2.421l36.062-36.229
							c1.94-1.949,5.122-1.957,7.071-0.017l1.144,1.137c1.949,1.94,4.121,1.353,4.827-1.306l4.21-15.859
							c0.706-2.658-0.889-4.246-3.543-3.527l-15.844,4.284c-2.654,0.718-3.231,2.892-1.282,4.832l1.143,1.137
							c1.949,1.94,1.957,5.122,0.017,7.071l-36.062,36.23C405.922,459.622,404.843,461.723,405.464,462.34z"/>
					</g>
				</g>
			</g>
		</g>
	</g>
</g>
<g>
	<g>
		<path fill="#333333" d="M127.937,406.867c0.619-0.615,2.712,0.476,4.652,2.425l35.893,36.061c1.94,1.949,5.122,1.957,7.071,0.017
			l1.111-1.105c1.949-1.94,4.122-1.353,4.827,1.305l4.186,15.764c0.706,2.657-0.889,4.244-3.543,3.526l-15.743-4.258
			c-2.655-0.718-3.232-2.893-1.283-4.833l1.109-1.104c1.949-1.94,1.957-5.122,0.017-7.071l-35.895-36.062
			C128.399,409.581,127.318,407.482,127.937,406.867z"/>
		<path fill="#333333" d="M182.606,461.639c-0.621,0.617-2.716-0.472-4.656-2.421l-36.061-36.229
			c-1.94-1.949-5.122-1.957-7.072-0.018l-1.144,1.139c-1.95,1.939-4.122,1.352-4.827-1.307l-4.21-15.859
			c-0.706-2.658,0.889-4.246,3.544-3.527l15.843,4.283c2.655,0.719,3.232,2.893,1.283,4.833l-1.143,1.137
			c-1.949,1.94-1.957,5.122-0.017,7.071l36.061,36.23C182.148,458.921,183.228,461.021,182.606,461.639z"/>
	</g>
	<g>
		<g>
			<g>
				<g>
					<g>
						<path fill="#33C5F3" d="M126.937,405.867c0.619-0.615,2.712,0.476,4.652,2.425l35.893,36.061
							c1.94,1.949,5.122,1.957,7.071,0.017l1.111-1.105c1.949-1.94,4.122-1.353,4.827,1.305l4.186,15.764
							c0.706,2.657-0.889,4.244-3.543,3.526l-15.743-4.258c-2.655-0.718-3.232-2.893-1.283-4.833l1.109-1.104
							c1.949-1.94,1.957-5.122,0.017-7.071l-35.895-36.062C127.399,408.581,126.318,406.482,126.937,405.867z"/>
					</g>
				</g>
			</g>
			<g>
				<g>
					<g>
						<path fill="#33C5F3" d="M181.606,460.639c-0.621,0.617-2.716-0.472-4.656-2.421l-36.061-36.229
							c-1.94-1.949-5.122-1.957-7.072-0.018l-1.144,1.139c-1.95,1.939-4.122,1.352-4.827-1.307l-4.21-15.859
							c-0.706-2.658,0.889-4.246,3.544-3.527l15.843,4.283c2.655,0.719,3.232,2.893,1.283,4.833l-1.143,1.137
							c-1.949,1.94-1.957,5.122-0.017,7.071l36.061,36.23C181.148,457.921,182.228,460.021,181.606,460.639z"/>
					</g>
				</g>
			</g>
		</g>
	</g>
</g>
</svg>
