<svg id="Layer_1" data-name="Layer 1" xmlns="http://www.w3.org/2000/svg" xmlns:xlink="http://www.w3.org/1999/xlink" viewBox="0 0 582 582"><defs><style>.cls-1{stroke:#2d2d2d;fill:url(#radial-gradient);}.cls-1,.cls-3{stroke-miterlimit:10;}.cls-2{fill:#fff;}.cls-3{fill:none;stroke:#fff;stroke-width:5px;}.cls-4{fill:url(#radial-gradient-2);}.cls-5{fill:#333;}.cls-6{fill:#33c5f3;}</style><radialGradient id="radial-gradient" cx="291" cy="291" r="290.5" gradientUnits="userSpaceOnUse"><stop offset="0" stop-color="#737373"/><stop offset="0.53" stop-color="#5a5a5a"/><stop offset="1" stop-color="#404040"/></radialGradient><radialGradient id="radial-gradient-2" r="104.54" xlink:href="#radial-gradient"/></defs><title>hjulet_en</title><circle class="cls-1" cx="291" cy="291" r="290.5"/><circle class="cls-2" cx="291" cy="291" r="110.61"/><line class="cls-3" x1="291" y1="292" x2="85.54" y2="498.42"/><path class="cls-3" d="M511.29,608.23" transform="translate(-23 -104)"/><path class="cls-3" d="M314,396" transform="translate(-23 -104)"/><line class="cls-3" x1="291" y1="292" x2="496.46" y2="498.42"/><line class="cls-3" x1="497.71" y1="84.58" x2="292.26" y2="291"/><line class="cls-3" x1="84.54" y1="83.58" x2="290" y2="290"/><circle class="cls-4" cx="291" cy="291" r="104.54"/><path class="cls-2" d="M278.79,393.76a6.66,6.66,0,0,1-2.7.53,5.8,5.8,0,0,1-4.44-1.93,8,8,0,0,1-1.78-5.64q0-3.82,1.77-5.75a5.43,5.43,0,0,1,4.12-1.93,7.29,7.29,0,0,1,3,.73v3.07a9.59,9.59,0,0,0-1.62-.72,3.65,3.65,0,0,0-.79-.08,2.88,2.88,0,0,0-2.19,1,5.25,5.25,0,0,0-.94,3.55,5.53,5.53,0,0,0,.91,3.65,2.92,2.92,0,0,0,2.27,1,4.33,4.33,0,0,0,2.39-.87Z" transform="translate(-23 -104)"/><path class="cls-2" d="M290.22,389.88a4.25,4.25,0,0,1-1.24,3.24,5.67,5.67,0,0,1-7,0,4.63,4.63,0,0,1-1.23-3.46V379.36H284v9.76a2.66,2.66,0,0,0,.41,1.59,1.33,1.33,0,0,0,1.14.56,1.26,1.26,0,0,0,1.08-.54,2.41,2.41,0,0,0,.39-1.45v-9.91h3.21Z" transform="translate(-23 -104)"/><path class="cls-2" d="M299.35,383.49a3.41,3.41,0,0,0-2.41-1.46,1.4,1.4,0,0,0-.92.34,1,1,0,0,0-.41.76q0,.76,1.28,1.8a17.94,17.94,0,0,1,1.91,1.68,4.83,4.83,0,0,1,.91,1.45,4.74,4.74,0,0,1,.34,1.82,4.25,4.25,0,0,1-4.44,4.42,5.2,5.2,0,0,1-3.13-1.14V389.7a4.12,4.12,0,0,0,2.94,1.59,1.67,1.67,0,0,0,1.1-.36A1.11,1.11,0,0,0,297,390a2.56,2.56,0,0,0-1.13-1.75,17.23,17.23,0,0,1-2.36-2.3,6,6,0,0,1-.84-1.52,4.55,4.55,0,0,1-.28-1.55,3.64,3.64,0,0,1,1.19-2.79,4.28,4.28,0,0,1,3-1.1,5.54,5.54,0,0,1,2.78.8Z" transform="translate(-23 -104)"/><path class="cls-2" d="M310.33,382.2h-2.86V394h-3.18V382.22h-2.92v-2.86h9Z" transform="translate(-23 -104)"/><path class="cls-2" d="M311.47,386.61a11.36,11.36,0,0,1,.67-4.52,5.57,5.57,0,0,1,1.78-2.24,4.7,4.7,0,0,1,2.81-.8,4.76,4.76,0,0,1,2.26.46,5.47,5.47,0,0,1,1.59,1.35,5.58,5.58,0,0,1,1.08,2.19,14.17,14.17,0,0,1,.34,3.46q0,4.42-1.48,6.1a4.85,4.85,0,0,1-3.82,1.68,4.68,4.68,0,0,1-3.81-1.74Q311.47,390.81,311.47,386.61Zm3.35-.89v.94a18.61,18.61,0,0,0,.15,3,2,2,0,0,0,.65,1.15,1.79,1.79,0,0,0,1.2.42,1.55,1.55,0,0,0,1-.41,2.26,2.26,0,0,0,.66-1.25,15.85,15.85,0,0,0,.19-3,16.28,16.28,0,0,0-.16-2.74,2.57,2.57,0,0,0-.64-1.32,1.57,1.57,0,0,0-1.18-.5,1.52,1.52,0,0,0-1.46.87A6.42,6.42,0,0,0,314.82,385.71Z" transform="translate(-23 -104)"/><path class="cls-2" d="M337.92,394h-3l-.72-12h0l-2.24,12h-2.26l-2.14-12h0l-.81,12h-3l1.52-14.64h4l1.62,9.64h0l1.76-9.64h4Z" transform="translate(-23 -104)"/><path class="cls-2" d="M347.28,394h-7.33V379.36h6.88v2.82H343.1v3h3.19v2.72H343.1v3.23h4.18Z" transform="translate(-23 -104)"/><path class="cls-2" d="M358.65,394h-3.24l-2.56-7.24h0V394h-3.18V379.36h4.13a6.6,6.6,0,0,1,2.47.49,3.2,3.2,0,0,1,1.75,1.54,4.78,4.78,0,0,1,.52,2.17,3.92,3.92,0,0,1-.59,2.23,5.28,5.28,0,0,1-1.88,1.59Zm-5.84-8.06q1.55,0,2-.6a2.66,2.66,0,0,0,.41-1.53q0-2.1-1.72-2.1h-.64Z" transform="translate(-23 -104)"/><path class="cls-2" d="M276.65,398.36h3.18V413h-3.18Z" transform="translate(-23 -104)"/><path class="cls-2" d="M293.16,413h-3.36l-3.74-9.23h0V413h-3.08V398.34h3.47l3.69,9.09h.06v-9.09h3Z" transform="translate(-23 -104)"/><path class="cls-2" d="M308.14,401.22h-3.72v3h3.19v2.72h-3.19V413h-3.15V398.36h6.87Z" transform="translate(-23 -104)"/><path class="cls-2" d="M309.94,405.61a11.36,11.36,0,0,1,.67-4.52,5.57,5.57,0,0,1,1.78-2.24,4.7,4.7,0,0,1,2.81-.8,4.76,4.76,0,0,1,2.26.46,5.47,5.47,0,0,1,1.59,1.35,5.58,5.58,0,0,1,1.08,2.19,14.17,14.17,0,0,1,.34,3.46q0,4.42-1.48,6.1a4.85,4.85,0,0,1-3.82,1.68,4.68,4.68,0,0,1-3.81-1.74Q309.94,409.81,309.94,405.61Zm3.35-.89v.94a18.61,18.61,0,0,0,.15,3,2,2,0,0,0,.65,1.15,1.79,1.79,0,0,0,1.2.42,1.55,1.55,0,0,0,1-.41,2.26,2.26,0,0,0,.66-1.25,15.85,15.85,0,0,0,.19-3,16.28,16.28,0,0,0-.16-2.74,2.57,2.57,0,0,0-.64-1.32,1.57,1.57,0,0,0-1.18-.5,1.52,1.52,0,0,0-1.46.87A6.42,6.42,0,0,0,313.29,404.71Z" transform="translate(-23 -104)"/><path class="cls-2" d="M331.35,412.76a6.66,6.66,0,0,1-2.7.53,5.8,5.8,0,0,1-4.44-1.93,8,8,0,0,1-1.78-5.64q0-3.82,1.77-5.75a5.43,5.43,0,0,1,4.12-1.93,7.29,7.29,0,0,1,3,.73v3.07a9.53,9.53,0,0,0-1.62-.72,3.67,3.67,0,0,0-.79-.08,2.89,2.89,0,0,0-2.19,1,5.25,5.25,0,0,0-.94,3.55,5.53,5.53,0,0,0,.91,3.65,2.93,2.93,0,0,0,2.27,1,4.33,4.33,0,0,0,2.39-.87Z" transform="translate(-23 -104)"/><path class="cls-2" d="M342.78,408.88a4.25,4.25,0,0,1-1.24,3.24,5.67,5.67,0,0,1-7,0,4.63,4.63,0,0,1-1.23-3.46V398.36h3.2v9.76a2.66,2.66,0,0,0,.41,1.59,1.33,1.33,0,0,0,1.14.56,1.26,1.26,0,0,0,1.08-.54,2.41,2.41,0,0,0,.39-1.45v-9.91h3.21Z" transform="translate(-23 -104)"/><path class="cls-2" d="M351.92,402.49a3.41,3.41,0,0,0-2.41-1.46,1.4,1.4,0,0,0-.92.34,1,1,0,0,0-.41.76q0,.76,1.28,1.8a17.94,17.94,0,0,1,1.91,1.68,4.82,4.82,0,0,1,.91,1.45,4.74,4.74,0,0,1,.34,1.82,4.25,4.25,0,0,1-4.44,4.42,5.21,5.21,0,0,1-3.13-1.14V408.7a4.13,4.13,0,0,0,2.94,1.59,1.67,1.67,0,0,0,1.1-.36,1.11,1.11,0,0,0,.44-.89,2.56,2.56,0,0,0-1.13-1.75A17.23,17.23,0,0,1,346,405a6,6,0,0,1-.84-1.52,4.55,4.55,0,0,1-.28-1.55,3.64,3.64,0,0,1,1.19-2.79,4.28,4.28,0,0,1,3-1.1,5.54,5.54,0,0,1,2.78.8Z" transform="translate(-23 -104)"/><path class="cls-2" d="M233.81,198.21a3.92,3.92,0,0,1,1.8,1.44,4.28,4.28,0,0,1,.52,2.24,3.48,3.48,0,0,1-1.12,2.63,3.86,3.86,0,0,1-2.76,1.07H227V190.95h4.51a4.62,4.62,0,0,1,3.13,1,3.36,3.36,0,0,1,1.22,2.67,4.17,4.17,0,0,1-.48,2.13A4,4,0,0,1,233.81,198.21Zm-3.65-1.08h.65a1.68,1.68,0,0,0,1.28-.51,1.91,1.91,0,0,0,.48-1.37,1.75,1.75,0,0,0-2-2h-.41Zm0,6.07.92,0a1.66,1.66,0,0,0,1.27-.5,2,2,0,0,0,.45-1.39,1.73,1.73,0,0,0-2-1.93h-.65Z" transform="translate(-23 -104)"/><path class="cls-2" d="M247.56,201.46a4.25,4.25,0,0,1-1.24,3.24,5.67,5.67,0,0,1-7,0,4.63,4.63,0,0,1-1.23-3.46V190.95h3.2v9.76a2.66,2.66,0,0,0,.41,1.59,1.33,1.33,0,0,0,1.14.56,1.26,1.26,0,0,0,1.08-.54,2.41,2.41,0,0,0,.39-1.45v-9.91h3.21Z" transform="translate(-23 -104)"/><path class="cls-2" d="M256.69,195.07a3.41,3.41,0,0,0-2.41-1.46,1.4,1.4,0,0,0-.92.34,1,1,0,0,0-.41.76q0,.76,1.28,1.8a17.94,17.94,0,0,1,1.91,1.68,4.83,4.83,0,0,1,.91,1.45,4.74,4.74,0,0,1,.34,1.82,4.25,4.25,0,0,1-4.44,4.42,5.2,5.2,0,0,1-3.13-1.14v-3.46a4.12,4.12,0,0,0,2.94,1.59,1.67,1.67,0,0,0,1.1-.36,1.11,1.11,0,0,0,.44-.89,2.56,2.56,0,0,0-1.13-1.75,17.23,17.23,0,0,1-2.36-2.3A6,6,0,0,1,250,196a4.55,4.55,0,0,1-.28-1.55,3.64,3.64,0,0,1,1.19-2.79,4.28,4.28,0,0,1,3-1.1,5.54,5.54,0,0,1,2.78.8Z" transform="translate(-23 -104)"/><path class="cls-2" d="M259.8,190.95H263v14.64H259.8Z" transform="translate(-23 -104)"/><path class="cls-2" d="M276.32,205.58H273l-3.74-9.23h0v9.23h-3.08V190.92h3.47l3.69,9.09h.06v-9.09h3Z" transform="translate(-23 -104)"/><path class="cls-2" d="M286.44,205.58h-7.33V190.95H286v2.82h-3.72v3h3.19v2.72h-3.19v3.23h4.18Z" transform="translate(-23 -104)"/><path class="cls-2" d="M295.12,195.07a3.41,3.41,0,0,0-2.41-1.46,1.4,1.4,0,0,0-.92.34,1,1,0,0,0-.41.76q0,.76,1.28,1.8a17.94,17.94,0,0,1,1.91,1.68,4.83,4.83,0,0,1,.91,1.45,4.74,4.74,0,0,1,.34,1.82,4.25,4.25,0,0,1-4.44,4.42,5.2,5.2,0,0,1-3.13-1.14v-3.46a4.12,4.12,0,0,0,2.94,1.59,1.67,1.67,0,0,0,1.1-.36,1.11,1.11,0,0,0,.44-.89,2.56,2.56,0,0,0-1.13-1.75,17.23,17.23,0,0,1-2.36-2.3,6,6,0,0,1-.84-1.52,4.55,4.55,0,0,1-.28-1.55,3.64,3.64,0,0,1,1.19-2.79,4.28,4.28,0,0,1,3-1.1,5.54,5.54,0,0,1,2.78.8Z" transform="translate(-23 -104)"/><path class="cls-2" d="M304.39,195.07a3.41,3.41,0,0,0-2.41-1.46,1.4,1.4,0,0,0-.92.34,1,1,0,0,0-.41.76q0,.76,1.28,1.8a17.94,17.94,0,0,1,1.91,1.68,4.83,4.83,0,0,1,.91,1.45,4.74,4.74,0,0,1,.34,1.82,4.25,4.25,0,0,1-4.44,4.42,5.2,5.2,0,0,1-3.13-1.14v-3.46a4.12,4.12,0,0,0,2.94,1.59,1.67,1.67,0,0,0,1.1-.36,1.11,1.11,0,0,0,.44-.89,2.56,2.56,0,0,0-1.13-1.75,17.23,17.23,0,0,1-2.36-2.3,6,6,0,0,1-.84-1.52,4.55,4.55,0,0,1-.28-1.55,3.64,3.64,0,0,1,1.19-2.79,4.28,4.28,0,0,1,3-1.1,5.54,5.54,0,0,1,2.78.8Z" transform="translate(-23 -104)"/><path class="cls-2" d="M312.52,190.95h4.12q4.8,0,4.8,4.58a4,4,0,0,1-1.25,3.17,5.11,5.11,0,0,1-3.53,1.12h-.93v5.77h-3.21Zm3.18,6.57h.64a1.64,1.64,0,0,0,1.31-.54,2.26,2.26,0,0,0,.46-1.52q0-2.17-1.68-2.17h-.73Z" transform="translate(-23 -104)"/><path class="cls-2" d="M332.46,205.58h-3.24l-2.56-7.24h0v7.24h-3.18V190.95h4.13a6.6,6.6,0,0,1,2.47.49,3.2,3.2,0,0,1,1.75,1.54,4.78,4.78,0,0,1,.52,2.17,3.92,3.92,0,0,1-.59,2.23,5.28,5.28,0,0,1-1.88,1.59Zm-5.84-8.06q1.55,0,2-.6a2.66,2.66,0,0,0,.41-1.53q0-2.1-1.72-2.1h-.64Z" transform="translate(-23 -104)"/><path class="cls-2" d="M333.86,198.19a11.36,11.36,0,0,1,.67-4.52,5.57,5.57,0,0,1,1.78-2.24,4.7,4.7,0,0,1,2.81-.8,4.76,4.76,0,0,1,2.26.46,5.47,5.47,0,0,1,1.59,1.35,5.58,5.58,0,0,1,1.08,2.19,14.17,14.17,0,0,1,.34,3.46q0,4.42-1.48,6.1a4.85,4.85,0,0,1-3.82,1.68,4.68,4.68,0,0,1-3.81-1.74Q333.86,202.4,333.86,198.19Zm3.35-.89v.94a18.61,18.61,0,0,0,.15,3,2,2,0,0,0,.65,1.15,1.79,1.79,0,0,0,1.2.42,1.55,1.55,0,0,0,1-.41,2.26,2.26,0,0,0,.66-1.25,15.85,15.85,0,0,0,.19-3,16.28,16.28,0,0,0-.16-2.74,2.57,2.57,0,0,0-.64-1.32,1.57,1.57,0,0,0-1.18-.5,1.52,1.52,0,0,0-1.46.87A6.42,6.42,0,0,0,337.21,197.3Z" transform="translate(-23 -104)"/><path class="cls-2" d="M355.27,205.35a6.66,6.66,0,0,1-2.7.53,5.8,5.8,0,0,1-4.44-1.93,8,8,0,0,1-1.78-5.64q0-3.82,1.77-5.75a5.43,5.43,0,0,1,4.12-1.93,7.29,7.29,0,0,1,3,.73v3.07a9.55,9.55,0,0,0-1.62-.72,3.64,3.64,0,0,0-.79-.08,2.89,2.89,0,0,0-2.19,1,5.25,5.25,0,0,0-.94,3.55,5.53,5.53,0,0,0,.91,3.65,2.93,2.93,0,0,0,2.27,1,4.33,4.33,0,0,0,2.39-.87Z" transform="translate(-23 -104)"/><path class="cls-2" d="M364.66,205.58h-7.33V190.95h6.88v2.82h-3.72v3h3.19v2.72h-3.19v3.23h4.18Z" transform="translate(-23 -104)"/><path class="cls-2" d="M373.33,195.07a3.41,3.41,0,0,0-2.41-1.46,1.4,1.4,0,0,0-.92.34,1,1,0,0,0-.41.76q0,.76,1.28,1.8a17.94,17.94,0,0,1,1.91,1.68,4.82,4.82,0,0,1,.91,1.45,4.74,4.74,0,0,1,.34,1.82,4.25,4.25,0,0,1-4.44,4.42,5.21,5.21,0,0,1-3.13-1.14v-3.46a4.13,4.13,0,0,0,2.94,1.59,1.67,1.67,0,0,0,1.1-.36,1.11,1.11,0,0,0,.44-.89,2.56,2.56,0,0,0-1.13-1.75,17.23,17.23,0,0,1-2.36-2.3,6,6,0,0,1-.84-1.52,4.55,4.55,0,0,1-.28-1.55,3.64,3.64,0,0,1,1.19-2.79,4.28,4.28,0,0,1,3-1.1,5.54,5.54,0,0,1,2.78.8Z" transform="translate(-23 -104)"/><path class="cls-2" d="M382.61,195.07a3.41,3.41,0,0,0-2.41-1.46,1.4,1.4,0,0,0-.92.34,1,1,0,0,0-.41.76q0,.76,1.28,1.8a17.94,17.94,0,0,1,1.91,1.68,4.82,4.82,0,0,1,.91,1.45,4.74,4.74,0,0,1,.34,1.82,4.25,4.25,0,0,1-4.44,4.42,5.21,5.21,0,0,1-3.13-1.14v-3.46a4.13,4.13,0,0,0,2.94,1.59,1.67,1.67,0,0,0,1.1-.36,1.11,1.11,0,0,0,.44-.89,2.56,2.56,0,0,0-1.13-1.75,17.23,17.23,0,0,1-2.36-2.3,6,6,0,0,1-.84-1.52,4.55,4.55,0,0,1-.28-1.55,3.64,3.64,0,0,1,1.19-2.79,4.28,4.28,0,0,1,3-1.1,5.54,5.54,0,0,1,2.78.8Z" transform="translate(-23 -104)"/><path class="cls-2" d="M392.76,205.58h-7.33V190.95h6.88v2.82h-3.72v3h3.19v2.72h-3.19v3.23h4.18Z" transform="translate(-23 -104)"/><path class="cls-2" d="M401.43,195.07a3.41,3.41,0,0,0-2.41-1.46,1.4,1.4,0,0,0-.92.34,1,1,0,0,0-.41.76q0,.76,1.28,1.8a17.94,17.94,0,0,1,1.91,1.68,4.82,4.82,0,0,1,.91,1.45,4.74,4.74,0,0,1,.34,1.82,4.25,4.25,0,0,1-4.44,4.42,5.21,5.21,0,0,1-3.13-1.14v-3.46a4.13,4.13,0,0,0,2.94,1.59,1.67,1.67,0,0,0,1.1-.36,1.11,1.11,0,0,0,.44-.89,2.56,2.56,0,0,0-1.13-1.75,17.23,17.23,0,0,1-2.36-2.3,6,6,0,0,1-.84-1.52,4.55,4.55,0,0,1-.28-1.55,3.64,3.64,0,0,1,1.19-2.79,4.28,4.28,0,0,1,3-1.1,5.54,5.54,0,0,1,2.78.8Z" transform="translate(-23 -104)"/><path class="cls-2" d="M104,382.63a5.38,5.38,0,0,1-1,3.56,3.87,3.87,0,0,1-3.08,1.11,4.46,4.46,0,0,1-1.25-.15,8.54,8.54,0,0,1-1.43-.65v-3.23a1.59,1.59,0,0,1,.36.23,3.39,3.39,0,0,0,1.91.8q1.27,0,1.27-1.87V372.36H104Z" transform="translate(-23 -104)"/><path class="cls-2" d="M106.32,379.61a11.35,11.35,0,0,1,.67-4.52,5.57,5.57,0,0,1,1.78-2.24,4.7,4.7,0,0,1,2.81-.8,4.76,4.76,0,0,1,2.26.46,5.47,5.47,0,0,1,1.59,1.35,5.58,5.58,0,0,1,1.08,2.19,14.17,14.17,0,0,1,.34,3.46q0,4.42-1.48,6.1a4.85,4.85,0,0,1-3.82,1.68,4.67,4.67,0,0,1-3.81-1.74Q106.32,383.81,106.32,379.61Zm3.36-.89v.94a18.77,18.77,0,0,0,.15,3,2,2,0,0,0,.65,1.15,1.79,1.79,0,0,0,1.2.42,1.55,1.55,0,0,0,1-.41,2.26,2.26,0,0,0,.66-1.25,15.85,15.85,0,0,0,.19-3,16.28,16.28,0,0,0-.16-2.74,2.57,2.57,0,0,0-.64-1.32,1.57,1.57,0,0,0-1.18-.5,1.52,1.52,0,0,0-1.46.87A6.42,6.42,0,0,0,109.67,378.71Z" transform="translate(-23 -104)"/><path class="cls-2" d="M126.19,379.63a3.91,3.91,0,0,1,1.8,1.44,4.28,4.28,0,0,1,.52,2.24,3.47,3.47,0,0,1-1.12,2.63,3.86,3.86,0,0,1-2.76,1.07h-5.26V372.36h4.51a4.62,4.62,0,0,1,3.13,1,3.37,3.37,0,0,1,1.22,2.67,4.17,4.17,0,0,1-.48,2.13A4,4,0,0,1,126.19,379.63Zm-3.65-1.08h.65a1.68,1.68,0,0,0,1.28-.51,1.91,1.91,0,0,0,.48-1.37,1.75,1.75,0,0,0-2-2h-.41Zm0,6.07.92,0a1.66,1.66,0,0,0,1.27-.5,2,2,0,0,0,.45-1.39,1.73,1.73,0,0,0-2-1.93h-.65Z" transform="translate(-23 -104)"/><path class="cls-2" d="M137.23,376.49a3.41,3.41,0,0,0-2.41-1.46,1.4,1.4,0,0,0-.92.34,1,1,0,0,0-.41.76q0,.76,1.28,1.8a17.94,17.94,0,0,1,1.91,1.68,4.82,4.82,0,0,1,.91,1.45,4.74,4.74,0,0,1,.34,1.82,4.25,4.25,0,0,1-4.44,4.42,5.21,5.21,0,0,1-3.13-1.14V382.7a4.13,4.13,0,0,0,2.94,1.59,1.67,1.67,0,0,0,1.1-.36,1.11,1.11,0,0,0,.44-.89,2.56,2.56,0,0,0-1.13-1.75,17.23,17.23,0,0,1-2.36-2.3,6,6,0,0,1-.84-1.52,4.55,4.55,0,0,1-.28-1.55,3.64,3.64,0,0,1,1.19-2.79,4.28,4.28,0,0,1,3-1.1,5.54,5.54,0,0,1,2.78.8Z" transform="translate(-23 -104)"/><path class="cls-2" d="M123.84,401.61q-.25.32-1.88,1.95l1.64,2.45h-3.32l-.53-.8a6.51,6.51,0,0,1-3.47,1.09,4.1,4.1,0,0,1-3-1.2,4,4,0,0,1-1.22-2.94q0-2,2.8-4a7,7,0,0,1-1.38-3.43,2.86,2.86,0,0,1,1-2.24,3.74,3.74,0,0,1,2.57-.9,3.91,3.91,0,0,1,2.65.88,2.87,2.87,0,0,1,1,2.28,5.39,5.39,0,0,1-2.15,3.94l1.86,2.72a20.07,20.07,0,0,0,1.61-1.71Zm-5.57,1.49-2-3A2.38,2.38,0,0,0,115,402a1.92,1.92,0,0,0,1.77,1.72A2.75,2.75,0,0,0,118.27,403.09ZM117,396.68a2,2,0,0,0,1.15-1.72,1.44,1.44,0,0,0-.28-.92.89.89,0,0,0-.73-.36,1,1,0,0,0-.75.31,1.07,1.07,0,0,0-.31.78A4.61,4.61,0,0,0,117,396.68Z" transform="translate(-23 -104)"/><path class="cls-2" d="M53,417.61a11.35,11.35,0,0,1,.67-4.52,5.57,5.57,0,0,1,1.78-2.24,4.7,4.7,0,0,1,2.81-.8,4.77,4.77,0,0,1,2.26.46,5.47,5.47,0,0,1,1.6,1.35A5.59,5.59,0,0,1,63.16,414a14.17,14.17,0,0,1,.34,3.46q0,4.42-1.48,6.1a4.85,4.85,0,0,1-3.82,1.68,4.68,4.68,0,0,1-3.81-1.74Q53,421.81,53,417.61Zm3.36-.89v.94a18.69,18.69,0,0,0,.15,3,2,2,0,0,0,.65,1.15,1.79,1.79,0,0,0,1.19.42,1.54,1.54,0,0,0,1-.41,2.25,2.25,0,0,0,.66-1.25,15.79,15.79,0,0,0,.19-3,16.2,16.2,0,0,0-.16-2.74,2.56,2.56,0,0,0-.64-1.32,1.57,1.57,0,0,0-1.18-.5,1.52,1.52,0,0,0-1.46.87A6.41,6.41,0,0,0,56.32,416.71Z" transform="translate(-23 -104)"/><path class="cls-2" d="M75,425H71.79l-2.56-7.24h0V425H66V410.36h4.13a6.59,6.59,0,0,1,2.47.49,3.19,3.19,0,0,1,1.75,1.54,4.77,4.77,0,0,1,.52,2.17,3.92,3.92,0,0,1-.59,2.23,5.29,5.29,0,0,1-1.88,1.59Zm-5.84-8.06q1.55,0,2-.6a2.66,2.66,0,0,0,.41-1.53q0-2.1-1.72-2.1h-.64Z" transform="translate(-23 -104)"/><path class="cls-2" d="M87.07,419.09a8.68,8.68,0,0,1-.45,2.41,5.83,5.83,0,0,1-1.73,2.63,4.34,4.34,0,0,1-3,1.16q-5.4,0-5.4-7.73a9.44,9.44,0,0,1,1.41-5.6,4.64,4.64,0,0,1,4-1.94,4.17,4.17,0,0,1,4.51,3.64l-2.79,1.21q-.08-2-1.79-2a1.64,1.64,0,0,0-1.21.46,2.3,2.3,0,0,0-.61,1.28,19,19,0,0,0-.14,2.81,22.1,22.1,0,0,0,.15,3.22,2.27,2.27,0,0,0,.62,1.31,1.72,1.72,0,0,0,1.22.44q1.77,0,1.88-2.91h-2v-2.84h5.29Z" transform="translate(-23 -104)"/><path class="cls-2" d="M99.55,425H96.44L96,422.71H92.08L91.54,425H88.43l4.2-14.64h3.23Zm-4-4.65-1.3-6.4h0l-1.5,6.4Z" transform="translate(-23 -104)"/><path class="cls-2" d="M111.66,425h-3.35l-3.74-9.23h0V425h-3.08V410.34h3.47l3.69,9.09h.06v-9.09h3Z" transform="translate(-23 -104)"/><path class="cls-2" d="M114.75,410.36h3.18V425h-3.18Z" transform="translate(-23 -104)"/><path class="cls-2" d="M130,410.36l-5.38,11.78h4.21V425h-8.64v-.46l5.19-11.32H120.6v-2.86Z" transform="translate(-23 -104)"/><path class="cls-2" d="M142,425H138.9l-.49-2.29h-3.87L134,425H130.9l4.2-14.64h3.23Zm-4-4.65-1.3-6.4h0l-1.5,6.4Z" transform="translate(-23 -104)"/><path class="cls-2" d="M150.8,413.2h-2.86V425h-3.18V413.22h-2.92v-2.86h9Z" transform="translate(-23 -104)"/><path class="cls-2" d="M153,410.36h3.18V425H153Z" transform="translate(-23 -104)"/><path class="cls-2" d="M158.89,417.61a11.36,11.36,0,0,1,.67-4.52,5.57,5.57,0,0,1,1.78-2.24,4.7,4.7,0,0,1,2.81-.8,4.76,4.76,0,0,1,2.26.46,5.47,5.47,0,0,1,1.59,1.35,5.58,5.58,0,0,1,1.08,2.19,14.17,14.17,0,0,1,.34,3.46q0,4.42-1.48,6.1a4.85,4.85,0,0,1-3.82,1.68,4.68,4.68,0,0,1-3.81-1.74Q158.89,421.81,158.89,417.61Zm3.35-.89v.94a18.61,18.61,0,0,0,.15,3,2,2,0,0,0,.65,1.15,1.79,1.79,0,0,0,1.2.42,1.55,1.55,0,0,0,1-.41,2.26,2.26,0,0,0,.66-1.25,15.85,15.85,0,0,0,.19-3,16.28,16.28,0,0,0-.16-2.74,2.57,2.57,0,0,0-.64-1.32,1.57,1.57,0,0,0-1.18-.5,1.52,1.52,0,0,0-1.46.87A6.42,6.42,0,0,0,162.25,416.71Z" transform="translate(-23 -104)"/><path class="cls-2" d="M182.07,425h-3.35L175,415.77h0V425h-3.08V410.34h3.47l3.68,9.09h.06v-9.09h3Z" transform="translate(-23 -104)"/><path class="cls-2" d="M221.25,587.78h3.18v14.64h-3.18Z" transform="translate(-23 -104)"/><path class="cls-2" d="M237.77,602.42h-3.36l-3.74-9.23h0v9.23h-3.08V587.76H231l3.69,9.09h.06v-9.09h3Z" transform="translate(-23 -104)"/><path class="cls-2" d="M247.46,590.64h-3.72v3h3.19v2.72h-3.19v6.07h-3.15V587.78h6.88Z" transform="translate(-23 -104)"/><path class="cls-2" d="M249.26,595a11.35,11.35,0,0,1,.67-4.52,5.57,5.57,0,0,1,1.78-2.24,4.7,4.7,0,0,1,2.81-.8,4.77,4.77,0,0,1,2.26.46,5.47,5.47,0,0,1,1.6,1.35,5.59,5.59,0,0,1,1.08,2.19,14.17,14.17,0,0,1,.34,3.46q0,4.42-1.48,6.1a4.85,4.85,0,0,1-3.82,1.68,4.68,4.68,0,0,1-3.81-1.74Q249.26,599.23,249.26,595Zm3.36-.89v.94a18.69,18.69,0,0,0,.15,3,2,2,0,0,0,.65,1.15,1.79,1.79,0,0,0,1.19.42,1.54,1.54,0,0,0,1-.41,2.25,2.25,0,0,0,.66-1.25,15.79,15.79,0,0,0,.19-3,16.2,16.2,0,0,0-.16-2.74,2.56,2.56,0,0,0-.64-1.32,1.57,1.57,0,0,0-1.18-.5,1.52,1.52,0,0,0-1.46.87A6.41,6.41,0,0,0,252.61,594.13Z" transform="translate(-23 -104)"/><path class="cls-2" d="M271.32,602.42h-3.24l-2.56-7.24h0v7.24H262.3V587.78h4.13a6.59,6.59,0,0,1,2.47.49,3.19,3.19,0,0,1,1.75,1.54,4.77,4.77,0,0,1,.52,2.17,3.92,3.92,0,0,1-.59,2.23,5.29,5.29,0,0,1-1.88,1.59Zm-5.84-8.06q1.55,0,2-.6a2.66,2.66,0,0,0,.41-1.53q0-2.1-1.72-2.1h-.64Z" transform="translate(-23 -104)"/><path class="cls-2" d="M287,602.42h-3l-.72-12h0l-2.24,12h-2.26l-2.14-12h0l-.81,12h-3l1.52-14.64h4l1.62,9.64h0l1.76-9.64h4Z" transform="translate(-23 -104)"/><path class="cls-2" d="M299.27,602.42h-3.11l-.49-2.29H291.8l-.53,2.29h-3.11l4.2-14.64h3.23Zm-4-4.65-1.3-6.4h0l-1.5,6.4Z" transform="translate(-23 -104)"/><path class="cls-2" d="M308.06,590.62H305.2v11.8H302V590.64H299.1v-2.86h9Z" transform="translate(-23 -104)"/><path class="cls-2" d="M310.25,587.78h3.18v14.64h-3.18Z" transform="translate(-23 -104)"/><path class="cls-2" d="M316.15,595a11.36,11.36,0,0,1,.67-4.52,5.57,5.57,0,0,1,1.78-2.24,4.7,4.7,0,0,1,2.81-.8,4.76,4.76,0,0,1,2.26.46,5.47,5.47,0,0,1,1.59,1.35,5.58,5.58,0,0,1,1.08,2.19,14.17,14.17,0,0,1,.34,3.46q0,4.42-1.48,6.1a4.85,4.85,0,0,1-3.82,1.68,4.68,4.68,0,0,1-3.81-1.74Q316.15,599.23,316.15,595Zm3.35-.89v.94a18.61,18.61,0,0,0,.15,3,2,2,0,0,0,.65,1.15,1.79,1.79,0,0,0,1.2.42,1.55,1.55,0,0,0,1-.41,2.26,2.26,0,0,0,.66-1.25,15.85,15.85,0,0,0,.19-3,16.28,16.28,0,0,0-.16-2.74,2.57,2.57,0,0,0-.64-1.32,1.57,1.57,0,0,0-1.18-.5,1.52,1.52,0,0,0-1.46.87A6.42,6.42,0,0,0,319.5,594.13Z" transform="translate(-23 -104)"/><path class="cls-2" d="M339.33,602.42H336l-3.74-9.23h0v9.23H329.1V587.76h3.47l3.68,9.09h.06v-9.09h3Z" transform="translate(-23 -104)"/><path class="cls-2" d="M353.87,591.91a3.41,3.41,0,0,0-2.41-1.46,1.4,1.4,0,0,0-.92.34,1,1,0,0,0-.41.76q0,.76,1.28,1.8a17.94,17.94,0,0,1,1.91,1.68,4.82,4.82,0,0,1,.91,1.45,4.74,4.74,0,0,1,.34,1.82,4.25,4.25,0,0,1-4.44,4.42,5.21,5.21,0,0,1-3.13-1.14v-3.46a4.13,4.13,0,0,0,2.94,1.59,1.67,1.67,0,0,0,1.1-.36,1.11,1.11,0,0,0,.44-.89,2.56,2.56,0,0,0-1.13-1.75,17.23,17.23,0,0,1-2.36-2.3,6,6,0,0,1-.84-1.52,4.55,4.55,0,0,1-.28-1.55,3.64,3.64,0,0,1,1.19-2.79,4.28,4.28,0,0,1,3-1.1,5.54,5.54,0,0,1,2.78.8Z" transform="translate(-23 -104)"/><path class="cls-2" d="M366.09,587.78l-3.28,8.16v6.48h-3.16V596l-3.81-8.18h3.43l1.88,4.62,1.79-4.62Z" transform="translate(-23 -104)"/><path class="cls-2" d="M374.65,591.91a3.41,3.41,0,0,0-2.41-1.46,1.4,1.4,0,0,0-.92.34,1,1,0,0,0-.41.76q0,.76,1.28,1.8a17.94,17.94,0,0,1,1.91,1.68,4.82,4.82,0,0,1,.91,1.45,4.74,4.74,0,0,1,.34,1.82,4.25,4.25,0,0,1-4.44,4.42,5.21,5.21,0,0,1-3.13-1.14v-3.46a4.13,4.13,0,0,0,2.94,1.59,1.67,1.67,0,0,0,1.1-.36,1.11,1.11,0,0,0,.44-.89,2.56,2.56,0,0,0-1.13-1.75,17.23,17.23,0,0,1-2.36-2.3,6,6,0,0,1-.84-1.52,4.55,4.55,0,0,1-.28-1.55,3.64,3.64,0,0,1,1.19-2.79,4.28,4.28,0,0,1,3-1.1,5.54,5.54,0,0,1,2.78.8Z" transform="translate(-23 -104)"/><path class="cls-2" d="M385.62,590.62h-2.86v11.8h-3.18V590.64h-2.92v-2.86h9Z" transform="translate(-23 -104)"/><path class="cls-2" d="M394.85,602.42h-7.33V587.78h6.88v2.82h-3.72v3h3.19v2.72h-3.19v3.23h4.18Z" transform="translate(-23 -104)"/><path class="cls-2" d="M410.61,602.42h-3l-.72-12h0l-2.24,12h-2.26l-2.14-12h0l-.81,12h-3l1.52-14.64h4l1.62,9.64h0l1.76-9.64h4Z" transform="translate(-23 -104)"/><path class="cls-5" d="M196.43,222.39c-.62-.62-2.71.48-4.65,2.42l-35.89,36.06a5,5,0,0,1-7.07,0l-1.11-1.11c-1.95-1.94-4.12-1.35-4.83,1.31l-4.19,15.76c-.71,2.66.89,4.25,3.54,3.53L158,276.12c2.65-.72,3.23-2.89,1.28-4.83l-1.11-1.1a5,5,0,0,1,0-7.07L194,227.05C196,225.1,197,223,196.43,222.39Z" transform="translate(-23 -104)"/><path class="cls-5" d="M141.76,277.16c.62.62,2.72-.47,4.66-2.42l36.06-36.23a5,5,0,0,1,7.07,0l1.14,1.14c1.95,1.94,4.12,1.35,4.83-1.31l4.21-15.86c.71-2.66-.89-4.25-3.54-3.53l-15.84,4.29c-2.65.72-3.23,2.89-1.28,4.83l1.14,1.14a5,5,0,0,1,0,7.07l-36.06,36.23C142.21,274.44,141.14,276.54,141.76,277.16Z" transform="translate(-23 -104)"/><path class="cls-6" d="M195.43,221.39c-.62-.62-2.71.48-4.65,2.42l-35.89,36.06a5,5,0,0,1-7.07,0l-1.11-1.11c-1.95-1.94-4.12-1.35-4.83,1.31l-4.19,15.76c-.71,2.66.89,4.25,3.54,3.53L157,275.12c2.65-.72,3.23-2.89,1.28-4.83l-1.11-1.1a5,5,0,0,1,0-7.07L193,226.05C195,224.1,196,222,195.43,221.39Z" transform="translate(-23 -104)"/><path class="cls-6" d="M140.76,276.16c.62.62,2.72-.47,4.66-2.42l36.06-36.23a5,5,0,0,1,7.07,0l1.14,1.14c1.95,1.94,4.12,1.35,4.83-1.31l4.21-15.86c.71-2.66-.89-4.25-3.54-3.53l-15.84,4.29c-2.65.72-3.23,2.89-1.28,4.83l1.14,1.14a5,5,0,0,1,0,7.07l-36.06,36.23C141.21,273.44,140.14,275.54,140.76,276.16Z" transform="translate(-23 -104)"/><path class="cls-5" d="M435.74,220.69c.62-.62,2.71.48,4.65,2.42l35.89,36.06a5,5,0,0,0,7.07,0l1.11-1.11c1.95-1.94,4.12-1.35,4.83,1.31l4.18,15.76c.71,2.66-.89,4.25-3.54,3.53l-15.74-4.26c-2.65-.72-3.23-2.89-1.28-4.83l1.11-1.1a5,5,0,0,0,0-7.07l-35.89-36.06C436.2,223.4,435.12,221.3,435.74,220.69Z" transform="translate(-23 -104)"/><path class="cls-5" d="M490.41,275.46c-.62.62-2.72-.47-4.66-2.42l-36.06-36.23a5,5,0,0,0-7.07,0l-1.14,1.14c-1.95,1.94-4.12,1.35-4.83-1.31l-4.21-15.86c-.71-2.66.89-4.25,3.54-3.53l15.84,4.29c2.65.72,3.23,2.89,1.28,4.83L452,227.49a5,5,0,0,0,0,7.07L488,270.79C490,272.74,491,274.84,490.41,275.46Z" transform="translate(-23 -104)"/><path class="cls-6" d="M434.74,219.69c.62-.62,2.71.48,4.65,2.42l35.89,36.06a5,5,0,0,0,7.07,0l1.11-1.11c1.95-1.94,4.12-1.35,4.83,1.31l4.18,15.76c.71,2.66-.89,4.25-3.54,3.53l-15.74-4.26c-2.65-.72-3.23-2.89-1.28-4.83l1.11-1.1a5,5,0,0,0,0-7.07l-35.89-36.06C435.2,222.4,434.12,220.3,434.74,219.69Z" transform="translate(-23 -104)"/><path class="cls-6" d="M489.41,274.46c-.62.62-2.72-.47-4.66-2.42l-36.06-36.23a5,5,0,0,0-7.07,0l-1.14,1.14c-1.95,1.94-4.12,1.35-4.83-1.31l-4.21-15.86c-.71-2.66.89-4.25,3.54-3.53l15.84,4.29c2.65.72,3.23,2.89,1.28,4.83L451,226.49a5,5,0,0,0,0,7.07L487,269.79C489,271.74,490,273.84,489.41,274.46Z" transform="translate(-23 -104)"/><path class="cls-5" d="M484.63,513.07c-.62-.62-2.71.48-4.65,2.42l-35.89,36.06a5,5,0,0,1-7.07,0l-1.11-1.11c-1.95-1.94-4.12-1.35-4.83,1.31l-4.18,15.76c-.71,2.66.89,4.25,3.54,3.53l15.74-4.26c2.65-.72,3.23-2.89,1.28-4.83l-1.11-1.1a5,5,0,0,1,0-7.07l35.89-36.06C484.17,515.78,485.25,513.68,484.63,513.07Z" transform="translate(-23 -104)"/><path class="cls-5" d="M430,567.84c.62.62,2.72-.47,4.66-2.42l36.06-36.23a5,5,0,0,1,7.07,0l1.14,1.14c1.95,1.94,4.12,1.35,4.83-1.31l4.21-15.86c.71-2.66-.89-4.25-3.54-3.53l-15.84,4.28c-2.65.72-3.23,2.89-1.28,4.83l1.14,1.14a5,5,0,0,1,0,7.07l-36.06,36.23C430.42,565.12,429.34,567.22,430,567.84Z" transform="translate(-23 -104)"/><path class="cls-6" d="M483.63,512.07c-.62-.62-2.71.48-4.65,2.42l-35.89,36.06a5,5,0,0,1-7.07,0l-1.11-1.11c-1.95-1.94-4.12-1.35-4.83,1.31l-4.18,15.76c-.71,2.66.89,4.25,3.54,3.53l15.74-4.26c2.65-.72,3.23-2.89,1.28-4.83l-1.11-1.1a5,5,0,0,1,0-7.07l35.89-36.06C483.17,514.78,484.25,512.68,483.63,512.07Z" transform="translate(-23 -104)"/><path class="cls-6" d="M429,566.84c.62.62,2.72-.47,4.66-2.42l36.06-36.23a5,5,0,0,1,7.07,0l1.14,1.14c1.95,1.94,4.12,1.35,4.83-1.31l4.21-15.86c.71-2.66-.89-4.25-3.54-3.53l-15.84,4.28c-2.65.72-3.23,2.89-1.28,4.83l1.14,1.14a5,5,0,0,1,0,7.07l-36.06,36.23C429.42,564.12,428.34,566.22,429,566.84Z" transform="translate(-23 -104)"/><path class="cls-5" d="M151.44,511.37c.62-.62,2.71.48,4.65,2.42L192,549.85a5,5,0,0,0,7.07,0l1.11-1.11c1.95-1.94,4.12-1.35,4.83,1.3l4.19,15.76c.71,2.66-.89,4.24-3.54,3.53l-15.74-4.26c-2.65-.72-3.23-2.89-1.28-4.83l1.11-1.1a5,5,0,0,0,0-7.07L153.84,516C151.9,514.08,150.82,512,151.44,511.37Z" transform="translate(-23 -104)"/><path class="cls-5" d="M206.11,566.14c-.62.62-2.72-.47-4.66-2.42l-36.06-36.23a5,5,0,0,0-7.07,0l-1.14,1.14c-1.95,1.94-4.12,1.35-4.83-1.31l-4.21-15.86c-.71-2.66.89-4.25,3.54-3.53l15.84,4.28c2.65.72,3.23,2.89,1.28,4.83l-1.14,1.14a5,5,0,0,0,0,7.07l36.06,36.23C205.65,563.42,206.73,565.52,206.11,566.14Z" transform="translate(-23 -104)"/><path class="cls-6" d="M150.44,510.37c.62-.62,2.71.48,4.65,2.42L191,548.85a5,5,0,0,0,7.07,0l1.11-1.11c1.95-1.94,4.12-1.35,4.83,1.3l4.19,15.76c.71,2.66-.89,4.24-3.54,3.53l-15.74-4.26c-2.65-.72-3.23-2.89-1.28-4.83l1.11-1.1a5,5,0,0,0,0-7.07L152.84,515C150.9,513.08,149.82,511,150.44,510.37Z" transform="translate(-23 -104)"/><path class="cls-6" d="M205.11,565.14c-.62.62-2.72-.47-4.66-2.42l-36.06-36.23a5,5,0,0,0-7.07,0l-1.14,1.14c-1.95,1.94-4.12,1.35-4.83-1.31l-4.21-15.86c-.71-2.66.89-4.25,3.54-3.53l15.84,4.28c2.65.72,3.23,2.89,1.28,4.83l-1.14,1.14a5,5,0,0,0,0,7.07l36.06,36.23C204.65,562.42,205.73,564.52,205.11,565.14Z" transform="translate(-23 -104)"/><path class="cls-2" d="M487.65,379.63a3.91,3.91,0,0,1,1.8,1.44,4.28,4.28,0,0,1,.52,2.24,3.48,3.48,0,0,1-1.12,2.63,3.86,3.86,0,0,1-2.76,1.07h-5.26V372.36h4.51a4.62,4.62,0,0,1,3.13,1,3.36,3.36,0,0,1,1.22,2.67,4.16,4.16,0,0,1-.48,2.13A4,4,0,0,1,487.65,379.63ZM484,378.55h.65a1.68,1.68,0,0,0,1.28-.51,1.91,1.91,0,0,0,.48-1.37,1.75,1.75,0,0,0-2-2H484Zm0,6.07.92,0a1.66,1.66,0,0,0,1.27-.5,2,2,0,0,0,.45-1.39,1.73,1.73,0,0,0-2-1.93H484Z" transform="translate(-23 -104)"/><path class="cls-2" d="M499.56,387h-7.33V372.36h6.88v2.82h-3.72v3h3.19v2.72h-3.19v3.23h4.18Z" transform="translate(-23 -104)"/><path class="cls-2" d="M508.67,387H501.8V372.36H505v11.75h3.72Z" transform="translate(-23 -104)"/><path class="cls-2" d="M510.88,372.36h3.18V387h-3.18Z" transform="translate(-23 -104)"/><path class="cls-2" d="M524.45,387h-7.33V372.36H524v2.82h-3.72v3h3.19v2.72h-3.19v3.23h4.18Z" transform="translate(-23 -104)"/><path class="cls-2" d="M533.56,375.22h-3.72v3H533v2.72h-3.19V387h-3.16V372.36h6.88Z" transform="translate(-23 -104)"/><path class="cls-2" d="M542.17,376.49a3.41,3.41,0,0,0-2.41-1.46,1.4,1.4,0,0,0-.92.34,1,1,0,0,0-.41.76q0,.76,1.28,1.8a17.94,17.94,0,0,1,1.91,1.68,4.82,4.82,0,0,1,.91,1.45,4.74,4.74,0,0,1,.34,1.82,4.25,4.25,0,0,1-4.44,4.42,5.21,5.21,0,0,1-3.13-1.14V382.7a4.13,4.13,0,0,0,2.94,1.59,1.67,1.67,0,0,0,1.1-.36,1.11,1.11,0,0,0,.44-.89,2.56,2.56,0,0,0-1.13-1.75,17.23,17.23,0,0,1-2.36-2.3,6,6,0,0,1-.84-1.52,4.55,4.55,0,0,1-.28-1.55,3.64,3.64,0,0,1,1.19-2.79,4.28,4.28,0,0,1,3-1.1,5.54,5.54,0,0,1,2.78.8Z" transform="translate(-23 -104)"/><path class="cls-2" d="M517.59,401.61q-.25.32-1.88,1.95l1.64,2.45H514l-.53-.8a6.51,6.51,0,0,1-3.47,1.09,4.1,4.1,0,0,1-3-1.2,4,4,0,0,1-1.22-2.94q0-2,2.8-4a7,7,0,0,1-1.38-3.43,2.86,2.86,0,0,1,1-2.24,3.74,3.74,0,0,1,2.57-.9,3.91,3.91,0,0,1,2.65.88,2.87,2.87,0,0,1,1,2.28,5.39,5.39,0,0,1-2.15,3.94l1.86,2.72a20.07,20.07,0,0,0,1.61-1.71ZM512,403.09l-2-3a2.38,2.38,0,0,0-1.21,1.83,1.92,1.92,0,0,0,1.77,1.72A2.75,2.75,0,0,0,512,403.09Zm-1.26-6.41a2,2,0,0,0,1.15-1.72,1.44,1.44,0,0,0-.28-.92.89.89,0,0,0-.73-.36,1,1,0,0,0-.75.31,1.07,1.07,0,0,0-.31.78A4.61,4.61,0,0,0,510.76,396.68Z" transform="translate(-23 -104)"/><path class="cls-2" d="M476.33,417.63a3.91,3.91,0,0,1,1.8,1.44,4.28,4.28,0,0,1,.52,2.24,3.48,3.48,0,0,1-1.12,2.63,3.86,3.86,0,0,1-2.76,1.07H469.5V410.36H474a4.62,4.62,0,0,1,3.13,1,3.36,3.36,0,0,1,1.22,2.67,4.16,4.16,0,0,1-.48,2.13A4,4,0,0,1,476.33,417.63Zm-3.65-1.08h.65a1.68,1.68,0,0,0,1.28-.51,1.91,1.91,0,0,0,.48-1.37,1.75,1.75,0,0,0-2-2h-.41Zm0,6.07.92,0a1.66,1.66,0,0,0,1.27-.5,2,2,0,0,0,.45-1.39,1.73,1.73,0,0,0-2-1.93h-.65Z" transform="translate(-23 -104)"/><path class="cls-2" d="M488.24,425h-7.33V410.36h6.88v2.82h-3.72v3h3.19v2.72h-3.19v3.23h4.18Z" transform="translate(-23 -104)"/><path class="cls-2" d="M490.43,410.36h3.18V416h3v-5.59h3.18V425h-3.18v-6.19h-3V425h-3.2Z" transform="translate(-23 -104)"/><path class="cls-2" d="M512.73,425h-3.11l-.49-2.29h-3.87l-.53,2.29h-3.11l4.2-14.64H509Zm-4-4.65-1.3-6.4h0l-1.49,6.4Z" transform="translate(-23 -104)"/><path class="cls-2" d="M520.89,410.36h3.2L519.95,425h-3l-4.2-14.64h3.35l2.36,9.43Z" transform="translate(-23 -104)"/><path class="cls-2" d="M526.19,410.36h3.18V425h-3.18Z" transform="translate(-23 -104)"/><path class="cls-2" d="M532.09,417.61a11.36,11.36,0,0,1,.67-4.52,5.57,5.57,0,0,1,1.78-2.24,4.7,4.7,0,0,1,2.81-.8,4.76,4.76,0,0,1,2.26.46,5.47,5.47,0,0,1,1.59,1.35,5.58,5.58,0,0,1,1.08,2.19,14.17,14.17,0,0,1,.34,3.46q0,4.42-1.48,6.1a4.85,4.85,0,0,1-3.82,1.68,4.68,4.68,0,0,1-3.81-1.74Q532.09,421.81,532.09,417.61Zm3.35-.89v.94a18.61,18.61,0,0,0,.15,3,2,2,0,0,0,.65,1.15,1.79,1.79,0,0,0,1.2.42,1.55,1.55,0,0,0,1-.41,2.26,2.26,0,0,0,.66-1.25,15.85,15.85,0,0,0,.19-3,16.28,16.28,0,0,0-.16-2.74,2.57,2.57,0,0,0-.64-1.32,1.57,1.57,0,0,0-1.18-.5,1.52,1.52,0,0,0-1.46.87A6.42,6.42,0,0,0,535.44,416.71Z" transform="translate(-23 -104)"/><path class="cls-2" d="M554.15,425h-3.24l-2.56-7.24h0V425h-3.18V410.36h4.13a6.6,6.6,0,0,1,2.47.49,3.2,3.2,0,0,1,1.75,1.54,4.78,4.78,0,0,1,.52,2.17,3.92,3.92,0,0,1-.59,2.23,5.28,5.28,0,0,1-1.88,1.59Zm-5.84-8.06q1.55,0,2-.6a2.66,2.66,0,0,0,.41-1.53q0-2.1-1.72-2.1h-.64Z" transform="translate(-23 -104)"/></svg>