<?xml version="1.0" encoding="utf-8"?>
<!-- Generator: Adobe Illustrator 15.0.0, SVG Export Plug-In  -->
<!DOCTYPE svg PUBLIC "-//W3C//DTD SVG 1.1//EN" "http://www.w3.org/Graphics/SVG/1.1/DTD/svg11.dtd" [
	<!ENTITY ns_flows "http://ns.adobe.com/Flows/1.0/">
]>
<svg version="1.1"
	 xmlns="http://www.w3.org/2000/svg" xmlns:xlink="http://www.w3.org/1999/xlink" xmlns:a="http://ns.adobe.com/AdobeSVGViewerExtensions/3.0/"
	 x="0px" y="0px" width="582px" height="582px" viewBox="0 0 582 582" enable-background="new 0 0 582 582" xml:space="preserve">
<defs>
</defs>
<g>
	<defs>
		<circle id="SVGID_1_" cx="291" cy="291" r="290.5"/>
	</defs>
	<clipPath id="SVGID_2_">
		<use xlink:href="#SVGID_1_"  overflow="visible"/>
	</clipPath>
	<rect x="0.5" y="0.5" clip-path="url(#SVGID_2_)" fill="#464547" width="581" height="581"/>
	<circle clip-path="url(#SVGID_2_)" fill="#464547" cx="291" cy="291" r="290.5"/>
	<circle clip-path="url(#SVGID_2_)" fill="#474648" cx="291" cy="291" r="281.129"/>
	<circle clip-path="url(#SVGID_2_)" fill="#484749" cx="291" cy="291" r="271.758"/>
	<circle clip-path="url(#SVGID_2_)" fill="#49484A" cx="291" cy="291" r="262.387"/>
	<circle clip-path="url(#SVGID_2_)" fill="#4A4A4C" cx="291" cy="291" r="253.016"/>
	<circle clip-path="url(#SVGID_2_)" fill="#4B4B4D" cx="291" cy="291" r="243.645"/>
	<circle clip-path="url(#SVGID_2_)" fill="#4C4C4E" cx="291" cy="291" r="234.274"/>
	<circle clip-path="url(#SVGID_2_)" fill="#4D4D4F" cx="291" cy="291" r="224.903"/>
	<circle clip-path="url(#SVGID_2_)" fill="#4E4E50" cx="291" cy="291" r="215.532"/>
	<circle clip-path="url(#SVGID_2_)" fill="#504F51" cx="291" cy="291" r="206.161"/>
	<circle clip-path="url(#SVGID_2_)" fill="#515052" cx="291" cy="291" r="196.79"/>
	<circle clip-path="url(#SVGID_2_)" fill="#525153" cx="291" cy="291" r="187.419"/>
	<circle clip-path="url(#SVGID_2_)" fill="#535254" cx="291" cy="291" r="178.049"/>
	<circle clip-path="url(#SVGID_2_)" fill="#545456" cx="291" cy="291" r="168.677"/>
	<circle clip-path="url(#SVGID_2_)" fill="#555557" cx="291" cy="291" r="159.307"/>
	<circle clip-path="url(#SVGID_2_)" fill="#565658" cx="291" cy="291" r="149.936"/>
	<circle clip-path="url(#SVGID_2_)" fill="#575759" cx="291" cy="291" r="140.564"/>
	<circle clip-path="url(#SVGID_2_)" fill="#58585A" cx="291" cy="291" r="131.193"/>
	<circle clip-path="url(#SVGID_2_)" fill="#59595B" cx="291" cy="291" r="121.823"/>
	<circle clip-path="url(#SVGID_2_)" fill="#5A5A5C" cx="291" cy="291" r="112.451"/>
	<circle clip-path="url(#SVGID_2_)" fill="#5A5B5D" cx="291" cy="291" r="103.081"/>
	<circle clip-path="url(#SVGID_2_)" fill="#5B5C5E" cx="291" cy="291" r="93.71"/>
	<circle clip-path="url(#SVGID_2_)" fill="#5C5D5F" cx="291" cy="291" r="84.339"/>
	<circle clip-path="url(#SVGID_2_)" fill="#5D5E60" cx="291" cy="291" r="74.968"/>
	<circle clip-path="url(#SVGID_2_)" fill="#5E5F61" cx="291" cy="291" r="65.597"/>
	<circle clip-path="url(#SVGID_2_)" fill="#5F6062" cx="291" cy="291" r="56.226"/>
	<circle clip-path="url(#SVGID_2_)" fill="#606163" cx="291" cy="291" r="46.855"/>
	<circle clip-path="url(#SVGID_2_)" fill="#616264" cx="291" cy="291" r="37.484"/>
	<circle clip-path="url(#SVGID_2_)" fill="#626264" cx="291" cy="291" r="28.113"/>
	<circle clip-path="url(#SVGID_2_)" fill="#626365" cx="291" cy="291" r="18.742"/>
	<circle clip-path="url(#SVGID_2_)" fill="#636466" cx="291" cy="291" r="9.371"/>
</g>
<path fill="#2D2D2D" d="M291,582c-77.729,0-150.805-30.27-205.768-85.232C30.269,441.806,0,368.729,0,291
	c0-77.729,30.269-150.805,85.232-205.768S213.271,0,291,0c77.729,0,150.806,30.269,205.768,85.232
	C551.73,140.195,582,213.271,582,291c0,77.729-30.27,150.806-85.232,205.768C441.806,551.73,368.729,582,291,582z M291,1
	C131.093,1,1,131.093,1,291c0,159.906,130.093,290,290,290c159.906,0,290-130.094,290-290C581,131.093,450.906,1,291,1z"/>
<circle fill="#FFFFFF" cx="291" cy="291" r="110.611"/>
<line fill="none" stroke="#FFFFFF" stroke-width="5" stroke-miterlimit="10" x1="291" y1="292" x2="85.542" y2="498.417"/>
<line fill="none" stroke="#FFFFFF" stroke-width="5" stroke-miterlimit="10" x1="291" y1="292" x2="496.458" y2="498.417"/>
<line fill="none" stroke="#FFFFFF" stroke-width="5" stroke-miterlimit="10" x1="497.714" y1="84.583" x2="292.256" y2="291"/>
<line fill="none" stroke="#FFFFFF" stroke-width="5" stroke-miterlimit="10" x1="84.542" y1="83.583" x2="290" y2="290"/>
<radialGradient id="SVGID_3_" cx="291" cy="291" r="104.54" gradientUnits="userSpaceOnUse">
	<stop  offset="0" style="stop-color:#575757"/>
	<stop  offset="1" style="stop-color:#404040"/>
</radialGradient>
<circle fill="url(#SVGID_3_)" cx="291" cy="291" r="104.54"/>
<path fill="#FFFFFF" d="M277.679,290h-3.365l-2.945-7.395h-0.047V290h-3.214v-14.637h3.214v6.691h0.047l2.817-6.691h3.257
	l-3.111,6.965L277.679,290z"/>
<path fill="#FFFFFF" d="M288.993,285.875c0,1.375-0.414,2.455-1.242,3.24s-1.977,1.178-3.443,1.178
	c-1.523,0-2.694-0.402-3.514-1.207c-0.82-0.805-1.23-1.957-1.23-3.457v-10.266h3.202v9.762c0,0.688,0.136,1.217,0.406,1.588
	c0.271,0.371,0.649,0.557,1.137,0.557c0.455,0,0.813-0.18,1.077-0.539c0.263-0.359,0.395-0.844,0.395-1.453v-9.914h3.214V285.875z"
	/>
<path fill="#FFFFFF" d="M301.942,290h-3.354l-3.744-9.234h-0.047V290h-3.085v-14.66h3.474l3.685,9.094h0.059v-9.094h3.014V290z"/>
<path fill="#FFFFFF" d="M304.779,275.363h3.521c1.962,0,3.521,0.625,4.68,1.875c1.157,1.25,1.736,3.047,1.736,5.391
	c0,2.367-0.565,4.188-1.695,5.461s-2.743,1.91-4.839,1.91h-3.402V275.363z M307.993,278v9.34h0.377c0.636,0,1.297-0.258,1.984-0.773
	c0.687-0.516,1.029-1.746,1.029-3.691c0-1.438-0.127-2.461-0.382-3.07c-0.256-0.609-0.63-1.063-1.125-1.359
	c-0.494-0.297-1.005-0.445-1.53-0.445H307.993z"/>
<path fill="#FFFFFF" d="M245.84,294.363h3.179V309h-3.179V294.363z"/>
<path fill="#FFFFFF" d="M265.877,308.763c-0.809,0.354-1.707,0.53-2.696,0.53c-1.774,0-3.255-0.645-4.444-1.934
	s-1.783-3.168-1.783-5.637c0-2.547,0.588-4.463,1.766-5.748s2.551-1.928,4.121-1.928c0.941,0,1.946,0.243,3.014,0.729v3.07
	c-0.832-0.423-1.372-0.663-1.619-0.718c-0.248-0.055-0.512-0.082-0.795-0.082c-0.832,0-1.562,0.344-2.189,1.031
	s-0.942,1.871-0.942,3.551c0,1.758,0.304,2.975,0.913,3.65c0.608,0.676,1.363,1.014,2.266,1.014c0.737,0,1.534-0.29,2.39-0.87
	V308.763z"/>
<path fill="#FFFFFF" d="M275.26,309h-7.334v-14.637h6.875v2.824h-3.72v2.977h3.19v2.719h-3.19v3.234h4.179V309z"/>
<path fill="#FFFFFF" d="M287.75,309h-3.354l-3.744-9.234h-0.047V309h-3.084v-14.66h3.473l3.685,9.094h0.059v-9.094h3.014V309z"/>
<path fill="#FFFFFF" d="M298.698,297.199h-2.86V309h-3.179v-11.777h-2.92v-2.859h8.959V297.199z"/>
<path fill="#FFFFFF" d="M309.753,309h-3.235l-2.557-7.242h-0.047V309h-3.179v-14.637h4.132c0.824,0,1.646,0.164,2.467,0.492
	c0.819,0.328,1.404,0.84,1.754,1.535c0.349,0.695,0.523,1.418,0.523,2.168c0,0.906-0.195,1.65-0.587,2.232s-1.02,1.111-1.884,1.588
	L309.753,309z M303.914,300.938c1.03,0,1.683-0.201,1.956-0.604s0.41-0.912,0.41-1.529c0-1.398-0.574-2.098-1.722-2.098h-0.645
	V300.938z"/>
<path fill="#FFFFFF" d="M321.29,304.875c0,1.375-0.414,2.455-1.242,3.24s-1.976,1.178-3.443,1.178c-1.522,0-2.694-0.402-3.514-1.207
	c-0.82-0.805-1.23-1.957-1.23-3.457v-10.266h3.202v9.762c0,0.688,0.136,1.217,0.406,1.588s0.649,0.557,1.136,0.557
	c0.455,0,0.814-0.18,1.077-0.539s0.395-0.844,0.395-1.453v-9.914h3.214V304.875z"/>
<path fill="#FFFFFF" d="M337.513,309h-3.028l-0.716-11.977h-0.048L331.484,309h-2.26l-2.139-12.047h-0.047L326.227,309h-3.029
	l1.519-14.637h4l1.615,9.645h0.047l1.76-9.645h3.95L337.513,309z"/>
<path fill="#FFFFFF" d="M224.885,101.583h-3.107l-0.49-2.285h-3.872l-0.534,2.285h-3.11l4.203-14.637h3.226L224.885,101.583z
	 M220.837,96.931l-1.296-6.402l-0.049-0.001l-1.495,6.403H220.837z"/>
<path fill="#FFFFFF" d="M233.621,89.806h-3.72v2.988h3.19v2.719h-3.19v6.07h-3.155V86.946h6.875V89.806z"/>
<path fill="#FFFFFF" d="M242.662,89.806h-3.72v2.988h3.19v2.719h-3.19v6.07h-3.155V86.946h6.875V89.806z"/>
<path fill="#FFFFFF" d="M254.199,101.583h-3.107l-0.49-2.285h-3.872l-0.534,2.285h-3.11l4.203-14.637h3.226L254.199,101.583z
	 M245.829,82.376c0.439,0,0.814,0.156,1.124,0.469s0.465,0.684,0.465,1.113c0,0.445-0.155,0.826-0.465,1.143
	s-0.685,0.475-1.124,0.475c-0.447,0-0.824-0.158-1.13-0.475s-0.459-0.697-0.459-1.143c0-0.43,0.155-0.801,0.465-1.113
	S245.389,82.376,245.829,82.376z M250.151,96.931l-1.296-6.402l-0.049-0.001l-1.495,6.403H250.151z M251.15,82.376
	c0.439,0,0.814,0.156,1.124,0.469s0.465,0.684,0.465,1.113c0,0.445-0.153,0.826-0.459,1.143s-0.683,0.475-1.13,0.475
	c-0.44,0-0.814-0.158-1.125-0.475s-0.465-0.697-0.465-1.143c0-0.43,0.155-0.801,0.465-1.113S250.71,82.376,251.15,82.376z"/>
<path fill="#FFFFFF" d="M265.195,101.583h-3.235l-2.557-7.242h-0.047v7.242h-3.178V86.946h4.132c0.824,0,1.646,0.164,2.466,0.492
	c0.82,0.328,1.405,0.84,1.754,1.535s0.524,1.418,0.524,2.168c0,0.906-0.196,1.65-0.587,2.232s-1.02,1.111-1.884,1.588
	L265.195,101.583z M259.355,93.521c1.031,0,1.683-0.201,1.957-0.604s0.41-0.912,0.41-1.529c0-1.398-0.574-2.098-1.722-2.098h-0.645
	V93.521z"/>
<path fill="#FFFFFF" d="M273.813,91.071c-0.84-0.977-1.645-1.465-2.414-1.465c-0.345,0-0.653,0.113-0.924,0.34
	c-0.271,0.227-0.406,0.48-0.406,0.762c0,0.508,0.428,1.109,1.283,1.805c0.895,0.711,1.53,1.271,1.907,1.682
	c0.376,0.41,0.679,0.893,0.906,1.447s0.341,1.16,0.341,1.816c0,1.289-0.414,2.348-1.242,3.176c-0.828,0.828-1.894,1.242-3.196,1.242
	c-1.067,0-2.111-0.379-3.131-1.137v-3.457c0.981,1.063,1.962,1.594,2.943,1.594c0.439,0,0.807-0.121,1.101-0.363
	c0.294-0.242,0.442-0.539,0.442-0.891c0-0.523-0.377-1.105-1.13-1.746c-1.201-1.031-1.988-1.799-2.36-2.303
	c-0.373-0.504-0.651-1.012-0.836-1.523s-0.277-1.029-0.277-1.553c0-1.125,0.396-2.055,1.189-2.789
	c0.792-0.734,1.801-1.102,3.025-1.102c0.926,0,1.852,0.266,2.778,0.797V91.071z"/>
<path fill="#FFFFFF" d="M276.65,86.946h4.12c3.203,0,4.803,1.527,4.803,4.582c0,1.367-0.416,2.424-1.248,3.17
	s-2.009,1.119-3.532,1.119h-0.93v5.766h-3.214V86.946z M279.828,93.521h0.636c0.565,0,1.002-0.18,1.313-0.539
	c0.31-0.359,0.465-0.867,0.465-1.523c0-1.445-0.561-2.168-1.684-2.168h-0.73V93.521z"/>
<path fill="#FFFFFF" d="M296.593,101.583h-3.235l-2.557-7.242h-0.047v7.242h-3.179V86.946h4.132c0.824,0,1.646,0.164,2.467,0.492
	c0.819,0.328,1.404,0.84,1.754,1.535c0.349,0.695,0.523,1.418,0.523,2.168c0,0.906-0.195,1.65-0.587,2.232s-1.02,1.111-1.884,1.588
	L296.593,101.583z M290.754,93.521c1.03,0,1.683-0.201,1.956-0.604s0.41-0.912,0.41-1.529c0-1.398-0.574-2.098-1.722-2.098h-0.645
	V93.521z"/>
<path fill="#FFFFFF" d="M297.994,94.188c0-2.055,0.224-3.563,0.671-4.523s1.042-1.707,1.783-2.238
	c0.742-0.531,1.678-0.797,2.808-0.797c0.935,0,1.688,0.154,2.261,0.463c0.572,0.309,1.104,0.758,1.595,1.348s0.85,1.32,1.077,2.191
	s0.342,2.025,0.342,3.463c0,2.945-0.493,4.979-1.478,6.1c-0.985,1.121-2.259,1.682-3.82,1.682c-1.593,0-2.864-0.58-3.814-1.74
	C298.469,98.976,297.994,96.993,297.994,94.188z M301.349,93.298v0.938c0,1.539,0.051,2.553,0.153,3.041
	c0.102,0.488,0.319,0.873,0.653,1.154s0.731,0.422,1.195,0.422c0.376,0,0.722-0.137,1.036-0.41c0.313-0.273,0.533-0.689,0.659-1.248
	c0.125-0.559,0.188-1.553,0.188-2.982c0-1.281-0.053-2.193-0.158-2.736c-0.106-0.543-0.32-0.982-0.642-1.318
	c-0.322-0.336-0.715-0.504-1.178-0.504c-0.675,0-1.161,0.291-1.46,0.873C301.498,91.108,301.349,92.032,301.349,93.298z"/>
<path fill="#FFFFFF" d="M319.408,101.346c-0.809,0.354-1.707,0.53-2.696,0.53c-1.773,0-3.255-0.645-4.443-1.934
	c-1.189-1.289-1.784-3.168-1.784-5.637c0-2.547,0.589-4.463,1.767-5.748c1.177-1.285,2.55-1.928,4.12-1.928
	c0.941,0,1.946,0.243,3.014,0.729v3.07c-0.832-0.423-1.371-0.663-1.619-0.717c-0.247-0.055-0.512-0.083-0.794-0.083
	c-0.832,0-1.563,0.344-2.19,1.031s-0.941,1.871-0.941,3.551c0,1.758,0.304,2.975,0.912,3.65s1.364,1.014,2.267,1.014
	c0.737,0,1.534-0.29,2.39-0.87V101.346z"/>
<path fill="#FFFFFF" d="M328.791,101.583h-7.335V86.946h6.875v2.824h-3.72v2.977h3.19v2.719h-3.19V98.7h4.18V101.583z"/>
<path fill="#FFFFFF" d="M337.467,91.071c-0.84-0.977-1.644-1.465-2.413-1.465c-0.346,0-0.653,0.113-0.924,0.34
	s-0.406,0.48-0.406,0.762c0,0.508,0.428,1.109,1.283,1.805c0.895,0.711,1.53,1.271,1.907,1.682s0.679,0.893,0.906,1.447
	s0.342,1.16,0.342,1.816c0,1.289-0.414,2.348-1.242,3.176s-1.894,1.242-3.196,1.242c-1.067,0-2.111-0.379-3.132-1.137v-3.457
	c0.981,1.063,1.962,1.594,2.943,1.594c0.439,0,0.807-0.121,1.101-0.363c0.295-0.242,0.441-0.539,0.441-0.891
	c0-0.523-0.376-1.105-1.13-1.746c-1.201-1.031-1.987-1.799-2.36-2.303s-0.651-1.012-0.836-1.523s-0.276-1.029-0.276-1.553
	c0-1.125,0.396-2.055,1.188-2.789s1.802-1.102,3.025-1.102c0.927,0,1.853,0.266,2.778,0.797V91.071z"/>
<path fill="#FFFFFF" d="M346.743,91.071c-0.84-0.977-1.644-1.465-2.413-1.465c-0.346,0-0.653,0.113-0.924,0.34
	S343,90.427,343,90.708c0,0.508,0.428,1.109,1.283,1.805c0.895,0.711,1.53,1.271,1.907,1.682s0.679,0.893,0.906,1.447
	s0.342,1.16,0.342,1.816c0,1.289-0.414,2.348-1.242,3.176s-1.894,1.242-3.196,1.242c-1.067,0-2.111-0.379-3.132-1.137v-3.457
	c0.981,1.063,1.962,1.594,2.943,1.594c0.439,0,0.807-0.121,1.101-0.363c0.295-0.242,0.441-0.539,0.441-0.891
	c0-0.523-0.376-1.105-1.13-1.746c-1.201-1.031-1.987-1.799-2.36-2.303s-0.651-1.012-0.836-1.523s-0.276-1.029-0.276-1.553
	c0-1.125,0.396-2.055,1.188-2.789s1.802-1.102,3.025-1.102c0.927,0,1.853,0.266,2.778,0.797V91.071z"/>
<path fill="#FFFFFF" d="M356.892,101.583h-7.335V86.946h6.875v2.824h-3.72v2.977h3.19v2.719h-3.19V98.7h4.18V101.583z"/>
<path fill="#FFFFFF" d="M368.264,101.583h-3.235l-2.557-7.242h-0.047v7.242h-3.179V86.946h4.132c0.824,0,1.646,0.164,2.467,0.492
	c0.819,0.328,1.404,0.84,1.754,1.535c0.349,0.695,0.523,1.418,0.523,2.168c0,0.906-0.195,1.65-0.587,2.232s-1.02,1.111-1.884,1.588
	L368.264,101.583z M362.425,93.521c1.03,0,1.683-0.201,1.956-0.604s0.41-0.912,0.41-1.529c0-1.398-0.574-2.098-1.722-2.098h-0.645
	V93.521z"/>
<path fill="#FFFFFF" d="M30.729,275.605c0-2.055,0.224-3.563,0.671-4.523c0.447-0.961,1.042-1.707,1.783-2.238
	s1.678-0.797,2.808-0.797c0.934,0,1.688,0.154,2.261,0.463c0.573,0.309,1.104,0.758,1.595,1.348c0.49,0.59,0.849,1.32,1.077,2.191
	c0.228,0.871,0.341,2.025,0.341,3.463c0,2.945-0.493,4.979-1.478,6.1s-2.258,1.682-3.82,1.682c-1.593,0-2.865-0.58-3.814-1.74
	C31.204,280.393,30.729,278.41,30.729,275.605z M34.084,274.715v0.938c0,1.539,0.051,2.553,0.153,3.041s0.32,0.873,0.653,1.154
	s0.732,0.422,1.195,0.422c0.377,0,0.722-0.137,1.036-0.41s0.534-0.689,0.659-1.248s0.188-1.553,0.188-2.982
	c0-1.281-0.053-2.193-0.159-2.736c-0.105-0.543-0.32-0.982-0.642-1.318s-0.714-0.504-1.177-0.504c-0.675,0-1.162,0.291-1.459,0.873
	C34.233,272.525,34.084,273.449,34.084,274.715z"/>
<path fill="#FFFFFF" d="M52.791,283h-3.235l-2.557-7.242h-0.047V283h-3.178v-14.637h4.132c0.824,0,1.646,0.164,2.466,0.492
	c0.82,0.328,1.405,0.84,1.754,1.535s0.524,1.418,0.524,2.168c0,0.906-0.196,1.65-0.587,2.232s-1.02,1.111-1.884,1.588L52.791,283z
	 M46.952,274.938c1.031,0,1.683-0.201,1.957-0.604s0.41-0.912,0.41-1.529c0-1.398-0.574-2.098-1.722-2.098h-0.645V274.938z"/>
<path fill="#FFFFFF" d="M64.834,277.094c0,0.625-0.149,1.428-0.447,2.408c-0.298,0.98-0.874,1.857-1.725,2.631
	s-1.858,1.16-3.02,1.16c-3.602,0-5.403-2.578-5.403-7.734c0-2.438,0.469-4.303,1.407-5.596c0.938-1.293,2.27-1.939,3.997-1.939
	c2.488,0,3.991,1.215,4.509,3.645l-2.79,1.207c-0.055-1.313-0.651-1.969-1.789-1.969c-0.495,0-0.897,0.154-1.207,0.463
	s-0.512,0.736-0.606,1.283c-0.094,0.547-0.142,1.484-0.142,2.813c0,1.563,0.051,2.635,0.153,3.217
	c0.102,0.582,0.31,1.02,0.624,1.313c0.313,0.293,0.722,0.439,1.224,0.439c1.177,0,1.805-0.969,1.884-2.906h-1.955v-2.836h5.286
	V277.094z"/>
<path fill="#FFFFFF" d="M77.313,283h-3.107l-0.49-2.285h-3.872L69.31,283H66.2l4.203-14.637h3.226L77.313,283z M73.265,278.348
	l-1.296-6.402l-0.049-0.001l-1.495,6.403H73.265z"/>
<path fill="#FFFFFF" d="M89.427,283h-3.355l-3.744-9.234h-0.047V283h-3.084v-14.66h3.473l3.685,9.094h0.059v-9.094h3.014V283z"/>
<path fill="#FFFFFF" d="M92.512,268.363h3.178V283h-3.178V268.363z"/>
<path fill="#FFFFFF" d="M105.214,272.488c-0.84-0.977-1.644-1.465-2.413-1.465c-0.346,0-0.653,0.113-0.924,0.34
	s-0.406,0.48-0.406,0.762c0,0.508,0.428,1.109,1.283,1.805c0.895,0.711,1.53,1.271,1.907,1.682s0.679,0.893,0.906,1.447
	s0.342,1.16,0.342,1.816c0,1.289-0.414,2.348-1.242,3.176s-1.894,1.242-3.196,1.242c-1.067,0-2.111-0.379-3.132-1.137v-3.457
	c0.981,1.063,1.962,1.594,2.943,1.594c0.439,0,0.807-0.121,1.101-0.363c0.295-0.242,0.441-0.539,0.441-0.891
	c0-0.523-0.376-1.105-1.13-1.746c-1.201-1.031-1.987-1.799-2.36-2.303s-0.651-1.012-0.836-1.523s-0.276-1.029-0.276-1.553
	c0-1.125,0.396-2.055,1.188-2.789s1.802-1.102,3.025-1.102c0.927,0,1.853,0.266,2.778,0.797V272.488z"/>
<path fill="#FFFFFF" d="M118.246,283h-3.106l-0.491-2.285h-3.872L110.243,283h-3.11l4.203-14.637h3.226L118.246,283z
	 M114.198,278.348l-1.296-6.402l-0.049-0.001l-1.495,6.403H114.198z"/>
<path fill="#FFFFFF" d="M127.04,271.199h-2.86V283h-3.179v-11.777h-2.92v-2.859h8.959V271.199z"/>
<path fill="#FFFFFF" d="M129.23,268.363h3.178V283h-3.178V268.363z"/>
<path fill="#FFFFFF" d="M135.128,275.605c0-2.055,0.224-3.563,0.671-4.523s1.042-1.707,1.783-2.238
	c0.742-0.531,1.678-0.797,2.808-0.797c0.935,0,1.688,0.154,2.261,0.463c0.572,0.309,1.104,0.758,1.595,1.348s0.85,1.32,1.077,2.191
	s0.342,2.025,0.342,3.463c0,2.945-0.493,4.979-1.478,6.1c-0.985,1.121-2.259,1.682-3.82,1.682c-1.593,0-2.864-0.58-3.814-1.74
	C135.603,280.393,135.128,278.41,135.128,275.605z M138.482,274.715v0.938c0,1.539,0.051,2.553,0.153,3.041
	c0.102,0.488,0.319,0.873,0.653,1.154s0.731,0.422,1.195,0.422c0.376,0,0.722-0.137,1.036-0.41c0.313-0.273,0.533-0.689,0.659-1.248
	c0.125-0.559,0.188-1.553,0.188-2.982c0-1.281-0.053-2.193-0.158-2.736c-0.106-0.543-0.32-0.982-0.642-1.318
	c-0.322-0.336-0.715-0.504-1.178-0.504c-0.675,0-1.161,0.291-1.46,0.873C138.632,272.525,138.482,273.449,138.482,274.715z"/>
<path fill="#FFFFFF" d="M158.308,283h-3.354l-3.744-9.234h-0.047V283h-3.085v-14.66h3.474l3.685,9.094h0.059v-9.094h3.014V283z"/>
<path fill="#FFFFFF" d="M100.841,297.605c-0.165,0.211-0.793,0.859-1.884,1.945l1.636,2.449h-3.319l-0.53-0.797
	c-1.161,0.727-2.318,1.09-3.473,1.09c-1.177,0-2.172-0.398-2.984-1.195s-1.218-1.777-1.218-2.941c0-1.336,0.934-2.672,2.802-4.008
	c-0.919-1.43-1.378-2.574-1.378-3.434c0-0.891,0.342-1.637,1.024-2.238s1.538-0.902,2.566-0.902c1.083,0,1.966,0.295,2.648,0.885
	c0.684,0.59,1.024,1.35,1.024,2.279c0,1.344-0.718,2.656-2.154,3.938l1.86,2.719c0.659-0.633,1.196-1.203,1.612-1.711
	L100.841,297.605z M95.272,299.094l-2.025-2.953c-0.809,0.586-1.213,1.195-1.213,1.828c0,0.398,0.183,0.785,0.548,1.16
	s0.771,0.563,1.219,0.563C94.208,299.691,94.699,299.492,95.272,299.094z M94.013,292.684c0.769-0.445,1.153-1.02,1.153-1.723
	c0-0.375-0.094-0.682-0.282-0.92s-0.432-0.357-0.73-0.357c-0.298,0-0.549,0.104-0.753,0.311s-0.307,0.467-0.307,0.779
	C93.094,291.125,93.4,291.762,94.013,292.684z"/>
<path fill="#FFFFFF" d="M49.542,313.629c0.855,0.391,1.456,0.871,1.801,1.441c0.345,0.57,0.518,1.316,0.518,2.238
	c0,1.039-0.375,1.914-1.124,2.625S49.066,321,47.976,321h-5.262v-14.637h4.509c1.271,0,2.313,0.35,3.125,1.049
	c0.813,0.699,1.219,1.588,1.219,2.666c0,0.875-0.161,1.586-0.483,2.133S50.248,313.23,49.542,313.629z M45.892,312.551h0.651
	c0.536,0,0.964-0.17,1.284-0.51s0.479-0.795,0.479-1.365c0-1.313-0.667-1.969-2-1.969h-0.414V312.551z M45.892,318.621l0.922-0.023
	c0.544-0.008,0.966-0.176,1.266-0.504c0.299-0.328,0.449-0.793,0.449-1.395c0-1.289-0.662-1.934-1.986-1.934h-0.651V318.621z"/>
<path fill="#FFFFFF" d="M61.455,321h-7.334v-14.637h6.875v2.824h-3.72v2.977h3.19v2.719h-3.19v3.234h4.179V321z"/>
<path fill="#FFFFFF" d="M77.218,321H74.19l-0.716-11.977h-0.047L71.191,321h-2.26l-2.139-12.047h-0.047L65.933,321h-3.03
	l1.519-14.637h4l1.615,9.645h0.047l1.759-9.645h3.951L77.218,321z"/>
<path fill="#FFFFFF" d="M89.462,321h-3.106l-0.491-2.285h-3.872L81.458,321h-3.11l4.203-14.637h3.226L89.462,321z M85.414,316.348
	l-1.296-6.402l-0.049-0.001l-1.495,6.403H85.414z"/>
<path fill="#FFFFFF" d="M101.575,321h-3.354l-3.744-9.234H94.43V321h-3.085v-14.66h3.474l3.685,9.094h0.059v-9.094h3.014V321z"/>
<path fill="#FFFFFF" d="M114.644,321h-3.354l-3.744-9.234h-0.047V321h-3.085v-14.66h3.474l3.685,9.094h0.059v-9.094h3.014V321z"/>
<path fill="#FFFFFF" d="M117.729,306.363h3.178V321h-3.178V306.363z"/>
<path fill="#FFFFFF" d="M134.244,321h-3.354l-3.744-9.234h-0.047V321h-3.085v-14.66h3.474l3.685,9.094h0.059v-9.094h3.014V321z"/>
<path fill="#FFFFFF" d="M147.335,315.094c0,0.625-0.148,1.428-0.447,2.408c-0.298,0.98-0.873,1.857-1.725,2.631
	s-1.858,1.16-3.02,1.16c-3.603,0-5.403-2.578-5.403-7.734c0-2.438,0.469-4.303,1.406-5.596c0.938-1.293,2.271-1.939,3.997-1.939
	c2.488,0,3.991,1.215,4.509,3.645l-2.79,1.207c-0.055-1.313-0.651-1.969-1.789-1.969c-0.495,0-0.896,0.154-1.207,0.463
	c-0.31,0.309-0.512,0.736-0.606,1.283c-0.094,0.547-0.141,1.484-0.141,2.813c0,1.563,0.051,2.635,0.152,3.217
	c0.103,0.582,0.311,1.02,0.624,1.313c0.314,0.293,0.723,0.439,1.225,0.439c1.178,0,1.805-0.969,1.884-2.906h-1.954v-2.836h5.285
	V315.094z"/>
<path fill="#FFFFFF" d="M196.256,483.78h3.179v14.637h-3.179V483.78z"/>
<path fill="#FFFFFF" d="M212.773,498.417h-3.355l-3.744-9.234h-0.047v9.234h-3.084v-14.66h3.473l3.685,9.094h0.059v-9.094h3.014
	V498.417z"/>
<path fill="#FFFFFF" d="M222.462,486.64h-3.72v2.988h3.19v2.719h-3.19v6.07h-3.155V483.78h6.875V486.64z"/>
<path fill="#FFFFFF" d="M224.263,491.022c0-2.055,0.224-3.563,0.671-4.523c0.447-0.961,1.042-1.707,1.783-2.238
	s1.678-0.797,2.808-0.797c0.934,0,1.688,0.154,2.261,0.463c0.573,0.309,1.104,0.758,1.595,1.348c0.49,0.59,0.849,1.32,1.077,2.191
	c0.228,0.871,0.341,2.025,0.341,3.463c0,2.945-0.493,4.979-1.478,6.1s-2.258,1.682-3.82,1.682c-1.593,0-2.865-0.58-3.814-1.74
	C224.738,495.81,224.263,493.827,224.263,491.022z M227.619,490.132v0.938c0,1.539,0.051,2.553,0.153,3.041s0.32,0.873,0.653,1.154
	s0.732,0.422,1.195,0.422c0.377,0,0.722-0.137,1.036-0.41s0.534-0.689,0.659-1.248s0.188-1.553,0.188-2.982
	c0-1.281-0.053-2.193-0.159-2.736c-0.105-0.543-0.32-0.982-0.642-1.318s-0.714-0.504-1.177-0.504c-0.675,0-1.162,0.291-1.459,0.873
	C227.768,487.942,227.619,488.866,227.619,490.132z"/>
<path fill="#FFFFFF" d="M246.325,498.417h-3.235l-2.557-7.242h-0.047v7.242h-3.178V483.78h4.132c0.824,0,1.646,0.164,2.466,0.492
	c0.82,0.328,1.405,0.84,1.754,1.535s0.524,1.418,0.524,2.168c0,0.906-0.196,1.65-0.587,2.232s-1.02,1.111-1.884,1.588
	L246.325,498.417z M240.486,490.354c1.031,0,1.683-0.201,1.957-0.604s0.41-0.912,0.41-1.529c0-1.398-0.574-2.098-1.722-2.098h-0.645
	V490.354z"/>
<path fill="#FFFFFF" d="M262.03,498.417h-3.028l-0.716-11.977h-0.047l-2.236,11.977h-2.26l-2.139-12.047h-0.047l-0.812,12.047h-3.03
	l1.519-14.637h4l1.615,9.645h0.047l1.759-9.645h3.951L262.03,498.417z"/>
<path fill="#FFFFFF" d="M274.273,498.417h-3.107l-0.49-2.285h-3.872l-0.534,2.285h-3.11l4.203-14.637h3.226L274.273,498.417z
	 M270.226,493.765l-1.296-6.402l-0.049-0.001l-1.495,6.403H270.226z"/>
<path fill="#FFFFFF" d="M283.068,486.616h-2.861v11.801h-3.179V486.64h-2.919v-2.859h8.959V486.616z"/>
<path fill="#FFFFFF" d="M285.258,483.78h3.179v14.637h-3.179V483.78z"/>
<path fill="#FFFFFF" d="M291.156,491.022c0-2.055,0.224-3.563,0.671-4.523s1.042-1.707,1.783-2.238
	c0.742-0.531,1.678-0.797,2.808-0.797c0.935,0,1.688,0.154,2.261,0.463c0.572,0.309,1.104,0.758,1.595,1.348s0.85,1.32,1.077,2.191
	s0.342,2.025,0.342,3.463c0,2.945-0.493,4.979-1.478,6.1c-0.985,1.121-2.259,1.682-3.82,1.682c-1.593,0-2.864-0.58-3.814-1.74
	C291.631,495.81,291.156,493.827,291.156,491.022z M294.511,490.132v0.938c0,1.539,0.051,2.553,0.153,3.041
	c0.102,0.488,0.319,0.873,0.653,1.154s0.731,0.422,1.195,0.422c0.376,0,0.722-0.137,1.036-0.41c0.313-0.273,0.533-0.689,0.659-1.248
	c0.125-0.559,0.188-1.553,0.188-2.982c0-1.281-0.053-2.193-0.158-2.736c-0.106-0.543-0.32-0.982-0.642-1.318
	c-0.322-0.336-0.715-0.504-1.178-0.504c-0.675,0-1.161,0.291-1.46,0.873C294.66,487.942,294.511,488.866,294.511,490.132z"/>
<path fill="#FFFFFF" d="M314.336,498.417h-3.354l-3.744-9.234h-0.047v9.234h-3.085v-14.66h3.474l3.685,9.094h0.059v-9.094h3.014
	V498.417z"/>
<path fill="#FFFFFF" d="M323.589,487.905c-0.84-0.977-1.644-1.465-2.413-1.465c-0.346,0-0.653,0.113-0.924,0.34
	s-0.406,0.48-0.406,0.762c0,0.508,0.428,1.109,1.283,1.805c0.895,0.711,1.53,1.271,1.907,1.682s0.679,0.893,0.906,1.447
	s0.342,1.16,0.342,1.816c0,1.289-0.414,2.348-1.242,3.176s-1.894,1.242-3.196,1.242c-1.067,0-2.111-0.379-3.132-1.137v-3.457
	c0.981,1.063,1.962,1.594,2.943,1.594c0.439,0,0.807-0.121,1.101-0.363c0.295-0.242,0.441-0.539,0.441-0.891
	c0-0.523-0.376-1.105-1.13-1.746c-1.201-1.031-1.987-1.799-2.36-2.303s-0.651-1.012-0.836-1.523s-0.276-1.029-0.276-1.553
	c0-1.125,0.396-2.055,1.188-2.789s1.802-1.102,3.025-1.102c0.927,0,1.853,0.266,2.778,0.797V487.905z"/>
<path fill="#FFFFFF" d="M332.865,487.905c-0.84-0.977-1.644-1.465-2.413-1.465c-0.346,0-0.653,0.113-0.924,0.34
	s-0.406,0.48-0.406,0.762c0,0.508,0.428,1.109,1.283,1.805c0.895,0.711,1.53,1.271,1.907,1.682s0.679,0.893,0.906,1.447
	s0.342,1.16,0.342,1.816c0,1.289-0.414,2.348-1.242,3.176s-1.894,1.242-3.196,1.242c-1.067,0-2.111-0.379-3.132-1.137v-3.457
	c0.981,1.063,1.962,1.594,2.943,1.594c0.439,0,0.807-0.121,1.101-0.363c0.295-0.242,0.441-0.539,0.441-0.891
	c0-0.523-0.376-1.105-1.13-1.746c-1.201-1.031-1.987-1.799-2.36-2.303s-0.651-1.012-0.836-1.523s-0.276-1.029-0.276-1.553
	c0-1.125,0.396-2.055,1.188-2.789s1.802-1.102,3.025-1.102c0.927,0,1.853,0.266,2.778,0.797V487.905z"/>
<path fill="#FFFFFF" d="M345.085,483.78l-3.284,8.156v6.48h-3.155v-6.457l-3.814-8.18h3.427l1.884,4.624l1.785-4.624H345.085z"/>
<path fill="#FFFFFF" d="M353.644,487.905c-0.84-0.977-1.644-1.465-2.413-1.465c-0.346,0-0.653,0.113-0.924,0.34
	s-0.406,0.48-0.406,0.762c0,0.508,0.428,1.109,1.283,1.805c0.895,0.711,1.53,1.271,1.907,1.682s0.679,0.893,0.906,1.447
	s0.342,1.16,0.342,1.816c0,1.289-0.414,2.348-1.242,3.176s-1.894,1.242-3.196,1.242c-1.067,0-2.111-0.379-3.132-1.137v-3.457
	c0.981,1.063,1.962,1.594,2.943,1.594c0.439,0,0.807-0.121,1.101-0.363c0.295-0.242,0.441-0.539,0.441-0.891
	c0-0.523-0.376-1.105-1.13-1.746c-1.201-1.031-1.987-1.799-2.36-2.303s-0.651-1.012-0.836-1.523s-0.276-1.029-0.276-1.553
	c0-1.125,0.396-2.055,1.188-2.789s1.802-1.102,3.025-1.102c0.927,0,1.853,0.266,2.778,0.797V487.905z"/>
<path fill="#FFFFFF" d="M364.615,486.616h-2.86v11.801h-3.179V486.64h-2.92v-2.859h8.959V486.616z"/>
<path fill="#FFFFFF" d="M373.846,498.417h-7.335V483.78h6.875v2.824h-3.72v2.977h3.19v2.719h-3.19v3.234h4.18V498.417z"/>
<path fill="#FFFFFF" d="M389.609,498.417h-3.028l-0.716-11.977h-0.048l-2.236,11.977h-2.26l-2.139-12.047h-0.047l-0.813,12.047
	h-3.029l1.519-14.637h4l1.615,9.645h0.047l1.76-9.645h3.95L389.609,498.417z"/>
<path fill="#FFFFFF" d="M444.344,275.629c0.854,0.391,1.455,0.871,1.801,1.441s0.518,1.316,0.518,2.238
	c0,1.039-0.375,1.914-1.124,2.625s-1.67,1.066-2.761,1.066h-5.262v-14.637h4.508c1.271,0,2.314,0.35,3.126,1.049
	c0.813,0.699,1.219,1.588,1.219,2.666c0,0.875-0.161,1.586-0.483,2.133C445.563,274.758,445.049,275.23,444.344,275.629z
	 M440.693,274.551h0.65c0.537,0,0.965-0.17,1.284-0.51s0.479-0.795,0.479-1.365c0-1.313-0.667-1.969-2-1.969h-0.414V274.551z
	 M440.693,280.621l0.922-0.023c0.545-0.008,0.967-0.176,1.266-0.504c0.3-0.328,0.449-0.793,0.449-1.395
	c0-1.289-0.662-1.934-1.986-1.934h-0.65V280.621z"/>
<path fill="#FFFFFF" d="M456.257,283h-7.335v-14.637h6.876v2.824h-3.72v2.977h3.189v2.719h-3.189v3.234h4.179V283z"/>
<path fill="#FFFFFF" d="M466.629,271.199h-2.861V283h-3.179v-11.777h-2.919v-2.859h8.959V271.199z"/>
<path fill="#FFFFFF" d="M475.857,283h-7.334v-14.637h6.875v2.824h-3.72v2.977h3.19v2.719h-3.19v3.234h4.179V283z"/>
<path fill="#FFFFFF" d="M485.406,283h-7.336v-14.637h6.875v2.824h-3.719v2.977h3.189v2.719h-3.189v3.234h4.18V283z"/>
<path fill="#FFFFFF" d="M497.896,283h-3.355l-3.744-9.234h-0.047V283h-3.084v-14.66h3.473l3.686,9.094h0.059v-9.094h3.014V283z"/>
<path fill="#FFFFFF" d="M508.021,283h-7.336v-14.637h6.875v2.824h-3.719v2.977h3.189v2.719h-3.189v3.234h4.18V283z"/>
<path fill="#FFFFFF" d="M510.281,268.363h3.52c1.963,0,3.521,0.625,4.68,1.875s1.736,3.047,1.736,5.391
	c0,2.367-0.564,4.188-1.695,5.461c-1.129,1.273-2.742,1.91-4.838,1.91h-3.402V268.363z M513.494,271v9.34h0.377
	c0.637,0,1.297-0.258,1.984-0.773s1.029-1.746,1.029-3.691c0-1.438-0.127-2.461-0.381-3.07c-0.256-0.609-0.631-1.063-1.125-1.359
	S514.373,271,513.848,271H513.494z"/>
<path fill="#FFFFFF" d="M529.859,283h-7.336v-14.637h6.875v2.824h-3.719v2.977h3.189v2.719h-3.189v3.234h4.18V283z"/>
<path fill="#FFFFFF" d="M542.35,283h-3.355l-3.744-9.234h-0.047V283h-3.084v-14.66h3.473l3.686,9.094h0.059v-9.094h3.014V283z"/>
<path fill="#FFFFFF" d="M496.014,297.605c-0.166,0.211-0.793,0.859-1.885,1.945l1.637,2.449h-3.32l-0.529-0.797
	c-1.162,0.727-2.318,1.09-3.473,1.09c-1.178,0-2.172-0.398-2.984-1.195s-1.219-1.777-1.219-2.941c0-1.336,0.934-2.672,2.803-4.008
	c-0.92-1.43-1.379-2.574-1.379-3.434c0-0.891,0.342-1.637,1.025-2.238c0.682-0.602,1.537-0.902,2.566-0.902
	c1.082,0,1.965,0.295,2.648,0.885s1.023,1.35,1.023,2.279c0,1.344-0.717,2.656-2.154,3.938l1.861,2.719
	c0.658-0.633,1.195-1.203,1.611-1.711L496.014,297.605z M490.445,299.094l-2.025-2.953c-0.809,0.586-1.213,1.195-1.213,1.828
	c0,0.398,0.182,0.785,0.547,1.16s0.771,0.563,1.219,0.563C489.381,299.691,489.871,299.492,490.445,299.094z M489.186,292.684
	c0.768-0.445,1.152-1.02,1.152-1.723c0-0.375-0.094-0.682-0.281-0.92c-0.189-0.238-0.432-0.357-0.73-0.357s-0.549,0.104-0.754,0.311
	c-0.203,0.207-0.307,0.467-0.307,0.779C488.266,291.125,488.572,291.762,489.186,292.684z"/>
<path fill="#FFFFFF" d="M424.377,309.223h-3.721v2.988h3.191v2.719h-3.191V321h-3.154v-14.637h6.875V309.223z"/>
<path fill="#FFFFFF" d="M426.178,313.605c0-2.055,0.225-3.563,0.672-4.523s1.041-1.707,1.783-2.238s1.678-0.797,2.808-0.797
	c0.935,0,1.688,0.154,2.261,0.463c0.572,0.309,1.104,0.758,1.596,1.348c0.49,0.59,0.849,1.32,1.076,2.191
	c0.229,0.871,0.342,2.025,0.342,3.463c0,2.945-0.492,4.979-1.478,6.1s-2.259,1.682-3.82,1.682c-1.593,0-2.864-0.58-3.813-1.74
	C426.653,318.393,426.178,316.41,426.178,313.605z M428.957,301.793c0.439,0,0.814,0.156,1.124,0.469s0.465,0.684,0.465,1.113
	c0,0.445-0.155,0.826-0.465,1.143s-0.685,0.475-1.124,0.475c-0.447,0-0.824-0.158-1.131-0.475c-0.306-0.316-0.459-0.697-0.459-1.143
	c0-0.43,0.155-0.801,0.465-1.113C428.143,301.949,428.518,301.793,428.957,301.793z M429.533,312.715v0.938
	c0,1.539,0.051,2.553,0.153,3.041s0.319,0.873,0.653,1.154s0.732,0.422,1.195,0.422c0.377,0,0.722-0.137,1.035-0.41
	c0.314-0.273,0.534-0.689,0.66-1.248c0.125-0.559,0.188-1.553,0.188-2.982c0-1.281-0.053-2.193-0.158-2.736s-0.32-0.982-0.643-1.318
	c-0.321-0.336-0.713-0.504-1.177-0.504c-0.675,0-1.161,0.291-1.46,0.873C429.683,310.525,429.533,311.449,429.533,312.715z
	 M434.277,301.793c0.439,0,0.814,0.156,1.125,0.469c0.31,0.313,0.465,0.684,0.465,1.113c0,0.445-0.153,0.826-0.459,1.143
	c-0.307,0.316-0.684,0.475-1.131,0.475c-0.439,0-0.814-0.158-1.123-0.475c-0.311-0.316-0.466-0.697-0.466-1.143
	c0-0.43,0.155-0.801,0.466-1.113C433.463,301.949,433.838,301.793,434.277,301.793z"/>
<path fill="#FFFFFF" d="M448.24,321h-3.235l-2.557-7.242H442.4V321h-3.178v-14.637h4.132c0.824,0,1.646,0.164,2.466,0.492
	c0.82,0.328,1.406,0.84,1.755,1.535s0.524,1.418,0.524,2.168c0,0.906-0.196,1.65-0.588,2.232s-1.02,1.111-1.884,1.588L448.24,321z
	 M442.4,312.938c1.031,0,1.684-0.201,1.957-0.604s0.41-0.912,0.41-1.529c0-1.398-0.574-2.098-1.723-2.098H442.4V312.938z"/>
<path fill="#FFFFFF" d="M457.268,306.363h3.205L456.328,321h-3.037l-4.203-14.637h3.355l2.363,9.428L457.268,306.363z"/>
<path fill="#FFFFFF" d="M471.479,321h-3.106l-0.49-2.285h-3.873L463.477,321h-3.11l4.202-14.637h3.227L471.479,321z
	 M463.109,301.793c0.439,0,0.814,0.156,1.124,0.469s0.466,0.684,0.466,1.113c0,0.445-0.156,0.826-0.466,1.143
	s-0.685,0.475-1.124,0.475c-0.447,0-0.824-0.158-1.131-0.475c-0.306-0.316-0.459-0.697-0.459-1.143c0-0.43,0.155-0.801,0.465-1.113
	C462.295,301.949,462.67,301.793,463.109,301.793z M467.432,316.348l-1.296-6.402l-0.049-0.001l-1.495,6.403H467.432z
	 M468.431,301.793c0.439,0,0.813,0.156,1.124,0.469s0.465,0.684,0.465,1.113c0,0.445-0.152,0.826-0.459,1.143
	s-0.683,0.475-1.13,0.475c-0.44,0-0.814-0.158-1.124-0.475c-0.311-0.316-0.465-0.697-0.465-1.143c0-0.43,0.154-0.801,0.465-1.113
	C467.616,301.949,467.99,301.793,468.431,301.793z"/>
<path fill="#FFFFFF" d="M483.594,321h-3.355l-3.744-9.234h-0.047V321h-3.084v-14.66h3.473l3.686,9.094h0.059v-9.094h3.014V321z"/>
<path fill="#FFFFFF" d="M494.541,309.199h-2.859V321h-3.18v-11.777h-2.92v-2.859h8.959V309.199z"/>
<path fill="#FFFFFF" d="M506.715,321h-3.355l-3.744-9.234h-0.047V321h-3.084v-14.66h3.473l3.686,9.094h0.059v-9.094h3.014V321z"/>
<path fill="#FFFFFF" d="M509.799,306.363h3.178V321h-3.178V306.363z"/>
<path fill="#FFFFFF" d="M526.316,321h-3.355l-3.744-9.234h-0.047V321h-3.084v-14.66h3.473l3.686,9.094h0.059v-9.094h3.014V321z"/>
<path fill="#FFFFFF" d="M539.406,315.094c0,0.625-0.148,1.428-0.447,2.408c-0.297,0.98-0.873,1.857-1.725,2.631
	s-1.857,1.16-3.02,1.16c-3.602,0-5.402-2.578-5.402-7.734c0-2.438,0.469-4.303,1.406-5.596s2.27-1.939,3.996-1.939
	c2.488,0,3.992,1.215,4.51,3.645l-2.791,1.207c-0.055-1.313-0.65-1.969-1.789-1.969c-0.494,0-0.896,0.154-1.207,0.463
	c-0.309,0.309-0.512,0.736-0.605,1.283s-0.141,1.484-0.141,2.813c0,1.563,0.051,2.635,0.152,3.217s0.311,1.02,0.623,1.313
	c0.314,0.293,0.723,0.439,1.225,0.439c1.178,0,1.805-0.969,1.885-2.906h-1.955v-2.836h5.285V315.094z"/>
<path fill="#FFFFFF" d="M551.887,321h-3.107l-0.49-2.285h-3.873L543.883,321h-3.109l4.203-14.637h3.225L551.887,321z
	 M547.838,316.348l-1.295-6.402l-0.049-0.001l-1.496,6.403H547.838z"/>
<path fill="#FFFFFF" d="M562.881,321h-3.234l-2.557-7.242h-0.047V321h-3.18v-14.637h4.133c0.824,0,1.646,0.164,2.467,0.492
	c0.818,0.328,1.404,0.84,1.754,1.535c0.348,0.695,0.523,1.418,0.523,2.168c0,0.906-0.195,1.65-0.588,2.232
	c-0.391,0.582-1.02,1.111-1.883,1.588L562.881,321z M557.043,312.938c1.029,0,1.682-0.201,1.955-0.604s0.41-0.912,0.41-1.529
	c0-1.398-0.574-2.098-1.721-2.098h-0.645V312.938z"/>
<g>
	<g>
		<path fill="#333333" d="M173.426,118.39c-0.619-0.616-2.712,0.476-4.652,2.425l-35.894,36.062
			c-1.94,1.949-5.122,1.957-7.071,0.017l-1.111-1.106c-1.949-1.94-4.121-1.353-4.827,1.305l-4.185,15.763
			c-0.706,2.658,0.889,4.245,3.544,3.527l15.743-4.258c2.655-0.718,3.232-2.893,1.283-4.833l-1.11-1.105
			c-1.949-1.94-1.957-5.122-0.017-7.071l35.894-36.062C172.963,121.104,174.045,119.006,173.426,118.39z"/>
		<path fill="#333333" d="M118.756,173.162c0.621,0.618,2.716-0.471,4.656-2.42l36.062-36.229c1.94-1.949,5.122-1.956,7.071-0.017
			l1.143,1.138c1.949,1.939,4.121,1.352,4.827-1.306l4.21-15.861c0.706-2.658-0.889-4.245-3.543-3.527l-15.843,4.285
			c-2.655,0.718-3.232,2.893-1.283,4.833l1.143,1.137c1.949,1.94,1.957,5.122,0.017,7.071l-36.061,36.229
			C119.215,170.444,118.135,172.544,118.756,173.162z"/>
	</g>
	<g>
		<g>
			<g>
				<g>
					<g>
						<path fill="#33C5F3" d="M172.426,117.39c-0.619-0.616-2.712,0.476-4.652,2.425l-35.894,36.062
							c-1.94,1.949-5.122,1.957-7.071,0.017l-1.111-1.106c-1.949-1.94-4.121-1.353-4.827,1.305l-4.185,15.763
							c-0.706,2.658,0.889,4.245,3.544,3.527l15.743-4.258c2.655-0.718,3.232-2.893,1.283-4.833l-1.11-1.105
							c-1.949-1.94-1.957-5.122-0.017-7.071l35.894-36.062C171.963,120.104,173.045,118.006,172.426,117.39z"/>
					</g>
				</g>
			</g>
			<g>
				<g>
					<g>
						<path fill="#33C5F3" d="M117.756,172.162c0.621,0.618,2.716-0.471,4.656-2.42l36.062-36.229
							c1.94-1.949,5.122-1.956,7.071-0.017l1.143,1.138c1.949,1.939,4.121,1.352,4.827-1.306l4.21-15.861
							c0.706-2.658-0.889-4.245-3.543-3.527l-15.843,4.285c-2.655,0.718-3.232,2.893-1.283,4.833l1.143,1.137
							c1.949,1.94,1.957,5.122,0.017,7.071l-36.061,36.229C118.215,169.444,117.135,171.544,117.756,172.162z"/>
					</g>
				</g>
			</g>
		</g>
	</g>
</g>
<g>
	<g>
		<path fill="#333333" d="M412.742,116.689c0.618-0.616,2.711,0.476,4.651,2.425l35.894,36.062c1.94,1.949,5.122,1.957,7.071,0.017
			l1.111-1.106c1.949-1.94,4.121-1.353,4.827,1.305l4.185,15.763c0.706,2.658-0.889,4.245-3.543,3.527l-15.744-4.258
			c-2.654-0.718-3.231-2.893-1.282-4.833l1.109-1.105c1.949-1.94,1.957-5.122,0.017-7.071l-35.894-36.062
			C413.204,119.403,412.123,117.305,412.742,116.689z"/>
		<path fill="#333333" d="M467.412,171.461c-0.621,0.618-2.716-0.471-4.656-2.42l-36.062-36.229
			c-1.94-1.949-5.122-1.957-7.071-0.017l-1.144,1.138c-1.949,1.94-4.121,1.352-4.827-1.306l-4.21-15.861
			c-0.706-2.658,0.889-4.245,3.543-3.527l15.844,4.285c2.654,0.718,3.231,2.893,1.282,4.833l-1.143,1.137
			c-1.949,1.94-1.957,5.122-0.017,7.071l36.061,36.229C466.953,168.743,468.032,170.843,467.412,171.461z"/>
	</g>
	<g>
		<g>
			<g>
				<g>
					<g>
						<path fill="#33C5F3" d="M411.742,115.689c0.618-0.616,2.711,0.476,4.651,2.425l35.894,36.062
							c1.94,1.949,5.122,1.957,7.071,0.017l1.111-1.106c1.949-1.94,4.121-1.353,4.827,1.305l4.185,15.763
							c0.706,2.658-0.889,4.245-3.543,3.527l-15.744-4.258c-2.654-0.718-3.231-2.893-1.282-4.833l1.109-1.105
							c1.949-1.94,1.957-5.122,0.017-7.071l-35.894-36.062C412.204,118.403,411.123,116.305,411.742,115.689z"/>
					</g>
				</g>
			</g>
			<g>
				<g>
					<g>
						<path fill="#33C5F3" d="M466.412,170.461c-0.621,0.618-2.716-0.471-4.656-2.42l-36.062-36.229
							c-1.94-1.949-5.122-1.957-7.071-0.017l-1.144,1.138c-1.949,1.94-4.121,1.352-4.827-1.306l-4.21-15.861
							c-0.706-2.658,0.889-4.245,3.543-3.527l15.844,4.285c2.654,0.718,3.231,2.893,1.282,4.833l-1.143,1.137
							c-1.949,1.94-1.957,5.122-0.017,7.071l36.061,36.229C465.953,167.743,467.032,169.843,466.412,170.461z"/>
					</g>
				</g>
			</g>
		</g>
	</g>
</g>
<g>
	<g>
		<path fill="#333333" d="M461.635,409.068c-0.619-0.615-2.712,0.476-4.652,2.425l-35.894,36.061
			c-1.94,1.949-5.122,1.957-7.071,0.017l-1.111-1.105c-1.949-1.94-4.121-1.353-4.827,1.306l-4.185,15.762
			c-0.706,2.658,0.889,4.245,3.543,3.527l15.744-4.258c2.654-0.718,3.231-2.893,1.282-4.833l-1.11-1.104
			c-1.949-1.94-1.957-5.122-0.017-7.071l35.895-36.062C461.172,411.782,462.253,409.684,461.635,409.068z"/>
		<path fill="#333333" d="M406.964,463.84c0.621,0.617,2.716-0.472,4.656-2.421l36.062-36.229c1.94-1.949,5.122-1.957,7.071-0.017
			l1.144,1.137c1.949,1.94,4.121,1.353,4.827-1.306l4.21-15.859c0.706-2.658-0.889-4.246-3.543-3.527l-15.844,4.284
			c-2.654,0.718-3.231,2.892-1.282,4.832l1.143,1.137c1.949,1.94,1.957,5.122,0.017,7.071l-36.062,36.23
			C407.422,461.122,406.343,463.223,406.964,463.84z"/>
	</g>
	<g>
		<g>
			<g>
				<g>
					<g>
						<path fill="#33C5F3" d="M460.635,408.068c-0.619-0.615-2.712,0.476-4.652,2.425l-35.894,36.061
							c-1.94,1.949-5.122,1.957-7.071,0.017l-1.111-1.105c-1.949-1.94-4.121-1.353-4.827,1.306l-4.185,15.762
							c-0.706,2.658,0.889,4.245,3.543,3.527l15.744-4.258c2.654-0.718,3.231-2.893,1.282-4.833l-1.11-1.104
							c-1.949-1.94-1.957-5.122-0.017-7.071l35.895-36.062C460.172,410.782,461.253,408.684,460.635,408.068z"/>
					</g>
				</g>
			</g>
			<g>
				<g>
					<g>
						<path fill="#33C5F3" d="M405.964,462.84c0.621,0.617,2.716-0.472,4.656-2.421l36.062-36.229
							c1.94-1.949,5.122-1.957,7.071-0.017l1.144,1.137c1.949,1.94,4.121,1.353,4.827-1.306l4.21-15.859
							c0.706-2.658-0.889-4.246-3.543-3.527l-15.844,4.284c-2.654,0.718-3.231,2.892-1.282,4.832l1.143,1.137
							c1.949,1.94,1.957,5.122,0.017,7.071l-36.062,36.23C406.422,460.122,405.343,462.223,405.964,462.84z"/>
					</g>
				</g>
			</g>
		</g>
	</g>
</g>
<g>
	<g>
		<path fill="#333333" d="M128.437,407.367c0.619-0.615,2.712,0.476,4.652,2.425l35.893,36.061c1.94,1.949,5.122,1.957,7.071,0.017
			l1.111-1.105c1.949-1.94,4.122-1.353,4.827,1.305l4.186,15.764c0.706,2.657-0.889,4.244-3.543,3.526l-15.743-4.258
			c-2.655-0.718-3.232-2.893-1.283-4.833l1.109-1.104c1.949-1.94,1.957-5.122,0.017-7.071l-35.895-36.062
			C128.899,410.081,127.818,407.982,128.437,407.367z"/>
		<path fill="#333333" d="M183.106,462.139c-0.621,0.617-2.716-0.472-4.656-2.421l-36.061-36.229
			c-1.94-1.949-5.122-1.957-7.072-0.018l-1.144,1.139c-1.95,1.939-4.122,1.352-4.827-1.307l-4.21-15.859
			c-0.706-2.658,0.889-4.246,3.544-3.527l15.843,4.283c2.655,0.719,3.232,2.893,1.283,4.833l-1.143,1.137
			c-1.949,1.94-1.957,5.122-0.017,7.071l36.061,36.23C182.648,459.421,183.728,461.521,183.106,462.139z"/>
	</g>
	<g>
		<g>
			<g>
				<g>
					<g>
						<path fill="#33C5F3" d="M127.437,406.367c0.619-0.615,2.712,0.476,4.652,2.425l35.893,36.061
							c1.94,1.949,5.122,1.957,7.071,0.017l1.111-1.105c1.949-1.94,4.122-1.353,4.827,1.305l4.186,15.764
							c0.706,2.657-0.889,4.244-3.543,3.526l-15.743-4.258c-2.655-0.718-3.232-2.893-1.283-4.833l1.109-1.104
							c1.949-1.94,1.957-5.122,0.017-7.071l-35.895-36.062C127.899,409.081,126.818,406.982,127.437,406.367z"/>
					</g>
				</g>
			</g>
			<g>
				<g>
					<g>
						<path fill="#33C5F3" d="M182.106,461.139c-0.621,0.617-2.716-0.472-4.656-2.421l-36.061-36.229
							c-1.94-1.949-5.122-1.957-7.072-0.018l-1.144,1.139c-1.95,1.939-4.122,1.352-4.827-1.307l-4.21-15.859
							c-0.706-2.658,0.889-4.246,3.544-3.527l15.843,4.283c2.655,0.719,3.232,2.893,1.283,4.833l-1.143,1.137
							c-1.949,1.94-1.957,5.122-0.017,7.071l36.061,36.23C181.648,458.421,182.728,460.521,182.106,461.139z"/>
					</g>
				</g>
			</g>
		</g>
	</g>
</g>
</svg>
