<?xml version="1.0" encoding="utf-8"?>
<!-- Generator: Adobe Illustrator 15.0.0, SVG Export Plug-In  -->
<!DOCTYPE svg PUBLIC "-//W3C//DTD SVG 1.1//EN" "http://www.w3.org/Graphics/SVG/1.1/DTD/svg11.dtd" [
	<!ENTITY ns_flows "http://ns.adobe.com/Flows/1.0/">
]>
<svg version="1.1"
	 xmlns="http://www.w3.org/2000/svg" xmlns:xlink="http://www.w3.org/1999/xlink" xmlns:a="http://ns.adobe.com/AdobeSVGViewerExtensions/3.0/"
	 x="0px" y="0px" width="582px" height="582px" viewBox="-0.5 -0.5 582 582" enable-background="new -0.5 -0.5 582 582"
	 xml:space="preserve">
<defs>
</defs>
<radialGradient id="SVGID_1_" cx="290.5" cy="290.5" r="290.5" gradientUnits="userSpaceOnUse">
	<stop  offset="0" style="stop-color:#595959"/>
	<stop  offset="0.684" style="stop-color:#404040"/>
	<stop  offset="1" style="stop-color:#333333"/>
</radialGradient>
<circle fill="url(#SVGID_1_)" cx="290.5" cy="290.5" r="290.5"/>
<circle fill="#FFFFFF" cx="290.5" cy="290.5" r="110.611"/>
<line fill="none" stroke="#FFFFFF" stroke-width="5" stroke-miterlimit="10" x1="290.5" y1="291.5" x2="85.042" y2="497.917"/>
<line fill="none" stroke="#FFFFFF" stroke-width="5" stroke-miterlimit="10" x1="290.5" y1="291.5" x2="495.958" y2="497.917"/>
<line fill="none" stroke="#FFFFFF" stroke-width="5" stroke-miterlimit="10" x1="497.214" y1="84.083" x2="291.756" y2="290.5"/>
<line fill="none" stroke="#FFFFFF" stroke-width="5" stroke-miterlimit="10" x1="84.042" y1="83.083" x2="289.5" y2="289.5"/>
<radialGradient id="SVGID_2_" cx="290.5" cy="290.5" r="104.54" gradientUnits="userSpaceOnUse">
	<stop  offset="0" style="stop-color:#737373"/>
	<stop  offset="0.4338" style="stop-color:#5A5A5A"/>
	<stop  offset="1" style="stop-color:#333333"/>
</radialGradient>
<circle fill="url(#SVGID_2_)" cx="290.5" cy="290.5" r="104.54"/>
<path fill="#FFFFFF" d="M277.179,289.5h-3.365l-2.945-7.395h-0.047v7.395h-3.214v-14.637h3.214v6.691h0.047l2.817-6.691h3.257
	l-3.111,6.965L277.179,289.5z"/>
<path fill="#FFFFFF" d="M288.493,285.375c0,1.375-0.414,2.455-1.242,3.24s-1.977,1.178-3.443,1.178
	c-1.523,0-2.694-0.402-3.514-1.207c-0.82-0.805-1.23-1.957-1.23-3.457v-10.266h3.202v9.762c0,0.688,0.136,1.217,0.406,1.588
	c0.271,0.371,0.649,0.557,1.137,0.557c0.455,0,0.813-0.18,1.077-0.539c0.263-0.359,0.395-0.844,0.395-1.453v-9.914h3.214V285.375z"
	/>
<path fill="#FFFFFF" d="M301.442,289.5h-3.354l-3.744-9.234h-0.047v9.234h-3.085v-14.66h3.474l3.685,9.094h0.059v-9.094h3.014V289.5
	z"/>
<path fill="#FFFFFF" d="M304.279,274.863h3.521c1.962,0,3.521,0.625,4.68,1.875c1.157,1.25,1.736,3.047,1.736,5.391
	c0,2.367-0.565,4.188-1.695,5.461s-2.743,1.91-4.839,1.91h-3.402V274.863z M307.493,277.5v9.34h0.377
	c0.636,0,1.297-0.258,1.984-0.773c0.687-0.516,1.029-1.746,1.029-3.691c0-1.438-0.127-2.461-0.382-3.07
	c-0.256-0.609-0.63-1.063-1.125-1.359c-0.494-0.297-1.005-0.445-1.53-0.445H307.493z"/>
<path fill="#FFFFFF" d="M245.34,293.863h3.179V308.5h-3.179V293.863z"/>
<path fill="#FFFFFF" d="M265.377,308.263c-0.809,0.354-1.707,0.53-2.696,0.53c-1.774,0-3.255-0.645-4.444-1.934
	s-1.783-3.168-1.783-5.637c0-2.547,0.588-4.463,1.766-5.748s2.551-1.928,4.121-1.928c0.941,0,1.946,0.243,3.014,0.729v3.07
	c-0.832-0.423-1.372-0.663-1.619-0.718c-0.248-0.055-0.512-0.082-0.795-0.082c-0.832,0-1.562,0.344-2.189,1.031
	s-0.942,1.871-0.942,3.551c0,1.758,0.304,2.975,0.913,3.65c0.608,0.676,1.363,1.014,2.266,1.014c0.737,0,1.534-0.29,2.39-0.87
	V308.263z"/>
<path fill="#FFFFFF" d="M274.76,308.5h-7.334v-14.637h6.875v2.824h-3.72v2.977h3.19v2.719h-3.19v3.234h4.179V308.5z"/>
<path fill="#FFFFFF" d="M287.25,308.5h-3.354l-3.744-9.234h-0.047v9.234h-3.084v-14.66h3.473l3.685,9.094h0.059v-9.094h3.014V308.5z
	"/>
<path fill="#FFFFFF" d="M298.198,296.699h-2.86V308.5h-3.179v-11.777h-2.92v-2.859h8.959V296.699z"/>
<path fill="#FFFFFF" d="M309.253,308.5h-3.235l-2.557-7.242h-0.047v7.242h-3.179v-14.637h4.132c0.824,0,1.646,0.164,2.467,0.492
	c0.819,0.328,1.404,0.84,1.754,1.535c0.349,0.695,0.523,1.418,0.523,2.168c0,0.906-0.195,1.65-0.587,2.232s-1.02,1.111-1.884,1.588
	L309.253,308.5z M303.414,300.438c1.03,0,1.683-0.201,1.956-0.604s0.41-0.912,0.41-1.529c0-1.398-0.574-2.098-1.722-2.098h-0.645
	V300.438z"/>
<path fill="#FFFFFF" d="M320.79,304.375c0,1.375-0.414,2.455-1.242,3.24s-1.976,1.178-3.443,1.178c-1.522,0-2.694-0.402-3.514-1.207
	c-0.82-0.805-1.23-1.957-1.23-3.457v-10.266h3.202v9.762c0,0.688,0.136,1.217,0.406,1.588s0.649,0.557,1.136,0.557
	c0.455,0,0.814-0.18,1.077-0.539s0.395-0.844,0.395-1.453v-9.914h3.214V304.375z"/>
<path fill="#FFFFFF" d="M337.013,308.5h-3.028l-0.716-11.977h-0.048l-2.236,11.977h-2.26l-2.139-12.047h-0.047l-0.813,12.047h-3.029
	l1.519-14.637h4l1.615,9.645h0.047l1.76-9.645h3.95L337.013,308.5z"/>
<path fill="#FFFFFF" d="M224.385,101.083h-3.107l-0.49-2.285h-3.872l-0.534,2.285h-3.11l4.203-14.637h3.226L224.385,101.083z
	 M220.337,96.431l-1.296-6.402l-0.049-0.001l-1.495,6.403H220.337z"/>
<path fill="#FFFFFF" d="M233.121,89.306h-3.72v2.988h3.19v2.719h-3.19v6.07h-3.155V86.446h6.875V89.306z"/>
<path fill="#FFFFFF" d="M242.162,89.306h-3.72v2.988h3.19v2.719h-3.19v6.07h-3.155V86.446h6.875V89.306z"/>
<path fill="#FFFFFF" d="M253.699,101.083h-3.107l-0.49-2.285h-3.872l-0.534,2.285h-3.11l4.203-14.637h3.226L253.699,101.083z
	 M245.329,81.876c0.439,0,0.814,0.156,1.124,0.469s0.465,0.684,0.465,1.113c0,0.445-0.155,0.826-0.465,1.143
	s-0.685,0.475-1.124,0.475c-0.447,0-0.824-0.158-1.13-0.475s-0.459-0.697-0.459-1.143c0-0.43,0.155-0.801,0.465-1.113
	S244.889,81.876,245.329,81.876z M249.651,96.431l-1.296-6.402l-0.049-0.001l-1.495,6.403H249.651z M250.65,81.876
	c0.439,0,0.814,0.156,1.124,0.469s0.465,0.684,0.465,1.113c0,0.445-0.153,0.826-0.459,1.143s-0.683,0.475-1.13,0.475
	c-0.44,0-0.814-0.158-1.125-0.475s-0.465-0.697-0.465-1.143c0-0.43,0.155-0.801,0.465-1.113S250.21,81.876,250.65,81.876z"/>
<path fill="#FFFFFF" d="M264.694,101.083h-3.235l-2.557-7.242h-0.047v7.242h-3.178V86.446h4.132c0.824,0,1.646,0.164,2.466,0.492
	c0.82,0.328,1.405,0.84,1.754,1.535s0.524,1.418,0.524,2.168c0,0.906-0.196,1.65-0.587,2.232s-1.02,1.111-1.884,1.588
	L264.694,101.083z M258.855,93.021c1.031,0,1.683-0.201,1.957-0.604s0.41-0.912,0.41-1.529c0-1.398-0.574-2.098-1.722-2.098h-0.645
	V93.021z"/>
<path fill="#FFFFFF" d="M273.312,90.571c-0.84-0.977-1.645-1.465-2.414-1.465c-0.345,0-0.653,0.113-0.924,0.34
	c-0.271,0.227-0.406,0.48-0.406,0.762c0,0.508,0.428,1.109,1.283,1.805c0.895,0.711,1.53,1.271,1.907,1.682
	c0.376,0.41,0.679,0.893,0.906,1.447s0.341,1.16,0.341,1.816c0,1.289-0.414,2.348-1.242,3.176c-0.828,0.828-1.894,1.242-3.196,1.242
	c-1.067,0-2.111-0.379-3.131-1.137v-3.457c0.981,1.063,1.962,1.594,2.943,1.594c0.439,0,0.807-0.121,1.101-0.363
	c0.294-0.242,0.442-0.539,0.442-0.891c0-0.523-0.377-1.105-1.13-1.746c-1.201-1.031-1.988-1.799-2.36-2.303
	c-0.373-0.504-0.651-1.012-0.836-1.523s-0.277-1.029-0.277-1.553c0-1.125,0.396-2.055,1.189-2.789
	c0.792-0.734,1.801-1.102,3.025-1.102c0.926,0,1.852,0.266,2.778,0.797V90.571z"/>
<path fill="#FFFFFF" d="M276.149,86.446h4.12c3.202,0,4.804,1.527,4.804,4.582c0,1.367-0.416,2.424-1.248,3.17
	s-2.009,1.119-3.532,1.119h-0.93v5.766h-3.214V86.446z M279.328,93.021h0.636c0.565,0,1.002-0.18,1.313-0.539
	c0.31-0.359,0.465-0.867,0.465-1.523c0-1.445-0.561-2.168-1.684-2.168h-0.73V93.021z"/>
<path fill="#FFFFFF" d="M296.092,101.083h-3.235l-2.557-7.242h-0.047v7.242h-3.179V86.446h4.132c0.824,0,1.646,0.164,2.467,0.492
	c0.819,0.328,1.404,0.84,1.754,1.535c0.349,0.695,0.523,1.418,0.523,2.168c0,0.906-0.195,1.65-0.587,2.232s-1.02,1.111-1.884,1.588
	L296.092,101.083z M290.253,93.021c1.03,0,1.683-0.201,1.956-0.604s0.41-0.912,0.41-1.529c0-1.398-0.574-2.098-1.722-2.098h-0.645
	V93.021z"/>
<path fill="#FFFFFF" d="M297.493,93.688c0-2.055,0.224-3.563,0.671-4.523s1.042-1.707,1.783-2.238
	c0.742-0.531,1.678-0.797,2.808-0.797c0.935,0,1.688,0.154,2.261,0.463c0.572,0.309,1.104,0.758,1.595,1.348s0.85,1.32,1.077,2.191
	s0.342,2.025,0.342,3.463c0,2.945-0.493,4.979-1.478,6.1c-0.985,1.121-2.259,1.682-3.82,1.682c-1.593,0-2.864-0.58-3.814-1.74
	C297.968,98.476,297.493,96.493,297.493,93.688z M300.848,92.798v0.938c0,1.539,0.051,2.553,0.153,3.041
	c0.102,0.488,0.319,0.873,0.653,1.154s0.731,0.422,1.195,0.422c0.376,0,0.722-0.137,1.036-0.41c0.313-0.273,0.533-0.689,0.659-1.248
	c0.125-0.559,0.188-1.553,0.188-2.982c0-1.281-0.053-2.193-0.158-2.736c-0.106-0.543-0.32-0.982-0.642-1.318
	c-0.322-0.336-0.715-0.504-1.178-0.504c-0.675,0-1.161,0.291-1.46,0.873C300.997,90.608,300.848,91.532,300.848,92.798z"/>
<path fill="#FFFFFF" d="M318.907,100.846c-0.809,0.354-1.707,0.53-2.696,0.53c-1.773,0-3.255-0.645-4.443-1.934
	c-1.189-1.289-1.784-3.168-1.784-5.637c0-2.547,0.589-4.463,1.767-5.748c1.177-1.285,2.55-1.928,4.12-1.928
	c0.941,0,1.946,0.243,3.014,0.729v3.07c-0.832-0.423-1.371-0.663-1.619-0.717c-0.247-0.055-0.512-0.083-0.794-0.083
	c-0.832,0-1.563,0.344-2.19,1.031s-0.941,1.871-0.941,3.551c0,1.758,0.304,2.975,0.912,3.65s1.364,1.014,2.267,1.014
	c0.737,0,1.534-0.29,2.39-0.87V100.846z"/>
<path fill="#FFFFFF" d="M328.29,101.083h-7.335V86.446h6.875v2.824h-3.72v2.977h3.19v2.719h-3.19V98.2h4.18V101.083z"/>
<path fill="#FFFFFF" d="M336.966,90.571c-0.84-0.977-1.644-1.465-2.413-1.465c-0.346,0-0.653,0.113-0.924,0.34
	s-0.406,0.48-0.406,0.762c0,0.508,0.428,1.109,1.283,1.805c0.895,0.711,1.53,1.271,1.907,1.682s0.679,0.893,0.906,1.447
	s0.342,1.16,0.342,1.816c0,1.289-0.414,2.348-1.242,3.176s-1.894,1.242-3.196,1.242c-1.067,0-2.111-0.379-3.132-1.137v-3.457
	c0.981,1.063,1.962,1.594,2.943,1.594c0.439,0,0.807-0.121,1.101-0.363c0.295-0.242,0.441-0.539,0.441-0.891
	c0-0.523-0.376-1.105-1.13-1.746c-1.201-1.031-1.987-1.799-2.36-2.303s-0.651-1.012-0.836-1.523s-0.276-1.029-0.276-1.553
	c0-1.125,0.396-2.055,1.188-2.789s1.802-1.102,3.025-1.102c0.927,0,1.853,0.266,2.778,0.797V90.571z"/>
<path fill="#FFFFFF" d="M346.242,90.571c-0.84-0.977-1.644-1.465-2.413-1.465c-0.346,0-0.653,0.113-0.924,0.34
	s-0.406,0.48-0.406,0.762c0,0.508,0.428,1.109,1.283,1.805c0.895,0.711,1.53,1.271,1.907,1.682s0.679,0.893,0.906,1.447
	s0.342,1.16,0.342,1.816c0,1.289-0.414,2.348-1.242,3.176s-1.894,1.242-3.196,1.242c-1.067,0-2.111-0.379-3.132-1.137v-3.457
	c0.981,1.063,1.962,1.594,2.943,1.594c0.439,0,0.807-0.121,1.101-0.363c0.295-0.242,0.441-0.539,0.441-0.891
	c0-0.523-0.376-1.105-1.13-1.746c-1.201-1.031-1.987-1.799-2.36-2.303s-0.651-1.012-0.836-1.523s-0.276-1.029-0.276-1.553
	c0-1.125,0.396-2.055,1.188-2.789s1.802-1.102,3.025-1.102c0.927,0,1.853,0.266,2.778,0.797V90.571z"/>
<path fill="#FFFFFF" d="M356.392,101.083h-7.335V86.446h6.875v2.824h-3.72v2.977h3.19v2.719h-3.19V98.2h4.18V101.083z"/>
<path fill="#FFFFFF" d="M367.763,101.083h-3.235l-2.557-7.242h-0.047v7.242h-3.179V86.446h4.132c0.824,0,1.646,0.164,2.467,0.492
	c0.819,0.328,1.404,0.84,1.754,1.535c0.349,0.695,0.523,1.418,0.523,2.168c0,0.906-0.195,1.65-0.587,2.232s-1.02,1.111-1.884,1.588
	L367.763,101.083z M361.924,93.021c1.03,0,1.683-0.201,1.956-0.604s0.41-0.912,0.41-1.529c0-1.398-0.574-2.098-1.722-2.098h-0.645
	V93.021z"/>
<path fill="#FFFFFF" d="M30.229,275.105c0-2.055,0.224-3.563,0.671-4.523c0.447-0.961,1.042-1.707,1.783-2.238
	s1.678-0.797,2.808-0.797c0.934,0,1.688,0.154,2.261,0.463c0.573,0.309,1.104,0.758,1.595,1.348c0.49,0.59,0.849,1.32,1.077,2.191
	c0.228,0.871,0.341,2.025,0.341,3.463c0,2.945-0.493,4.979-1.478,6.1s-2.258,1.682-3.82,1.682c-1.593,0-2.865-0.58-3.814-1.74
	C30.704,279.893,30.229,277.91,30.229,275.105z M33.584,274.215v0.938c0,1.539,0.051,2.553,0.153,3.041s0.32,0.873,0.653,1.154
	s0.732,0.422,1.195,0.422c0.377,0,0.722-0.137,1.036-0.41s0.534-0.689,0.659-1.248s0.188-1.553,0.188-2.982
	c0-1.281-0.053-2.193-0.159-2.736c-0.105-0.543-0.32-0.982-0.642-1.318s-0.714-0.504-1.177-0.504c-0.675,0-1.162,0.291-1.459,0.873
	C33.733,272.025,33.584,272.949,33.584,274.215z"/>
<path fill="#FFFFFF" d="M52.291,282.5h-3.235l-2.557-7.242h-0.047v7.242h-3.178v-14.637h4.132c0.824,0,1.646,0.164,2.466,0.492
	c0.82,0.328,1.405,0.84,1.754,1.535s0.524,1.418,0.524,2.168c0,0.906-0.196,1.65-0.587,2.232s-1.02,1.111-1.884,1.588L52.291,282.5z
	 M46.452,274.438c1.031,0,1.683-0.201,1.957-0.604s0.41-0.912,0.41-1.529c0-1.398-0.574-2.098-1.722-2.098h-0.645V274.438z"/>
<path fill="#FFFFFF" d="M64.334,276.594c0,0.625-0.149,1.428-0.447,2.408c-0.298,0.98-0.874,1.857-1.725,2.631
	s-1.858,1.16-3.02,1.16c-3.602,0-5.403-2.578-5.403-7.734c0-2.438,0.469-4.303,1.407-5.596c0.938-1.293,2.27-1.939,3.997-1.939
	c2.488,0,3.991,1.215,4.509,3.645l-2.79,1.207c-0.055-1.313-0.651-1.969-1.789-1.969c-0.495,0-0.897,0.154-1.207,0.463
	s-0.512,0.736-0.606,1.283c-0.094,0.547-0.142,1.484-0.142,2.813c0,1.563,0.051,2.635,0.153,3.217
	c0.102,0.582,0.31,1.02,0.624,1.313c0.313,0.293,0.722,0.439,1.224,0.439c1.177,0,1.805-0.969,1.884-2.906h-1.955v-2.836h5.286
	V276.594z"/>
<path fill="#FFFFFF" d="M76.813,282.5h-3.107l-0.49-2.285h-3.872L68.81,282.5H65.7l4.203-14.637h3.226L76.813,282.5z
	 M72.766,277.848l-1.296-6.402l-0.049-0.001l-1.495,6.403H72.766z"/>
<path fill="#FFFFFF" d="M88.928,282.5h-3.355l-3.744-9.234h-0.047v9.234h-3.084v-14.66h3.473l3.685,9.094h0.06v-9.094h3.014V282.5z"
	/>
<path fill="#FFFFFF" d="M92.013,267.863h3.178V282.5h-3.178V267.863z"/>
<path fill="#FFFFFF" d="M104.715,271.988c-0.84-0.977-1.644-1.465-2.413-1.465c-0.346,0-0.653,0.113-0.924,0.34
	s-0.406,0.48-0.406,0.762c0,0.508,0.428,1.109,1.283,1.805c0.895,0.711,1.53,1.271,1.907,1.682s0.679,0.893,0.906,1.447
	s0.342,1.16,0.342,1.816c0,1.289-0.414,2.348-1.242,3.176s-1.894,1.242-3.196,1.242c-1.067,0-2.111-0.379-3.132-1.137v-3.457
	c0.981,1.063,1.962,1.594,2.943,1.594c0.439,0,0.807-0.121,1.101-0.363c0.295-0.242,0.441-0.539,0.441-0.891
	c0-0.523-0.376-1.105-1.13-1.746c-1.201-1.031-1.987-1.799-2.36-2.303s-0.651-1.012-0.836-1.523s-0.276-1.029-0.276-1.553
	c0-1.125,0.396-2.055,1.188-2.789s1.802-1.102,3.025-1.102c0.927,0,1.853,0.266,2.778,0.797V271.988z"/>
<path fill="#FFFFFF" d="M117.747,282.5h-3.106l-0.491-2.285h-3.872l-0.533,2.285h-3.11l4.203-14.637h3.226L117.747,282.5z
	 M113.699,277.848l-1.296-6.402l-0.049-0.001l-1.495,6.403H113.699z"/>
<path fill="#FFFFFF" d="M126.54,270.699h-2.86V282.5h-3.179v-11.777h-2.92v-2.859h8.959V270.699z"/>
<path fill="#FFFFFF" d="M128.73,267.863h3.178V282.5h-3.178V267.863z"/>
<path fill="#FFFFFF" d="M134.629,275.105c0-2.055,0.224-3.563,0.671-4.523s1.042-1.707,1.783-2.238
	c0.742-0.531,1.678-0.797,2.808-0.797c0.935,0,1.688,0.154,2.261,0.463c0.572,0.309,1.104,0.758,1.595,1.348s0.85,1.32,1.077,2.191
	s0.342,2.025,0.342,3.463c0,2.945-0.493,4.979-1.478,6.1c-0.985,1.121-2.259,1.682-3.82,1.682c-1.593,0-2.864-0.58-3.814-1.74
	C135.104,279.893,134.629,277.91,134.629,275.105z M137.983,274.215v0.938c0,1.539,0.051,2.553,0.153,3.041
	c0.102,0.488,0.319,0.873,0.653,1.154s0.731,0.422,1.195,0.422c0.376,0,0.722-0.137,1.036-0.41c0.313-0.273,0.533-0.689,0.659-1.248
	c0.125-0.559,0.188-1.553,0.188-2.982c0-1.281-0.053-2.193-0.158-2.736c-0.106-0.543-0.32-0.982-0.642-1.318
	c-0.322-0.336-0.715-0.504-1.178-0.504c-0.675,0-1.161,0.291-1.46,0.873C138.133,272.025,137.983,272.949,137.983,274.215z"/>
<path fill="#FFFFFF" d="M157.809,282.5h-3.354l-3.744-9.234h-0.047v9.234h-3.085v-14.66h3.474l3.685,9.094h0.059v-9.094h3.014V282.5
	z"/>
<path fill="#FFFFFF" d="M100.341,297.105c-0.165,0.211-0.793,0.859-1.884,1.945l1.636,2.449h-3.319l-0.53-0.797
	c-1.161,0.727-2.318,1.09-3.473,1.09c-1.177,0-2.172-0.398-2.984-1.195s-1.218-1.777-1.218-2.941c0-1.336,0.934-2.672,2.802-4.008
	c-0.919-1.43-1.378-2.574-1.378-3.434c0-0.891,0.342-1.637,1.024-2.238s1.538-0.902,2.566-0.902c1.083,0,1.966,0.295,2.648,0.885
	c0.684,0.59,1.024,1.35,1.024,2.279c0,1.344-0.718,2.656-2.154,3.938l1.86,2.719c0.659-0.633,1.196-1.203,1.612-1.711
	L100.341,297.105z M94.772,298.594l-2.025-2.953c-0.809,0.586-1.213,1.195-1.213,1.828c0,0.398,0.183,0.785,0.548,1.16
	s0.771,0.563,1.219,0.563C93.708,299.191,94.199,298.992,94.772,298.594z M93.513,292.184c0.769-0.445,1.153-1.02,1.153-1.723
	c0-0.375-0.094-0.682-0.282-0.92s-0.432-0.357-0.73-0.357c-0.298,0-0.549,0.104-0.753,0.311s-0.307,0.467-0.307,0.779
	C92.594,290.625,92.9,291.262,93.513,292.184z"/>
<path fill="#FFFFFF" d="M47.788,313.129c0.855,0.391,1.456,0.871,1.801,1.441c0.345,0.57,0.518,1.316,0.518,2.238
	c0,1.039-0.375,1.914-1.124,2.625s-1.67,1.066-2.761,1.066h-5.262v-14.637h4.509c1.271,0,2.313,0.35,3.125,1.049
	c0.813,0.699,1.219,1.588,1.219,2.666c0,0.875-0.161,1.586-0.483,2.133S48.494,312.73,47.788,313.129z M44.138,312.051h0.651
	c0.536,0,0.964-0.17,1.284-0.51s0.479-0.795,0.479-1.365c0-1.313-0.667-1.969-2-1.969h-0.414V312.051z M44.138,318.121l0.922-0.023
	c0.544-0.008,0.966-0.176,1.266-0.504c0.299-0.328,0.449-0.793,0.449-1.395c0-1.289-0.662-1.934-1.986-1.934h-0.651V318.121z"/>
<path fill="#FFFFFF" d="M59.701,320.5h-7.334v-14.637h6.875v2.824h-3.72v2.977h3.19v2.719h-3.19v3.234h4.179V320.5z"/>
<path fill="#FFFFFF" d="M75.464,320.5h-3.028l-0.716-11.977h-0.047L69.437,320.5h-2.26l-2.139-12.047h-0.047L64.179,320.5h-3.03
	l1.519-14.637h4l1.615,9.645h0.047l1.759-9.645h3.951L75.464,320.5z"/>
<path fill="#FFFFFF" d="M91.04,320.5h-3.028l-0.716-11.977h-0.048L85.012,320.5h-2.26l-2.139-12.047h-0.047L79.754,320.5h-3.03
	l1.519-14.637h4l1.615,9.645h0.047l1.759-9.645h3.951L91.04,320.5z"/>
<path fill="#FFFFFF" d="M103.283,320.5h-3.106l-0.491-2.285h-3.872L95.28,320.5h-3.11l4.203-14.637h3.226L103.283,320.5z
	 M99.235,315.848l-1.296-6.402l-0.049-0.001l-1.495,6.403H99.235z"/>
<path fill="#FFFFFF" d="M115.396,320.5h-3.354l-3.744-9.234h-0.047v9.234h-3.085v-14.66h3.474l3.685,9.094h0.059v-9.094h3.014V320.5
	z"/>
<path fill="#FFFFFF" d="M118.481,305.863h3.178V320.5h-3.178V305.863z"/>
<path fill="#FFFFFF" d="M134.998,320.5h-3.354l-3.744-9.234h-0.047v9.234h-3.085v-14.66h3.474l3.685,9.094h0.059v-9.094h3.014V320.5
	z"/>
<path fill="#FFFFFF" d="M148.089,314.594c0,0.625-0.148,1.428-0.447,2.408c-0.298,0.98-0.873,1.857-1.725,2.631
	s-1.858,1.16-3.02,1.16c-3.603,0-5.403-2.578-5.403-7.734c0-2.438,0.469-4.303,1.406-5.596c0.938-1.293,2.271-1.939,3.997-1.939
	c2.488,0,3.991,1.215,4.509,3.645l-2.79,1.207c-0.055-1.313-0.651-1.969-1.789-1.969c-0.495,0-0.896,0.154-1.207,0.463
	c-0.31,0.309-0.512,0.736-0.606,1.283c-0.094,0.547-0.141,1.484-0.141,2.813c0,1.563,0.051,2.635,0.152,3.217
	c0.103,0.582,0.311,1.02,0.624,1.313c0.314,0.293,0.723,0.439,1.225,0.439c1.178,0,1.805-0.969,1.884-2.906h-1.954v-2.836h5.285
	V314.594z"/>
<path fill="#FFFFFF" d="M195.756,483.28h3.179v14.637h-3.179V483.28z"/>
<path fill="#FFFFFF" d="M212.273,497.917h-3.355l-3.744-9.234h-0.047v9.234h-3.084v-14.66h3.473l3.685,9.094h0.059v-9.094h3.014
	V497.917z"/>
<path fill="#FFFFFF" d="M221.962,486.14h-3.72v2.988h3.19v2.719h-3.19v6.07h-3.155V483.28h6.875V486.14z"/>
<path fill="#FFFFFF" d="M223.763,490.522c0-2.055,0.224-3.563,0.671-4.523c0.447-0.961,1.042-1.707,1.783-2.238
	s1.678-0.797,2.808-0.797c0.934,0,1.688,0.154,2.261,0.463c0.573,0.309,1.104,0.758,1.595,1.348c0.49,0.59,0.849,1.32,1.077,2.191
	c0.228,0.871,0.341,2.025,0.341,3.463c0,2.945-0.493,4.979-1.478,6.1s-2.258,1.682-3.82,1.682c-1.593,0-2.865-0.58-3.814-1.74
	C224.238,495.31,223.763,493.327,223.763,490.522z M227.119,489.632v0.938c0,1.539,0.051,2.553,0.153,3.041s0.32,0.873,0.653,1.154
	s0.732,0.422,1.195,0.422c0.377,0,0.722-0.137,1.036-0.41s0.534-0.689,0.659-1.248s0.188-1.553,0.188-2.982
	c0-1.281-0.053-2.193-0.159-2.736c-0.105-0.543-0.32-0.982-0.642-1.318s-0.714-0.504-1.177-0.504c-0.675,0-1.162,0.291-1.459,0.873
	C227.268,487.442,227.119,488.366,227.119,489.632z"/>
<path fill="#FFFFFF" d="M245.825,497.917h-3.235l-2.557-7.242h-0.047v7.242h-3.178V483.28h4.132c0.824,0,1.646,0.164,2.466,0.492
	c0.82,0.328,1.405,0.84,1.754,1.535s0.524,1.418,0.524,2.168c0,0.906-0.196,1.65-0.587,2.232s-1.02,1.111-1.884,1.588
	L245.825,497.917z M239.986,489.854c1.031,0,1.683-0.201,1.957-0.604s0.41-0.912,0.41-1.529c0-1.398-0.574-2.098-1.722-2.098h-0.645
	V489.854z"/>
<path fill="#FFFFFF" d="M261.53,497.917h-3.028l-0.716-11.977h-0.047l-2.236,11.977h-2.26l-2.139-12.047h-0.047l-0.812,12.047h-3.03
	l1.519-14.637h4l1.615,9.645h0.047l1.759-9.645h3.951L261.53,497.917z"/>
<path fill="#FFFFFF" d="M273.773,497.917h-3.107l-0.49-2.285h-3.872l-0.534,2.285h-3.11l4.203-14.637h3.226L273.773,497.917z
	 M269.726,493.265l-1.296-6.402l-0.049-0.001l-1.495,6.403H269.726z"/>
<path fill="#FFFFFF" d="M282.568,486.116h-2.861v11.801h-3.179V486.14h-2.919v-2.859h8.959V486.116z"/>
<path fill="#FFFFFF" d="M284.758,483.28h3.179v14.637h-3.179V483.28z"/>
<path fill="#FFFFFF" d="M290.656,490.522c0-2.055,0.224-3.563,0.671-4.523s1.042-1.707,1.783-2.238
	c0.742-0.531,1.678-0.797,2.808-0.797c0.935,0,1.688,0.154,2.261,0.463c0.572,0.309,1.104,0.758,1.595,1.348s0.85,1.32,1.077,2.191
	s0.342,2.025,0.342,3.463c0,2.945-0.493,4.979-1.478,6.1c-0.985,1.121-2.259,1.682-3.82,1.682c-1.593,0-2.864-0.58-3.814-1.74
	C291.131,495.31,290.656,493.327,290.656,490.522z M294.011,489.632v0.938c0,1.539,0.051,2.553,0.153,3.041
	c0.102,0.488,0.319,0.873,0.653,1.154s0.731,0.422,1.195,0.422c0.376,0,0.722-0.137,1.036-0.41c0.313-0.273,0.533-0.689,0.659-1.248
	c0.125-0.559,0.188-1.553,0.188-2.982c0-1.281-0.053-2.193-0.158-2.736c-0.106-0.543-0.32-0.982-0.642-1.318
	c-0.322-0.336-0.715-0.504-1.178-0.504c-0.675,0-1.161,0.291-1.46,0.873C294.16,487.442,294.011,488.366,294.011,489.632z"/>
<path fill="#FFFFFF" d="M313.836,497.917h-3.354l-3.744-9.234h-0.047v9.234h-3.085v-14.66h3.474l3.685,9.094h0.059v-9.094h3.014
	V497.917z"/>
<path fill="#FFFFFF" d="M323.089,487.405c-0.84-0.977-1.644-1.465-2.413-1.465c-0.346,0-0.653,0.113-0.924,0.34
	s-0.406,0.48-0.406,0.762c0,0.508,0.428,1.109,1.283,1.805c0.895,0.711,1.53,1.271,1.907,1.682s0.679,0.893,0.906,1.447
	s0.342,1.16,0.342,1.816c0,1.289-0.414,2.348-1.242,3.176s-1.894,1.242-3.196,1.242c-1.067,0-2.111-0.379-3.132-1.137v-3.457
	c0.981,1.063,1.962,1.594,2.943,1.594c0.439,0,0.807-0.121,1.101-0.363c0.295-0.242,0.441-0.539,0.441-0.891
	c0-0.523-0.376-1.105-1.13-1.746c-1.201-1.031-1.987-1.799-2.36-2.303s-0.651-1.012-0.836-1.523s-0.276-1.029-0.276-1.553
	c0-1.125,0.396-2.055,1.188-2.789s1.802-1.102,3.025-1.102c0.927,0,1.853,0.266,2.778,0.797V487.405z"/>
<path fill="#FFFFFF" d="M332.365,487.405c-0.84-0.977-1.644-1.465-2.413-1.465c-0.346,0-0.653,0.113-0.924,0.34
	s-0.406,0.48-0.406,0.762c0,0.508,0.428,1.109,1.283,1.805c0.895,0.711,1.53,1.271,1.907,1.682s0.679,0.893,0.906,1.447
	s0.342,1.16,0.342,1.816c0,1.289-0.414,2.348-1.242,3.176s-1.894,1.242-3.196,1.242c-1.067,0-2.111-0.379-3.132-1.137v-3.457
	c0.981,1.063,1.962,1.594,2.943,1.594c0.439,0,0.807-0.121,1.101-0.363c0.295-0.242,0.441-0.539,0.441-0.891
	c0-0.523-0.376-1.105-1.13-1.746c-1.201-1.031-1.987-1.799-2.36-2.303s-0.651-1.012-0.836-1.523s-0.276-1.029-0.276-1.553
	c0-1.125,0.396-2.055,1.188-2.789s1.802-1.102,3.025-1.102c0.927,0,1.853,0.266,2.778,0.797V487.405z"/>
<path fill="#FFFFFF" d="M344.585,483.28l-3.284,8.156v6.48h-3.155v-6.457l-3.814-8.18h3.427l1.884,4.624l1.785-4.624H344.585z"/>
<path fill="#FFFFFF" d="M353.144,487.405c-0.84-0.977-1.644-1.465-2.413-1.465c-0.346,0-0.653,0.113-0.924,0.34
	s-0.406,0.48-0.406,0.762c0,0.508,0.428,1.109,1.283,1.805c0.895,0.711,1.53,1.271,1.907,1.682s0.679,0.893,0.906,1.447
	s0.342,1.16,0.342,1.816c0,1.289-0.414,2.348-1.242,3.176s-1.894,1.242-3.196,1.242c-1.067,0-2.111-0.379-3.132-1.137v-3.457
	c0.981,1.063,1.962,1.594,2.943,1.594c0.439,0,0.807-0.121,1.101-0.363c0.295-0.242,0.441-0.539,0.441-0.891
	c0-0.523-0.376-1.105-1.13-1.746c-1.201-1.031-1.987-1.799-2.36-2.303s-0.651-1.012-0.836-1.523s-0.276-1.029-0.276-1.553
	c0-1.125,0.396-2.055,1.188-2.789s1.802-1.102,3.025-1.102c0.927,0,1.853,0.266,2.778,0.797V487.405z"/>
<path fill="#FFFFFF" d="M364.115,486.116h-2.86v11.801h-3.179V486.14h-2.92v-2.859h8.959V486.116z"/>
<path fill="#FFFFFF" d="M373.346,497.917h-7.335V483.28h6.875v2.824h-3.72v2.977h3.19v2.719h-3.19v3.234h4.18V497.917z"/>
<path fill="#FFFFFF" d="M389.109,497.917h-3.028l-0.716-11.977h-0.048l-2.236,11.977h-2.26l-2.139-12.047h-0.047l-0.813,12.047
	h-3.029l1.519-14.637h4l1.615,9.645h0.047l1.76-9.645h3.95L389.109,497.917z"/>
<path fill="#FFFFFF" d="M443.844,275.129c0.854,0.391,1.455,0.871,1.801,1.441s0.518,1.316,0.518,2.238
	c0,1.039-0.375,1.914-1.124,2.625s-1.67,1.066-2.761,1.066h-5.262v-14.637h4.508c1.271,0,2.314,0.35,3.126,1.049
	c0.813,0.699,1.219,1.588,1.219,2.666c0,0.875-0.161,1.586-0.483,2.133C445.063,274.258,444.549,274.73,443.844,275.129z
	 M440.193,274.051h0.65c0.537,0,0.965-0.17,1.284-0.51s0.479-0.795,0.479-1.365c0-1.313-0.667-1.969-2-1.969h-0.414V274.051z
	 M440.193,280.121l0.922-0.023c0.545-0.008,0.967-0.176,1.266-0.504c0.3-0.328,0.449-0.793,0.449-1.395
	c0-1.289-0.662-1.934-1.986-1.934h-0.65V280.121z"/>
<path fill="#FFFFFF" d="M455.757,282.5h-7.335v-14.637h6.876v2.824h-3.72v2.977h3.189v2.719h-3.189v3.234h4.179V282.5z"/>
<path fill="#FFFFFF" d="M466.129,270.699h-2.861V282.5h-3.179v-11.777h-2.919v-2.859h8.959V270.699z"/>
<path fill="#FFFFFF" d="M475.357,282.5h-7.334v-14.637h6.875v2.824h-3.72v2.977h3.19v2.719h-3.19v3.234h4.179V282.5z"/>
<path fill="#FFFFFF" d="M484.906,282.5h-7.336v-14.637h6.875v2.824h-3.719v2.977h3.189v2.719h-3.189v3.234h4.18V282.5z"/>
<path fill="#FFFFFF" d="M497.396,282.5h-3.355l-3.744-9.234h-0.047v9.234h-3.084v-14.66h3.473l3.686,9.094h0.059v-9.094h3.014V282.5
	z"/>
<path fill="#FFFFFF" d="M507.521,282.5h-7.336v-14.637h6.875v2.824h-3.719v2.977h3.189v2.719h-3.189v3.234h4.18V282.5z"/>
<path fill="#FFFFFF" d="M509.781,267.863h3.52c1.963,0,3.521,0.625,4.68,1.875s1.736,3.047,1.736,5.391
	c0,2.367-0.564,4.188-1.695,5.461c-1.129,1.273-2.742,1.91-4.838,1.91h-3.402V267.863z M512.994,270.5v9.34h0.377
	c0.637,0,1.297-0.258,1.984-0.773s1.029-1.746,1.029-3.691c0-1.438-0.127-2.461-0.381-3.07c-0.256-0.609-0.631-1.063-1.125-1.359
	s-1.006-0.445-1.531-0.445H512.994z"/>
<path fill="#FFFFFF" d="M529.359,282.5h-7.336v-14.637h6.875v2.824h-3.719v2.977h3.189v2.719h-3.189v3.234h4.18V282.5z"/>
<path fill="#FFFFFF" d="M541.85,282.5h-3.355l-3.744-9.234h-0.047v9.234h-3.084v-14.66h3.473l3.686,9.094h0.059v-9.094h3.014V282.5z
	"/>
<path fill="#FFFFFF" d="M495.514,297.105c-0.166,0.211-0.793,0.859-1.885,1.945l1.637,2.449h-3.32l-0.529-0.797
	c-1.162,0.727-2.318,1.09-3.473,1.09c-1.178,0-2.172-0.398-2.984-1.195s-1.219-1.777-1.219-2.941c0-1.336,0.934-2.672,2.803-4.008
	c-0.92-1.43-1.379-2.574-1.379-3.434c0-0.891,0.342-1.637,1.025-2.238c0.682-0.602,1.537-0.902,2.566-0.902
	c1.082,0,1.965,0.295,2.648,0.885s1.023,1.35,1.023,2.279c0,1.344-0.717,2.656-2.154,3.938l1.861,2.719
	c0.658-0.633,1.195-1.203,1.611-1.711L495.514,297.105z M489.945,298.594l-2.025-2.953c-0.809,0.586-1.213,1.195-1.213,1.828
	c0,0.398,0.182,0.785,0.547,1.16s0.771,0.563,1.219,0.563C488.881,299.191,489.371,298.992,489.945,298.594z M488.686,292.184
	c0.768-0.445,1.152-1.02,1.152-1.723c0-0.375-0.094-0.682-0.281-0.92c-0.189-0.238-0.432-0.357-0.73-0.357s-0.549,0.104-0.754,0.311
	c-0.203,0.207-0.307,0.467-0.307,0.779C487.766,290.625,488.072,291.262,488.686,292.184z"/>
<path fill="#FFFFFF" d="M430.41,308.723h-3.72v2.988h3.19v2.719h-3.19v6.07h-3.155v-14.637h6.875V308.723z"/>
<path fill="#FFFFFF" d="M432.212,313.105c0-2.055,0.224-3.563,0.671-4.523s1.042-1.707,1.783-2.238
	c0.742-0.531,1.678-0.797,2.809-0.797c0.934,0,1.688,0.154,2.26,0.463c0.573,0.309,1.105,0.758,1.596,1.348s0.85,1.32,1.077,2.191
	s0.341,2.025,0.341,3.463c0,2.945-0.492,4.979-1.477,6.1c-0.985,1.121-2.259,1.682-3.82,1.682c-1.594,0-2.865-0.58-3.814-1.74
	S432.212,315.91,432.212,313.105z M434.99,301.293c0.439,0,0.814,0.156,1.125,0.469c0.31,0.313,0.465,0.684,0.465,1.113
	c0,0.445-0.155,0.826-0.465,1.143c-0.311,0.316-0.686,0.475-1.125,0.475c-0.447,0-0.824-0.158-1.13-0.475s-0.46-0.697-0.46-1.143
	c0-0.43,0.156-0.801,0.466-1.113S434.551,301.293,434.99,301.293z M435.567,312.215v0.938c0,1.539,0.051,2.553,0.153,3.041
	c0.102,0.488,0.319,0.873,0.652,1.154c0.334,0.281,0.732,0.422,1.195,0.422c0.377,0,0.723-0.137,1.036-0.41s0.534-0.689,0.659-1.248
	s0.188-1.553,0.188-2.982c0-1.281-0.054-2.193-0.159-2.736s-0.32-0.982-0.642-1.318s-0.714-0.504-1.177-0.504
	c-0.676,0-1.162,0.291-1.46,0.873S435.567,310.949,435.567,312.215z M440.312,301.293c0.439,0,0.813,0.156,1.124,0.469
	s0.465,0.684,0.465,1.113c0,0.445-0.152,0.826-0.459,1.143c-0.306,0.316-0.683,0.475-1.13,0.475c-0.439,0-0.814-0.158-1.124-0.475
	c-0.311-0.316-0.465-0.697-0.465-1.143c0-0.43,0.154-0.801,0.465-1.113C439.497,301.449,439.872,301.293,440.312,301.293z"/>
<path fill="#FFFFFF" d="M454.273,320.5h-3.234l-2.557-7.242h-0.048v7.242h-3.179v-14.637h4.133c0.824,0,1.646,0.164,2.466,0.492
	c0.82,0.328,1.405,0.84,1.755,1.535c0.349,0.695,0.523,1.418,0.523,2.168c0,0.906-0.195,1.65-0.588,2.232
	c-0.391,0.582-1.02,1.111-1.883,1.588L454.273,320.5z M448.435,312.438c1.031,0,1.683-0.201,1.956-0.604s0.41-0.912,0.41-1.529
	c0-1.398-0.574-2.098-1.722-2.098h-0.645V312.438z"/>
<path fill="#FFFFFF" d="M463.301,305.863h3.205l-4.145,14.637h-3.037l-4.203-14.637h3.355l2.363,9.428L463.301,305.863z"/>
<path fill="#FFFFFF" d="M477.514,320.5h-3.107l-0.49-2.285h-3.872l-0.534,2.285H466.4l4.202-14.637h3.226L477.514,320.5z
	 M469.143,301.293c0.439,0,0.814,0.156,1.125,0.469c0.31,0.313,0.465,0.684,0.465,1.113c0,0.445-0.155,0.826-0.465,1.143
	c-0.311,0.316-0.686,0.475-1.125,0.475c-0.447,0-0.824-0.158-1.13-0.475s-0.459-0.697-0.459-1.143c0-0.43,0.155-0.801,0.465-1.113
	S468.703,301.293,469.143,301.293z M473.465,315.848l-1.295-6.402l-0.049-0.001l-1.496,6.403H473.465z M474.465,301.293
	c0.439,0,0.813,0.156,1.123,0.469c0.311,0.313,0.465,0.684,0.465,1.113c0,0.445-0.152,0.826-0.459,1.143
	c-0.306,0.316-0.682,0.475-1.129,0.475c-0.44,0-0.814-0.158-1.125-0.475s-0.465-0.697-0.465-1.143c0-0.43,0.154-0.801,0.465-1.113
	S474.024,301.293,474.465,301.293z"/>
<path fill="#FFFFFF" d="M489.627,320.5h-3.355l-3.742-9.234h-0.049v9.234h-3.084v-14.66h3.473l3.686,9.094h0.059v-9.094h3.014V320.5
	z"/>
<path fill="#FFFFFF" d="M500.574,308.699h-2.859V320.5h-3.18v-11.777h-2.92v-2.859h8.959V308.699z"/>
<path fill="#FFFFFF" d="M502.766,305.863h3.178V320.5h-3.178V305.863z"/>
<path fill="#FFFFFF" d="M519.281,320.5h-3.354l-3.744-9.234h-0.047v9.234h-3.086v-14.66h3.475l3.684,9.094h0.059v-9.094h3.014V320.5
	z"/>
<path fill="#FFFFFF" d="M532.373,314.594c0,0.625-0.148,1.428-0.447,2.408s-0.873,1.857-1.725,2.631s-1.859,1.16-3.02,1.16
	c-3.604,0-5.404-2.578-5.404-7.734c0-2.438,0.469-4.303,1.406-5.596c0.939-1.293,2.271-1.939,3.998-1.939
	c2.488,0,3.99,1.215,4.508,3.645l-2.789,1.207c-0.055-1.313-0.652-1.969-1.789-1.969c-0.496,0-0.896,0.154-1.207,0.463
	s-0.512,0.736-0.607,1.283c-0.094,0.547-0.141,1.484-0.141,2.813c0,1.563,0.051,2.635,0.152,3.217
	c0.104,0.582,0.311,1.02,0.625,1.313s0.723,0.439,1.225,0.439c1.178,0,1.805-0.969,1.883-2.906h-1.953v-2.836h5.285V314.594z"/>
<path fill="#FFFFFF" d="M544.852,320.5h-3.105l-0.492-2.285h-3.871l-0.533,2.285h-3.111l4.203-14.637h3.227L544.852,320.5z
	 M540.805,315.848l-1.297-6.402l-0.049-0.001l-1.494,6.403H540.805z"/>
<path fill="#FFFFFF" d="M555.848,320.5h-3.236l-2.557-7.242h-0.047v7.242h-3.178v-14.637h4.131c0.824,0,1.646,0.164,2.467,0.492
	s1.404,0.84,1.754,1.535s0.523,1.418,0.523,2.168c0,0.906-0.195,1.65-0.586,2.232c-0.393,0.582-1.02,1.111-1.885,1.588
	L555.848,320.5z M550.008,312.438c1.031,0,1.684-0.201,1.957-0.604s0.41-0.912,0.41-1.529c0-1.398-0.574-2.098-1.723-2.098h-0.645
	V312.438z"/>
<g>
	<g>
		<path fill="#333333" d="M172.926,117.89c-0.619-0.616-2.712,0.476-4.652,2.425l-35.894,36.062
			c-1.94,1.949-5.122,1.957-7.071,0.017l-1.111-1.106c-1.949-1.94-4.121-1.353-4.827,1.305l-4.185,15.763
			c-0.706,2.658,0.889,4.245,3.544,3.527l15.743-4.258c2.655-0.718,3.232-2.893,1.283-4.833l-1.11-1.105
			c-1.949-1.94-1.957-5.122-0.017-7.071l35.894-36.062C172.463,120.604,173.545,118.506,172.926,117.89z"/>
		<path fill="#333333" d="M118.256,172.662c0.621,0.618,2.716-0.471,4.656-2.42l36.062-36.229c1.94-1.949,5.122-1.956,7.071-0.017
			l1.143,1.138c1.949,1.939,4.121,1.352,4.827-1.306l4.21-15.861c0.706-2.658-0.889-4.245-3.543-3.527l-15.843,4.285
			c-2.655,0.718-3.232,2.893-1.283,4.833l1.143,1.137c1.949,1.94,1.957,5.122,0.017,7.071l-36.061,36.229
			C118.715,169.944,117.635,172.044,118.256,172.662z"/>
	</g>
	<g>
		<g>
			<g>
				<g>
					<g>
						<path fill="#33C5F3" d="M171.926,116.89c-0.619-0.616-2.712,0.476-4.652,2.425l-35.894,36.062
							c-1.94,1.949-5.122,1.957-7.071,0.017l-1.111-1.106c-1.949-1.94-4.121-1.353-4.827,1.305l-4.185,15.763
							c-0.706,2.658,0.889,4.245,3.544,3.527l15.743-4.258c2.655-0.718,3.232-2.893,1.283-4.833l-1.11-1.105
							c-1.949-1.94-1.957-5.122-0.017-7.071l35.894-36.062C171.463,119.604,172.545,117.506,171.926,116.89z"/>
					</g>
				</g>
			</g>
			<g>
				<g>
					<g>
						<path fill="#33C5F3" d="M117.256,171.662c0.621,0.618,2.716-0.471,4.656-2.42l36.062-36.229
							c1.94-1.949,5.122-1.956,7.071-0.017l1.143,1.138c1.949,1.939,4.121,1.352,4.827-1.306l4.21-15.861
							c0.706-2.658-0.889-4.245-3.543-3.527l-15.843,4.285c-2.655,0.718-3.232,2.893-1.283,4.833l1.143,1.137
							c1.949,1.94,1.957,5.122,0.017,7.071l-36.061,36.229C117.715,168.944,116.635,171.044,117.256,171.662z"/>
					</g>
				</g>
			</g>
		</g>
	</g>
</g>
<g>
	<g>
		<path fill="#333333" d="M412.242,116.189c0.618-0.616,2.711,0.476,4.651,2.425l35.894,36.062c1.94,1.949,5.122,1.957,7.071,0.017
			l1.111-1.106c1.949-1.94,4.121-1.353,4.827,1.305l4.185,15.763c0.706,2.658-0.889,4.245-3.543,3.527l-15.744-4.258
			c-2.654-0.718-3.231-2.893-1.282-4.833l1.109-1.105c1.949-1.94,1.957-5.122,0.017-7.071l-35.894-36.062
			C412.704,118.903,411.623,116.805,412.242,116.189z"/>
		<path fill="#333333" d="M466.912,170.961c-0.621,0.618-2.716-0.471-4.656-2.42l-36.062-36.229
			c-1.94-1.949-5.122-1.957-7.071-0.017l-1.144,1.138c-1.949,1.94-4.121,1.352-4.827-1.306l-4.21-15.861
			c-0.706-2.658,0.889-4.245,3.543-3.527l15.844,4.285c2.654,0.718,3.231,2.893,1.282,4.833l-1.143,1.137
			c-1.949,1.94-1.957,5.122-0.017,7.071l36.061,36.229C466.453,168.243,467.532,170.343,466.912,170.961z"/>
	</g>
	<g>
		<g>
			<g>
				<g>
					<g>
						<path fill="#33C5F3" d="M411.242,115.189c0.618-0.616,2.711,0.476,4.651,2.425l35.894,36.062
							c1.94,1.949,5.122,1.957,7.071,0.017l1.111-1.106c1.949-1.94,4.121-1.353,4.827,1.305l4.185,15.763
							c0.706,2.658-0.889,4.245-3.543,3.527l-15.744-4.258c-2.654-0.718-3.231-2.893-1.282-4.833l1.109-1.105
							c1.949-1.94,1.957-5.122,0.017-7.071l-35.894-36.062C411.704,117.903,410.623,115.805,411.242,115.189z"/>
					</g>
				</g>
			</g>
			<g>
				<g>
					<g>
						<path fill="#33C5F3" d="M465.912,169.961c-0.621,0.618-2.716-0.471-4.656-2.42l-36.062-36.229
							c-1.94-1.949-5.122-1.957-7.071-0.017l-1.144,1.138c-1.949,1.94-4.121,1.352-4.827-1.306l-4.21-15.861
							c-0.706-2.658,0.889-4.245,3.543-3.527l15.844,4.285c2.654,0.718,3.231,2.893,1.282,4.833l-1.143,1.137
							c-1.949,1.94-1.957,5.122-0.017,7.071l36.061,36.229C465.453,167.243,466.532,169.343,465.912,169.961z"/>
					</g>
				</g>
			</g>
		</g>
	</g>
</g>
<g>
	<g>
		<path fill="#333333" d="M461.135,408.568c-0.619-0.615-2.712,0.476-4.652,2.425l-35.894,36.061
			c-1.94,1.949-5.122,1.957-7.071,0.017l-1.111-1.105c-1.949-1.94-4.121-1.353-4.827,1.306l-4.185,15.762
			c-0.706,2.658,0.889,4.245,3.543,3.527l15.744-4.258c2.654-0.718,3.231-2.893,1.282-4.833l-1.11-1.104
			c-1.949-1.94-1.957-5.122-0.017-7.071l35.895-36.062C460.672,411.282,461.753,409.184,461.135,408.568z"/>
		<path fill="#333333" d="M406.464,463.34c0.621,0.617,2.716-0.472,4.656-2.421l36.062-36.229c1.94-1.949,5.122-1.957,7.071-0.017
			l1.144,1.137c1.949,1.94,4.121,1.353,4.827-1.306l4.21-15.859c0.706-2.658-0.889-4.246-3.543-3.527l-15.844,4.284
			c-2.654,0.718-3.231,2.892-1.282,4.832l1.143,1.137c1.949,1.94,1.957,5.122,0.017,7.071l-36.062,36.23
			C406.922,460.622,405.843,462.723,406.464,463.34z"/>
	</g>
	<g>
		<g>
			<g>
				<g>
					<g>
						<path fill="#33C5F3" d="M460.135,407.568c-0.619-0.615-2.712,0.476-4.652,2.425l-35.894,36.061
							c-1.94,1.949-5.122,1.957-7.071,0.017l-1.111-1.105c-1.949-1.94-4.121-1.353-4.827,1.306l-4.185,15.762
							c-0.706,2.658,0.889,4.245,3.543,3.527l15.744-4.258c2.654-0.718,3.231-2.893,1.282-4.833l-1.11-1.104
							c-1.949-1.94-1.957-5.122-0.017-7.071l35.895-36.062C459.672,410.282,460.753,408.184,460.135,407.568z"/>
					</g>
				</g>
			</g>
			<g>
				<g>
					<g>
						<path fill="#33C5F3" d="M405.464,462.34c0.621,0.617,2.716-0.472,4.656-2.421l36.062-36.229
							c1.94-1.949,5.122-1.957,7.071-0.017l1.144,1.137c1.949,1.94,4.121,1.353,4.827-1.306l4.21-15.859
							c0.706-2.658-0.889-4.246-3.543-3.527l-15.844,4.284c-2.654,0.718-3.231,2.892-1.282,4.832l1.143,1.137
							c1.949,1.94,1.957,5.122,0.017,7.071l-36.062,36.23C405.922,459.622,404.843,461.723,405.464,462.34z"/>
					</g>
				</g>
			</g>
		</g>
	</g>
</g>
<g>
	<g>
		<path fill="#333333" d="M127.937,406.867c0.619-0.615,2.712,0.476,4.652,2.425l35.893,36.061c1.94,1.949,5.122,1.957,7.071,0.017
			l1.111-1.105c1.949-1.94,4.122-1.353,4.827,1.305l4.186,15.764c0.706,2.657-0.889,4.244-3.543,3.526l-15.743-4.258
			c-2.655-0.718-3.232-2.893-1.283-4.833l1.109-1.104c1.949-1.94,1.957-5.122,0.017-7.071l-35.895-36.062
			C128.399,409.581,127.318,407.482,127.937,406.867z"/>
		<path fill="#333333" d="M182.606,461.639c-0.621,0.617-2.716-0.472-4.656-2.421l-36.061-36.229
			c-1.94-1.949-5.122-1.957-7.072-0.018l-1.144,1.139c-1.95,1.939-4.122,1.352-4.827-1.307l-4.21-15.859
			c-0.706-2.658,0.889-4.246,3.544-3.527l15.843,4.283c2.655,0.719,3.232,2.893,1.283,4.833l-1.143,1.137
			c-1.949,1.94-1.957,5.122-0.017,7.071l36.061,36.23C182.148,458.921,183.228,461.021,182.606,461.639z"/>
	</g>
	<g>
		<g>
			<g>
				<g>
					<g>
						<path fill="#33C5F3" d="M126.937,405.867c0.619-0.615,2.712,0.476,4.652,2.425l35.893,36.061
							c1.94,1.949,5.122,1.957,7.071,0.017l1.111-1.105c1.949-1.94,4.122-1.353,4.827,1.305l4.186,15.764
							c0.706,2.657-0.889,4.244-3.543,3.526l-15.743-4.258c-2.655-0.718-3.232-2.893-1.283-4.833l1.109-1.104
							c1.949-1.94,1.957-5.122,0.017-7.071l-35.895-36.062C127.399,408.581,126.318,406.482,126.937,405.867z"/>
					</g>
				</g>
			</g>
			<g>
				<g>
					<g>
						<path fill="#33C5F3" d="M181.606,460.639c-0.621,0.617-2.716-0.472-4.656-2.421l-36.061-36.229
							c-1.94-1.949-5.122-1.957-7.072-0.018l-1.144,1.139c-1.95,1.939-4.122,1.352-4.827-1.307l-4.21-15.859
							c-0.706-2.658,0.889-4.246,3.544-3.527l15.843,4.283c2.655,0.719,3.232,2.893,1.283,4.833l-1.143,1.137
							c-1.949,1.94-1.957,5.122-0.017,7.071l36.061,36.23C181.148,457.921,182.228,460.021,181.606,460.639z"/>
					</g>
				</g>
			</g>
		</g>
	</g>
</g>
</svg>
