<?xml version="1.0" encoding="utf-8"?>
<!-- Generator: Adobe Illustrator 15.0.0, SVG Export Plug-In  -->
<!DOCTYPE svg PUBLIC "-//W3C//DTD SVG 1.1//EN" "http://www.w3.org/Graphics/SVG/1.1/DTD/svg11.dtd" [
	<!ENTITY ns_flows "http://ns.adobe.com/Flows/1.0/">
]>
<svg version="1.1"
	 xmlns="http://www.w3.org/2000/svg" xmlns:xlink="http://www.w3.org/1999/xlink" xmlns:a="http://ns.adobe.com/AdobeSVGViewerExtensions/3.0/"
	 x="0px" y="0px" width="582px" height="582px" viewBox="0 0 582 582" enable-background="new 0 0 582 582" xml:space="preserve">
<defs>
</defs>
<radialGradient id="SVGID_1_" cx="291" cy="291" r="290.5" gradientUnits="userSpaceOnUse">
	<stop  offset="0" style="stop-color:#929497"/>
	<stop  offset="0.2352" style="stop-color:#8B8D90"/>
	<stop  offset="0.5853" style="stop-color:#77797B"/>
	<stop  offset="1" style="stop-color:#58595B"/>
</radialGradient>
<circle fill="url(#SVGID_1_)" stroke="#2D2D2D" stroke-miterlimit="10" cx="291" cy="291" r="290.5"/>
<circle fill="#FFFFFF" cx="291" cy="291" r="110.6"/>
<line fill="none" stroke="#FFFFFF" stroke-width="5" stroke-miterlimit="10" x1="291" y1="292" x2="85.5" y2="498.4"/>
<line fill="none" stroke="#FFFFFF" stroke-width="5" stroke-miterlimit="10" x1="291" y1="292" x2="496.5" y2="498.4"/>
<line fill="none" stroke="#FFFFFF" stroke-width="5" stroke-miterlimit="10" x1="497.7" y1="84.6" x2="292.3" y2="291"/>
<line fill="none" stroke="#FFFFFF" stroke-width="5" stroke-miterlimit="10" x1="84.5" y1="83.6" x2="290" y2="290"/>
<radialGradient id="SVGID_2_" cx="291" cy="291" r="104.54" gradientUnits="userSpaceOnUse">
	<stop  offset="0" style="stop-color:#929497"/>
	<stop  offset="0.2486" style="stop-color:#858789"/>
	<stop  offset="0.6897" style="stop-color:#737577"/>
	<stop  offset="1" style="stop-color:#6D6E70"/>
</radialGradient>
<circle fill="url(#SVGID_2_)" cx="291" cy="291" r="104.5"/>
<path fill="#FFFFFF" d="M277.7,290h-3.4l-2.9-7.4h0v7.4h-3.2v-14.6h3.2v6.7h0l2.8-6.7h3.3l-3.1,7L277.7,290z"/>
<path fill="#FFFFFF" d="M289,285.9c0,1.4-0.4,2.5-1.2,3.2s-2,1.2-3.4,1.2c-1.5,0-2.7-0.4-3.5-1.2c-0.8-0.8-1.2-2-1.2-3.5v-10.3h3.2
	v9.8c0,0.7,0.1,1.2,0.4,1.6c0.3,0.4,0.6,0.6,1.1,0.6c0.5,0,0.8-0.2,1.1-0.5c0.3-0.4,0.4-0.8,0.4-1.5v-9.9h3.2V285.9z"/>
<path fill="#FFFFFF" d="M301.9,290h-3.4l-3.7-9.2h0v9.2h-3.1v-14.7h3.5l3.7,9.1h0.1v-9.1h3V290z"/>
<path fill="#FFFFFF" d="M304.8,275.4h3.5c2,0,3.5,0.6,4.7,1.9c1.2,1.3,1.7,3,1.7,5.4c0,2.4-0.6,4.2-1.7,5.5s-2.7,1.9-4.8,1.9h-3.4
	V275.4z M308,278v9.3h0.4c0.6,0,1.3-0.3,2-0.8c0.7-0.5,1-1.7,1-3.7c0-1.4-0.1-2.5-0.4-3.1c-0.3-0.6-0.6-1.1-1.1-1.4
	c-0.5-0.3-1-0.4-1.5-0.4H308z"/>
<path fill="#FFFFFF" d="M245.8,294.4h3.2V309h-3.2V294.4z"/>
<path fill="#FFFFFF" d="M265.9,308.8c-0.8,0.4-1.7,0.5-2.7,0.5c-1.8,0-3.3-0.6-4.4-1.9s-1.8-3.2-1.8-5.6c0-2.5,0.6-4.5,1.8-5.7
	s2.6-1.9,4.1-1.9c0.9,0,1.9,0.2,3,0.7v3.1c-0.8-0.4-1.4-0.7-1.6-0.7c-0.2-0.1-0.5-0.1-0.8-0.1c-0.8,0-1.6,0.3-2.2,1
	s-0.9,1.9-0.9,3.6c0,1.8,0.3,3,0.9,3.7c0.6,0.7,1.4,1,2.3,1c0.7,0,1.5-0.3,2.4-0.9V308.8z"/>
<path fill="#FFFFFF" d="M275.3,309h-7.3v-14.6h6.9v2.8h-3.7v3h3.2v2.7h-3.2v3.2h4.2V309z"/>
<path fill="#FFFFFF" d="M287.8,309h-3.4l-3.7-9.2h0v9.2h-3.1v-14.7h3.5l3.7,9.1h0.1v-9.1h3V309z"/>
<path fill="#FFFFFF" d="M298.7,297.2h-2.9V309h-3.2v-11.8h-2.9v-2.9h9V297.2z"/>
<path fill="#FFFFFF" d="M309.8,309h-3.2l-2.6-7.2h0v7.2h-3.2v-14.6h4.1c0.8,0,1.6,0.2,2.5,0.5c0.8,0.3,1.4,0.8,1.8,1.5
	c0.3,0.7,0.5,1.4,0.5,2.2c0,0.9-0.2,1.7-0.6,2.2s-1,1.1-1.9,1.6L309.8,309z M303.9,300.9c1,0,1.7-0.2,2-0.6s0.4-0.9,0.4-1.5
	c0-1.4-0.6-2.1-1.7-2.1h-0.6V300.9z"/>
<path fill="#FFFFFF" d="M321.3,304.9c0,1.4-0.4,2.5-1.2,3.2s-2,1.2-3.4,1.2c-1.5,0-2.7-0.4-3.5-1.2c-0.8-0.8-1.2-2-1.2-3.5v-10.3
	h3.2v9.8c0,0.7,0.1,1.2,0.4,1.6s0.6,0.6,1.1,0.6c0.5,0,0.8-0.2,1.1-0.5s0.4-0.8,0.4-1.5v-9.9h3.2V304.9z"/>
<path fill="#FFFFFF" d="M337.5,309h-3l-0.7-12h0l-2.2,12h-2.3l-2.1-12h0l-0.8,12h-3l1.5-14.6h4l1.6,9.6h0l1.8-9.6h4L337.5,309z"/>
<path fill="#FFFFFF" d="M224.9,101.6h-3.1l-0.5-2.3h-3.9l-0.5,2.3h-3.1l4.2-14.6h3.2L224.9,101.6z M220.8,96.9l-1.3-6.4l0,0
	l-1.5,6.4H220.8z"/>
<path fill="#FFFFFF" d="M233.6,89.8h-3.7v3h3.2v2.7h-3.2v6.1h-3.2V86.9h6.9V89.8z"/>
<path fill="#FFFFFF" d="M242.7,89.8h-3.7v3h3.2v2.7h-3.2v6.1h-3.2V86.9h6.9V89.8z"/>
<path fill="#FFFFFF" d="M254.2,101.6h-3.1l-0.5-2.3h-3.9l-0.5,2.3h-3.1l4.2-14.6h3.2L254.2,101.6z M245.8,82.4
	c0.4,0,0.8,0.2,1.1,0.5s0.5,0.7,0.5,1.1c0,0.4-0.2,0.8-0.5,1.1s-0.7,0.5-1.1,0.5c-0.4,0-0.8-0.2-1.1-0.5s-0.5-0.7-0.5-1.1
	c0-0.4,0.2-0.8,0.5-1.1S245.4,82.4,245.8,82.4z M250.2,96.9l-1.3-6.4l0,0l-1.5,6.4H250.2z M251.1,82.4c0.4,0,0.8,0.2,1.1,0.5
	s0.5,0.7,0.5,1.1c0,0.4-0.2,0.8-0.5,1.1s-0.7,0.5-1.1,0.5c-0.4,0-0.8-0.2-1.1-0.5s-0.5-0.7-0.5-1.1c0-0.4,0.2-0.8,0.5-1.1
	S250.7,82.4,251.1,82.4z"/>
<path fill="#FFFFFF" d="M265.2,101.6H262l-2.6-7.2h0v7.2h-3.2V86.9h4.1c0.8,0,1.6,0.2,2.5,0.5c0.8,0.3,1.4,0.8,1.8,1.5
	s0.5,1.4,0.5,2.2c0,0.9-0.2,1.7-0.6,2.2s-1,1.1-1.9,1.6L265.2,101.6z M259.4,93.5c1,0,1.7-0.2,2-0.6s0.4-0.9,0.4-1.5
	c0-1.4-0.6-2.1-1.7-2.1h-0.6V93.5z"/>
<path fill="#FFFFFF" d="M273.8,91.1c-0.8-1-1.6-1.5-2.4-1.5c-0.3,0-0.7,0.1-0.9,0.3c-0.3,0.2-0.4,0.5-0.4,0.8c0,0.5,0.4,1.1,1.3,1.8
	c0.9,0.7,1.5,1.3,1.9,1.7c0.4,0.4,0.7,0.9,0.9,1.4s0.3,1.2,0.3,1.8c0,1.3-0.4,2.3-1.2,3.2c-0.8,0.8-1.9,1.2-3.2,1.2
	c-1.1,0-2.1-0.4-3.1-1.1v-3.5c1,1.1,2,1.6,2.9,1.6c0.4,0,0.8-0.1,1.1-0.4c0.3-0.2,0.4-0.5,0.4-0.9c0-0.5-0.4-1.1-1.1-1.7
	c-1.2-1-2-1.8-2.4-2.3c-0.4-0.5-0.7-1-0.8-1.5s-0.3-1-0.3-1.6c0-1.1,0.4-2.1,1.2-2.8c0.8-0.7,1.8-1.1,3-1.1c0.9,0,1.9,0.3,2.8,0.8
	V91.1z"/>
<path fill="#FFFFFF" d="M276.6,86.9h4.1c3.2,0,4.8,1.5,4.8,4.6c0,1.4-0.4,2.4-1.2,3.2s-2,1.1-3.5,1.1h-0.9v5.8h-3.2V86.9z
	 M279.8,93.5h0.6c0.6,0,1-0.2,1.3-0.5c0.3-0.4,0.5-0.9,0.5-1.5c0-1.4-0.6-2.2-1.7-2.2h-0.7V93.5z"/>
<path fill="#FFFFFF" d="M296.6,101.6h-3.2l-2.6-7.2h0v7.2h-3.2V86.9h4.1c0.8,0,1.6,0.2,2.5,0.5c0.8,0.3,1.4,0.8,1.8,1.5
	c0.3,0.7,0.5,1.4,0.5,2.2c0,0.9-0.2,1.7-0.6,2.2s-1,1.1-1.9,1.6L296.6,101.6z M290.8,93.5c1,0,1.7-0.2,2-0.6s0.4-0.9,0.4-1.5
	c0-1.4-0.6-2.1-1.7-2.1h-0.6V93.5z"/>
<path fill="#FFFFFF" d="M298,94.2c0-2.1,0.2-3.6,0.7-4.5s1-1.7,1.8-2.2c0.7-0.5,1.7-0.8,2.8-0.8c0.9,0,1.7,0.2,2.3,0.5
	c0.6,0.3,1.1,0.8,1.6,1.3s0.8,1.3,1.1,2.2s0.3,2,0.3,3.5c0,2.9-0.5,5-1.5,6.1c-1,1.1-2.3,1.7-3.8,1.7c-1.6,0-2.9-0.6-3.8-1.7
	C298.5,99,298,97,298,94.2z M301.3,93.3v0.9c0,1.5,0.1,2.6,0.2,3c0.1,0.5,0.3,0.9,0.7,1.2s0.7,0.4,1.2,0.4c0.4,0,0.7-0.1,1-0.4
	c0.3-0.3,0.5-0.7,0.7-1.2c0.1-0.6,0.2-1.6,0.2-3c0-1.3-0.1-2.2-0.2-2.7c-0.1-0.5-0.3-1-0.6-1.3c-0.3-0.3-0.7-0.5-1.2-0.5
	c-0.7,0-1.2,0.3-1.5,0.9C301.5,91.1,301.3,92,301.3,93.3z"/>
<path fill="#FFFFFF" d="M319.4,101.3c-0.8,0.4-1.7,0.5-2.7,0.5c-1.8,0-3.3-0.6-4.4-1.9c-1.2-1.3-1.8-3.2-1.8-5.6
	c0-2.5,0.6-4.5,1.8-5.7c1.2-1.3,2.5-1.9,4.1-1.9c0.9,0,1.9,0.2,3,0.7v3.1c-0.8-0.4-1.4-0.7-1.6-0.7c-0.2-0.1-0.5-0.1-0.8-0.1
	c-0.8,0-1.6,0.3-2.2,1s-0.9,1.9-0.9,3.6c0,1.8,0.3,3,0.9,3.7s1.4,1,2.3,1c0.7,0,1.5-0.3,2.4-0.9V101.3z"/>
<path fill="#FFFFFF" d="M328.8,101.6h-7.3V86.9h6.9v2.8h-3.7v3h3.2v2.7h-3.2v3.2h4.2V101.6z"/>
<path fill="#FFFFFF" d="M337.5,91.1c-0.8-1-1.6-1.5-2.4-1.5c-0.3,0-0.7,0.1-0.9,0.3s-0.4,0.5-0.4,0.8c0,0.5,0.4,1.1,1.3,1.8
	c0.9,0.7,1.5,1.3,1.9,1.7s0.7,0.9,0.9,1.4s0.3,1.2,0.3,1.8c0,1.3-0.4,2.3-1.2,3.2s-1.9,1.2-3.2,1.2c-1.1,0-2.1-0.4-3.1-1.1v-3.5
	c1,1.1,2,1.6,2.9,1.6c0.4,0,0.8-0.1,1.1-0.4c0.3-0.2,0.4-0.5,0.4-0.9c0-0.5-0.4-1.1-1.1-1.7c-1.2-1-2-1.8-2.4-2.3s-0.7-1-0.8-1.5
	s-0.3-1-0.3-1.6c0-1.1,0.4-2.1,1.2-2.8s1.8-1.1,3-1.1c0.9,0,1.9,0.3,2.8,0.8V91.1z"/>
<path fill="#FFFFFF" d="M346.7,91.1c-0.8-1-1.6-1.5-2.4-1.5c-0.3,0-0.7,0.1-0.9,0.3s-0.4,0.5-0.4,0.8c0,0.5,0.4,1.1,1.3,1.8
	c0.9,0.7,1.5,1.3,1.9,1.7s0.7,0.9,0.9,1.4s0.3,1.2,0.3,1.8c0,1.3-0.4,2.3-1.2,3.2s-1.9,1.2-3.2,1.2c-1.1,0-2.1-0.4-3.1-1.1v-3.5
	c1,1.1,2,1.6,2.9,1.6c0.4,0,0.8-0.1,1.1-0.4c0.3-0.2,0.4-0.5,0.4-0.9c0-0.5-0.4-1.1-1.1-1.7c-1.2-1-2-1.8-2.4-2.3s-0.7-1-0.8-1.5
	s-0.3-1-0.3-1.6c0-1.1,0.4-2.1,1.2-2.8s1.8-1.1,3-1.1c0.9,0,1.9,0.3,2.8,0.8V91.1z"/>
<path fill="#FFFFFF" d="M356.9,101.6h-7.3V86.9h6.9v2.8h-3.7v3h3.2v2.7h-3.2v3.2h4.2V101.6z"/>
<path fill="#FFFFFF" d="M368.3,101.6H365l-2.6-7.2h0v7.2h-3.2V86.9h4.1c0.8,0,1.6,0.2,2.5,0.5c0.8,0.3,1.4,0.8,1.8,1.5
	c0.3,0.7,0.5,1.4,0.5,2.2c0,0.9-0.2,1.7-0.6,2.2s-1,1.1-1.9,1.6L368.3,101.6z M362.4,93.5c1,0,1.7-0.2,2-0.6s0.4-0.9,0.4-1.5
	c0-1.4-0.6-2.1-1.7-2.1h-0.6V93.5z"/>
<path fill="#FFFFFF" d="M30.7,275.6c0-2.1,0.2-3.6,0.7-4.5c0.4-1,1-1.7,1.8-2.2s1.7-0.8,2.8-0.8c0.9,0,1.7,0.2,2.3,0.5
	c0.6,0.3,1.1,0.8,1.6,1.3c0.5,0.6,0.8,1.3,1.1,2.2c0.2,0.9,0.3,2,0.3,3.5c0,2.9-0.5,5-1.5,6.1s-2.3,1.7-3.8,1.7
	c-1.6,0-2.9-0.6-3.8-1.7C31.2,280.4,30.7,278.4,30.7,275.6z M34.1,274.7v0.9c0,1.5,0.1,2.6,0.2,3s0.3,0.9,0.7,1.2s0.7,0.4,1.2,0.4
	c0.4,0,0.7-0.1,1-0.4s0.5-0.7,0.7-1.2s0.2-1.6,0.2-3c0-1.3-0.1-2.2-0.2-2.7c-0.1-0.5-0.3-1-0.6-1.3s-0.7-0.5-1.2-0.5
	c-0.7,0-1.2,0.3-1.5,0.9C34.2,272.5,34.1,273.4,34.1,274.7z"/>
<path fill="#FFFFFF" d="M52.8,283h-3.2l-2.6-7.2h0v7.2h-3.2v-14.6h4.1c0.8,0,1.6,0.2,2.5,0.5c0.8,0.3,1.4,0.8,1.8,1.5
	s0.5,1.4,0.5,2.2c0,0.9-0.2,1.7-0.6,2.2s-1,1.1-1.9,1.6L52.8,283z M47,274.9c1,0,1.7-0.2,2-0.6s0.4-0.9,0.4-1.5
	c0-1.4-0.6-2.1-1.7-2.1H47V274.9z"/>
<path fill="#FFFFFF" d="M64.8,277.1c0,0.6-0.1,1.4-0.4,2.4c-0.3,1-0.9,1.9-1.7,2.6s-1.9,1.2-3,1.2c-3.6,0-5.4-2.6-5.4-7.7
	c0-2.4,0.5-4.3,1.4-5.6c0.9-1.3,2.3-1.9,4-1.9c2.5,0,4,1.2,4.5,3.6l-2.8,1.2c-0.1-1.3-0.7-2-1.8-2c-0.5,0-0.9,0.2-1.2,0.5
	s-0.5,0.7-0.6,1.3c-0.1,0.5-0.1,1.5-0.1,2.8c0,1.6,0.1,2.6,0.2,3.2c0.1,0.6,0.3,1,0.6,1.3c0.3,0.3,0.7,0.4,1.2,0.4
	c1.2,0,1.8-1,1.9-2.9h-2v-2.8h5.3V277.1z"/>
<path fill="#FFFFFF" d="M77.3,283h-3.1l-0.5-2.3h-3.9l-0.5,2.3h-3.1l4.2-14.6h3.2L77.3,283z M73.3,278.3l-1.3-6.4l0,0l-1.5,6.4H73.3
	z"/>
<path fill="#FFFFFF" d="M89.4,283h-3.4l-3.7-9.2h0v9.2h-3.1v-14.7h3.5l3.7,9.1h0.1v-9.1h3V283z"/>
<path fill="#FFFFFF" d="M92.5,268.4h3.2V283h-3.2V268.4z"/>
<path fill="#FFFFFF" d="M105.2,272.5c-0.8-1-1.6-1.5-2.4-1.5c-0.3,0-0.7,0.1-0.9,0.3s-0.4,0.5-0.4,0.8c0,0.5,0.4,1.1,1.3,1.8
	c0.9,0.7,1.5,1.3,1.9,1.7s0.7,0.9,0.9,1.4s0.3,1.2,0.3,1.8c0,1.3-0.4,2.3-1.2,3.2s-1.9,1.2-3.2,1.2c-1.1,0-2.1-0.4-3.1-1.1v-3.5
	c1,1.1,2,1.6,2.9,1.6c0.4,0,0.8-0.1,1.1-0.4c0.3-0.2,0.4-0.5,0.4-0.9c0-0.5-0.4-1.1-1.1-1.7c-1.2-1-2-1.8-2.4-2.3s-0.7-1-0.8-1.5
	s-0.3-1-0.3-1.6c0-1.1,0.4-2.1,1.2-2.8s1.8-1.1,3-1.1c0.9,0,1.9,0.3,2.8,0.8V272.5z"/>
<path fill="#FFFFFF" d="M118.2,283h-3.1l-0.5-2.3h-3.9l-0.5,2.3h-3.1l4.2-14.6h3.2L118.2,283z M114.2,278.3l-1.3-6.4l0,0l-1.5,6.4
	H114.2z"/>
<path fill="#FFFFFF" d="M127,271.2h-2.9V283H121v-11.8h-2.9v-2.9h9V271.2z"/>
<path fill="#FFFFFF" d="M129.2,268.4h3.2V283h-3.2V268.4z"/>
<path fill="#FFFFFF" d="M135.1,275.6c0-2.1,0.2-3.6,0.7-4.5s1-1.7,1.8-2.2c0.7-0.5,1.7-0.8,2.8-0.8c0.9,0,1.7,0.2,2.3,0.5
	c0.6,0.3,1.1,0.8,1.6,1.3s0.8,1.3,1.1,2.2s0.3,2,0.3,3.5c0,2.9-0.5,5-1.5,6.1c-1,1.1-2.3,1.7-3.8,1.7c-1.6,0-2.9-0.6-3.8-1.7
	C135.6,280.4,135.1,278.4,135.1,275.6z M138.5,274.7v0.9c0,1.5,0.1,2.6,0.2,3c0.1,0.5,0.3,0.9,0.7,1.2s0.7,0.4,1.2,0.4
	c0.4,0,0.7-0.1,1-0.4c0.3-0.3,0.5-0.7,0.7-1.2c0.1-0.6,0.2-1.6,0.2-3c0-1.3-0.1-2.2-0.2-2.7c-0.1-0.5-0.3-1-0.6-1.3
	c-0.3-0.3-0.7-0.5-1.2-0.5c-0.7,0-1.2,0.3-1.5,0.9C138.6,272.5,138.5,273.4,138.5,274.7z"/>
<path fill="#FFFFFF" d="M158.3,283H155l-3.7-9.2h0v9.2h-3.1v-14.7h3.5l3.7,9.1h0.1v-9.1h3V283z"/>
<path fill="#FFFFFF" d="M100.8,297.6c-0.2,0.2-0.8,0.9-1.9,1.9l1.6,2.4h-3.3l-0.5-0.8c-1.2,0.7-2.3,1.1-3.5,1.1
	c-1.2,0-2.2-0.4-3-1.2s-1.2-1.8-1.2-2.9c0-1.3,0.9-2.7,2.8-4c-0.9-1.4-1.4-2.6-1.4-3.4c0-0.9,0.3-1.6,1-2.2s1.5-0.9,2.6-0.9
	c1.1,0,2,0.3,2.6,0.9c0.7,0.6,1,1.3,1,2.3c0,1.3-0.7,2.7-2.2,3.9l1.9,2.7c0.7-0.6,1.2-1.2,1.6-1.7L100.8,297.6z M95.3,299.1l-2-3
	c-0.8,0.6-1.2,1.2-1.2,1.8c0,0.4,0.2,0.8,0.5,1.2s0.8,0.6,1.2,0.6C94.2,299.7,94.7,299.5,95.3,299.1z M94,292.7
	c0.8-0.4,1.2-1,1.2-1.7c0-0.4-0.1-0.7-0.3-0.9s-0.4-0.4-0.7-0.4c-0.3,0-0.5,0.1-0.8,0.3s-0.3,0.5-0.3,0.8
	C93.1,291.1,93.4,291.8,94,292.7z"/>
<path fill="#FFFFFF" d="M56.1,313.6c0.9,0.4,1.5,0.9,1.8,1.4c0.3,0.6,0.5,1.3,0.5,2.2c0,1-0.4,1.9-1.1,2.6s-1.7,1.1-2.8,1.1h-5.3
	v-14.6h4.5c1.3,0,2.3,0.3,3.1,1c0.8,0.7,1.2,1.6,1.2,2.7c0,0.9-0.2,1.6-0.5,2.1S56.8,313.2,56.1,313.6z M52.4,312.6h0.7
	c0.5,0,1-0.2,1.3-0.5s0.5-0.8,0.5-1.4c0-1.3-0.7-2-2-2h-0.4V312.6z M52.4,318.6l0.9,0c0.5,0,1-0.2,1.3-0.5c0.3-0.3,0.4-0.8,0.4-1.4
	c0-1.3-0.7-1.9-2-1.9h-0.7V318.6z"/>
<path fill="#FFFFFF" d="M68,321h-7.3v-14.6h6.9v2.8h-3.7v3H67v2.7h-3.2v3.2H68V321z"/>
<path fill="#FFFFFF" d="M83.8,321h-3L80,309h0l-2.2,12h-2.3l-2.1-12h0l-0.8,12h-3l1.5-14.6h4l1.6,9.6h0l1.8-9.6h4L83.8,321z"/>
<path fill="#FFFFFF" d="M96,321h-3.1l-0.5-2.3h-3.9L88,321h-3.1l4.2-14.6h3.2L96,321z M91.9,316.3l-1.3-6.4l0,0l-1.5,6.4H91.9z"/>
<path fill="#FFFFFF" d="M108.1,321h-3.4l-3.7-9.2h0v9.2h-3.1v-14.7h3.5l3.7,9.1h0.1v-9.1h3V321z"/>
<path fill="#FFFFFF" d="M111.2,306.4h3.2V321h-3.2V306.4z"/>
<path fill="#FFFFFF" d="M127.7,321h-3.4l-3.7-9.2h0v9.2h-3.1v-14.7h3.5l3.7,9.1h0.1v-9.1h3V321z"/>
<path fill="#FFFFFF" d="M140.8,315.1c0,0.6-0.1,1.4-0.4,2.4c-0.3,1-0.9,1.9-1.7,2.6s-1.9,1.2-3,1.2c-3.6,0-5.4-2.6-5.4-7.7
	c0-2.4,0.5-4.3,1.4-5.6c0.9-1.3,2.3-1.9,4-1.9c2.5,0,4,1.2,4.5,3.6l-2.8,1.2c-0.1-1.3-0.7-2-1.8-2c-0.5,0-0.9,0.2-1.2,0.5
	c-0.3,0.3-0.5,0.7-0.6,1.3c-0.1,0.5-0.1,1.5-0.1,2.8c0,1.6,0.1,2.6,0.2,3.2c0.1,0.6,0.3,1,0.6,1.3c0.3,0.3,0.7,0.4,1.2,0.4
	c1.2,0,1.8-1,1.9-2.9h-2v-2.8h5.3V315.1z"/>
<path fill="#FFFFFF" d="M196.3,483.8h3.2v14.6h-3.2V483.8z"/>
<path fill="#FFFFFF" d="M212.8,498.4h-3.4l-3.7-9.2h0v9.2h-3.1v-14.7h3.5l3.7,9.1h0.1v-9.1h3V498.4z"/>
<path fill="#FFFFFF" d="M222.5,486.6h-3.7v3h3.2v2.7h-3.2v6.1h-3.2v-14.6h6.9V486.6z"/>
<path fill="#FFFFFF" d="M224.3,491c0-2.1,0.2-3.6,0.7-4.5c0.4-1,1-1.7,1.8-2.2s1.7-0.8,2.8-0.8c0.9,0,1.7,0.2,2.3,0.5
	c0.6,0.3,1.1,0.8,1.6,1.3c0.5,0.6,0.8,1.3,1.1,2.2c0.2,0.9,0.3,2,0.3,3.5c0,2.9-0.5,5-1.5,6.1s-2.3,1.7-3.8,1.7
	c-1.6,0-2.9-0.6-3.8-1.7C224.7,495.8,224.3,493.8,224.3,491z M227.6,490.1v0.9c0,1.5,0.1,2.6,0.2,3s0.3,0.9,0.7,1.2s0.7,0.4,1.2,0.4
	c0.4,0,0.7-0.1,1-0.4s0.5-0.7,0.7-1.2s0.2-1.6,0.2-3c0-1.3-0.1-2.2-0.2-2.7c-0.1-0.5-0.3-1-0.6-1.3s-0.7-0.5-1.2-0.5
	c-0.7,0-1.2,0.3-1.5,0.9C227.8,487.9,227.6,488.9,227.6,490.1z"/>
<path fill="#FFFFFF" d="M246.3,498.4h-3.2l-2.6-7.2h0v7.2h-3.2v-14.6h4.1c0.8,0,1.6,0.2,2.5,0.5c0.8,0.3,1.4,0.8,1.8,1.5
	s0.5,1.4,0.5,2.2c0,0.9-0.2,1.7-0.6,2.2s-1,1.1-1.9,1.6L246.3,498.4z M240.5,490.4c1,0,1.7-0.2,2-0.6s0.4-0.9,0.4-1.5
	c0-1.4-0.6-2.1-1.7-2.1h-0.6V490.4z"/>
<path fill="#FFFFFF" d="M262,498.4h-3l-0.7-12h0l-2.2,12h-2.3l-2.1-12h0l-0.8,12h-3l1.5-14.6h4l1.6,9.6h0l1.8-9.6h4L262,498.4z"/>
<path fill="#FFFFFF" d="M274.3,498.4h-3.1l-0.5-2.3h-3.9l-0.5,2.3h-3.1l4.2-14.6h3.2L274.3,498.4z M270.2,493.8l-1.3-6.4l0,0
	l-1.5,6.4H270.2z"/>
<path fill="#FFFFFF" d="M283.1,486.6h-2.9v11.8H277v-11.8h-2.9v-2.9h9V486.6z"/>
<path fill="#FFFFFF" d="M285.3,483.8h3.2v14.6h-3.2V483.8z"/>
<path fill="#FFFFFF" d="M291.2,491c0-2.1,0.2-3.6,0.7-4.5s1-1.7,1.8-2.2c0.7-0.5,1.7-0.8,2.8-0.8c0.9,0,1.7,0.2,2.3,0.5
	c0.6,0.3,1.1,0.8,1.6,1.3s0.8,1.3,1.1,2.2s0.3,2,0.3,3.5c0,2.9-0.5,5-1.5,6.1c-1,1.1-2.3,1.7-3.8,1.7c-1.6,0-2.9-0.6-3.8-1.7
	C291.6,495.8,291.2,493.8,291.2,491z M294.5,490.1v0.9c0,1.5,0.1,2.6,0.2,3c0.1,0.5,0.3,0.9,0.7,1.2s0.7,0.4,1.2,0.4
	c0.4,0,0.7-0.1,1-0.4c0.3-0.3,0.5-0.7,0.7-1.2c0.1-0.6,0.2-1.6,0.2-3c0-1.3-0.1-2.2-0.2-2.7c-0.1-0.5-0.3-1-0.6-1.3
	c-0.3-0.3-0.7-0.5-1.2-0.5c-0.7,0-1.2,0.3-1.5,0.9C294.7,487.9,294.5,488.9,294.5,490.1z"/>
<path fill="#FFFFFF" d="M314.3,498.4H311l-3.7-9.2h0v9.2h-3.1v-14.7h3.5l3.7,9.1h0.1v-9.1h3V498.4z"/>
<path fill="#FFFFFF" d="M323.6,487.9c-0.8-1-1.6-1.5-2.4-1.5c-0.3,0-0.7,0.1-0.9,0.3s-0.4,0.5-0.4,0.8c0,0.5,0.4,1.1,1.3,1.8
	c0.9,0.7,1.5,1.3,1.9,1.7s0.7,0.9,0.9,1.4s0.3,1.2,0.3,1.8c0,1.3-0.4,2.3-1.2,3.2s-1.9,1.2-3.2,1.2c-1.1,0-2.1-0.4-3.1-1.1v-3.5
	c1,1.1,2,1.6,2.9,1.6c0.4,0,0.8-0.1,1.1-0.4c0.3-0.2,0.4-0.5,0.4-0.9c0-0.5-0.4-1.1-1.1-1.7c-1.2-1-2-1.8-2.4-2.3s-0.7-1-0.8-1.5
	s-0.3-1-0.3-1.6c0-1.1,0.4-2.1,1.2-2.8s1.8-1.1,3-1.1c0.9,0,1.9,0.3,2.8,0.8V487.9z"/>
<path fill="#FFFFFF" d="M332.9,487.9c-0.8-1-1.6-1.5-2.4-1.5c-0.3,0-0.7,0.1-0.9,0.3s-0.4,0.5-0.4,0.8c0,0.5,0.4,1.1,1.3,1.8
	c0.9,0.7,1.5,1.3,1.9,1.7s0.7,0.9,0.9,1.4s0.3,1.2,0.3,1.8c0,1.3-0.4,2.3-1.2,3.2s-1.9,1.2-3.2,1.2c-1.1,0-2.1-0.4-3.1-1.1v-3.5
	c1,1.1,2,1.6,2.9,1.6c0.4,0,0.8-0.1,1.1-0.4c0.3-0.2,0.4-0.5,0.4-0.9c0-0.5-0.4-1.1-1.1-1.7c-1.2-1-2-1.8-2.4-2.3s-0.7-1-0.8-1.5
	s-0.3-1-0.3-1.6c0-1.1,0.4-2.1,1.2-2.8s1.8-1.1,3-1.1c0.9,0,1.9,0.3,2.8,0.8V487.9z"/>
<path fill="#FFFFFF" d="M345.1,483.8l-3.3,8.2v6.5h-3.2V492l-3.8-8.2h3.4l1.9,4.6l1.8-4.6H345.1z"/>
<path fill="#FFFFFF" d="M353.6,487.9c-0.8-1-1.6-1.5-2.4-1.5c-0.3,0-0.7,0.1-0.9,0.3s-0.4,0.5-0.4,0.8c0,0.5,0.4,1.1,1.3,1.8
	c0.9,0.7,1.5,1.3,1.9,1.7s0.7,0.9,0.9,1.4s0.3,1.2,0.3,1.8c0,1.3-0.4,2.3-1.2,3.2s-1.9,1.2-3.2,1.2c-1.1,0-2.1-0.4-3.1-1.1v-3.5
	c1,1.1,2,1.6,2.9,1.6c0.4,0,0.8-0.1,1.1-0.4c0.3-0.2,0.4-0.5,0.4-0.9c0-0.5-0.4-1.1-1.1-1.7c-1.2-1-2-1.8-2.4-2.3s-0.7-1-0.8-1.5
	s-0.3-1-0.3-1.6c0-1.1,0.4-2.1,1.2-2.8s1.8-1.1,3-1.1c0.9,0,1.9,0.3,2.8,0.8V487.9z"/>
<path fill="#FFFFFF" d="M364.6,486.6h-2.9v11.8h-3.2v-11.8h-2.9v-2.9h9V486.6z"/>
<path fill="#FFFFFF" d="M373.8,498.4h-7.3v-14.6h6.9v2.8h-3.7v3h3.2v2.7h-3.2v3.2h4.2V498.4z"/>
<path fill="#FFFFFF" d="M389.6,498.4h-3l-0.7-12h0l-2.2,12h-2.3l-2.1-12h0l-0.8,12h-3l1.5-14.6h4l1.6,9.6h0l1.8-9.6h4L389.6,498.4z"
	/>
<path fill="#FFFFFF" d="M444.3,275.6c0.9,0.4,1.5,0.9,1.8,1.4s0.5,1.3,0.5,2.2c0,1-0.4,1.9-1.1,2.6s-1.7,1.1-2.8,1.1h-5.3v-14.6h4.5
	c1.3,0,2.3,0.3,3.1,1c0.8,0.7,1.2,1.6,1.2,2.7c0,0.9-0.2,1.6-0.5,2.1C445.6,274.8,445,275.2,444.3,275.6z M440.7,274.6h0.7
	c0.5,0,1-0.2,1.3-0.5s0.5-0.8,0.5-1.4c0-1.3-0.7-2-2-2h-0.4V274.6z M440.7,280.6l0.9,0c0.5,0,1-0.2,1.3-0.5c0.3-0.3,0.4-0.8,0.4-1.4
	c0-1.3-0.7-1.9-2-1.9h-0.7V280.6z"/>
<path fill="#FFFFFF" d="M456.3,283h-7.3v-14.6h6.9v2.8h-3.7v3h3.2v2.7h-3.2v3.2h4.2V283z"/>
<path fill="#FFFFFF" d="M466.6,271.2h-2.9V283h-3.2v-11.8h-2.9v-2.9h9V271.2z"/>
<path fill="#FFFFFF" d="M475.9,283h-7.3v-14.6h6.9v2.8h-3.7v3h3.2v2.7h-3.2v3.2h4.2V283z"/>
<path fill="#FFFFFF" d="M485.4,283h-7.3v-14.6h6.9v2.8h-3.7v3h3.2v2.7h-3.2v3.2h4.2V283z"/>
<path fill="#FFFFFF" d="M497.9,283h-3.4l-3.7-9.2h0v9.2h-3.1v-14.7h3.5l3.7,9.1h0.1v-9.1h3V283z"/>
<path fill="#FFFFFF" d="M508,283h-7.3v-14.6h6.9v2.8h-3.7v3h3.2v2.7h-3.2v3.2h4.2V283z"/>
<path fill="#FFFFFF" d="M510.3,268.4h3.5c2,0,3.5,0.6,4.7,1.9s1.7,3,1.7,5.4c0,2.4-0.6,4.2-1.7,5.5c-1.1,1.3-2.7,1.9-4.8,1.9h-3.4
	V268.4z M513.5,271v9.3h0.4c0.6,0,1.3-0.3,2-0.8s1-1.7,1-3.7c0-1.4-0.1-2.5-0.4-3.1c-0.3-0.6-0.6-1.1-1.1-1.4s-1-0.4-1.5-0.4H513.5z
	"/>
<path fill="#FFFFFF" d="M529.9,283h-7.3v-14.6h6.9v2.8h-3.7v3h3.2v2.7h-3.2v3.2h4.2V283z"/>
<path fill="#FFFFFF" d="M542.3,283H539l-3.7-9.2h0v9.2h-3.1v-14.7h3.5l3.7,9.1h0.1v-9.1h3V283z"/>
<path fill="#FFFFFF" d="M496,297.6c-0.2,0.2-0.8,0.9-1.9,1.9l1.6,2.4h-3.3l-0.5-0.8c-1.2,0.7-2.3,1.1-3.5,1.1c-1.2,0-2.2-0.4-3-1.2
	s-1.2-1.8-1.2-2.9c0-1.3,0.9-2.7,2.8-4c-0.9-1.4-1.4-2.6-1.4-3.4c0-0.9,0.3-1.6,1-2.2c0.7-0.6,1.5-0.9,2.6-0.9c1.1,0,2,0.3,2.6,0.9
	s1,1.3,1,2.3c0,1.3-0.7,2.7-2.2,3.9l1.9,2.7c0.7-0.6,1.2-1.2,1.6-1.7L496,297.6z M490.4,299.1l-2-3c-0.8,0.6-1.2,1.2-1.2,1.8
	c0,0.4,0.2,0.8,0.5,1.2s0.8,0.6,1.2,0.6C489.4,299.7,489.9,299.5,490.4,299.1z M489.2,292.7c0.8-0.4,1.2-1,1.2-1.7
	c0-0.4-0.1-0.7-0.3-0.9c-0.2-0.2-0.4-0.4-0.7-0.4s-0.5,0.1-0.8,0.3c-0.2,0.2-0.3,0.5-0.3,0.8C488.3,291.1,488.6,291.8,489.2,292.7z"
	/>
<path fill="#FFFFFF" d="M424.4,309.2h-3.7v3h3.2v2.7h-3.2v6.1h-3.2v-14.6h6.9V309.2z"/>
<path fill="#FFFFFF" d="M426.2,313.6c0-2.1,0.2-3.6,0.7-4.5s1-1.7,1.8-2.2s1.7-0.8,2.8-0.8c0.9,0,1.7,0.2,2.3,0.5
	c0.6,0.3,1.1,0.8,1.6,1.3c0.5,0.6,0.8,1.3,1.1,2.2c0.2,0.9,0.3,2,0.3,3.5c0,2.9-0.5,5-1.5,6.1s-2.3,1.7-3.8,1.7
	c-1.6,0-2.9-0.6-3.8-1.7C426.7,318.4,426.2,316.4,426.2,313.6z M429,301.8c0.4,0,0.8,0.2,1.1,0.5s0.5,0.7,0.5,1.1
	c0,0.4-0.2,0.8-0.5,1.1s-0.7,0.5-1.1,0.5c-0.4,0-0.8-0.2-1.1-0.5c-0.3-0.3-0.5-0.7-0.5-1.1c0-0.4,0.2-0.8,0.5-1.1
	C428.1,301.9,428.5,301.8,429,301.8z M429.5,312.7v0.9c0,1.5,0.1,2.6,0.2,3s0.3,0.9,0.7,1.2s0.7,0.4,1.2,0.4c0.4,0,0.7-0.1,1-0.4
	c0.3-0.3,0.5-0.7,0.7-1.2c0.1-0.6,0.2-1.6,0.2-3c0-1.3-0.1-2.2-0.2-2.7s-0.3-1-0.6-1.3c-0.3-0.3-0.7-0.5-1.2-0.5
	c-0.7,0-1.2,0.3-1.5,0.9C429.7,310.5,429.5,311.4,429.5,312.7z M434.3,301.8c0.4,0,0.8,0.2,1.1,0.5c0.3,0.3,0.5,0.7,0.5,1.1
	c0,0.4-0.2,0.8-0.5,1.1c-0.3,0.3-0.7,0.5-1.1,0.5c-0.4,0-0.8-0.2-1.1-0.5c-0.3-0.3-0.5-0.7-0.5-1.1c0-0.4,0.2-0.8,0.5-1.1
	C433.5,301.9,433.8,301.8,434.3,301.8z"/>
<path fill="#FFFFFF" d="M448.2,321H445l-2.6-7.2h0v7.2h-3.2v-14.6h4.1c0.8,0,1.6,0.2,2.5,0.5s1.4,0.8,1.8,1.5
	c0.3,0.7,0.5,1.4,0.5,2.2c0,0.9-0.2,1.7-0.6,2.2c-0.4,0.6-1,1.1-1.9,1.6L448.2,321z M442.4,312.9c1,0,1.7-0.2,2-0.6s0.4-0.9,0.4-1.5
	c0-1.4-0.6-2.1-1.7-2.1h-0.6V312.9z"/>
<path fill="#FFFFFF" d="M457.3,306.4h3.2l-4.1,14.6h-3l-4.2-14.6h3.4l2.4,9.4L457.3,306.4z"/>
<path fill="#FFFFFF" d="M471.5,321h-3.1l-0.5-2.3H464l-0.5,2.3h-3.1l4.2-14.6h3.2L471.5,321z M463.1,301.8c0.4,0,0.8,0.2,1.1,0.5
	c0.3,0.3,0.5,0.7,0.5,1.1c0,0.4-0.2,0.8-0.5,1.1c-0.3,0.3-0.7,0.5-1.1,0.5c-0.4,0-0.8-0.2-1.1-0.5s-0.5-0.7-0.5-1.1
	c0-0.4,0.2-0.8,0.5-1.1S462.7,301.8,463.1,301.8z M467.4,316.3l-1.3-6.4l0,0l-1.5,6.4H467.4z M468.4,301.8c0.4,0,0.8,0.2,1.1,0.5
	c0.3,0.3,0.5,0.7,0.5,1.1c0,0.4-0.2,0.8-0.5,1.1c-0.3,0.3-0.7,0.5-1.1,0.5c-0.4,0-0.8-0.2-1.1-0.5s-0.5-0.7-0.5-1.1
	c0-0.4,0.2-0.8,0.5-1.1S468,301.8,468.4,301.8z"/>
<path fill="#FFFFFF" d="M483.6,321h-3.4l-3.7-9.2h0v9.2h-3.1v-14.7h3.5l3.7,9.1h0.1v-9.1h3V321z"/>
<path fill="#FFFFFF" d="M494.5,309.2h-2.9V321h-3.2v-11.8h-2.9v-2.9h9V309.2z"/>
<path fill="#FFFFFF" d="M506.7,321h-3.4l-3.7-9.2h0v9.2h-3.1v-14.7h3.5l3.7,9.1h0.1v-9.1h3V321z"/>
<path fill="#FFFFFF" d="M509.8,306.4h3.2V321h-3.2V306.4z"/>
<path fill="#FFFFFF" d="M526.3,321H523l-3.7-9.2h0v9.2h-3.1v-14.7h3.5l3.7,9.1h0.1v-9.1h3V321z"/>
<path fill="#FFFFFF" d="M539.4,315.1c0,0.6-0.1,1.4-0.4,2.4s-0.9,1.9-1.7,2.6s-1.9,1.2-3,1.2c-3.6,0-5.4-2.6-5.4-7.7
	c0-2.4,0.5-4.3,1.4-5.6c0.9-1.3,2.3-1.9,4-1.9c2.5,0,4,1.2,4.5,3.6l-2.8,1.2c-0.1-1.3-0.7-2-1.8-2c-0.5,0-0.9,0.2-1.2,0.5
	s-0.5,0.7-0.6,1.3c-0.1,0.5-0.1,1.5-0.1,2.8c0,1.6,0.1,2.6,0.2,3.2c0.1,0.6,0.3,1,0.6,1.3s0.7,0.4,1.2,0.4c1.2,0,1.8-1,1.9-2.9h-2
	v-2.8h5.3V315.1z"/>
<path fill="#FFFFFF" d="M551.9,321h-3.1l-0.5-2.3h-3.9l-0.5,2.3h-3.1l4.2-14.6h3.2L551.9,321z M547.8,316.3l-1.3-6.4l0,0l-1.5,6.4
	H547.8z"/>
<path fill="#FFFFFF" d="M562.9,321h-3.2l-2.6-7.2h0v7.2h-3.2v-14.6h4.1c0.8,0,1.6,0.2,2.5,0.5s1.4,0.8,1.8,1.5s0.5,1.4,0.5,2.2
	c0,0.9-0.2,1.7-0.6,2.2c-0.4,0.6-1,1.1-1.9,1.6L562.9,321z M557,312.9c1,0,1.7-0.2,2-0.6s0.4-0.9,0.4-1.5c0-1.4-0.6-2.1-1.7-2.1H557
	V312.9z"/>
<g>
	<g>
		<path fill="#333333" d="M173.4,118.4c-0.6-0.6-2.7,0.5-4.7,2.4l-35.9,36.1c-1.9,1.9-5.1,2-7.1,0l-1.1-1.1
			c-1.9-1.9-4.1-1.4-4.8,1.3l-4.2,15.8c-0.7,2.7,0.9,4.2,3.5,3.5l15.7-4.3c2.7-0.7,3.2-2.9,1.3-4.8l-1.1-1.1c-1.9-1.9-2-5.1,0-7.1
			l35.9-36.1C173,121.1,174,119,173.4,118.4z"/>
		<path fill="#333333" d="M118.8,173.2c0.6,0.6,2.7-0.5,4.7-2.4l36.1-36.2c1.9-1.9,5.1-2,7.1,0l1.1,1.1c1.9,1.9,4.1,1.4,4.8-1.3
			l4.2-15.9c0.7-2.7-0.9-4.2-3.5-3.5l-15.8,4.3c-2.7,0.7-3.2,2.9-1.3,4.8l1.1,1.1c1.9,1.9,2,5.1,0,7.1l-36.1,36.2
			C119.2,170.4,118.1,172.5,118.8,173.2z"/>
	</g>
	<g>
		<g>
			<g>
				<g>
					<g>
						<path fill="#33C5F3" d="M172.4,117.4c-0.6-0.6-2.7,0.5-4.7,2.4l-35.9,36.1c-1.9,1.9-5.1,2-7.1,0l-1.1-1.1
							c-1.9-1.9-4.1-1.4-4.8,1.3l-4.2,15.8c-0.7,2.7,0.9,4.2,3.5,3.5l15.7-4.3c2.7-0.7,3.2-2.9,1.3-4.8l-1.1-1.1
							c-1.9-1.9-2-5.1,0-7.1l35.9-36.1C172,120.1,173,118,172.4,117.4z"/>
					</g>
				</g>
			</g>
			<g>
				<g>
					<g>
						<path fill="#33C5F3" d="M117.8,172.2c0.6,0.6,2.7-0.5,4.7-2.4l36.1-36.2c1.9-1.9,5.1-2,7.1,0l1.1,1.1c1.9,1.9,4.1,1.4,4.8-1.3
							l4.2-15.9c0.7-2.7-0.9-4.2-3.5-3.5l-15.8,4.3c-2.7,0.7-3.2,2.9-1.3,4.8l1.1,1.1c1.9,1.9,2,5.1,0,7.1l-36.1,36.2
							C118.2,169.4,117.1,171.5,117.8,172.2z"/>
					</g>
				</g>
			</g>
		</g>
	</g>
</g>
<g>
	<g>
		<path fill="#333333" d="M412.7,116.7c0.6-0.6,2.7,0.5,4.7,2.4l35.9,36.1c1.9,1.9,5.1,2,7.1,0l1.1-1.1c1.9-1.9,4.1-1.4,4.8,1.3
			l4.2,15.8c0.7,2.7-0.9,4.2-3.5,3.5l-15.7-4.3c-2.7-0.7-3.2-2.9-1.3-4.8l1.1-1.1c1.9-1.9,2-5.1,0-7.1l-35.9-36.1
			C413.2,119.4,412.1,117.3,412.7,116.7z"/>
		<path fill="#333333" d="M467.4,171.5c-0.6,0.6-2.7-0.5-4.7-2.4l-36.1-36.2c-1.9-1.9-5.1-2-7.1,0l-1.1,1.1
			c-1.9,1.9-4.1,1.4-4.8-1.3l-4.2-15.9c-0.7-2.7,0.9-4.2,3.5-3.5l15.8,4.3c2.7,0.7,3.2,2.9,1.3,4.8l-1.1,1.1c-1.9,1.9-2,5.1,0,7.1
			l36.1,36.2C467,168.7,468,170.8,467.4,171.5z"/>
	</g>
	<g>
		<g>
			<g>
				<g>
					<g>
						<path fill="#33C5F3" d="M411.7,115.7c0.6-0.6,2.7,0.5,4.7,2.4l35.9,36.1c1.9,1.9,5.1,2,7.1,0l1.1-1.1c1.9-1.9,4.1-1.4,4.8,1.3
							l4.2,15.8c0.7,2.7-0.9,4.2-3.5,3.5l-15.7-4.3c-2.7-0.7-3.2-2.9-1.3-4.8l1.1-1.1c1.9-1.9,2-5.1,0-7.1l-35.9-36.1
							C412.2,118.4,411.1,116.3,411.7,115.7z"/>
					</g>
				</g>
			</g>
			<g>
				<g>
					<g>
						<path fill="#33C5F3" d="M466.4,170.5c-0.6,0.6-2.7-0.5-4.7-2.4l-36.1-36.2c-1.9-1.9-5.1-2-7.1,0l-1.1,1.1
							c-1.9,1.9-4.1,1.4-4.8-1.3l-4.2-15.9c-0.7-2.7,0.9-4.2,3.5-3.5l15.8,4.3c2.7,0.7,3.2,2.9,1.3,4.8l-1.1,1.1
							c-1.9,1.9-2,5.1,0,7.1l36.1,36.2C466,167.7,467,169.8,466.4,170.5z"/>
					</g>
				</g>
			</g>
		</g>
	</g>
</g>
<g>
	<g>
		<path fill="#333333" d="M461.6,409.1c-0.6-0.6-2.7,0.5-4.7,2.4l-35.9,36.1c-1.9,1.9-5.1,2-7.1,0l-1.1-1.1
			c-1.9-1.9-4.1-1.4-4.8,1.3l-4.2,15.8c-0.7,2.7,0.9,4.2,3.5,3.5l15.7-4.3c2.7-0.7,3.2-2.9,1.3-4.8l-1.1-1.1c-1.9-1.9-2-5.1,0-7.1
			l35.9-36.1C461.2,411.8,462.3,409.7,461.6,409.1z"/>
		<path fill="#333333" d="M407,463.8c0.6,0.6,2.7-0.5,4.7-2.4l36.1-36.2c1.9-1.9,5.1-2,7.1,0l1.1,1.1c1.9,1.9,4.1,1.4,4.8-1.3
			l4.2-15.9c0.7-2.7-0.9-4.2-3.5-3.5l-15.8,4.3c-2.7,0.7-3.2,2.9-1.3,4.8l1.1,1.1c1.9,1.9,2,5.1,0,7.1l-36.1,36.2
			C407.4,461.1,406.3,463.2,407,463.8z"/>
	</g>
	<g>
		<g>
			<g>
				<g>
					<g>
						<path fill="#33C5F3" d="M460.6,408.1c-0.6-0.6-2.7,0.5-4.7,2.4l-35.9,36.1c-1.9,1.9-5.1,2-7.1,0l-1.1-1.1
							c-1.9-1.9-4.1-1.4-4.8,1.3l-4.2,15.8c-0.7,2.7,0.9,4.2,3.5,3.5l15.7-4.3c2.7-0.7,3.2-2.9,1.3-4.8l-1.1-1.1
							c-1.9-1.9-2-5.1,0-7.1l35.9-36.1C460.2,410.8,461.3,408.7,460.6,408.1z"/>
					</g>
				</g>
			</g>
			<g>
				<g>
					<g>
						<path fill="#33C5F3" d="M406,462.8c0.6,0.6,2.7-0.5,4.7-2.4l36.1-36.2c1.9-1.9,5.1-2,7.1,0l1.1,1.1c1.9,1.9,4.1,1.4,4.8-1.3
							l4.2-15.9c0.7-2.7-0.9-4.2-3.5-3.5l-15.8,4.3c-2.7,0.7-3.2,2.9-1.3,4.8l1.1,1.1c1.9,1.9,2,5.1,0,7.1l-36.1,36.2
							C406.4,460.1,405.3,462.2,406,462.8z"/>
					</g>
				</g>
			</g>
		</g>
	</g>
</g>
<g>
	<g>
		<path fill="#333333" d="M128.4,407.4c0.6-0.6,2.7,0.5,4.7,2.4l35.9,36.1c1.9,1.9,5.1,2,7.1,0l1.1-1.1c1.9-1.9,4.1-1.4,4.8,1.3
			l4.2,15.8c0.7,2.7-0.9,4.2-3.5,3.5l-15.7-4.3c-2.7-0.7-3.2-2.9-1.3-4.8l1.1-1.1c1.9-1.9,2-5.1,0-7.1L130.8,412
			C128.9,410.1,127.8,408,128.4,407.4z"/>
		<path fill="#333333" d="M183.1,462.1c-0.6,0.6-2.7-0.5-4.7-2.4l-36.1-36.2c-1.9-1.9-5.1-2-7.1,0l-1.1,1.1
			c-1.9,1.9-4.1,1.4-4.8-1.3l-4.2-15.9c-0.7-2.7,0.9-4.2,3.5-3.5l15.8,4.3c2.7,0.7,3.2,2.9,1.3,4.8l-1.1,1.1c-1.9,1.9-2,5.1,0,7.1
			l36.1,36.2C182.6,459.4,183.7,461.5,183.1,462.1z"/>
	</g>
	<g>
		<g>
			<g>
				<g>
					<g>
						<path fill="#33C5F3" d="M127.4,406.4c0.6-0.6,2.7,0.5,4.7,2.4l35.9,36.1c1.9,1.9,5.1,2,7.1,0l1.1-1.1c1.9-1.9,4.1-1.4,4.8,1.3
							l4.2,15.8c0.7,2.7-0.9,4.2-3.5,3.5l-15.7-4.3c-2.7-0.7-3.2-2.9-1.3-4.8l1.1-1.1c1.9-1.9,2-5.1,0-7.1L129.8,411
							C127.9,409.1,126.8,407,127.4,406.4z"/>
					</g>
				</g>
			</g>
			<g>
				<g>
					<g>
						<path fill="#33C5F3" d="M182.1,461.1c-0.6,0.6-2.7-0.5-4.7-2.4l-36.1-36.2c-1.9-1.9-5.1-2-7.1,0l-1.1,1.1
							c-1.9,1.9-4.1,1.4-4.8-1.3l-4.2-15.9c-0.7-2.7,0.9-4.2,3.5-3.5l15.8,4.3c2.7,0.7,3.2,2.9,1.3,4.8l-1.1,1.1
							c-1.9,1.9-2,5.1,0,7.1l36.1,36.2C181.6,458.4,182.7,460.5,182.1,461.1z"/>
					</g>
				</g>
			</g>
		</g>
	</g>
</g>
</svg>
