<?xml version="1.0" encoding="utf-8"?>
<!-- Generator: Adobe Illustrator 15.0.0, SVG Export Plug-In  -->
<!DOCTYPE svg PUBLIC "-//W3C//DTD SVG 1.1//EN" "http://www.w3.org/Graphics/SVG/1.1/DTD/svg11.dtd" [
	<!ENTITY ns_flows "http://ns.adobe.com/Flows/1.0/">
]>
<svg version="1.1"
	 xmlns="http://www.w3.org/2000/svg" xmlns:xlink="http://www.w3.org/1999/xlink" xmlns:a="http://ns.adobe.com/AdobeSVGViewerExtensions/3.0/"
	 x="0px" y="0px" width="613px" height="415px" viewBox="-0.5 -0.786 613 415" enable-background="new -0.5 -0.786 613 415"
	 xml:space="preserve">
<defs>
</defs>
<path fill="#414042" d="M305.896,93.253c25.751,0,46.627-20.875,46.627-46.624C352.523,20.873,331.647,0,305.896,0
	s-46.625,20.873-46.625,46.629C259.271,72.378,280.146,93.253,305.896,93.253z"/>
<path fill="#414042" d="M396.045,234.212c3.166-26.621,7.28-109.986-61.987-132.932c-1.389-0.465-12.319-4.428-16.547-5.456
	l-11.487,11.822l-11.381-11.817c-0.054,0.01-0.081,0.01-0.121,0.019c-4.33,1.043-15.207,5.006-16.463,5.441
	c-69.652,24.351-65.302,106.55-62.021,132.933h-42.425v31.15h14.878v146.92h28.922v-146.93h29.925
	c-2.223,3.891-3.291,8.459-2.766,13.188l13.777,114.352c1.228,11.084,10.619,19.301,21.546,19.301c0.791,0,1.593-0.048,2.392-0.125
	c11.91-1.336,20.502-12.049,19.18-23.955l-11.992-98.121l16.483-6.738l15.947,6.643l-11.899,98.316
	c-1.299,11.916,7.313,22.618,19.215,23.906c0.805,0.093,1.586,0.142,2.366,0.142c10.93,0,20.335-8.226,21.553-19.327l13.67-114.433
	c0.52-4.7-0.543-9.267-2.761-13.15h30.335v146.914h28.915V265.362h15.09v-31.15H396.045z M258.176,234.216h-5.546
	c-1.17-7.8-5.589-43.361,5.546-69.925V234.216z M306.067,199.922h-0.207l-11.308-15.396l11.308-75.16h0.207l11.188,75.16
	L306.067,199.922z M359.481,234.216h-5.86v-70.164C365.168,190.726,360.65,226.425,359.481,234.216z"/>
<circle fill="#414042" cx="90.834" cy="70.659" r="44.669"/>
<path fill="#414042" d="M193.644,193.349c-53.236,3.944-60.17-14.668-73.145-49.424c-4.53-12.711-17.094-21.305-29.074-24.264
	c0,0-4.696-1.41-9.688-1.313c-4.813,0.11-10.15,1.227-10.15,1.227l-0.131,0.009c-15.037,3.66-31.031,15.887-31.074,34.256
	l-0.096,98.575c-0.026,21.413,14.634,32.836,34.35,32.864c0.286,0,27.546-0.033,27.546-0.033s29.249-0.943,26.575,30.35
	c-1.913,22.402-4.849,47.423-7.184,74.26c-1.036,11.925,7.785,22.45,19.729,23.493c0.644,0.058,1.276,0.079,1.909,0.079
	c11.122,0,20.594-8.498,21.582-19.791c10.244-117.233,5.664-124.404,2.51-131.792c-3.415-6.436-10.149-15.355-45.047-17.79
	l0.036-28.926c12.103,9.268,28.379,13.644,53.142,13.644c6.35,0,13.236-0.282,20.774-0.827c9.538-0.708,16.706-9.042,16.009-18.586
	C211.509,199.808,203.186,192.659,193.644,193.349z"/>
<path fill="#414042" d="M104.104,294.078c-3.599,0-11.915,0-29.602,0c-45.761,0-41.121-41.385-41.121-41.385v-87.111
	c0-9.216-7.466-16.68-16.691-16.68c-9.22,0-16.69,7.464-16.69,16.68v145.179c0,5.434,2.647,10.224,6.678,13.274v87.798h20.021
	v-84.368h60.086v84.368h20.018v-84.65c7.92-1.302,13.98-8.128,13.98-16.412C120.783,301.53,113.33,294.078,104.104,294.078z"/>
<circle fill="#414042" cx="521.17" cy="70.659" r="44.669"/>
<path fill="#414042" d="M483.247,315.595c-2.673-31.293,26.576-30.35,26.576-30.35s27.261,0.033,27.546,0.033
	c19.716-0.028,34.377-11.451,34.35-32.864l-0.096-98.575c-0.043-18.369-16.037-30.596-31.075-34.256l-0.131-0.009
	c0,0-5.336-1.116-10.149-1.227c-4.992-0.097-9.688,1.313-9.688,1.313c-11.979,2.959-24.545,11.553-29.074,24.264
	c-12.974,34.756-19.907,53.368-73.144,49.424c-9.544-0.689-17.864,6.459-18.572,16.009c-0.698,9.545,6.471,17.879,16.009,18.586
	c7.538,0.546,14.425,0.827,20.774,0.827c24.764,0,41.041-4.376,53.142-13.644l0.036,28.926
	c-34.895,2.434-41.632,11.354-45.046,17.789c-3.155,7.389-7.734,14.559,2.509,131.793c0.989,11.294,10.46,19.791,21.582,19.791
	c0.635,0,1.266-0.021,1.91-0.079c11.941-1.043,20.764-11.569,19.727-23.494C488.097,363.018,485.161,337.996,483.247,315.595z"/>
<path fill="#414042" d="M595.312,148.904c-9.226,0-16.69,7.464-16.69,16.679v87.112c0,0,4.64,41.384-41.122,41.384
	c-17.688,0-26.003,0-29.601,0c-9.227,0-16.682,7.452-16.68,16.694c0,8.284,6.063,15.11,13.98,16.412v84.65h20.019v-84.369h60.085
	v84.369h20.021v-87.798c4.029-3.051,6.678-7.84,6.678-13.275v-145.18C612,156.368,604.531,148.904,595.312,148.904z"/>
</svg>
