<?xml version="1.0" encoding="iso-8859-1"?>
<!-- Generator: Adobe Illustrator 19.0.0, SVG Export Plug-In . SVG Version: 6.00 Build 0)  -->
<svg xmlns="http://www.w3.org/2000/svg" xmlns:xlink="http://www.w3.org/1999/xlink" version="1.1" id="Layer_1" x="0px" y="0px" viewBox="0 0 512 512" style="enable-background:new 0 0 512 512;" xml:space="preserve" width="512px" height="512px">
<g>
	<g>
		<g>
			<path d="M13.739,204.553c4.582,1.135,9.207-1.655,10.342-6.229C50.526,91.597,145.894,17.067,256,17.067     c17.289,0,34.466,1.843,51.191,5.495c-0.759,14.362,5.291,23.962,9.515,30.66c1.186,1.886,2.816,4.463,2.978,5.171     c0,35.251-7.125,42.667-8.533,42.667c-15.351,0-41.566,14.319-51.081,32.094c-5.82,10.872-5.35,22.374,1.314,32.375     c4.813,7.219,8.943,15.215,12.928,22.938c8.218,15.915,17.34,33.579,31.351,33.579c2.884,0,5.973-0.751,9.31-2.415     c11.136-5.572,19.302-21.76,27.196-37.427c3.763-7.458,9.336-18.509,12.493-21.325c11.196,1.101,16.35,10.547,23.347,25.711     c4.787,10.368,9.737,21.094,19.243,25.848c16.435,8.226,70.835-0.538,100.992-13.338c0.35-0.154,0.589-0.444,0.913-0.631     c0.503-0.299,0.981-0.58,1.408-0.964c0.41-0.367,0.725-0.777,1.05-1.22c0.333-0.435,0.64-0.862,0.879-1.348     c0.247-0.495,0.384-0.998,0.521-1.527c0.145-0.529,0.273-1.041,0.307-1.587c0.043-0.572-0.034-1.118-0.111-1.698     c-0.043-0.375,0.034-0.734-0.068-1.109c-20.659-76.399-76.8-139.955-150.17-170.001c-4.36-1.792-9.344,0.299-11.127,4.659     c-1.783,4.361,0.299,9.344,4.659,11.128c66.116,27.085,117.146,83.345,137.95,151.364c-31.787,11.554-72.149,14.72-79.573,10.999     c-4.147-2.074-7.825-10.027-11.375-17.724c-6.758-14.635-16.009-34.671-39.305-35.703c-11.622-0.427-18.108,12.621-27.264,30.788     c-5.709,11.307-13.517,26.803-19.601,29.841c-4.412,2.27-11.571-11.563-17.852-23.723c-4.011-7.765-8.559-16.572-13.901-24.576     c-3.183-4.779-3.336-9.506-0.469-14.865c7.134-13.329,27.93-23.074,36.036-23.074c16.99,0,25.6-20.096,25.6-59.733     c0-5.367-2.722-9.685-5.606-14.268c-4.335-6.878-8.823-13.995-6.135-26.274c0.99-4.506-1.784-8.969-6.246-10.103     C298.368,2.611,277.257,0,256,0C138.035,0,35.857,79.863,7.509,194.21C6.383,198.784,9.165,203.418,13.739,204.553z" fill="#FFFFFF"/>
			<path d="M375.117,262.46c-3.132,0.896-7.031,2.014-8.183,2.074c-13.03,0-21.12,9.882-27.622,17.826     c-2.978,3.644-7.484,9.148-9.711,9.148c-0.375,0-0.905-0.162-1.519-0.478c-4.284-2.142-8.772-3.217-13.355-3.217     c-11.042,0-20.591,6.502-22.707,15.471c-1.468,6.229,0.742,14.771,11.366,20.087c16.171,8.081,32.896,16.444,40.448,23.996     c4.83,4.83,13.278,7.603,23.185,7.603c15.138,0,35.251-7.339,42.146-28.006c2.91-8.73,10.069-15.582,16.384-21.623     c7.339-7.023,14.259-13.653,14.362-22.869c0.06-5.402-2.364-10.598-7.211-15.437c-6.69-6.69-15.846-10.086-27.204-10.086     C394.419,256.947,383.266,260.13,375.117,262.46z M422.844,282.283c-0.017,2.039-5.478,7.27-9.097,10.726     c-7.364,7.049-16.529,15.812-20.779,28.561c-4.011,12.041-16.034,16.333-25.95,16.333c-6.434,0-10.266-1.749-11.119-2.603     c-9.515-9.515-26.692-18.108-44.885-27.204c-0.998-0.495-1.647-0.964-2.031-1.297c1.374-1.331,6.699-2.884,11.469-0.495     c3.012,1.502,6.093,2.27,9.148,2.27c10.308-0.008,17.007-8.183,22.921-15.411c5.717-6.98,9.813-11.563,14.413-11.563     c3.328,0,7.33-1.143,12.877-2.731c7.177-2.048,16.998-4.855,25.685-4.855c6.767,0,11.716,1.664,15.138,5.086     C422.46,280.926,422.852,282.018,422.844,282.283z" fill="#FFFFFF"/>
			<path d="M263.586,401.067c-11.819,0-25.754,13.764-30.874,26.129c-3.908,9.429-2.782,18.193,3.072,24.047     c5.658,5.658,14.08,8.9,23.1,8.9c9.028,0,17.451-3.243,23.1-8.9c12.996-12.988,2.833-34.833-8.533-46.199     C270.848,402.441,267.435,401.067,263.586,401.067z M269.918,439.177c-4.881,4.89-17.178,4.89-22.067,0     c-0.742-0.742-0.282-3.004,0.341-4.71c2.705-7.424,10.658-14.626,14.404-16.077C269.158,425.685,272.964,436.139,269.918,439.177     z" fill="#FFFFFF"/>
			<path d="M509.568,220.57c-0.64-4.668-5.001-7.919-9.626-7.279c-4.659,0.64-7.927,4.949-7.279,9.626     c1.51,10.871,2.27,22.008,2.27,33.084c0,130.927-105.856,237.594-236.476,238.925c-35.814-22.844-69.495-50.884-54.349-86.229     c26.027-60.723,1.937-83.217-8.354-92.834c-0.734-0.683-1.408-1.314-1.988-1.894c-2.876-2.876-6.187-4.864-9.105-6.613     c-7.381-4.429-10.138-6.084-5.896-18.79c2.679-8.03,6.187-11.75,10.257-16.051c9.242-9.779,15.778-18.825,15.778-46.379     c0-15.727-7.97-28.262-21.862-34.406c-15.906-7.04-37.086-4.591-48.23,5.564c-6.801,6.178-9.079,14.566-6.272,23.006     c7.347,22.033-8.61,52.497-39.689,75.81c-8.986,6.733-12.006,3.268-13.628,1.399c-9.395-10.829-8.585-40.508-0.819-48.273     c6.409-6.4,4.634-12.672,3.567-15.07C70.042,216.422,16,218.377,9.865,218.675c-0.367,0.017-0.666,0.188-1.024,0.256     c-0.529,0.094-1.033,0.196-1.527,0.384c-0.563,0.213-1.058,0.469-1.562,0.794c-0.418,0.265-0.811,0.538-1.186,0.879     c-0.427,0.393-0.785,0.819-1.118,1.289c-0.307,0.418-0.58,0.845-0.811,1.323c-0.247,0.529-0.401,1.067-0.546,1.638     c-0.077,0.324-0.265,0.589-0.307,0.93C0.529,236.416,0,245.342,0,256c0,118.05,79.932,220.254,194.381,248.533     c0.691,0.171,1.374,0.247,2.057,0.247c3.831,0,7.313-2.603,8.277-6.485c1.135-4.582-1.664-9.207-6.238-10.334     C91.665,461.568,17.067,366.182,17.067,256c0-7.33,0.273-13.773,0.888-20.471c18.893-0.205,34.697,2.21,41.643,4.762     c-11.895,16.538-11.025,52.659,2.628,68.395c9.429,10.871,23.168,11.264,36.762,1.075c37.547-28.16,55.467-65.391,45.645-94.857     c-0.461-1.391-0.725-2.918,1.553-4.983c5.513-5.018,19.456-7.185,29.85-2.586c7.765,3.43,11.699,9.754,11.699,18.799     c0,22.895-4.907,28.083-11.119,34.654c-4.523,4.796-10.172,10.76-14.046,22.383c-8.559,25.694,5.129,33.903,13.303,38.81     c2.278,1.374,4.437,2.662,5.828,4.053c0.708,0.708,1.519,1.468,2.406,2.304c8.96,8.363,25.617,23.927,4.318,73.634     c-23.262,54.281,37.205,92.425,63.019,108.715c1.365,0.853,2.944,1.314,4.557,1.314c141.158,0,256-114.842,256-256     C512,244.139,511.181,232.218,509.568,220.57z" fill="#FFFFFF"/>
		</g>
	</g>
</g>
<g>
</g>
<g>
</g>
<g>
</g>
<g>
</g>
<g>
</g>
<g>
</g>
<g>
</g>
<g>
</g>
<g>
</g>
<g>
</g>
<g>
</g>
<g>
</g>
<g>
</g>
<g>
</g>
<g>
</g>
</svg>
