<?xml version="1.0" encoding="utf-8"?>
<!-- Generator: Adobe Illustrator 15.0.0, SVG Export Plug-In  -->
<!DOCTYPE svg PUBLIC "-//W3C//DTD SVG 1.1//EN" "http://www.w3.org/Graphics/SVG/1.1/DTD/svg11.dtd" [
	<!ENTITY ns_flows "http://ns.adobe.com/Flows/1.0/">
]>
<svg version="1.1"
	 xmlns="http://www.w3.org/2000/svg" xmlns:xlink="http://www.w3.org/1999/xlink" xmlns:a="http://ns.adobe.com/AdobeSVGViewerExtensions/3.0/"
	 x="0px" y="0px" width="523px" height="523px" viewBox="-0.5 -0.5 523 523" enable-background="new -0.5 -0.5 523 523"
	 xml:space="preserve">
<defs>
</defs>
<path fill="#FFFFFF" stroke="#FFFFFF" stroke-width="10" stroke-miterlimit="10" d="M18.739,209.553
	c4.582,1.135,9.207-1.655,10.342-6.229C55.526,96.597,150.895,22.066,261,22.066c17.289,0,34.466,1.844,51.191,5.495
	c-0.759,14.362,5.291,23.962,9.515,30.66c1.187,1.886,2.816,4.463,2.979,5.171c0,35.251-7.125,42.667-8.533,42.667
	c-15.352,0-41.566,14.319-51.081,32.094c-5.82,10.872-5.35,22.374,1.314,32.375c4.813,7.22,8.942,15.216,12.928,22.938
	c8.218,15.915,17.34,33.579,31.351,33.579c2.885,0,5.974-0.751,9.311-2.415c11.136-5.572,19.302-21.76,27.196-37.427
	c3.763-7.458,9.336-18.51,12.492-21.325c11.196,1.101,16.351,10.547,23.348,25.711c4.787,10.368,9.736,21.094,19.243,25.848
	c16.435,8.227,70.835-0.538,100.991-13.338c0.351-0.154,0.59-0.444,0.913-0.631c0.503-0.299,0.981-0.58,1.408-0.964
	c0.41-0.367,0.726-0.777,1.05-1.22c0.333-0.436,0.641-0.862,0.879-1.349c0.247-0.495,0.385-0.998,0.521-1.526
	c0.145-0.529,0.273-1.041,0.307-1.588c0.043-0.571-0.033-1.117-0.11-1.697c-0.043-0.375,0.033-0.734-0.068-1.109
	c-20.659-76.398-76.8-139.955-150.17-170.001c-4.36-1.792-9.344,0.299-11.127,4.659c-1.783,4.361,0.299,9.344,4.659,11.128
	c66.115,27.085,117.146,83.345,137.949,151.364c-31.786,11.554-72.148,14.72-79.572,10.999c-4.147-2.074-7.825-10.027-11.375-17.725
	c-6.758-14.635-16.009-34.671-39.306-35.703c-11.622-0.427-18.107,12.621-27.264,30.788c-5.709,11.308-13.517,26.804-19.601,29.841
	c-4.412,2.271-11.571-11.563-17.853-23.723c-4.011-7.765-8.559-16.572-13.901-24.576c-3.183-4.778-3.336-9.506-0.469-14.864
	c7.134-13.329,27.931-23.074,36.036-23.074c16.99,0,25.601-20.097,25.601-59.733c0-5.367-2.723-9.685-5.606-14.268
	c-4.335-6.878-8.823-13.995-6.135-26.274c0.99-4.506-1.784-8.969-6.246-10.103C303.368,7.61,282.257,5,261,5
	C143.035,5,40.857,84.862,12.509,199.21C11.383,203.784,14.165,208.418,18.739,209.553z"/>
<path fill="#FFFFFF" stroke="#FFFFFF" stroke-width="10" stroke-miterlimit="10" d="M380.117,267.46
	c-3.132,0.896-7.03,2.014-8.183,2.074c-13.03,0-21.12,9.882-27.622,17.825c-2.979,3.645-7.484,9.148-9.711,9.148
	c-0.375,0-0.905-0.162-1.52-0.479c-4.283-2.142-8.771-3.217-13.354-3.217c-11.042,0-20.592,6.502-22.707,15.472
	c-1.469,6.229,0.742,14.771,11.366,20.087c16.171,8.081,32.896,16.443,40.447,23.996c4.83,4.829,13.278,7.603,23.186,7.603
	c15.138,0,35.251-7.339,42.146-28.006c2.91-8.73,10.069-15.582,16.385-21.623c7.339-7.023,14.259-13.653,14.361-22.869
	c0.061-5.402-2.363-10.598-7.211-15.437c-6.689-6.69-15.846-10.087-27.204-10.087C399.42,261.946,388.267,265.13,380.117,267.46z
	 M427.845,287.282c-0.018,2.039-5.479,7.271-9.098,10.727c-7.363,7.049-16.528,15.812-20.778,28.561
	c-4.012,12.041-16.034,16.333-25.95,16.333c-6.434,0-10.266-1.749-11.119-2.603c-9.515-9.515-26.692-18.108-44.885-27.204
	c-0.998-0.495-1.647-0.964-2.031-1.297c1.374-1.331,6.699-2.884,11.469-0.495c3.013,1.502,6.094,2.271,9.148,2.271
	c10.308-0.009,17.007-8.184,22.921-15.411c5.717-6.98,9.813-11.563,14.413-11.563c3.328,0,7.33-1.143,12.877-2.73
	c7.177-2.049,16.998-4.855,25.685-4.855c6.768,0,11.717,1.664,15.139,5.086C427.461,285.926,427.853,287.018,427.845,287.282z"/>
<path fill="#FFFFFF" stroke="#FFFFFF" stroke-width="10" stroke-miterlimit="10" d="M268.586,406.066
	c-11.818,0-25.754,13.765-30.874,26.129c-3.907,9.429-2.781,18.193,3.072,24.047c5.658,5.658,14.08,8.9,23.1,8.9
	c9.028,0,17.451-3.243,23.101-8.9c12.996-12.987,2.833-34.832-8.533-46.198C275.849,407.44,272.436,406.066,268.586,406.066z
	 M274.918,444.177c-4.881,4.89-17.178,4.89-22.066,0c-0.742-0.742-0.282-3.004,0.341-4.71c2.705-7.424,10.658-14.626,14.404-16.077
	C274.158,430.685,277.964,441.139,274.918,444.177z"/>
<path fill="#FFFFFF" stroke="#FFFFFF" stroke-width="10" stroke-miterlimit="10" d="M514.568,225.569
	c-0.64-4.668-5.001-7.919-9.626-7.278c-4.659,0.64-7.927,4.948-7.279,9.626c1.511,10.871,2.271,22.008,2.271,33.084
	c0,130.927-105.856,237.594-236.477,238.925c-35.813-22.844-69.495-50.884-54.349-86.229c26.026-60.723,1.937-83.217-8.354-92.834
	c-0.733-0.683-1.407-1.313-1.987-1.894c-2.876-2.876-6.188-4.864-9.105-6.613c-7.381-4.429-10.138-6.084-5.896-18.79
	c2.679-8.029,6.187-11.75,10.257-16.051c9.242-9.779,15.777-18.825,15.777-46.379c0-15.727-7.97-28.262-21.861-34.406
	c-15.906-7.04-37.086-4.591-48.23,5.564c-6.801,6.178-9.079,14.565-6.271,23.006c7.347,22.033-8.61,52.497-39.689,75.81
	c-8.986,6.733-12.006,3.269-13.628,1.399c-9.395-10.829-8.585-40.508-0.819-48.273c6.409-6.399,4.635-12.672,3.567-15.069
	C75.042,221.422,21,223.377,14.865,223.675c-0.367,0.017-0.666,0.188-1.024,0.256c-0.528,0.094-1.032,0.196-1.526,0.384
	c-0.563,0.213-1.059,0.47-1.563,0.794c-0.418,0.266-0.811,0.538-1.186,0.879c-0.427,0.394-0.785,0.819-1.118,1.289
	c-0.307,0.418-0.58,0.846-0.811,1.323c-0.247,0.529-0.401,1.067-0.547,1.638c-0.076,0.324-0.265,0.59-0.307,0.931
	C5.529,241.416,5,250.342,5,261c0,118.05,79.933,220.254,194.381,248.532c0.691,0.171,1.374,0.247,2.058,0.247
	c3.831,0,7.313-2.603,8.276-6.484c1.136-4.582-1.664-9.207-6.237-10.334C96.665,466.567,22.067,371.182,22.067,261
	c0-7.33,0.272-13.773,0.888-20.472c18.894-0.205,34.697,2.21,41.644,4.763c-11.896,16.538-11.025,52.658,2.628,68.395
	c9.429,10.871,23.168,11.265,36.762,1.075c37.547-28.16,55.467-65.391,45.645-94.857c-0.461-1.391-0.725-2.918,1.554-4.982
	c5.513-5.019,19.456-7.186,29.85-2.586c7.765,3.43,11.699,9.754,11.699,18.799c0,22.895-4.907,28.083-11.119,34.654
	c-4.523,4.796-10.172,10.76-14.046,22.383c-8.559,25.693,5.129,33.902,13.303,38.81c2.278,1.374,4.438,2.662,5.828,4.054
	c0.708,0.708,1.52,1.468,2.406,2.304c8.96,8.363,25.617,23.927,4.317,73.634c-23.262,54.281,37.205,92.425,63.02,108.715
	c1.365,0.853,2.944,1.313,4.557,1.313c141.158,0,256.001-114.841,256.001-255.999C517,249.139,516.182,237.218,514.568,225.569z"/>
</svg>
