<?xml version="1.0" encoding="utf-8"?>
<!-- Generator: Adobe Illustrator 15.0.0, SVG Export Plug-In  -->
<!DOCTYPE svg PUBLIC "-//W3C//DTD SVG 1.1//EN" "http://www.w3.org/Graphics/SVG/1.1/DTD/svg11.dtd" [
	<!ENTITY ns_flows "http://ns.adobe.com/Flows/1.0/">
]>
<svg version="1.1"
	 xmlns="http://www.w3.org/2000/svg" xmlns:xlink="http://www.w3.org/1999/xlink" xmlns:a="http://ns.adobe.com/AdobeSVGViewerExtensions/3.0/"
	 x="0px" y="0px" width="250px" height="287px" viewBox="-0.345 -0.054 250 287" enable-background="new -0.345 -0.054 250 287"
	 xml:space="preserve">
<defs>
</defs>
<path fill="#414042" d="M247.688,276.557c0-11.485-13.228-26.99-31.091-31.525c7.455-5.015,12.6-14.919,12.6-23.844
	c0-12.591-10.208-22.803-22.769-22.803c-12.609,0-22.803,10.212-22.803,22.803c0,8.925,5.154,18.829,12.601,23.844
	c-17.857,4.535-31.091,20.04-31.091,31.525C165.127,290.135,247.688,290.135,247.688,276.557z"/>
<path fill="#414042" d="M55.36,51.589c10.185,0,18.467-11.847,18.467-22.038c0-10.226-8.282-18.483-18.467-18.483
	c-10.199,0-18.491,8.258-18.491,18.483C36.869,39.742,45.161,51.589,55.36,51.589z"/>
<path fill="#414042" d="M249.083,105.914v-78.21c0-7.19-5.849-13.033-13.04-13.033h-50.506V4.888c0-2.705-2.197-4.888-4.903-4.888
	c-2.705,0-4.897,2.19-4.897,4.888v9.783h-50.505c-7.183,0-13.031,5.843-13.031,13.033v40.048L86.9,59.31
	c-1.588-0.562-15.776-5.514-28.844-6.164l-1.748,3.492h-0.033l4.921,38.321l-5.842,10.224l-5.852-10.224l4.918-38.321h-0.039
	l-1.748-3.492c-13.55,0.683-28.332,5.989-28.99,6.222c-0.273,0.103-0.448,0.311-0.69,0.426c-0.449,0.223-0.842,0.446-1.228,0.752
	c-0.394,0.274-0.698,0.585-1.011,0.933c-0.306,0.359-0.563,0.706-0.795,1.114c-0.266,0.435-0.449,0.852-0.609,1.341
	c-0.082,0.256-0.258,0.449-0.321,0.715L7.304,117.248c-0.866,3.94,1.605,7.848,5.545,8.732c0.537,0.094,1.052,0.142,1.597,0.142
	c3.354,0,6.372-2.304,7.11-5.706l10.795-48.537c0.754-0.241,1.604-0.498,2.553-0.764v49.896l-5.828,72.311
	c-0.225,2.793,0.987,5.306,2.906,7.057c-7.938,3.571-13.492,11.491-13.492,20.776c0,8.925,5.146,18.829,12.602,23.844
	C13.227,249.527,0,265.041,0,276.523c0,13.581,82.559,13.581,82.559,0c0-11.482-13.233-26.996-31.09-31.525
	c7.464-5.015,12.608-14.919,12.608-23.844c0-11.299-8.228-20.616-19.022-22.431c0.788-1.188,1.383-2.497,1.51-4.014l5.248-65.36
	c1.093,0.475,2.289,0.755,3.557,0.755c1.253,0,2.449-0.28,3.53-0.755l5.256,65.36c0.387,4.608,4.216,8.065,8.751,8.065
	c0.217,0,0.465-0.006,0.697-0.024c4.821-0.384,8.427-4.613,8.04-9.436l-5.818-72.305V71.124c3.708,1.061,6.214,1.951,6.287,1.981
	c0.045,0.018,0.069,0.018,0.093,0.023c0.043,0.01,0.058,0.019,0.082,0.024l29.938,9.991v22.77c0,7.191,5.857,13.034,13.04,13.034
	h23.724l-20.818,77.697c-0.193,0.737-0.17,1.459-0.04,2.15c-1.38-0.248-2.802-0.426-4.27-0.426
	c-12.584,0-22.793,10.208-22.793,22.802c0,8.923,5.151,18.826,12.615,23.845c-17.866,4.525-31.1,20.039-31.1,31.525
	c0,13.578,82.562,13.578,82.562,0c0-11.486-13.233-27-31.084-31.525c7.454-5.019,12.6-14.922,12.6-23.845
	c0-8.203-4.348-15.323-10.849-19.351c0.857-0.625,1.531-1.54,1.82-2.648l21.486-80.233h16.661v56.863c0,2.688,2.198,4.88,4.895,4.88
	s4.903-2.192,4.903-4.88v-56.863h16.637l21.495,80.233c0.585,2.192,2.566,3.62,4.725,3.62c0.417,0,0.843-0.057,1.263-0.178
	c2.59-0.707,4.154-3.379,3.466-5.987l-20.818-77.694h23.723C243.234,118.948,249.083,113.105,249.083,105.914z M125.24,112.433
	c-3.596,0-6.524-2.923-6.524-6.519V85.08c0.314,0.039,0.625,0.16,0.939,0.16c3.059,0,5.914-1.941,6.935-4.991
	c1.266-3.838-0.797-7.972-4.625-9.245l-3.258-1.084V27.704c0-3.604,2.923-6.516,6.524-6.516h110.802
	c3.605,0,6.525,2.912,6.525,6.516v78.21c0,3.596-2.904,6.519-6.525,6.519H125.24z"/>
</svg>
