<svg xmlns="http://www.w3.org/2000/svg" xmlns:xlink="http://www.w3.org/1999/xlink" viewBox="0 0 582 582"><defs><style>.cls-1{stroke:#2d2d2d;fill:url(#radial-gradient);}.cls-1,.cls-3{stroke-miterlimit:10;}.cls-2{fill:#fff;}.cls-3{fill:none;stroke:#fff;stroke-width:5px;}.cls-4{fill:url(#radial-gradient-2);}.cls-5{fill:#333;}.cls-6{fill:#33c5f3;}</style><radialGradient id="radial-gradient" cx="291" cy="291" r="290.5" gradientUnits="userSpaceOnUse"><stop offset="0" stop-color="#737373"/><stop offset="0.53" stop-color="#5a5a5a"/><stop offset="1" stop-color="#404040"/></radialGradient><radialGradient id="radial-gradient-2" r="104.54" xlink:href="#radial-gradient"/></defs><title>Asset 1</title><g id="Layer_2" data-name="Layer 2"><g id="Layer_1-2" data-name="Layer 1"><circle class="cls-1" cx="291" cy="291" r="290.5"/><circle class="cls-2" cx="291" cy="291" r="110.61"/><line class="cls-3" x1="291" y1="292" x2="85.54" y2="498.42"/><path class="cls-3" d="M488.29,504.23"/><path class="cls-3" d="M291,292"/><line class="cls-3" x1="291" y1="292" x2="496.46" y2="498.42"/><line class="cls-3" x1="497.71" y1="84.58" x2="292.26" y2="291"/><line class="cls-3" x1="84.54" y1="83.58" x2="290" y2="290"/><circle class="cls-4" cx="291" cy="291" r="104.54"/><path class="cls-2" d="M255.79,289.76a6.66,6.66,0,0,1-2.7.53,5.8,5.8,0,0,1-4.44-1.93,8,8,0,0,1-1.78-5.64q0-3.82,1.77-5.75a5.43,5.43,0,0,1,4.12-1.93,7.29,7.29,0,0,1,3,.73v3.07a9.59,9.59,0,0,0-1.62-.72,3.65,3.65,0,0,0-.79-.08,2.88,2.88,0,0,0-2.19,1,5.25,5.25,0,0,0-.94,3.55,5.53,5.53,0,0,0,.91,3.65,2.92,2.92,0,0,0,2.27,1,4.33,4.33,0,0,0,2.39-.87Z"/><path class="cls-2" d="M267.22,285.88a4.25,4.25,0,0,1-1.24,3.24,5.67,5.67,0,0,1-7,0,4.63,4.63,0,0,1-1.23-3.46V275.36H261v9.76a2.66,2.66,0,0,0,.41,1.59,1.33,1.33,0,0,0,1.14.56,1.26,1.26,0,0,0,1.08-.54,2.41,2.41,0,0,0,.39-1.45v-9.91h3.21Z"/><path class="cls-2" d="M276.35,279.49a3.41,3.41,0,0,0-2.41-1.46,1.4,1.4,0,0,0-.92.34,1,1,0,0,0-.41.76q0,.76,1.28,1.8a17.94,17.94,0,0,1,1.91,1.68,4.83,4.83,0,0,1,.91,1.45,4.74,4.74,0,0,1,.34,1.82,4.25,4.25,0,0,1-4.44,4.42,5.2,5.2,0,0,1-3.13-1.14V285.7a4.12,4.12,0,0,0,2.94,1.59,1.67,1.67,0,0,0,1.1-.36A1.11,1.11,0,0,0,274,286a2.56,2.56,0,0,0-1.13-1.75,17.23,17.23,0,0,1-2.36-2.3,6,6,0,0,1-.84-1.52,4.55,4.55,0,0,1-.28-1.55,3.64,3.64,0,0,1,1.19-2.79,4.28,4.28,0,0,1,3-1.1,5.54,5.54,0,0,1,2.78.8Z"/><path class="cls-2" d="M287.33,278.2h-2.86V290h-3.18V278.22h-2.92v-2.86h9Z"/><path class="cls-2" d="M288.47,282.61a11.36,11.36,0,0,1,.67-4.52,5.57,5.57,0,0,1,1.78-2.24,4.7,4.7,0,0,1,2.81-.8,4.76,4.76,0,0,1,2.26.46,5.47,5.47,0,0,1,1.59,1.35,5.58,5.58,0,0,1,1.08,2.19,14.17,14.17,0,0,1,.34,3.46q0,4.42-1.48,6.1a4.85,4.85,0,0,1-3.82,1.68,4.68,4.68,0,0,1-3.81-1.74Q288.47,286.81,288.47,282.61Zm3.35-.89v.94a18.61,18.61,0,0,0,.15,3,2,2,0,0,0,.65,1.15,1.79,1.79,0,0,0,1.2.42,1.55,1.55,0,0,0,1-.41,2.26,2.26,0,0,0,.66-1.25,15.85,15.85,0,0,0,.19-3,16.28,16.28,0,0,0-.16-2.74,2.57,2.57,0,0,0-.64-1.32,1.57,1.57,0,0,0-1.18-.5,1.52,1.52,0,0,0-1.46.87A6.42,6.42,0,0,0,291.82,281.71Z"/><path class="cls-2" d="M314.92,290h-3l-.72-12h0l-2.24,12h-2.26l-2.14-12h0l-.81,12h-3l1.52-14.64h4l1.62,9.64h0l1.76-9.64h4Z"/><path class="cls-2" d="M324.28,290h-7.33V275.36h6.88v2.82H320.1v3h3.19v2.72H320.1v3.23h4.18Z"/><path class="cls-2" d="M335.65,290h-3.24l-2.56-7.24h0V290h-3.18V275.36h4.13a6.6,6.6,0,0,1,2.47.49,3.2,3.2,0,0,1,1.75,1.54,4.78,4.78,0,0,1,.52,2.17,3.92,3.92,0,0,1-.59,2.23,5.28,5.28,0,0,1-1.88,1.59Zm-5.84-8.06q1.55,0,2-.6a2.66,2.66,0,0,0,.41-1.53q0-2.1-1.72-2.1h-.64Z"/><path class="cls-2" d="M253.65,294.36h3.18V309h-3.18Z"/><path class="cls-2" d="M270.16,309h-3.36l-3.74-9.23h0V309h-3.08V294.34h3.47l3.69,9.09h.06v-9.09h3Z"/><path class="cls-2" d="M285.14,297.22h-3.72v3h3.19v2.72h-3.19V309h-3.15V294.36h6.87Z"/><path class="cls-2" d="M286.94,301.61a11.36,11.36,0,0,1,.67-4.52,5.57,5.57,0,0,1,1.78-2.24,4.7,4.7,0,0,1,2.81-.8,4.76,4.76,0,0,1,2.26.46,5.47,5.47,0,0,1,1.59,1.35,5.58,5.58,0,0,1,1.08,2.19,14.17,14.17,0,0,1,.34,3.46q0,4.42-1.48,6.1a4.85,4.85,0,0,1-3.82,1.68,4.68,4.68,0,0,1-3.81-1.74Q286.94,305.81,286.94,301.61Zm3.35-.89v.94a18.61,18.61,0,0,0,.15,3,2,2,0,0,0,.65,1.15,1.79,1.79,0,0,0,1.2.42,1.55,1.55,0,0,0,1-.41,2.26,2.26,0,0,0,.66-1.25,15.85,15.85,0,0,0,.19-3,16.28,16.28,0,0,0-.16-2.74,2.57,2.57,0,0,0-.64-1.32,1.57,1.57,0,0,0-1.18-.5,1.52,1.52,0,0,0-1.46.87A6.42,6.42,0,0,0,290.29,300.71Z"/><path class="cls-2" d="M308.35,308.76a6.66,6.66,0,0,1-2.7.53,5.8,5.8,0,0,1-4.44-1.93,8,8,0,0,1-1.78-5.64q0-3.82,1.77-5.75a5.43,5.43,0,0,1,4.12-1.93,7.29,7.29,0,0,1,3,.73v3.07a9.53,9.53,0,0,0-1.62-.72,3.67,3.67,0,0,0-.79-.08,2.89,2.89,0,0,0-2.19,1,5.25,5.25,0,0,0-.94,3.55,5.53,5.53,0,0,0,.91,3.65,2.93,2.93,0,0,0,2.27,1,4.33,4.33,0,0,0,2.39-.87Z"/><path class="cls-2" d="M319.78,304.88a4.25,4.25,0,0,1-1.24,3.24,5.67,5.67,0,0,1-7,0,4.63,4.63,0,0,1-1.23-3.46V294.36h3.2v9.76a2.66,2.66,0,0,0,.41,1.59,1.33,1.33,0,0,0,1.14.56,1.26,1.26,0,0,0,1.08-.54,2.41,2.41,0,0,0,.39-1.45v-9.91h3.21Z"/><path class="cls-2" d="M328.92,298.49a3.41,3.41,0,0,0-2.41-1.46,1.4,1.4,0,0,0-.92.34,1,1,0,0,0-.41.76q0,.76,1.28,1.8a17.94,17.94,0,0,1,1.91,1.68,4.82,4.82,0,0,1,.91,1.45,4.74,4.74,0,0,1,.34,1.82,4.25,4.25,0,0,1-4.44,4.42,5.21,5.21,0,0,1-3.13-1.14V304.7a4.13,4.13,0,0,0,2.94,1.59,1.67,1.67,0,0,0,1.1-.36,1.11,1.11,0,0,0,.44-.89,2.56,2.56,0,0,0-1.13-1.75A17.23,17.23,0,0,1,323,301a6,6,0,0,1-.84-1.52,4.55,4.55,0,0,1-.28-1.55,3.64,3.64,0,0,1,1.19-2.79,4.28,4.28,0,0,1,3-1.1,5.54,5.54,0,0,1,2.78.8Z"/><path class="cls-2" d="M210.81,94.21a3.92,3.92,0,0,1,1.8,1.44,4.28,4.28,0,0,1,.52,2.24,3.48,3.48,0,0,1-1.12,2.63,3.86,3.86,0,0,1-2.76,1.07H204V86.95h4.51a4.62,4.62,0,0,1,3.13,1,3.36,3.36,0,0,1,1.22,2.67,4.17,4.17,0,0,1-.48,2.13A4,4,0,0,1,210.81,94.21Zm-3.65-1.08h.65a1.68,1.68,0,0,0,1.28-.51,1.91,1.91,0,0,0,.48-1.37,1.75,1.75,0,0,0-2-2h-.41Zm0,6.07.92,0a1.66,1.66,0,0,0,1.27-.5,2,2,0,0,0,.45-1.39,1.73,1.73,0,0,0-2-1.93h-.65Z"/><path class="cls-2" d="M224.56,97.46a4.25,4.25,0,0,1-1.24,3.24,5.67,5.67,0,0,1-7,0,4.63,4.63,0,0,1-1.23-3.46V86.95h3.2v9.76a2.66,2.66,0,0,0,.41,1.59,1.33,1.33,0,0,0,1.14.56,1.26,1.26,0,0,0,1.08-.54,2.41,2.41,0,0,0,.39-1.45V86.95h3.21Z"/><path class="cls-2" d="M233.69,91.07a3.41,3.41,0,0,0-2.41-1.46,1.4,1.4,0,0,0-.92.34,1,1,0,0,0-.41.76q0,.76,1.28,1.8a17.94,17.94,0,0,1,1.91,1.68,4.83,4.83,0,0,1,.91,1.45,4.74,4.74,0,0,1,.34,1.82,4.25,4.25,0,0,1-4.44,4.42,5.2,5.2,0,0,1-3.13-1.14V97.28a4.12,4.12,0,0,0,2.94,1.59,1.67,1.67,0,0,0,1.1-.36,1.11,1.11,0,0,0,.44-.89,2.56,2.56,0,0,0-1.13-1.75,17.23,17.23,0,0,1-2.36-2.3A6,6,0,0,1,227,92a4.55,4.55,0,0,1-.28-1.55,3.64,3.64,0,0,1,1.19-2.79,4.28,4.28,0,0,1,3-1.1,5.54,5.54,0,0,1,2.78.8Z"/><path class="cls-2" d="M236.8,86.95H240v14.64H236.8Z"/><path class="cls-2" d="M253.32,101.58H250l-3.74-9.23h0v9.23h-3.08V86.92h3.47L250.24,96h.06V86.92h3Z"/><path class="cls-2" d="M263.44,101.58h-7.33V86.95H263v2.82h-3.72v3h3.19v2.72h-3.19V98.7h4.18Z"/><path class="cls-2" d="M272.12,91.07a3.41,3.41,0,0,0-2.41-1.46,1.4,1.4,0,0,0-.92.34,1,1,0,0,0-.41.76q0,.76,1.28,1.8a17.94,17.94,0,0,1,1.91,1.68,4.83,4.83,0,0,1,.91,1.45,4.74,4.74,0,0,1,.34,1.82,4.25,4.25,0,0,1-4.44,4.42,5.2,5.2,0,0,1-3.13-1.14V97.28a4.12,4.12,0,0,0,2.94,1.59,1.67,1.67,0,0,0,1.1-.36,1.11,1.11,0,0,0,.44-.89,2.56,2.56,0,0,0-1.13-1.75,17.23,17.23,0,0,1-2.36-2.3A6,6,0,0,1,265.4,92a4.55,4.55,0,0,1-.28-1.55,3.64,3.64,0,0,1,1.19-2.79,4.28,4.28,0,0,1,3-1.1,5.54,5.54,0,0,1,2.78.8Z"/><path class="cls-2" d="M281.39,91.07A3.41,3.41,0,0,0,279,89.61a1.4,1.4,0,0,0-.92.34,1,1,0,0,0-.41.76q0,.76,1.28,1.8a17.94,17.94,0,0,1,1.91,1.68,4.83,4.83,0,0,1,.91,1.45,4.74,4.74,0,0,1,.34,1.82,4.25,4.25,0,0,1-4.44,4.42,5.2,5.2,0,0,1-3.13-1.14V97.28a4.12,4.12,0,0,0,2.94,1.59,1.67,1.67,0,0,0,1.1-.36,1.11,1.11,0,0,0,.44-.89,2.56,2.56,0,0,0-1.13-1.75,17.23,17.23,0,0,1-2.36-2.3,6,6,0,0,1-.84-1.52,4.55,4.55,0,0,1-.28-1.55,3.64,3.64,0,0,1,1.19-2.79,4.28,4.28,0,0,1,3-1.1,5.54,5.54,0,0,1,2.78.8Z"/><path class="cls-2" d="M289.52,86.95h4.12q4.8,0,4.8,4.58a4,4,0,0,1-1.25,3.17,5.11,5.11,0,0,1-3.53,1.12h-.93v5.77h-3.21Zm3.18,6.57h.64a1.64,1.64,0,0,0,1.31-.54,2.26,2.26,0,0,0,.46-1.52q0-2.17-1.68-2.17h-.73Z"/><path class="cls-2" d="M309.46,101.58h-3.24l-2.56-7.24h0v7.24h-3.18V86.95h4.13a6.6,6.6,0,0,1,2.47.49A3.2,3.2,0,0,1,308.79,89a4.78,4.78,0,0,1,.52,2.17,3.92,3.92,0,0,1-.59,2.23A5.28,5.28,0,0,1,306.85,95Zm-5.84-8.06q1.55,0,2-.6a2.66,2.66,0,0,0,.41-1.53q0-2.1-1.72-2.1h-.64Z"/><path class="cls-2" d="M310.86,94.19a11.36,11.36,0,0,1,.67-4.52,5.57,5.57,0,0,1,1.78-2.24,4.7,4.7,0,0,1,2.81-.8,4.76,4.76,0,0,1,2.26.46A5.47,5.47,0,0,1,320,88.44a5.58,5.58,0,0,1,1.08,2.19,14.17,14.17,0,0,1,.34,3.46q0,4.42-1.48,6.1a4.85,4.85,0,0,1-3.82,1.68,4.68,4.68,0,0,1-3.81-1.74Q310.86,98.4,310.86,94.19Zm3.35-.89v.94a18.61,18.61,0,0,0,.15,3,2,2,0,0,0,.65,1.15,1.79,1.79,0,0,0,1.2.42,1.55,1.55,0,0,0,1-.41,2.26,2.26,0,0,0,.66-1.25,15.85,15.85,0,0,0,.19-3,16.28,16.28,0,0,0-.16-2.74,2.57,2.57,0,0,0-.64-1.32,1.57,1.57,0,0,0-1.18-.5,1.52,1.52,0,0,0-1.46.87A6.42,6.42,0,0,0,314.21,93.3Z"/><path class="cls-2" d="M332.27,101.35a6.66,6.66,0,0,1-2.7.53,5.8,5.8,0,0,1-4.44-1.93,8,8,0,0,1-1.78-5.64q0-3.82,1.77-5.75a5.43,5.43,0,0,1,4.12-1.93,7.29,7.29,0,0,1,3,.73v3.07a9.55,9.55,0,0,0-1.62-.72,3.64,3.64,0,0,0-.79-.08,2.89,2.89,0,0,0-2.19,1,5.25,5.25,0,0,0-.94,3.55,5.53,5.53,0,0,0,.91,3.65,2.93,2.93,0,0,0,2.27,1,4.33,4.33,0,0,0,2.39-.87Z"/><path class="cls-2" d="M341.66,101.58h-7.33V86.95h6.88v2.82h-3.72v3h3.19v2.72h-3.19V98.7h4.18Z"/><path class="cls-2" d="M350.33,91.07a3.41,3.41,0,0,0-2.41-1.46,1.4,1.4,0,0,0-.92.34,1,1,0,0,0-.41.76q0,.76,1.28,1.8a17.94,17.94,0,0,1,1.91,1.68,4.82,4.82,0,0,1,.91,1.45,4.74,4.74,0,0,1,.34,1.82,4.25,4.25,0,0,1-4.44,4.42,5.21,5.21,0,0,1-3.13-1.14V97.28a4.13,4.13,0,0,0,2.94,1.59,1.67,1.67,0,0,0,1.1-.36,1.11,1.11,0,0,0,.44-.89,2.56,2.56,0,0,0-1.13-1.75,17.23,17.23,0,0,1-2.36-2.3,6,6,0,0,1-.84-1.52,4.55,4.55,0,0,1-.28-1.55,3.64,3.64,0,0,1,1.19-2.79,4.28,4.28,0,0,1,3-1.1,5.54,5.54,0,0,1,2.78.8Z"/><path class="cls-2" d="M359.61,91.07a3.41,3.41,0,0,0-2.41-1.46,1.4,1.4,0,0,0-.92.34,1,1,0,0,0-.41.76q0,.76,1.28,1.8a17.94,17.94,0,0,1,1.91,1.68,4.82,4.82,0,0,1,.91,1.45,4.74,4.74,0,0,1,.34,1.82,4.25,4.25,0,0,1-4.44,4.42,5.21,5.21,0,0,1-3.13-1.14V97.28a4.13,4.13,0,0,0,2.94,1.59,1.67,1.67,0,0,0,1.1-.36,1.11,1.11,0,0,0,.44-.89,2.56,2.56,0,0,0-1.13-1.75,17.23,17.23,0,0,1-2.36-2.3,6,6,0,0,1-.84-1.52,4.55,4.55,0,0,1-.28-1.55,3.64,3.64,0,0,1,1.19-2.79,4.28,4.28,0,0,1,3-1.1,5.54,5.54,0,0,1,2.78.8Z"/><path class="cls-2" d="M369.76,101.58h-7.33V86.95h6.88v2.82h-3.72v3h3.19v2.72h-3.19V98.7h4.18Z"/><path class="cls-2" d="M378.43,91.07A3.41,3.41,0,0,0,376,89.61a1.4,1.4,0,0,0-.92.34,1,1,0,0,0-.41.76q0,.76,1.28,1.8a17.94,17.94,0,0,1,1.91,1.68,4.82,4.82,0,0,1,.91,1.45,4.74,4.74,0,0,1,.34,1.82,4.25,4.25,0,0,1-4.44,4.42,5.21,5.21,0,0,1-3.13-1.14V97.28a4.13,4.13,0,0,0,2.94,1.59,1.67,1.67,0,0,0,1.1-.36,1.11,1.11,0,0,0,.44-.89,2.56,2.56,0,0,0-1.13-1.75,17.23,17.23,0,0,1-2.36-2.3,6,6,0,0,1-.84-1.52,4.55,4.55,0,0,1-.28-1.55,3.64,3.64,0,0,1,1.19-2.79,4.28,4.28,0,0,1,3-1.1,5.54,5.54,0,0,1,2.78.8Z"/><path class="cls-2" d="M81,278.63a5.38,5.38,0,0,1-1,3.56,3.87,3.87,0,0,1-3.08,1.11,4.46,4.46,0,0,1-1.25-.15,8.54,8.54,0,0,1-1.43-.65v-3.23a1.59,1.59,0,0,1,.36.23,3.39,3.39,0,0,0,1.91.8q1.27,0,1.27-1.87V268.36H81Z"/><path class="cls-2" d="M83.32,275.61a11.35,11.35,0,0,1,.67-4.52,5.57,5.57,0,0,1,1.78-2.24,4.7,4.7,0,0,1,2.81-.8,4.76,4.76,0,0,1,2.26.46,5.47,5.47,0,0,1,1.59,1.35A5.58,5.58,0,0,1,93.51,272a14.17,14.17,0,0,1,.34,3.46q0,4.42-1.48,6.1a4.85,4.85,0,0,1-3.82,1.68,4.67,4.67,0,0,1-3.81-1.74Q83.32,279.81,83.32,275.61Zm3.36-.89v.94a18.77,18.77,0,0,0,.15,3,2,2,0,0,0,.65,1.15,1.79,1.79,0,0,0,1.2.42,1.55,1.55,0,0,0,1-.41,2.26,2.26,0,0,0,.66-1.25,15.85,15.85,0,0,0,.19-3,16.28,16.28,0,0,0-.16-2.74,2.57,2.57,0,0,0-.64-1.32,1.57,1.57,0,0,0-1.18-.5,1.52,1.52,0,0,0-1.46.87A6.42,6.42,0,0,0,86.67,274.71Z"/><path class="cls-2" d="M103.19,275.63a3.91,3.91,0,0,1,1.8,1.44,4.28,4.28,0,0,1,.52,2.24,3.47,3.47,0,0,1-1.12,2.63,3.86,3.86,0,0,1-2.76,1.07H96.36V268.36h4.51a4.62,4.62,0,0,1,3.13,1,3.37,3.37,0,0,1,1.22,2.67,4.17,4.17,0,0,1-.48,2.13A4,4,0,0,1,103.19,275.63Zm-3.65-1.08h.65a1.68,1.68,0,0,0,1.28-.51,1.91,1.91,0,0,0,.48-1.37,1.75,1.75,0,0,0-2-2h-.41Zm0,6.07.92,0a1.66,1.66,0,0,0,1.27-.5,2,2,0,0,0,.45-1.39,1.73,1.73,0,0,0-2-1.93h-.65Z"/><path class="cls-2" d="M114.23,272.49a3.41,3.41,0,0,0-2.41-1.46,1.4,1.4,0,0,0-.92.34,1,1,0,0,0-.41.76q0,.76,1.28,1.8a17.94,17.94,0,0,1,1.91,1.68,4.82,4.82,0,0,1,.91,1.45,4.74,4.74,0,0,1,.34,1.82,4.25,4.25,0,0,1-4.44,4.42,5.21,5.21,0,0,1-3.13-1.14V278.7a4.13,4.13,0,0,0,2.94,1.59,1.67,1.67,0,0,0,1.1-.36,1.11,1.11,0,0,0,.44-.89,2.56,2.56,0,0,0-1.13-1.75,17.23,17.23,0,0,1-2.36-2.3,6,6,0,0,1-.84-1.52,4.55,4.55,0,0,1-.28-1.55,3.64,3.64,0,0,1,1.19-2.79,4.28,4.28,0,0,1,3-1.1,5.54,5.54,0,0,1,2.78.8Z"/><path class="cls-2" d="M100.84,297.61q-.25.32-1.88,1.95l1.64,2.45H97.27l-.53-.8a6.51,6.51,0,0,1-3.47,1.09,4.1,4.1,0,0,1-3-1.2,4,4,0,0,1-1.22-2.94q0-2,2.8-4a7,7,0,0,1-1.38-3.43,2.86,2.86,0,0,1,1-2.24,3.74,3.74,0,0,1,2.57-.9,3.91,3.91,0,0,1,2.65.88,2.87,2.87,0,0,1,1,2.28,5.39,5.39,0,0,1-2.15,3.94l1.86,2.72a20.07,20.07,0,0,0,1.61-1.71Zm-5.57,1.49-2-3A2.38,2.38,0,0,0,92,298a1.92,1.92,0,0,0,1.77,1.72A2.75,2.75,0,0,0,95.27,299.09ZM94,292.68A2,2,0,0,0,95.17,291a1.44,1.44,0,0,0-.28-.92.89.89,0,0,0-.73-.36,1,1,0,0,0-.75.31,1.07,1.07,0,0,0-.31.78A4.61,4.61,0,0,0,94,292.68Z"/><path class="cls-2" d="M30,313.61a11.35,11.35,0,0,1,.67-4.52,5.57,5.57,0,0,1,1.78-2.24,4.7,4.7,0,0,1,2.81-.8,4.77,4.77,0,0,1,2.26.46,5.47,5.47,0,0,1,1.6,1.35A5.59,5.59,0,0,1,40.16,310a14.17,14.17,0,0,1,.34,3.46q0,4.42-1.48,6.1a4.85,4.85,0,0,1-3.82,1.68,4.68,4.68,0,0,1-3.81-1.74Q30,317.81,30,313.61Zm3.36-.89v.94a18.69,18.69,0,0,0,.15,3,2,2,0,0,0,.65,1.15,1.79,1.79,0,0,0,1.19.42,1.54,1.54,0,0,0,1-.41,2.25,2.25,0,0,0,.66-1.25,15.79,15.79,0,0,0,.19-3,16.2,16.2,0,0,0-.16-2.74,2.56,2.56,0,0,0-.64-1.32,1.57,1.57,0,0,0-1.18-.5,1.52,1.52,0,0,0-1.46.87A6.41,6.41,0,0,0,33.32,312.71Z"/><path class="cls-2" d="M52,321H48.79l-2.56-7.24h0V321H43V306.36h4.13a6.59,6.59,0,0,1,2.47.49,3.19,3.19,0,0,1,1.75,1.54,4.77,4.77,0,0,1,.52,2.17,3.92,3.92,0,0,1-.59,2.23,5.29,5.29,0,0,1-1.88,1.59Zm-5.84-8.06q1.55,0,2-.6a2.66,2.66,0,0,0,.41-1.53q0-2.1-1.72-2.1h-.64Z"/><path class="cls-2" d="M64.07,315.09a8.68,8.68,0,0,1-.45,2.41,5.83,5.83,0,0,1-1.73,2.63,4.34,4.34,0,0,1-3,1.16q-5.4,0-5.4-7.73a9.44,9.44,0,0,1,1.41-5.6,4.64,4.64,0,0,1,4-1.94,4.17,4.17,0,0,1,4.51,3.64l-2.79,1.21q-.08-2-1.79-2a1.64,1.64,0,0,0-1.21.46,2.3,2.3,0,0,0-.61,1.28,19,19,0,0,0-.14,2.81,22.1,22.1,0,0,0,.15,3.22,2.27,2.27,0,0,0,.62,1.31,1.72,1.72,0,0,0,1.22.44q1.77,0,1.88-2.91h-2v-2.84h5.29Z"/><path class="cls-2" d="M76.55,321H73.44L73,318.71H69.08L68.54,321H65.43l4.2-14.64h3.23Zm-4-4.65-1.3-6.4h0l-1.5,6.4Z"/><path class="cls-2" d="M88.66,321H85.31l-3.74-9.23h0V321H78.43V306.34H81.9l3.69,9.09h.06v-9.09h3Z"/><path class="cls-2" d="M91.75,306.36h3.18V321H91.75Z"/><path class="cls-2" d="M107,306.36l-5.38,11.78h4.21V321H97.14v-.46l5.19-11.32H97.6v-2.86Z"/><path class="cls-2" d="M119,321H115.9l-.49-2.29h-3.87L111,321H107.9l4.2-14.64h3.23Zm-4-4.65-1.3-6.4h0l-1.5,6.4Z"/><path class="cls-2" d="M127.8,309.2h-2.86V321h-3.18V309.22h-2.92v-2.86h9Z"/><path class="cls-2" d="M130,306.36h3.18V321H130Z"/><path class="cls-2" d="M135.89,313.61a11.36,11.36,0,0,1,.67-4.52,5.57,5.57,0,0,1,1.78-2.24,4.7,4.7,0,0,1,2.81-.8,4.76,4.76,0,0,1,2.26.46,5.47,5.47,0,0,1,1.59,1.35,5.58,5.58,0,0,1,1.08,2.19,14.17,14.17,0,0,1,.34,3.46q0,4.42-1.48,6.1a4.85,4.85,0,0,1-3.82,1.68,4.68,4.68,0,0,1-3.81-1.74Q135.89,317.81,135.89,313.61Zm3.35-.89v.94a18.61,18.61,0,0,0,.15,3,2,2,0,0,0,.65,1.15,1.79,1.79,0,0,0,1.2.42,1.55,1.55,0,0,0,1-.41,2.26,2.26,0,0,0,.66-1.25,15.85,15.85,0,0,0,.19-3,16.28,16.28,0,0,0-.16-2.74,2.57,2.57,0,0,0-.64-1.32,1.57,1.57,0,0,0-1.18-.5,1.52,1.52,0,0,0-1.46.87A6.42,6.42,0,0,0,139.25,312.71Z"/><path class="cls-2" d="M159.07,321h-3.35L152,311.77h0V321h-3.08V306.34h3.47l3.68,9.09h.06v-9.09h3Z"/><path class="cls-2" d="M198.25,483.78h3.18v14.64h-3.18Z"/><path class="cls-2" d="M214.77,498.42h-3.36l-3.74-9.23h0v9.23h-3.08V483.76H208l3.69,9.09h.06v-9.09h3Z"/><path class="cls-2" d="M224.46,486.64h-3.72v3h3.19v2.72h-3.19v6.07h-3.15V483.78h6.88Z"/><path class="cls-2" d="M226.26,491a11.35,11.35,0,0,1,.67-4.52,5.57,5.57,0,0,1,1.78-2.24,4.7,4.7,0,0,1,2.81-.8,4.77,4.77,0,0,1,2.26.46,5.47,5.47,0,0,1,1.6,1.35,5.59,5.59,0,0,1,1.08,2.19,14.17,14.17,0,0,1,.34,3.46q0,4.42-1.48,6.1a4.85,4.85,0,0,1-3.82,1.68,4.68,4.68,0,0,1-3.81-1.74Q226.26,495.23,226.26,491Zm3.36-.89v.94a18.69,18.69,0,0,0,.15,3,2,2,0,0,0,.65,1.15,1.79,1.79,0,0,0,1.19.42,1.54,1.54,0,0,0,1-.41,2.25,2.25,0,0,0,.66-1.25,15.79,15.79,0,0,0,.19-3,16.2,16.2,0,0,0-.16-2.74,2.56,2.56,0,0,0-.64-1.32,1.57,1.57,0,0,0-1.18-.5,1.52,1.52,0,0,0-1.46.87A6.41,6.41,0,0,0,229.61,490.13Z"/><path class="cls-2" d="M248.32,498.42h-3.24l-2.56-7.24h0v7.24H239.3V483.78h4.13a6.59,6.59,0,0,1,2.47.49,3.19,3.19,0,0,1,1.75,1.54,4.77,4.77,0,0,1,.52,2.17,3.92,3.92,0,0,1-.59,2.23,5.29,5.29,0,0,1-1.88,1.59Zm-5.84-8.06q1.55,0,2-.6a2.66,2.66,0,0,0,.41-1.53q0-2.1-1.72-2.1h-.64Z"/><path class="cls-2" d="M264,498.42h-3l-.72-12h0l-2.24,12h-2.26l-2.14-12h0l-.81,12h-3l1.52-14.64h4l1.62,9.64h0l1.76-9.64h4Z"/><path class="cls-2" d="M276.27,498.42h-3.11l-.49-2.29H268.8l-.53,2.29h-3.11l4.2-14.64h3.23Zm-4-4.65-1.3-6.4h0l-1.5,6.4Z"/><path class="cls-2" d="M285.06,486.62H282.2v11.8H279V486.64H276.1v-2.86h9Z"/><path class="cls-2" d="M287.25,483.78h3.18v14.64h-3.18Z"/><path class="cls-2" d="M293.15,491a11.36,11.36,0,0,1,.67-4.52,5.57,5.57,0,0,1,1.78-2.24,4.7,4.7,0,0,1,2.81-.8,4.76,4.76,0,0,1,2.26.46,5.47,5.47,0,0,1,1.59,1.35,5.58,5.58,0,0,1,1.08,2.19,14.17,14.17,0,0,1,.34,3.46q0,4.42-1.48,6.1a4.85,4.85,0,0,1-3.82,1.68,4.68,4.68,0,0,1-3.81-1.74Q293.15,495.23,293.15,491Zm3.35-.89v.94a18.61,18.61,0,0,0,.15,3,2,2,0,0,0,.65,1.15,1.79,1.79,0,0,0,1.2.42,1.55,1.55,0,0,0,1-.41,2.26,2.26,0,0,0,.66-1.25,15.85,15.85,0,0,0,.19-3,16.28,16.28,0,0,0-.16-2.74,2.57,2.57,0,0,0-.64-1.32,1.57,1.57,0,0,0-1.18-.5,1.52,1.52,0,0,0-1.46.87A6.42,6.42,0,0,0,296.5,490.13Z"/><path class="cls-2" d="M316.33,498.42H313l-3.74-9.23h0v9.23H306.1V483.76h3.47l3.68,9.09h.06v-9.09h3Z"/><path class="cls-2" d="M330.87,487.91a3.41,3.41,0,0,0-2.41-1.46,1.4,1.4,0,0,0-.92.34,1,1,0,0,0-.41.76q0,.76,1.28,1.8a17.94,17.94,0,0,1,1.91,1.68,4.82,4.82,0,0,1,.91,1.45,4.74,4.74,0,0,1,.34,1.82,4.25,4.25,0,0,1-4.44,4.42,5.21,5.21,0,0,1-3.13-1.14v-3.46a4.13,4.13,0,0,0,2.94,1.59,1.67,1.67,0,0,0,1.1-.36,1.11,1.11,0,0,0,.44-.89,2.56,2.56,0,0,0-1.13-1.75,17.23,17.23,0,0,1-2.36-2.3,6,6,0,0,1-.84-1.52,4.55,4.55,0,0,1-.28-1.55,3.64,3.64,0,0,1,1.19-2.79,4.28,4.28,0,0,1,3-1.1,5.54,5.54,0,0,1,2.78.8Z"/><path class="cls-2" d="M343.09,483.78l-3.28,8.16v6.48h-3.16V492l-3.81-8.18h3.43l1.88,4.62,1.79-4.62Z"/><path class="cls-2" d="M351.65,487.91a3.41,3.41,0,0,0-2.41-1.46,1.4,1.4,0,0,0-.92.34,1,1,0,0,0-.41.76q0,.76,1.28,1.8a17.94,17.94,0,0,1,1.91,1.68,4.82,4.82,0,0,1,.91,1.45,4.74,4.74,0,0,1,.34,1.82,4.25,4.25,0,0,1-4.44,4.42,5.21,5.21,0,0,1-3.13-1.14v-3.46a4.13,4.13,0,0,0,2.94,1.59,1.67,1.67,0,0,0,1.1-.36,1.11,1.11,0,0,0,.44-.89,2.56,2.56,0,0,0-1.13-1.75,17.23,17.23,0,0,1-2.36-2.3,6,6,0,0,1-.84-1.52,4.55,4.55,0,0,1-.28-1.55,3.64,3.64,0,0,1,1.19-2.79,4.28,4.28,0,0,1,3-1.1,5.54,5.54,0,0,1,2.78.8Z"/><path class="cls-2" d="M362.62,486.62h-2.86v11.8h-3.18V486.64h-2.92v-2.86h9Z"/><path class="cls-2" d="M371.85,498.42h-7.33V483.78h6.88v2.82h-3.72v3h3.19v2.72h-3.19v3.23h4.18Z"/><path class="cls-2" d="M387.61,498.42h-3l-.72-12h0l-2.24,12h-2.26l-2.14-12h0l-.81,12h-3l1.52-14.64h4l1.62,9.64h0l1.76-9.64h4Z"/><path class="cls-2" d="M457,275.63a3.92,3.92,0,0,1,1.8,1.44,4.28,4.28,0,0,1,.52,2.24,3.47,3.47,0,0,1-1.12,2.63,3.86,3.86,0,0,1-2.76,1.07h-5.26V268.36h4.51a4.62,4.62,0,0,1,3.13,1,3.36,3.36,0,0,1,1.22,2.67,4.17,4.17,0,0,1-.48,2.13A4,4,0,0,1,457,275.63Zm-3.65-1.08H454a1.68,1.68,0,0,0,1.28-.51,1.91,1.91,0,0,0,.48-1.37,1.75,1.75,0,0,0-2-2h-.41Zm0,6.07.92,0a1.66,1.66,0,0,0,1.27-.5,2,2,0,0,0,.45-1.39,1.73,1.73,0,0,0-2-1.93h-.65Z"/><path class="cls-2" d="M468.95,283h-7.33V268.36h6.88v2.82h-3.72v3H468v2.72h-3.19v3.23h4.18Z"/><path class="cls-2" d="M478.06,283h-6.87V268.36h3.16v11.75h3.72Z"/><path class="cls-2" d="M480.26,268.36h3.18V283h-3.18Z"/><path class="cls-2" d="M493.84,283H486.5V268.36h6.88v2.82h-3.72v3h3.19v2.72h-3.19v3.23h4.18Z"/><path class="cls-2" d="M503.33,268.36h3.2L502.39,283h-3l-4.2-14.64h3.35l2.37,9.43Z"/><path class="cls-2" d="M515.67,283h-7.34V268.36h6.88v2.82h-3.72v3h3.19v2.72h-3.19v3.23h4.18Z"/><path class="cls-2" d="M524.35,272.49a3.41,3.41,0,0,0-2.41-1.46,1.4,1.4,0,0,0-.92.34,1,1,0,0,0-.41.76q0,.76,1.28,1.8a18,18,0,0,1,1.91,1.68,4.84,4.84,0,0,1,.91,1.45,4.76,4.76,0,0,1,.34,1.82,4.25,4.25,0,0,1-4.44,4.42,5.2,5.2,0,0,1-3.13-1.14V278.7a4.12,4.12,0,0,0,2.94,1.59,1.67,1.67,0,0,0,1.1-.36A1.11,1.11,0,0,0,522,279a2.56,2.56,0,0,0-1.13-1.75,17.25,17.25,0,0,1-2.36-2.3,6,6,0,0,1-.84-1.52,4.57,4.57,0,0,1-.28-1.55,3.64,3.64,0,0,1,1.19-2.79,4.28,4.28,0,0,1,3-1.1,5.54,5.54,0,0,1,2.78.8Z"/><path class="cls-2" d="M493.37,297.61q-.25.32-1.88,1.95l1.64,2.45H489.8l-.53-.8a6.51,6.51,0,0,1-3.47,1.09,4.1,4.1,0,0,1-3-1.2,4,4,0,0,1-1.22-2.94q0-2,2.8-4a7,7,0,0,1-1.38-3.43,2.86,2.86,0,0,1,1-2.24,3.74,3.74,0,0,1,2.57-.9,3.91,3.91,0,0,1,2.65.88,2.87,2.87,0,0,1,1,2.28,5.39,5.39,0,0,1-2.15,3.94l1.86,2.72a20.2,20.2,0,0,0,1.61-1.71Zm-5.57,1.49-2-3a2.38,2.38,0,0,0-1.21,1.83,1.92,1.92,0,0,0,1.77,1.72A2.75,2.75,0,0,0,487.8,299.09Zm-1.26-6.41A2,2,0,0,0,487.7,291a1.44,1.44,0,0,0-.28-.92.89.89,0,0,0-.73-.36,1,1,0,0,0-.75.31,1.07,1.07,0,0,0-.31.78A4.6,4.6,0,0,0,486.54,292.68Z"/><path class="cls-2" d="M446.09,313.63a3.92,3.92,0,0,1,1.8,1.44,4.28,4.28,0,0,1,.52,2.24,3.48,3.48,0,0,1-1.12,2.63,3.86,3.86,0,0,1-2.76,1.07h-5.26V306.36h4.51a4.62,4.62,0,0,1,3.13,1,3.36,3.36,0,0,1,1.22,2.67,4.16,4.16,0,0,1-.48,2.13A4,4,0,0,1,446.09,313.63Zm-3.65-1.08h.65a1.68,1.68,0,0,0,1.28-.51,1.91,1.91,0,0,0,.48-1.37,1.75,1.75,0,0,0-2-2h-.41Zm0,6.07.92,0a1.66,1.66,0,0,0,1.27-.5,2,2,0,0,0,.45-1.39,1.73,1.73,0,0,0-2-1.93h-.65Z"/><path class="cls-2" d="M458,321h-7.33V306.36h6.88v2.82h-3.72v3H457v2.72h-3.19v3.23H458Z"/><path class="cls-2" d="M460.19,306.36h3.18V312h3v-5.59h3.18V321h-3.18v-6.19h-3V321h-3.2Z"/><path class="cls-2" d="M482.49,321h-3.11l-.49-2.29H475l-.53,2.29h-3.11l4.2-14.64h3.23Zm-4-4.65-1.29-6.4h0l-1.5,6.4Z"/><path class="cls-2" d="M490.64,306.36h3.2L489.7,321h-3l-4.2-14.64h3.35l2.37,9.43Z"/><path class="cls-2" d="M495.94,306.36h3.18V321h-3.18Z"/><path class="cls-2" d="M501.84,313.61a11.36,11.36,0,0,1,.67-4.52,5.56,5.56,0,0,1,1.78-2.24,4.7,4.7,0,0,1,2.81-.8,4.77,4.77,0,0,1,2.26.46,5.46,5.46,0,0,1,1.59,1.35A5.6,5.6,0,0,1,512,310a14.22,14.22,0,0,1,.34,3.46q0,4.42-1.48,6.1a4.85,4.85,0,0,1-3.82,1.68,4.68,4.68,0,0,1-3.81-1.74Q501.84,317.81,501.84,313.61Zm3.36-.89v.94a18.77,18.77,0,0,0,.15,3,2,2,0,0,0,.65,1.15,1.79,1.79,0,0,0,1.2.42,1.55,1.55,0,0,0,1-.41,2.26,2.26,0,0,0,.66-1.25,15.85,15.85,0,0,0,.19-3,16.28,16.28,0,0,0-.16-2.74,2.57,2.57,0,0,0-.64-1.32,1.57,1.57,0,0,0-1.18-.5,1.52,1.52,0,0,0-1.46.87A6.4,6.4,0,0,0,505.2,312.71Z"/><path class="cls-2" d="M524.13,316.88a4.25,4.25,0,0,1-1.24,3.24,5.67,5.67,0,0,1-7,0,4.63,4.63,0,0,1-1.23-3.46V306.36h3.2v9.76a2.66,2.66,0,0,0,.41,1.59,1.32,1.32,0,0,0,1.13.56,1.27,1.27,0,0,0,1.08-.54,2.42,2.42,0,0,0,.39-1.45v-9.91h3.21Z"/><path class="cls-2" d="M536,321h-3.24l-2.56-7.24h0V321h-3.18V306.36h4.13a6.6,6.6,0,0,1,2.47.49,3.19,3.19,0,0,1,1.75,1.54,4.77,4.77,0,0,1,.52,2.17,3.93,3.93,0,0,1-.59,2.23,5.29,5.29,0,0,1-1.88,1.59Zm-5.84-8.06q1.55,0,2-.6a2.66,2.66,0,0,0,.41-1.53q0-2.1-1.72-2.1h-.64Z"/><path class="cls-5" d="M173.43,118.39c-.62-.62-2.71.48-4.65,2.42l-35.89,36.06a5,5,0,0,1-7.07,0l-1.11-1.11c-1.95-1.94-4.12-1.35-4.83,1.31l-4.19,15.76c-.71,2.66.89,4.25,3.54,3.53L135,172.12c2.65-.72,3.23-2.89,1.28-4.83l-1.11-1.11a5,5,0,0,1,0-7.07L171,123.05C173,121.1,174,119,173.43,118.39Z"/><path class="cls-5" d="M118.76,173.16c.62.62,2.72-.47,4.66-2.42l36.06-36.23a5,5,0,0,1,7.07,0l1.14,1.14c1.95,1.94,4.12,1.35,4.83-1.31l4.21-15.86c.71-2.66-.89-4.25-3.54-3.53l-15.84,4.29c-2.65.72-3.23,2.89-1.28,4.83l1.14,1.14a5,5,0,0,1,0,7.07l-36.06,36.23C119.21,170.44,118.14,172.54,118.76,173.16Z"/><path class="cls-6" d="M172.43,117.39c-.62-.62-2.71.48-4.65,2.42l-35.89,36.06a5,5,0,0,1-7.07,0l-1.11-1.11c-1.95-1.94-4.12-1.35-4.83,1.31l-4.19,15.76c-.71,2.66.89,4.25,3.54,3.53L134,171.12c2.65-.72,3.23-2.89,1.28-4.83l-1.11-1.11a5,5,0,0,1,0-7.07L170,122.05C172,120.1,173,118,172.43,117.39Z"/><path class="cls-6" d="M117.76,172.16c.62.62,2.72-.47,4.66-2.42l36.06-36.23a5,5,0,0,1,7.07,0l1.14,1.14c1.95,1.94,4.12,1.35,4.83-1.31l4.21-15.86c.71-2.66-.89-4.25-3.54-3.53l-15.84,4.29c-2.65.72-3.23,2.89-1.28,4.83l1.14,1.14a5,5,0,0,1,0,7.07l-36.06,36.23C118.21,169.44,117.14,171.54,117.76,172.16Z"/><path class="cls-5" d="M412.74,116.69c.62-.62,2.71.48,4.65,2.42l35.89,36.06a5,5,0,0,0,7.07,0l1.11-1.11c1.95-1.94,4.12-1.35,4.83,1.31l4.18,15.76c.71,2.66-.89,4.25-3.54,3.53l-15.74-4.26c-2.65-.72-3.23-2.89-1.28-4.83l1.11-1.1a5,5,0,0,0,0-7.07l-35.89-36.06C413.2,119.4,412.12,117.3,412.74,116.69Z"/><path class="cls-5" d="M467.41,171.46c-.62.62-2.72-.47-4.66-2.42l-36.06-36.23a5,5,0,0,0-7.07,0l-1.14,1.14c-1.95,1.94-4.12,1.35-4.83-1.31l-4.21-15.86c-.71-2.66.89-4.25,3.54-3.53l15.84,4.29c2.65.72,3.23,2.89,1.28,4.83L429,123.49a5,5,0,0,0,0,7.07L465,166.79C467,168.74,468,170.84,467.41,171.46Z"/><path class="cls-6" d="M411.74,115.69c.62-.62,2.71.48,4.65,2.42l35.89,36.06a5,5,0,0,0,7.07,0l1.11-1.11c1.95-1.94,4.12-1.35,4.83,1.31l4.18,15.76c.71,2.66-.89,4.25-3.54,3.53l-15.74-4.26c-2.65-.72-3.23-2.89-1.28-4.83l1.11-1.1a5,5,0,0,0,0-7.07l-35.89-36.06C412.2,118.4,411.12,116.3,411.74,115.69Z"/><path class="cls-6" d="M466.41,170.46c-.62.62-2.72-.47-4.66-2.42l-36.06-36.23a5,5,0,0,0-7.07,0l-1.14,1.14c-1.95,1.94-4.12,1.35-4.83-1.31l-4.21-15.86c-.71-2.66.89-4.25,3.54-3.53l15.84,4.29c2.65.72,3.23,2.89,1.28,4.83L428,122.49a5,5,0,0,0,0,7.07L464,165.79C466,167.74,467,169.84,466.41,170.46Z"/><path class="cls-5" d="M461.63,409.07c-.62-.62-2.71.48-4.65,2.42l-35.89,36.06a5,5,0,0,1-7.07,0l-1.11-1.11c-1.95-1.94-4.12-1.35-4.83,1.31l-4.18,15.76c-.71,2.66.89,4.25,3.54,3.53l15.74-4.26c2.65-.72,3.23-2.89,1.28-4.83l-1.11-1.1a5,5,0,0,1,0-7.07l35.89-36.06C461.17,411.78,462.25,409.68,461.63,409.07Z"/><path class="cls-5" d="M407,463.84c.62.62,2.72-.47,4.66-2.42l36.06-36.23a5,5,0,0,1,7.07,0l1.14,1.14c1.95,1.94,4.12,1.35,4.83-1.31l4.21-15.86c.71-2.66-.89-4.25-3.54-3.53l-15.84,4.28c-2.65.72-3.23,2.89-1.28,4.83l1.14,1.14a5,5,0,0,1,0,7.07l-36.06,36.23C407.42,461.12,406.34,463.22,407,463.84Z"/><path class="cls-6" d="M460.63,408.07c-.62-.62-2.71.48-4.65,2.42l-35.89,36.06a5,5,0,0,1-7.07,0l-1.11-1.11c-1.95-1.94-4.12-1.35-4.83,1.31l-4.18,15.76c-.71,2.66.89,4.25,3.54,3.53l15.74-4.26c2.65-.72,3.23-2.89,1.28-4.83l-1.11-1.1a5,5,0,0,1,0-7.07l35.89-36.06C460.17,410.78,461.25,408.68,460.63,408.07Z"/><path class="cls-6" d="M406,462.84c.62.62,2.72-.47,4.66-2.42l36.06-36.23a5,5,0,0,1,7.07,0l1.14,1.14c1.95,1.94,4.12,1.35,4.83-1.31l4.21-15.86c.71-2.66-.89-4.25-3.54-3.53l-15.84,4.28c-2.65.72-3.23,2.89-1.28,4.83l1.14,1.14a5,5,0,0,1,0,7.07l-36.06,36.23C406.42,460.12,405.34,462.22,406,462.84Z"/><path class="cls-5" d="M128.44,407.37c.62-.62,2.71.48,4.65,2.42L169,445.85a5,5,0,0,0,7.07,0l1.11-1.11c1.95-1.94,4.12-1.35,4.83,1.3l4.19,15.76c.71,2.66-.89,4.24-3.54,3.53l-15.74-4.26c-2.65-.72-3.23-2.89-1.28-4.83l1.11-1.1a5,5,0,0,0,0-7.07L130.84,412C128.9,410.08,127.82,408,128.44,407.37Z"/><path class="cls-5" d="M183.11,462.14c-.62.62-2.72-.47-4.66-2.42l-36.06-36.23a5,5,0,0,0-7.07,0l-1.14,1.14c-1.95,1.94-4.12,1.35-4.83-1.31l-4.21-15.86c-.71-2.66.89-4.25,3.54-3.53l15.84,4.28c2.65.72,3.23,2.89,1.28,4.83l-1.14,1.14a5,5,0,0,0,0,7.07l36.06,36.23C182.65,459.42,183.73,461.52,183.11,462.14Z"/><path class="cls-6" d="M127.44,406.37c.62-.62,2.71.48,4.65,2.42L168,444.85a5,5,0,0,0,7.07,0l1.11-1.11c1.95-1.94,4.12-1.35,4.83,1.3l4.19,15.76c.71,2.66-.89,4.24-3.54,3.53l-15.74-4.26c-2.65-.72-3.23-2.89-1.28-4.83l1.11-1.1a5,5,0,0,0,0-7.07L129.84,411C127.9,409.08,126.82,407,127.44,406.37Z"/><path class="cls-6" d="M182.11,461.14c-.62.62-2.72-.47-4.66-2.42l-36.06-36.23a5,5,0,0,0-7.07,0l-1.14,1.14c-1.95,1.94-4.12,1.35-4.83-1.31l-4.21-15.86c-.71-2.66.89-4.25,3.54-3.53l15.84,4.28c2.65.72,3.23,2.89,1.28,4.83l-1.14,1.14a5,5,0,0,0,0,7.07l36.06,36.23C181.65,458.42,182.73,460.52,182.11,461.14Z"/></g></g></svg>